%TF.GenerationSoftware,KiCad,Pcbnew,8.0.2*%
%TF.CreationDate,2024-08-20T22:37:47-04:00*%
%TF.ProjectId,plugnslay,706c7567-6e73-46c6-9179-2e6b69636164,rev?*%
%TF.SameCoordinates,Original*%
%TF.FileFunction,Drillmap*%
%TF.FilePolarity,Positive*%
%FSLAX45Y45*%
G04 Gerber Fmt 4.5, Leading zero omitted, Abs format (unit mm)*
G04 Created by KiCad (PCBNEW 8.0.2) date 2024-08-20 22:37:47*
%MOMM*%
%LPD*%
G01*
G04 APERTURE LIST*
%ADD10C,0.100000*%
%ADD11C,0.200000*%
%ADD12C,0.220000*%
%ADD13C,0.300000*%
G04 APERTURE END LIST*
D10*
X20066000Y-8382000D02*
X20574000Y-8890000D01*
X20574000Y-8890000D02*
X20574000Y-11938000D01*
X20574000Y-11938000D02*
X20066000Y-12446000D01*
X20066000Y-12446000D02*
X7874000Y-12446000D01*
X7874000Y-8382000D02*
X20066000Y-8382000D01*
X7874000Y-12446000D02*
X7366000Y-11938000D01*
X7366000Y-11938000D02*
X7366000Y-8890000D01*
X7366000Y-8890000D02*
X7874000Y-8382000D01*
D11*
X8942400Y-9434800D02*
X9142400Y-9634800D01*
X9142400Y-9434800D02*
X8942400Y-9634800D01*
X8942400Y-10577800D02*
X9142400Y-10777800D01*
X9142400Y-10577800D02*
X8942400Y-10777800D01*
D12*
X13106600Y-9074400D02*
G75*
G02*
X12886600Y-9074400I-110000J0D01*
G01*
X12886600Y-9074400D02*
G75*
G02*
X13106600Y-9074400I110000J0D01*
G01*
X13986600Y-9074400D02*
G75*
G02*
X13766600Y-9074400I-110000J0D01*
G01*
X13766600Y-9074400D02*
G75*
G02*
X13986600Y-9074400I110000J0D01*
G01*
D13*
X9677400Y-10314800D02*
X9677400Y-10614800D01*
X9527400Y-10464800D02*
X9827400Y-10464800D01*
D11*
X7621777Y-12762484D02*
X7621777Y-12562484D01*
X7621777Y-12562484D02*
X7669396Y-12562484D01*
X7669396Y-12562484D02*
X7697967Y-12572008D01*
X7697967Y-12572008D02*
X7717015Y-12591055D01*
X7717015Y-12591055D02*
X7726539Y-12610103D01*
X7726539Y-12610103D02*
X7736062Y-12648198D01*
X7736062Y-12648198D02*
X7736062Y-12676769D01*
X7736062Y-12676769D02*
X7726539Y-12714865D01*
X7726539Y-12714865D02*
X7717015Y-12733912D01*
X7717015Y-12733912D02*
X7697967Y-12752960D01*
X7697967Y-12752960D02*
X7669396Y-12762484D01*
X7669396Y-12762484D02*
X7621777Y-12762484D01*
X7821777Y-12762484D02*
X7821777Y-12629150D01*
X7821777Y-12667246D02*
X7831301Y-12648198D01*
X7831301Y-12648198D02*
X7840824Y-12638674D01*
X7840824Y-12638674D02*
X7859872Y-12629150D01*
X7859872Y-12629150D02*
X7878920Y-12629150D01*
X7945586Y-12762484D02*
X7945586Y-12629150D01*
X7945586Y-12562484D02*
X7936062Y-12572008D01*
X7936062Y-12572008D02*
X7945586Y-12581531D01*
X7945586Y-12581531D02*
X7955110Y-12572008D01*
X7955110Y-12572008D02*
X7945586Y-12562484D01*
X7945586Y-12562484D02*
X7945586Y-12581531D01*
X8069396Y-12762484D02*
X8050348Y-12752960D01*
X8050348Y-12752960D02*
X8040824Y-12733912D01*
X8040824Y-12733912D02*
X8040824Y-12562484D01*
X8174158Y-12762484D02*
X8155110Y-12752960D01*
X8155110Y-12752960D02*
X8145586Y-12733912D01*
X8145586Y-12733912D02*
X8145586Y-12562484D01*
X8402729Y-12762484D02*
X8402729Y-12562484D01*
X8402729Y-12562484D02*
X8469396Y-12705341D01*
X8469396Y-12705341D02*
X8536063Y-12562484D01*
X8536063Y-12562484D02*
X8536063Y-12762484D01*
X8717015Y-12762484D02*
X8717015Y-12657722D01*
X8717015Y-12657722D02*
X8707491Y-12638674D01*
X8707491Y-12638674D02*
X8688444Y-12629150D01*
X8688444Y-12629150D02*
X8650348Y-12629150D01*
X8650348Y-12629150D02*
X8631301Y-12638674D01*
X8717015Y-12752960D02*
X8697967Y-12762484D01*
X8697967Y-12762484D02*
X8650348Y-12762484D01*
X8650348Y-12762484D02*
X8631301Y-12752960D01*
X8631301Y-12752960D02*
X8621777Y-12733912D01*
X8621777Y-12733912D02*
X8621777Y-12714865D01*
X8621777Y-12714865D02*
X8631301Y-12695817D01*
X8631301Y-12695817D02*
X8650348Y-12686293D01*
X8650348Y-12686293D02*
X8697967Y-12686293D01*
X8697967Y-12686293D02*
X8717015Y-12676769D01*
X8812253Y-12629150D02*
X8812253Y-12829150D01*
X8812253Y-12638674D02*
X8831301Y-12629150D01*
X8831301Y-12629150D02*
X8869396Y-12629150D01*
X8869396Y-12629150D02*
X8888444Y-12638674D01*
X8888444Y-12638674D02*
X8897967Y-12648198D01*
X8897967Y-12648198D02*
X8907491Y-12667246D01*
X8907491Y-12667246D02*
X8907491Y-12724388D01*
X8907491Y-12724388D02*
X8897967Y-12743436D01*
X8897967Y-12743436D02*
X8888444Y-12752960D01*
X8888444Y-12752960D02*
X8869396Y-12762484D01*
X8869396Y-12762484D02*
X8831301Y-12762484D01*
X8831301Y-12762484D02*
X8812253Y-12752960D01*
X8993205Y-12743436D02*
X9002729Y-12752960D01*
X9002729Y-12752960D02*
X8993205Y-12762484D01*
X8993205Y-12762484D02*
X8983682Y-12752960D01*
X8983682Y-12752960D02*
X8993205Y-12743436D01*
X8993205Y-12743436D02*
X8993205Y-12762484D01*
X8993205Y-12638674D02*
X9002729Y-12648198D01*
X9002729Y-12648198D02*
X8993205Y-12657722D01*
X8993205Y-12657722D02*
X8983682Y-12648198D01*
X8983682Y-12648198D02*
X8993205Y-12638674D01*
X8993205Y-12638674D02*
X8993205Y-12657722D01*
X7161000Y-12991000D02*
X7361000Y-13191000D01*
X7361000Y-12991000D02*
X7161000Y-13191000D01*
X7612253Y-13001531D02*
X7621777Y-12992008D01*
X7621777Y-12992008D02*
X7640824Y-12982484D01*
X7640824Y-12982484D02*
X7688443Y-12982484D01*
X7688443Y-12982484D02*
X7707491Y-12992008D01*
X7707491Y-12992008D02*
X7717015Y-13001531D01*
X7717015Y-13001531D02*
X7726539Y-13020579D01*
X7726539Y-13020579D02*
X7726539Y-13039627D01*
X7726539Y-13039627D02*
X7717015Y-13068198D01*
X7717015Y-13068198D02*
X7602729Y-13182484D01*
X7602729Y-13182484D02*
X7726539Y-13182484D01*
X7812253Y-13163436D02*
X7821777Y-13172960D01*
X7821777Y-13172960D02*
X7812253Y-13182484D01*
X7812253Y-13182484D02*
X7802729Y-13172960D01*
X7802729Y-13172960D02*
X7812253Y-13163436D01*
X7812253Y-13163436D02*
X7812253Y-13182484D01*
X7945586Y-12982484D02*
X7964634Y-12982484D01*
X7964634Y-12982484D02*
X7983682Y-12992008D01*
X7983682Y-12992008D02*
X7993205Y-13001531D01*
X7993205Y-13001531D02*
X8002729Y-13020579D01*
X8002729Y-13020579D02*
X8012253Y-13058674D01*
X8012253Y-13058674D02*
X8012253Y-13106293D01*
X8012253Y-13106293D02*
X8002729Y-13144388D01*
X8002729Y-13144388D02*
X7993205Y-13163436D01*
X7993205Y-13163436D02*
X7983682Y-13172960D01*
X7983682Y-13172960D02*
X7964634Y-13182484D01*
X7964634Y-13182484D02*
X7945586Y-13182484D01*
X7945586Y-13182484D02*
X7926539Y-13172960D01*
X7926539Y-13172960D02*
X7917015Y-13163436D01*
X7917015Y-13163436D02*
X7907491Y-13144388D01*
X7907491Y-13144388D02*
X7897967Y-13106293D01*
X7897967Y-13106293D02*
X7897967Y-13058674D01*
X7897967Y-13058674D02*
X7907491Y-13020579D01*
X7907491Y-13020579D02*
X7917015Y-13001531D01*
X7917015Y-13001531D02*
X7926539Y-12992008D01*
X7926539Y-12992008D02*
X7945586Y-12982484D01*
X8136062Y-12982484D02*
X8155110Y-12982484D01*
X8155110Y-12982484D02*
X8174158Y-12992008D01*
X8174158Y-12992008D02*
X8183682Y-13001531D01*
X8183682Y-13001531D02*
X8193205Y-13020579D01*
X8193205Y-13020579D02*
X8202729Y-13058674D01*
X8202729Y-13058674D02*
X8202729Y-13106293D01*
X8202729Y-13106293D02*
X8193205Y-13144388D01*
X8193205Y-13144388D02*
X8183682Y-13163436D01*
X8183682Y-13163436D02*
X8174158Y-13172960D01*
X8174158Y-13172960D02*
X8155110Y-13182484D01*
X8155110Y-13182484D02*
X8136062Y-13182484D01*
X8136062Y-13182484D02*
X8117015Y-13172960D01*
X8117015Y-13172960D02*
X8107491Y-13163436D01*
X8107491Y-13163436D02*
X8097967Y-13144388D01*
X8097967Y-13144388D02*
X8088443Y-13106293D01*
X8088443Y-13106293D02*
X8088443Y-13058674D01*
X8088443Y-13058674D02*
X8097967Y-13020579D01*
X8097967Y-13020579D02*
X8107491Y-13001531D01*
X8107491Y-13001531D02*
X8117015Y-12992008D01*
X8117015Y-12992008D02*
X8136062Y-12982484D01*
X8326539Y-12982484D02*
X8345586Y-12982484D01*
X8345586Y-12982484D02*
X8364634Y-12992008D01*
X8364634Y-12992008D02*
X8374158Y-13001531D01*
X8374158Y-13001531D02*
X8383682Y-13020579D01*
X8383682Y-13020579D02*
X8393205Y-13058674D01*
X8393205Y-13058674D02*
X8393205Y-13106293D01*
X8393205Y-13106293D02*
X8383682Y-13144388D01*
X8383682Y-13144388D02*
X8374158Y-13163436D01*
X8374158Y-13163436D02*
X8364634Y-13172960D01*
X8364634Y-13172960D02*
X8345586Y-13182484D01*
X8345586Y-13182484D02*
X8326539Y-13182484D01*
X8326539Y-13182484D02*
X8307491Y-13172960D01*
X8307491Y-13172960D02*
X8297967Y-13163436D01*
X8297967Y-13163436D02*
X8288443Y-13144388D01*
X8288443Y-13144388D02*
X8278920Y-13106293D01*
X8278920Y-13106293D02*
X8278920Y-13058674D01*
X8278920Y-13058674D02*
X8288443Y-13020579D01*
X8288443Y-13020579D02*
X8297967Y-13001531D01*
X8297967Y-13001531D02*
X8307491Y-12992008D01*
X8307491Y-12992008D02*
X8326539Y-12982484D01*
X8478920Y-13182484D02*
X8478920Y-13049150D01*
X8478920Y-13068198D02*
X8488444Y-13058674D01*
X8488444Y-13058674D02*
X8507491Y-13049150D01*
X8507491Y-13049150D02*
X8536063Y-13049150D01*
X8536063Y-13049150D02*
X8555110Y-13058674D01*
X8555110Y-13058674D02*
X8564634Y-13077722D01*
X8564634Y-13077722D02*
X8564634Y-13182484D01*
X8564634Y-13077722D02*
X8574158Y-13058674D01*
X8574158Y-13058674D02*
X8593205Y-13049150D01*
X8593205Y-13049150D02*
X8621777Y-13049150D01*
X8621777Y-13049150D02*
X8640825Y-13058674D01*
X8640825Y-13058674D02*
X8650348Y-13077722D01*
X8650348Y-13077722D02*
X8650348Y-13182484D01*
X8745586Y-13182484D02*
X8745586Y-13049150D01*
X8745586Y-13068198D02*
X8755110Y-13058674D01*
X8755110Y-13058674D02*
X8774158Y-13049150D01*
X8774158Y-13049150D02*
X8802729Y-13049150D01*
X8802729Y-13049150D02*
X8821777Y-13058674D01*
X8821777Y-13058674D02*
X8831301Y-13077722D01*
X8831301Y-13077722D02*
X8831301Y-13182484D01*
X8831301Y-13077722D02*
X8840825Y-13058674D01*
X8840825Y-13058674D02*
X8859872Y-13049150D01*
X8859872Y-13049150D02*
X8888444Y-13049150D01*
X8888444Y-13049150D02*
X8907491Y-13058674D01*
X8907491Y-13058674D02*
X8917015Y-13077722D01*
X8917015Y-13077722D02*
X8917015Y-13182484D01*
X9307491Y-12972960D02*
X9136063Y-13230103D01*
X9564634Y-12982484D02*
X9583682Y-12982484D01*
X9583682Y-12982484D02*
X9602729Y-12992008D01*
X9602729Y-12992008D02*
X9612253Y-13001531D01*
X9612253Y-13001531D02*
X9621777Y-13020579D01*
X9621777Y-13020579D02*
X9631301Y-13058674D01*
X9631301Y-13058674D02*
X9631301Y-13106293D01*
X9631301Y-13106293D02*
X9621777Y-13144388D01*
X9621777Y-13144388D02*
X9612253Y-13163436D01*
X9612253Y-13163436D02*
X9602729Y-13172960D01*
X9602729Y-13172960D02*
X9583682Y-13182484D01*
X9583682Y-13182484D02*
X9564634Y-13182484D01*
X9564634Y-13182484D02*
X9545587Y-13172960D01*
X9545587Y-13172960D02*
X9536063Y-13163436D01*
X9536063Y-13163436D02*
X9526539Y-13144388D01*
X9526539Y-13144388D02*
X9517015Y-13106293D01*
X9517015Y-13106293D02*
X9517015Y-13058674D01*
X9517015Y-13058674D02*
X9526539Y-13020579D01*
X9526539Y-13020579D02*
X9536063Y-13001531D01*
X9536063Y-13001531D02*
X9545587Y-12992008D01*
X9545587Y-12992008D02*
X9564634Y-12982484D01*
X9717015Y-13163436D02*
X9726539Y-13172960D01*
X9726539Y-13172960D02*
X9717015Y-13182484D01*
X9717015Y-13182484D02*
X9707491Y-13172960D01*
X9707491Y-13172960D02*
X9717015Y-13163436D01*
X9717015Y-13163436D02*
X9717015Y-13182484D01*
X9850348Y-12982484D02*
X9869396Y-12982484D01*
X9869396Y-12982484D02*
X9888444Y-12992008D01*
X9888444Y-12992008D02*
X9897968Y-13001531D01*
X9897968Y-13001531D02*
X9907491Y-13020579D01*
X9907491Y-13020579D02*
X9917015Y-13058674D01*
X9917015Y-13058674D02*
X9917015Y-13106293D01*
X9917015Y-13106293D02*
X9907491Y-13144388D01*
X9907491Y-13144388D02*
X9897968Y-13163436D01*
X9897968Y-13163436D02*
X9888444Y-13172960D01*
X9888444Y-13172960D02*
X9869396Y-13182484D01*
X9869396Y-13182484D02*
X9850348Y-13182484D01*
X9850348Y-13182484D02*
X9831301Y-13172960D01*
X9831301Y-13172960D02*
X9821777Y-13163436D01*
X9821777Y-13163436D02*
X9812253Y-13144388D01*
X9812253Y-13144388D02*
X9802729Y-13106293D01*
X9802729Y-13106293D02*
X9802729Y-13058674D01*
X9802729Y-13058674D02*
X9812253Y-13020579D01*
X9812253Y-13020579D02*
X9821777Y-13001531D01*
X9821777Y-13001531D02*
X9831301Y-12992008D01*
X9831301Y-12992008D02*
X9850348Y-12982484D01*
X9983682Y-12982484D02*
X10117015Y-12982484D01*
X10117015Y-12982484D02*
X10031301Y-13182484D01*
X10221777Y-13068198D02*
X10202729Y-13058674D01*
X10202729Y-13058674D02*
X10193206Y-13049150D01*
X10193206Y-13049150D02*
X10183682Y-13030103D01*
X10183682Y-13030103D02*
X10183682Y-13020579D01*
X10183682Y-13020579D02*
X10193206Y-13001531D01*
X10193206Y-13001531D02*
X10202729Y-12992008D01*
X10202729Y-12992008D02*
X10221777Y-12982484D01*
X10221777Y-12982484D02*
X10259872Y-12982484D01*
X10259872Y-12982484D02*
X10278920Y-12992008D01*
X10278920Y-12992008D02*
X10288444Y-13001531D01*
X10288444Y-13001531D02*
X10297968Y-13020579D01*
X10297968Y-13020579D02*
X10297968Y-13030103D01*
X10297968Y-13030103D02*
X10288444Y-13049150D01*
X10288444Y-13049150D02*
X10278920Y-13058674D01*
X10278920Y-13058674D02*
X10259872Y-13068198D01*
X10259872Y-13068198D02*
X10221777Y-13068198D01*
X10221777Y-13068198D02*
X10202729Y-13077722D01*
X10202729Y-13077722D02*
X10193206Y-13087246D01*
X10193206Y-13087246D02*
X10183682Y-13106293D01*
X10183682Y-13106293D02*
X10183682Y-13144388D01*
X10183682Y-13144388D02*
X10193206Y-13163436D01*
X10193206Y-13163436D02*
X10202729Y-13172960D01*
X10202729Y-13172960D02*
X10221777Y-13182484D01*
X10221777Y-13182484D02*
X10259872Y-13182484D01*
X10259872Y-13182484D02*
X10278920Y-13172960D01*
X10278920Y-13172960D02*
X10288444Y-13163436D01*
X10288444Y-13163436D02*
X10297968Y-13144388D01*
X10297968Y-13144388D02*
X10297968Y-13106293D01*
X10297968Y-13106293D02*
X10288444Y-13087246D01*
X10288444Y-13087246D02*
X10278920Y-13077722D01*
X10278920Y-13077722D02*
X10259872Y-13068198D01*
X10364634Y-12982484D02*
X10497968Y-12982484D01*
X10497968Y-12982484D02*
X10412253Y-13182484D01*
X10564634Y-12982484D02*
X10564634Y-13020579D01*
X10640825Y-12982484D02*
X10640825Y-13020579D01*
X10936063Y-13258674D02*
X10926539Y-13249150D01*
X10926539Y-13249150D02*
X10907491Y-13220579D01*
X10907491Y-13220579D02*
X10897968Y-13201531D01*
X10897968Y-13201531D02*
X10888444Y-13172960D01*
X10888444Y-13172960D02*
X10878920Y-13125341D01*
X10878920Y-13125341D02*
X10878920Y-13087246D01*
X10878920Y-13087246D02*
X10888444Y-13039627D01*
X10888444Y-13039627D02*
X10897968Y-13011055D01*
X10897968Y-13011055D02*
X10907491Y-12992008D01*
X10907491Y-12992008D02*
X10926539Y-12963436D01*
X10926539Y-12963436D02*
X10936063Y-12953912D01*
X11002730Y-13001531D02*
X11012253Y-12992008D01*
X11012253Y-12992008D02*
X11031301Y-12982484D01*
X11031301Y-12982484D02*
X11078920Y-12982484D01*
X11078920Y-12982484D02*
X11097968Y-12992008D01*
X11097968Y-12992008D02*
X11107491Y-13001531D01*
X11107491Y-13001531D02*
X11117015Y-13020579D01*
X11117015Y-13020579D02*
X11117015Y-13039627D01*
X11117015Y-13039627D02*
X11107491Y-13068198D01*
X11107491Y-13068198D02*
X10993206Y-13182484D01*
X10993206Y-13182484D02*
X11117015Y-13182484D01*
X11355110Y-13182484D02*
X11355110Y-12982484D01*
X11440825Y-13182484D02*
X11440825Y-13077722D01*
X11440825Y-13077722D02*
X11431301Y-13058674D01*
X11431301Y-13058674D02*
X11412253Y-13049150D01*
X11412253Y-13049150D02*
X11383682Y-13049150D01*
X11383682Y-13049150D02*
X11364634Y-13058674D01*
X11364634Y-13058674D02*
X11355110Y-13068198D01*
X11564634Y-13182484D02*
X11545587Y-13172960D01*
X11545587Y-13172960D02*
X11536063Y-13163436D01*
X11536063Y-13163436D02*
X11526539Y-13144388D01*
X11526539Y-13144388D02*
X11526539Y-13087246D01*
X11526539Y-13087246D02*
X11536063Y-13068198D01*
X11536063Y-13068198D02*
X11545587Y-13058674D01*
X11545587Y-13058674D02*
X11564634Y-13049150D01*
X11564634Y-13049150D02*
X11593206Y-13049150D01*
X11593206Y-13049150D02*
X11612253Y-13058674D01*
X11612253Y-13058674D02*
X11621777Y-13068198D01*
X11621777Y-13068198D02*
X11631301Y-13087246D01*
X11631301Y-13087246D02*
X11631301Y-13144388D01*
X11631301Y-13144388D02*
X11621777Y-13163436D01*
X11621777Y-13163436D02*
X11612253Y-13172960D01*
X11612253Y-13172960D02*
X11593206Y-13182484D01*
X11593206Y-13182484D02*
X11564634Y-13182484D01*
X11745587Y-13182484D02*
X11726539Y-13172960D01*
X11726539Y-13172960D02*
X11717015Y-13153912D01*
X11717015Y-13153912D02*
X11717015Y-12982484D01*
X11897968Y-13172960D02*
X11878920Y-13182484D01*
X11878920Y-13182484D02*
X11840825Y-13182484D01*
X11840825Y-13182484D02*
X11821777Y-13172960D01*
X11821777Y-13172960D02*
X11812253Y-13153912D01*
X11812253Y-13153912D02*
X11812253Y-13077722D01*
X11812253Y-13077722D02*
X11821777Y-13058674D01*
X11821777Y-13058674D02*
X11840825Y-13049150D01*
X11840825Y-13049150D02*
X11878920Y-13049150D01*
X11878920Y-13049150D02*
X11897968Y-13058674D01*
X11897968Y-13058674D02*
X11907491Y-13077722D01*
X11907491Y-13077722D02*
X11907491Y-13096769D01*
X11907491Y-13096769D02*
X11812253Y-13115817D01*
X11983682Y-13172960D02*
X12002730Y-13182484D01*
X12002730Y-13182484D02*
X12040825Y-13182484D01*
X12040825Y-13182484D02*
X12059872Y-13172960D01*
X12059872Y-13172960D02*
X12069396Y-13153912D01*
X12069396Y-13153912D02*
X12069396Y-13144388D01*
X12069396Y-13144388D02*
X12059872Y-13125341D01*
X12059872Y-13125341D02*
X12040825Y-13115817D01*
X12040825Y-13115817D02*
X12012253Y-13115817D01*
X12012253Y-13115817D02*
X11993206Y-13106293D01*
X11993206Y-13106293D02*
X11983682Y-13087246D01*
X11983682Y-13087246D02*
X11983682Y-13077722D01*
X11983682Y-13077722D02*
X11993206Y-13058674D01*
X11993206Y-13058674D02*
X12012253Y-13049150D01*
X12012253Y-13049150D02*
X12040825Y-13049150D01*
X12040825Y-13049150D02*
X12059872Y-13058674D01*
X12136063Y-13258674D02*
X12145587Y-13249150D01*
X12145587Y-13249150D02*
X12164634Y-13220579D01*
X12164634Y-13220579D02*
X12174158Y-13201531D01*
X12174158Y-13201531D02*
X12183682Y-13172960D01*
X12183682Y-13172960D02*
X12193206Y-13125341D01*
X12193206Y-13125341D02*
X12193206Y-13087246D01*
X12193206Y-13087246D02*
X12183682Y-13039627D01*
X12183682Y-13039627D02*
X12174158Y-13011055D01*
X12174158Y-13011055D02*
X12164634Y-12992008D01*
X12164634Y-12992008D02*
X12145587Y-12963436D01*
X12145587Y-12963436D02*
X12136063Y-12953912D01*
X12497968Y-13258674D02*
X12488444Y-13249150D01*
X12488444Y-13249150D02*
X12469396Y-13220579D01*
X12469396Y-13220579D02*
X12459872Y-13201531D01*
X12459872Y-13201531D02*
X12450349Y-13172960D01*
X12450349Y-13172960D02*
X12440825Y-13125341D01*
X12440825Y-13125341D02*
X12440825Y-13087246D01*
X12440825Y-13087246D02*
X12450349Y-13039627D01*
X12450349Y-13039627D02*
X12459872Y-13011055D01*
X12459872Y-13011055D02*
X12469396Y-12992008D01*
X12469396Y-12992008D02*
X12488444Y-12963436D01*
X12488444Y-12963436D02*
X12497968Y-12953912D01*
X12574158Y-13049150D02*
X12574158Y-13182484D01*
X12574158Y-13068198D02*
X12583682Y-13058674D01*
X12583682Y-13058674D02*
X12602730Y-13049150D01*
X12602730Y-13049150D02*
X12631301Y-13049150D01*
X12631301Y-13049150D02*
X12650349Y-13058674D01*
X12650349Y-13058674D02*
X12659872Y-13077722D01*
X12659872Y-13077722D02*
X12659872Y-13182484D01*
X12783682Y-13182484D02*
X12764634Y-13172960D01*
X12764634Y-13172960D02*
X12755111Y-13163436D01*
X12755111Y-13163436D02*
X12745587Y-13144388D01*
X12745587Y-13144388D02*
X12745587Y-13087246D01*
X12745587Y-13087246D02*
X12755111Y-13068198D01*
X12755111Y-13068198D02*
X12764634Y-13058674D01*
X12764634Y-13058674D02*
X12783682Y-13049150D01*
X12783682Y-13049150D02*
X12812253Y-13049150D01*
X12812253Y-13049150D02*
X12831301Y-13058674D01*
X12831301Y-13058674D02*
X12840825Y-13068198D01*
X12840825Y-13068198D02*
X12850349Y-13087246D01*
X12850349Y-13087246D02*
X12850349Y-13144388D01*
X12850349Y-13144388D02*
X12840825Y-13163436D01*
X12840825Y-13163436D02*
X12831301Y-13172960D01*
X12831301Y-13172960D02*
X12812253Y-13182484D01*
X12812253Y-13182484D02*
X12783682Y-13182484D01*
X12907492Y-13049150D02*
X12983682Y-13049150D01*
X12936063Y-12982484D02*
X12936063Y-13153912D01*
X12936063Y-13153912D02*
X12945587Y-13172960D01*
X12945587Y-13172960D02*
X12964634Y-13182484D01*
X12964634Y-13182484D02*
X12983682Y-13182484D01*
X13202730Y-13049150D02*
X13202730Y-13249150D01*
X13202730Y-13058674D02*
X13221777Y-13049150D01*
X13221777Y-13049150D02*
X13259873Y-13049150D01*
X13259873Y-13049150D02*
X13278920Y-13058674D01*
X13278920Y-13058674D02*
X13288444Y-13068198D01*
X13288444Y-13068198D02*
X13297968Y-13087246D01*
X13297968Y-13087246D02*
X13297968Y-13144388D01*
X13297968Y-13144388D02*
X13288444Y-13163436D01*
X13288444Y-13163436D02*
X13278920Y-13172960D01*
X13278920Y-13172960D02*
X13259873Y-13182484D01*
X13259873Y-13182484D02*
X13221777Y-13182484D01*
X13221777Y-13182484D02*
X13202730Y-13172960D01*
X13412253Y-13182484D02*
X13393206Y-13172960D01*
X13393206Y-13172960D02*
X13383682Y-13153912D01*
X13383682Y-13153912D02*
X13383682Y-12982484D01*
X13574158Y-13182484D02*
X13574158Y-13077722D01*
X13574158Y-13077722D02*
X13564634Y-13058674D01*
X13564634Y-13058674D02*
X13545587Y-13049150D01*
X13545587Y-13049150D02*
X13507492Y-13049150D01*
X13507492Y-13049150D02*
X13488444Y-13058674D01*
X13574158Y-13172960D02*
X13555111Y-13182484D01*
X13555111Y-13182484D02*
X13507492Y-13182484D01*
X13507492Y-13182484D02*
X13488444Y-13172960D01*
X13488444Y-13172960D02*
X13478920Y-13153912D01*
X13478920Y-13153912D02*
X13478920Y-13134865D01*
X13478920Y-13134865D02*
X13488444Y-13115817D01*
X13488444Y-13115817D02*
X13507492Y-13106293D01*
X13507492Y-13106293D02*
X13555111Y-13106293D01*
X13555111Y-13106293D02*
X13574158Y-13096769D01*
X13640825Y-13049150D02*
X13717015Y-13049150D01*
X13669396Y-12982484D02*
X13669396Y-13153912D01*
X13669396Y-13153912D02*
X13678920Y-13172960D01*
X13678920Y-13172960D02*
X13697968Y-13182484D01*
X13697968Y-13182484D02*
X13717015Y-13182484D01*
X13859873Y-13172960D02*
X13840825Y-13182484D01*
X13840825Y-13182484D02*
X13802730Y-13182484D01*
X13802730Y-13182484D02*
X13783682Y-13172960D01*
X13783682Y-13172960D02*
X13774158Y-13153912D01*
X13774158Y-13153912D02*
X13774158Y-13077722D01*
X13774158Y-13077722D02*
X13783682Y-13058674D01*
X13783682Y-13058674D02*
X13802730Y-13049150D01*
X13802730Y-13049150D02*
X13840825Y-13049150D01*
X13840825Y-13049150D02*
X13859873Y-13058674D01*
X13859873Y-13058674D02*
X13869396Y-13077722D01*
X13869396Y-13077722D02*
X13869396Y-13096769D01*
X13869396Y-13096769D02*
X13774158Y-13115817D01*
X14040825Y-13182484D02*
X14040825Y-12982484D01*
X14040825Y-13172960D02*
X14021777Y-13182484D01*
X14021777Y-13182484D02*
X13983682Y-13182484D01*
X13983682Y-13182484D02*
X13964634Y-13172960D01*
X13964634Y-13172960D02*
X13955111Y-13163436D01*
X13955111Y-13163436D02*
X13945587Y-13144388D01*
X13945587Y-13144388D02*
X13945587Y-13087246D01*
X13945587Y-13087246D02*
X13955111Y-13068198D01*
X13955111Y-13068198D02*
X13964634Y-13058674D01*
X13964634Y-13058674D02*
X13983682Y-13049150D01*
X13983682Y-13049150D02*
X14021777Y-13049150D01*
X14021777Y-13049150D02*
X14040825Y-13058674D01*
X14117015Y-13258674D02*
X14126539Y-13249150D01*
X14126539Y-13249150D02*
X14145587Y-13220579D01*
X14145587Y-13220579D02*
X14155111Y-13201531D01*
X14155111Y-13201531D02*
X14164634Y-13172960D01*
X14164634Y-13172960D02*
X14174158Y-13125341D01*
X14174158Y-13125341D02*
X14174158Y-13087246D01*
X14174158Y-13087246D02*
X14164634Y-13039627D01*
X14164634Y-13039627D02*
X14155111Y-13011055D01*
X14155111Y-13011055D02*
X14145587Y-12992008D01*
X14145587Y-12992008D02*
X14126539Y-12963436D01*
X14126539Y-12963436D02*
X14117015Y-12953912D01*
X7361000Y-13411000D02*
G75*
G02*
X7161000Y-13411000I-100000J0D01*
G01*
X7161000Y-13411000D02*
G75*
G02*
X7361000Y-13411000I100000J0D01*
G01*
X7612253Y-13321531D02*
X7621777Y-13312008D01*
X7621777Y-13312008D02*
X7640824Y-13302484D01*
X7640824Y-13302484D02*
X7688443Y-13302484D01*
X7688443Y-13302484D02*
X7707491Y-13312008D01*
X7707491Y-13312008D02*
X7717015Y-13321531D01*
X7717015Y-13321531D02*
X7726539Y-13340579D01*
X7726539Y-13340579D02*
X7726539Y-13359627D01*
X7726539Y-13359627D02*
X7717015Y-13388198D01*
X7717015Y-13388198D02*
X7602729Y-13502484D01*
X7602729Y-13502484D02*
X7726539Y-13502484D01*
X7812253Y-13483436D02*
X7821777Y-13492960D01*
X7821777Y-13492960D02*
X7812253Y-13502484D01*
X7812253Y-13502484D02*
X7802729Y-13492960D01*
X7802729Y-13492960D02*
X7812253Y-13483436D01*
X7812253Y-13483436D02*
X7812253Y-13502484D01*
X7897967Y-13321531D02*
X7907491Y-13312008D01*
X7907491Y-13312008D02*
X7926539Y-13302484D01*
X7926539Y-13302484D02*
X7974158Y-13302484D01*
X7974158Y-13302484D02*
X7993205Y-13312008D01*
X7993205Y-13312008D02*
X8002729Y-13321531D01*
X8002729Y-13321531D02*
X8012253Y-13340579D01*
X8012253Y-13340579D02*
X8012253Y-13359627D01*
X8012253Y-13359627D02*
X8002729Y-13388198D01*
X8002729Y-13388198D02*
X7888443Y-13502484D01*
X7888443Y-13502484D02*
X8012253Y-13502484D01*
X8136062Y-13302484D02*
X8155110Y-13302484D01*
X8155110Y-13302484D02*
X8174158Y-13312008D01*
X8174158Y-13312008D02*
X8183682Y-13321531D01*
X8183682Y-13321531D02*
X8193205Y-13340579D01*
X8193205Y-13340579D02*
X8202729Y-13378674D01*
X8202729Y-13378674D02*
X8202729Y-13426293D01*
X8202729Y-13426293D02*
X8193205Y-13464388D01*
X8193205Y-13464388D02*
X8183682Y-13483436D01*
X8183682Y-13483436D02*
X8174158Y-13492960D01*
X8174158Y-13492960D02*
X8155110Y-13502484D01*
X8155110Y-13502484D02*
X8136062Y-13502484D01*
X8136062Y-13502484D02*
X8117015Y-13492960D01*
X8117015Y-13492960D02*
X8107491Y-13483436D01*
X8107491Y-13483436D02*
X8097967Y-13464388D01*
X8097967Y-13464388D02*
X8088443Y-13426293D01*
X8088443Y-13426293D02*
X8088443Y-13378674D01*
X8088443Y-13378674D02*
X8097967Y-13340579D01*
X8097967Y-13340579D02*
X8107491Y-13321531D01*
X8107491Y-13321531D02*
X8117015Y-13312008D01*
X8117015Y-13312008D02*
X8136062Y-13302484D01*
X8326539Y-13302484D02*
X8345586Y-13302484D01*
X8345586Y-13302484D02*
X8364634Y-13312008D01*
X8364634Y-13312008D02*
X8374158Y-13321531D01*
X8374158Y-13321531D02*
X8383682Y-13340579D01*
X8383682Y-13340579D02*
X8393205Y-13378674D01*
X8393205Y-13378674D02*
X8393205Y-13426293D01*
X8393205Y-13426293D02*
X8383682Y-13464388D01*
X8383682Y-13464388D02*
X8374158Y-13483436D01*
X8374158Y-13483436D02*
X8364634Y-13492960D01*
X8364634Y-13492960D02*
X8345586Y-13502484D01*
X8345586Y-13502484D02*
X8326539Y-13502484D01*
X8326539Y-13502484D02*
X8307491Y-13492960D01*
X8307491Y-13492960D02*
X8297967Y-13483436D01*
X8297967Y-13483436D02*
X8288443Y-13464388D01*
X8288443Y-13464388D02*
X8278920Y-13426293D01*
X8278920Y-13426293D02*
X8278920Y-13378674D01*
X8278920Y-13378674D02*
X8288443Y-13340579D01*
X8288443Y-13340579D02*
X8297967Y-13321531D01*
X8297967Y-13321531D02*
X8307491Y-13312008D01*
X8307491Y-13312008D02*
X8326539Y-13302484D01*
X8478920Y-13502484D02*
X8478920Y-13369150D01*
X8478920Y-13388198D02*
X8488444Y-13378674D01*
X8488444Y-13378674D02*
X8507491Y-13369150D01*
X8507491Y-13369150D02*
X8536063Y-13369150D01*
X8536063Y-13369150D02*
X8555110Y-13378674D01*
X8555110Y-13378674D02*
X8564634Y-13397722D01*
X8564634Y-13397722D02*
X8564634Y-13502484D01*
X8564634Y-13397722D02*
X8574158Y-13378674D01*
X8574158Y-13378674D02*
X8593205Y-13369150D01*
X8593205Y-13369150D02*
X8621777Y-13369150D01*
X8621777Y-13369150D02*
X8640825Y-13378674D01*
X8640825Y-13378674D02*
X8650348Y-13397722D01*
X8650348Y-13397722D02*
X8650348Y-13502484D01*
X8745586Y-13502484D02*
X8745586Y-13369150D01*
X8745586Y-13388198D02*
X8755110Y-13378674D01*
X8755110Y-13378674D02*
X8774158Y-13369150D01*
X8774158Y-13369150D02*
X8802729Y-13369150D01*
X8802729Y-13369150D02*
X8821777Y-13378674D01*
X8821777Y-13378674D02*
X8831301Y-13397722D01*
X8831301Y-13397722D02*
X8831301Y-13502484D01*
X8831301Y-13397722D02*
X8840825Y-13378674D01*
X8840825Y-13378674D02*
X8859872Y-13369150D01*
X8859872Y-13369150D02*
X8888444Y-13369150D01*
X8888444Y-13369150D02*
X8907491Y-13378674D01*
X8907491Y-13378674D02*
X8917015Y-13397722D01*
X8917015Y-13397722D02*
X8917015Y-13502484D01*
X9307491Y-13292960D02*
X9136063Y-13550103D01*
X9564634Y-13302484D02*
X9583682Y-13302484D01*
X9583682Y-13302484D02*
X9602729Y-13312008D01*
X9602729Y-13312008D02*
X9612253Y-13321531D01*
X9612253Y-13321531D02*
X9621777Y-13340579D01*
X9621777Y-13340579D02*
X9631301Y-13378674D01*
X9631301Y-13378674D02*
X9631301Y-13426293D01*
X9631301Y-13426293D02*
X9621777Y-13464388D01*
X9621777Y-13464388D02*
X9612253Y-13483436D01*
X9612253Y-13483436D02*
X9602729Y-13492960D01*
X9602729Y-13492960D02*
X9583682Y-13502484D01*
X9583682Y-13502484D02*
X9564634Y-13502484D01*
X9564634Y-13502484D02*
X9545587Y-13492960D01*
X9545587Y-13492960D02*
X9536063Y-13483436D01*
X9536063Y-13483436D02*
X9526539Y-13464388D01*
X9526539Y-13464388D02*
X9517015Y-13426293D01*
X9517015Y-13426293D02*
X9517015Y-13378674D01*
X9517015Y-13378674D02*
X9526539Y-13340579D01*
X9526539Y-13340579D02*
X9536063Y-13321531D01*
X9536063Y-13321531D02*
X9545587Y-13312008D01*
X9545587Y-13312008D02*
X9564634Y-13302484D01*
X9717015Y-13483436D02*
X9726539Y-13492960D01*
X9726539Y-13492960D02*
X9717015Y-13502484D01*
X9717015Y-13502484D02*
X9707491Y-13492960D01*
X9707491Y-13492960D02*
X9717015Y-13483436D01*
X9717015Y-13483436D02*
X9717015Y-13502484D01*
X9850348Y-13302484D02*
X9869396Y-13302484D01*
X9869396Y-13302484D02*
X9888444Y-13312008D01*
X9888444Y-13312008D02*
X9897968Y-13321531D01*
X9897968Y-13321531D02*
X9907491Y-13340579D01*
X9907491Y-13340579D02*
X9917015Y-13378674D01*
X9917015Y-13378674D02*
X9917015Y-13426293D01*
X9917015Y-13426293D02*
X9907491Y-13464388D01*
X9907491Y-13464388D02*
X9897968Y-13483436D01*
X9897968Y-13483436D02*
X9888444Y-13492960D01*
X9888444Y-13492960D02*
X9869396Y-13502484D01*
X9869396Y-13502484D02*
X9850348Y-13502484D01*
X9850348Y-13502484D02*
X9831301Y-13492960D01*
X9831301Y-13492960D02*
X9821777Y-13483436D01*
X9821777Y-13483436D02*
X9812253Y-13464388D01*
X9812253Y-13464388D02*
X9802729Y-13426293D01*
X9802729Y-13426293D02*
X9802729Y-13378674D01*
X9802729Y-13378674D02*
X9812253Y-13340579D01*
X9812253Y-13340579D02*
X9821777Y-13321531D01*
X9821777Y-13321531D02*
X9831301Y-13312008D01*
X9831301Y-13312008D02*
X9850348Y-13302484D01*
X10031301Y-13388198D02*
X10012253Y-13378674D01*
X10012253Y-13378674D02*
X10002729Y-13369150D01*
X10002729Y-13369150D02*
X9993206Y-13350103D01*
X9993206Y-13350103D02*
X9993206Y-13340579D01*
X9993206Y-13340579D02*
X10002729Y-13321531D01*
X10002729Y-13321531D02*
X10012253Y-13312008D01*
X10012253Y-13312008D02*
X10031301Y-13302484D01*
X10031301Y-13302484D02*
X10069396Y-13302484D01*
X10069396Y-13302484D02*
X10088444Y-13312008D01*
X10088444Y-13312008D02*
X10097968Y-13321531D01*
X10097968Y-13321531D02*
X10107491Y-13340579D01*
X10107491Y-13340579D02*
X10107491Y-13350103D01*
X10107491Y-13350103D02*
X10097968Y-13369150D01*
X10097968Y-13369150D02*
X10088444Y-13378674D01*
X10088444Y-13378674D02*
X10069396Y-13388198D01*
X10069396Y-13388198D02*
X10031301Y-13388198D01*
X10031301Y-13388198D02*
X10012253Y-13397722D01*
X10012253Y-13397722D02*
X10002729Y-13407246D01*
X10002729Y-13407246D02*
X9993206Y-13426293D01*
X9993206Y-13426293D02*
X9993206Y-13464388D01*
X9993206Y-13464388D02*
X10002729Y-13483436D01*
X10002729Y-13483436D02*
X10012253Y-13492960D01*
X10012253Y-13492960D02*
X10031301Y-13502484D01*
X10031301Y-13502484D02*
X10069396Y-13502484D01*
X10069396Y-13502484D02*
X10088444Y-13492960D01*
X10088444Y-13492960D02*
X10097968Y-13483436D01*
X10097968Y-13483436D02*
X10107491Y-13464388D01*
X10107491Y-13464388D02*
X10107491Y-13426293D01*
X10107491Y-13426293D02*
X10097968Y-13407246D01*
X10097968Y-13407246D02*
X10088444Y-13397722D01*
X10088444Y-13397722D02*
X10069396Y-13388198D01*
X10278920Y-13302484D02*
X10240825Y-13302484D01*
X10240825Y-13302484D02*
X10221777Y-13312008D01*
X10221777Y-13312008D02*
X10212253Y-13321531D01*
X10212253Y-13321531D02*
X10193206Y-13350103D01*
X10193206Y-13350103D02*
X10183682Y-13388198D01*
X10183682Y-13388198D02*
X10183682Y-13464388D01*
X10183682Y-13464388D02*
X10193206Y-13483436D01*
X10193206Y-13483436D02*
X10202729Y-13492960D01*
X10202729Y-13492960D02*
X10221777Y-13502484D01*
X10221777Y-13502484D02*
X10259872Y-13502484D01*
X10259872Y-13502484D02*
X10278920Y-13492960D01*
X10278920Y-13492960D02*
X10288444Y-13483436D01*
X10288444Y-13483436D02*
X10297968Y-13464388D01*
X10297968Y-13464388D02*
X10297968Y-13416769D01*
X10297968Y-13416769D02*
X10288444Y-13397722D01*
X10288444Y-13397722D02*
X10278920Y-13388198D01*
X10278920Y-13388198D02*
X10259872Y-13378674D01*
X10259872Y-13378674D02*
X10221777Y-13378674D01*
X10221777Y-13378674D02*
X10202729Y-13388198D01*
X10202729Y-13388198D02*
X10193206Y-13397722D01*
X10193206Y-13397722D02*
X10183682Y-13416769D01*
X10469396Y-13302484D02*
X10431301Y-13302484D01*
X10431301Y-13302484D02*
X10412253Y-13312008D01*
X10412253Y-13312008D02*
X10402729Y-13321531D01*
X10402729Y-13321531D02*
X10383682Y-13350103D01*
X10383682Y-13350103D02*
X10374158Y-13388198D01*
X10374158Y-13388198D02*
X10374158Y-13464388D01*
X10374158Y-13464388D02*
X10383682Y-13483436D01*
X10383682Y-13483436D02*
X10393206Y-13492960D01*
X10393206Y-13492960D02*
X10412253Y-13502484D01*
X10412253Y-13502484D02*
X10450349Y-13502484D01*
X10450349Y-13502484D02*
X10469396Y-13492960D01*
X10469396Y-13492960D02*
X10478920Y-13483436D01*
X10478920Y-13483436D02*
X10488444Y-13464388D01*
X10488444Y-13464388D02*
X10488444Y-13416769D01*
X10488444Y-13416769D02*
X10478920Y-13397722D01*
X10478920Y-13397722D02*
X10469396Y-13388198D01*
X10469396Y-13388198D02*
X10450349Y-13378674D01*
X10450349Y-13378674D02*
X10412253Y-13378674D01*
X10412253Y-13378674D02*
X10393206Y-13388198D01*
X10393206Y-13388198D02*
X10383682Y-13397722D01*
X10383682Y-13397722D02*
X10374158Y-13416769D01*
X10564634Y-13302484D02*
X10564634Y-13340579D01*
X10640825Y-13302484D02*
X10640825Y-13340579D01*
X10936063Y-13578674D02*
X10926539Y-13569150D01*
X10926539Y-13569150D02*
X10907491Y-13540579D01*
X10907491Y-13540579D02*
X10897968Y-13521531D01*
X10897968Y-13521531D02*
X10888444Y-13492960D01*
X10888444Y-13492960D02*
X10878920Y-13445341D01*
X10878920Y-13445341D02*
X10878920Y-13407246D01*
X10878920Y-13407246D02*
X10888444Y-13359627D01*
X10888444Y-13359627D02*
X10897968Y-13331055D01*
X10897968Y-13331055D02*
X10907491Y-13312008D01*
X10907491Y-13312008D02*
X10926539Y-13283436D01*
X10926539Y-13283436D02*
X10936063Y-13273912D01*
X11002730Y-13321531D02*
X11012253Y-13312008D01*
X11012253Y-13312008D02*
X11031301Y-13302484D01*
X11031301Y-13302484D02*
X11078920Y-13302484D01*
X11078920Y-13302484D02*
X11097968Y-13312008D01*
X11097968Y-13312008D02*
X11107491Y-13321531D01*
X11107491Y-13321531D02*
X11117015Y-13340579D01*
X11117015Y-13340579D02*
X11117015Y-13359627D01*
X11117015Y-13359627D02*
X11107491Y-13388198D01*
X11107491Y-13388198D02*
X10993206Y-13502484D01*
X10993206Y-13502484D02*
X11117015Y-13502484D01*
X11355110Y-13502484D02*
X11355110Y-13302484D01*
X11440825Y-13502484D02*
X11440825Y-13397722D01*
X11440825Y-13397722D02*
X11431301Y-13378674D01*
X11431301Y-13378674D02*
X11412253Y-13369150D01*
X11412253Y-13369150D02*
X11383682Y-13369150D01*
X11383682Y-13369150D02*
X11364634Y-13378674D01*
X11364634Y-13378674D02*
X11355110Y-13388198D01*
X11564634Y-13502484D02*
X11545587Y-13492960D01*
X11545587Y-13492960D02*
X11536063Y-13483436D01*
X11536063Y-13483436D02*
X11526539Y-13464388D01*
X11526539Y-13464388D02*
X11526539Y-13407246D01*
X11526539Y-13407246D02*
X11536063Y-13388198D01*
X11536063Y-13388198D02*
X11545587Y-13378674D01*
X11545587Y-13378674D02*
X11564634Y-13369150D01*
X11564634Y-13369150D02*
X11593206Y-13369150D01*
X11593206Y-13369150D02*
X11612253Y-13378674D01*
X11612253Y-13378674D02*
X11621777Y-13388198D01*
X11621777Y-13388198D02*
X11631301Y-13407246D01*
X11631301Y-13407246D02*
X11631301Y-13464388D01*
X11631301Y-13464388D02*
X11621777Y-13483436D01*
X11621777Y-13483436D02*
X11612253Y-13492960D01*
X11612253Y-13492960D02*
X11593206Y-13502484D01*
X11593206Y-13502484D02*
X11564634Y-13502484D01*
X11745587Y-13502484D02*
X11726539Y-13492960D01*
X11726539Y-13492960D02*
X11717015Y-13473912D01*
X11717015Y-13473912D02*
X11717015Y-13302484D01*
X11897968Y-13492960D02*
X11878920Y-13502484D01*
X11878920Y-13502484D02*
X11840825Y-13502484D01*
X11840825Y-13502484D02*
X11821777Y-13492960D01*
X11821777Y-13492960D02*
X11812253Y-13473912D01*
X11812253Y-13473912D02*
X11812253Y-13397722D01*
X11812253Y-13397722D02*
X11821777Y-13378674D01*
X11821777Y-13378674D02*
X11840825Y-13369150D01*
X11840825Y-13369150D02*
X11878920Y-13369150D01*
X11878920Y-13369150D02*
X11897968Y-13378674D01*
X11897968Y-13378674D02*
X11907491Y-13397722D01*
X11907491Y-13397722D02*
X11907491Y-13416769D01*
X11907491Y-13416769D02*
X11812253Y-13435817D01*
X11983682Y-13492960D02*
X12002730Y-13502484D01*
X12002730Y-13502484D02*
X12040825Y-13502484D01*
X12040825Y-13502484D02*
X12059872Y-13492960D01*
X12059872Y-13492960D02*
X12069396Y-13473912D01*
X12069396Y-13473912D02*
X12069396Y-13464388D01*
X12069396Y-13464388D02*
X12059872Y-13445341D01*
X12059872Y-13445341D02*
X12040825Y-13435817D01*
X12040825Y-13435817D02*
X12012253Y-13435817D01*
X12012253Y-13435817D02*
X11993206Y-13426293D01*
X11993206Y-13426293D02*
X11983682Y-13407246D01*
X11983682Y-13407246D02*
X11983682Y-13397722D01*
X11983682Y-13397722D02*
X11993206Y-13378674D01*
X11993206Y-13378674D02*
X12012253Y-13369150D01*
X12012253Y-13369150D02*
X12040825Y-13369150D01*
X12040825Y-13369150D02*
X12059872Y-13378674D01*
X12136063Y-13578674D02*
X12145587Y-13569150D01*
X12145587Y-13569150D02*
X12164634Y-13540579D01*
X12164634Y-13540579D02*
X12174158Y-13521531D01*
X12174158Y-13521531D02*
X12183682Y-13492960D01*
X12183682Y-13492960D02*
X12193206Y-13445341D01*
X12193206Y-13445341D02*
X12193206Y-13407246D01*
X12193206Y-13407246D02*
X12183682Y-13359627D01*
X12183682Y-13359627D02*
X12174158Y-13331055D01*
X12174158Y-13331055D02*
X12164634Y-13312008D01*
X12164634Y-13312008D02*
X12145587Y-13283436D01*
X12145587Y-13283436D02*
X12136063Y-13273912D01*
X12497968Y-13578674D02*
X12488444Y-13569150D01*
X12488444Y-13569150D02*
X12469396Y-13540579D01*
X12469396Y-13540579D02*
X12459872Y-13521531D01*
X12459872Y-13521531D02*
X12450349Y-13492960D01*
X12450349Y-13492960D02*
X12440825Y-13445341D01*
X12440825Y-13445341D02*
X12440825Y-13407246D01*
X12440825Y-13407246D02*
X12450349Y-13359627D01*
X12450349Y-13359627D02*
X12459872Y-13331055D01*
X12459872Y-13331055D02*
X12469396Y-13312008D01*
X12469396Y-13312008D02*
X12488444Y-13283436D01*
X12488444Y-13283436D02*
X12497968Y-13273912D01*
X12574158Y-13369150D02*
X12574158Y-13502484D01*
X12574158Y-13388198D02*
X12583682Y-13378674D01*
X12583682Y-13378674D02*
X12602730Y-13369150D01*
X12602730Y-13369150D02*
X12631301Y-13369150D01*
X12631301Y-13369150D02*
X12650349Y-13378674D01*
X12650349Y-13378674D02*
X12659872Y-13397722D01*
X12659872Y-13397722D02*
X12659872Y-13502484D01*
X12783682Y-13502484D02*
X12764634Y-13492960D01*
X12764634Y-13492960D02*
X12755111Y-13483436D01*
X12755111Y-13483436D02*
X12745587Y-13464388D01*
X12745587Y-13464388D02*
X12745587Y-13407246D01*
X12745587Y-13407246D02*
X12755111Y-13388198D01*
X12755111Y-13388198D02*
X12764634Y-13378674D01*
X12764634Y-13378674D02*
X12783682Y-13369150D01*
X12783682Y-13369150D02*
X12812253Y-13369150D01*
X12812253Y-13369150D02*
X12831301Y-13378674D01*
X12831301Y-13378674D02*
X12840825Y-13388198D01*
X12840825Y-13388198D02*
X12850349Y-13407246D01*
X12850349Y-13407246D02*
X12850349Y-13464388D01*
X12850349Y-13464388D02*
X12840825Y-13483436D01*
X12840825Y-13483436D02*
X12831301Y-13492960D01*
X12831301Y-13492960D02*
X12812253Y-13502484D01*
X12812253Y-13502484D02*
X12783682Y-13502484D01*
X12907492Y-13369150D02*
X12983682Y-13369150D01*
X12936063Y-13302484D02*
X12936063Y-13473912D01*
X12936063Y-13473912D02*
X12945587Y-13492960D01*
X12945587Y-13492960D02*
X12964634Y-13502484D01*
X12964634Y-13502484D02*
X12983682Y-13502484D01*
X13202730Y-13369150D02*
X13202730Y-13569150D01*
X13202730Y-13378674D02*
X13221777Y-13369150D01*
X13221777Y-13369150D02*
X13259873Y-13369150D01*
X13259873Y-13369150D02*
X13278920Y-13378674D01*
X13278920Y-13378674D02*
X13288444Y-13388198D01*
X13288444Y-13388198D02*
X13297968Y-13407246D01*
X13297968Y-13407246D02*
X13297968Y-13464388D01*
X13297968Y-13464388D02*
X13288444Y-13483436D01*
X13288444Y-13483436D02*
X13278920Y-13492960D01*
X13278920Y-13492960D02*
X13259873Y-13502484D01*
X13259873Y-13502484D02*
X13221777Y-13502484D01*
X13221777Y-13502484D02*
X13202730Y-13492960D01*
X13412253Y-13502484D02*
X13393206Y-13492960D01*
X13393206Y-13492960D02*
X13383682Y-13473912D01*
X13383682Y-13473912D02*
X13383682Y-13302484D01*
X13574158Y-13502484D02*
X13574158Y-13397722D01*
X13574158Y-13397722D02*
X13564634Y-13378674D01*
X13564634Y-13378674D02*
X13545587Y-13369150D01*
X13545587Y-13369150D02*
X13507492Y-13369150D01*
X13507492Y-13369150D02*
X13488444Y-13378674D01*
X13574158Y-13492960D02*
X13555111Y-13502484D01*
X13555111Y-13502484D02*
X13507492Y-13502484D01*
X13507492Y-13502484D02*
X13488444Y-13492960D01*
X13488444Y-13492960D02*
X13478920Y-13473912D01*
X13478920Y-13473912D02*
X13478920Y-13454865D01*
X13478920Y-13454865D02*
X13488444Y-13435817D01*
X13488444Y-13435817D02*
X13507492Y-13426293D01*
X13507492Y-13426293D02*
X13555111Y-13426293D01*
X13555111Y-13426293D02*
X13574158Y-13416769D01*
X13640825Y-13369150D02*
X13717015Y-13369150D01*
X13669396Y-13302484D02*
X13669396Y-13473912D01*
X13669396Y-13473912D02*
X13678920Y-13492960D01*
X13678920Y-13492960D02*
X13697968Y-13502484D01*
X13697968Y-13502484D02*
X13717015Y-13502484D01*
X13859873Y-13492960D02*
X13840825Y-13502484D01*
X13840825Y-13502484D02*
X13802730Y-13502484D01*
X13802730Y-13502484D02*
X13783682Y-13492960D01*
X13783682Y-13492960D02*
X13774158Y-13473912D01*
X13774158Y-13473912D02*
X13774158Y-13397722D01*
X13774158Y-13397722D02*
X13783682Y-13378674D01*
X13783682Y-13378674D02*
X13802730Y-13369150D01*
X13802730Y-13369150D02*
X13840825Y-13369150D01*
X13840825Y-13369150D02*
X13859873Y-13378674D01*
X13859873Y-13378674D02*
X13869396Y-13397722D01*
X13869396Y-13397722D02*
X13869396Y-13416769D01*
X13869396Y-13416769D02*
X13774158Y-13435817D01*
X14040825Y-13502484D02*
X14040825Y-13302484D01*
X14040825Y-13492960D02*
X14021777Y-13502484D01*
X14021777Y-13502484D02*
X13983682Y-13502484D01*
X13983682Y-13502484D02*
X13964634Y-13492960D01*
X13964634Y-13492960D02*
X13955111Y-13483436D01*
X13955111Y-13483436D02*
X13945587Y-13464388D01*
X13945587Y-13464388D02*
X13945587Y-13407246D01*
X13945587Y-13407246D02*
X13955111Y-13388198D01*
X13955111Y-13388198D02*
X13964634Y-13378674D01*
X13964634Y-13378674D02*
X13983682Y-13369150D01*
X13983682Y-13369150D02*
X14021777Y-13369150D01*
X14021777Y-13369150D02*
X14040825Y-13378674D01*
X14117015Y-13578674D02*
X14126539Y-13569150D01*
X14126539Y-13569150D02*
X14145587Y-13540579D01*
X14145587Y-13540579D02*
X14155111Y-13521531D01*
X14155111Y-13521531D02*
X14164634Y-13492960D01*
X14164634Y-13492960D02*
X14174158Y-13445341D01*
X14174158Y-13445341D02*
X14174158Y-13407246D01*
X14174158Y-13407246D02*
X14164634Y-13359627D01*
X14164634Y-13359627D02*
X14155111Y-13331055D01*
X14155111Y-13331055D02*
X14145587Y-13312008D01*
X14145587Y-13312008D02*
X14126539Y-13283436D01*
X14126539Y-13283436D02*
X14117015Y-13273912D01*
X7261000Y-13631000D02*
X7261000Y-13831000D01*
X7161000Y-13731000D02*
X7361000Y-13731000D01*
X7602729Y-13622484D02*
X7726539Y-13622484D01*
X7726539Y-13622484D02*
X7659872Y-13698674D01*
X7659872Y-13698674D02*
X7688443Y-13698674D01*
X7688443Y-13698674D02*
X7707491Y-13708198D01*
X7707491Y-13708198D02*
X7717015Y-13717722D01*
X7717015Y-13717722D02*
X7726539Y-13736769D01*
X7726539Y-13736769D02*
X7726539Y-13784388D01*
X7726539Y-13784388D02*
X7717015Y-13803436D01*
X7717015Y-13803436D02*
X7707491Y-13812960D01*
X7707491Y-13812960D02*
X7688443Y-13822484D01*
X7688443Y-13822484D02*
X7631301Y-13822484D01*
X7631301Y-13822484D02*
X7612253Y-13812960D01*
X7612253Y-13812960D02*
X7602729Y-13803436D01*
X7812253Y-13803436D02*
X7821777Y-13812960D01*
X7821777Y-13812960D02*
X7812253Y-13822484D01*
X7812253Y-13822484D02*
X7802729Y-13812960D01*
X7802729Y-13812960D02*
X7812253Y-13803436D01*
X7812253Y-13803436D02*
X7812253Y-13822484D01*
X7945586Y-13622484D02*
X7964634Y-13622484D01*
X7964634Y-13622484D02*
X7983682Y-13632008D01*
X7983682Y-13632008D02*
X7993205Y-13641531D01*
X7993205Y-13641531D02*
X8002729Y-13660579D01*
X8002729Y-13660579D02*
X8012253Y-13698674D01*
X8012253Y-13698674D02*
X8012253Y-13746293D01*
X8012253Y-13746293D02*
X8002729Y-13784388D01*
X8002729Y-13784388D02*
X7993205Y-13803436D01*
X7993205Y-13803436D02*
X7983682Y-13812960D01*
X7983682Y-13812960D02*
X7964634Y-13822484D01*
X7964634Y-13822484D02*
X7945586Y-13822484D01*
X7945586Y-13822484D02*
X7926539Y-13812960D01*
X7926539Y-13812960D02*
X7917015Y-13803436D01*
X7917015Y-13803436D02*
X7907491Y-13784388D01*
X7907491Y-13784388D02*
X7897967Y-13746293D01*
X7897967Y-13746293D02*
X7897967Y-13698674D01*
X7897967Y-13698674D02*
X7907491Y-13660579D01*
X7907491Y-13660579D02*
X7917015Y-13641531D01*
X7917015Y-13641531D02*
X7926539Y-13632008D01*
X7926539Y-13632008D02*
X7945586Y-13622484D01*
X8136062Y-13622484D02*
X8155110Y-13622484D01*
X8155110Y-13622484D02*
X8174158Y-13632008D01*
X8174158Y-13632008D02*
X8183682Y-13641531D01*
X8183682Y-13641531D02*
X8193205Y-13660579D01*
X8193205Y-13660579D02*
X8202729Y-13698674D01*
X8202729Y-13698674D02*
X8202729Y-13746293D01*
X8202729Y-13746293D02*
X8193205Y-13784388D01*
X8193205Y-13784388D02*
X8183682Y-13803436D01*
X8183682Y-13803436D02*
X8174158Y-13812960D01*
X8174158Y-13812960D02*
X8155110Y-13822484D01*
X8155110Y-13822484D02*
X8136062Y-13822484D01*
X8136062Y-13822484D02*
X8117015Y-13812960D01*
X8117015Y-13812960D02*
X8107491Y-13803436D01*
X8107491Y-13803436D02*
X8097967Y-13784388D01*
X8097967Y-13784388D02*
X8088443Y-13746293D01*
X8088443Y-13746293D02*
X8088443Y-13698674D01*
X8088443Y-13698674D02*
X8097967Y-13660579D01*
X8097967Y-13660579D02*
X8107491Y-13641531D01*
X8107491Y-13641531D02*
X8117015Y-13632008D01*
X8117015Y-13632008D02*
X8136062Y-13622484D01*
X8326539Y-13622484D02*
X8345586Y-13622484D01*
X8345586Y-13622484D02*
X8364634Y-13632008D01*
X8364634Y-13632008D02*
X8374158Y-13641531D01*
X8374158Y-13641531D02*
X8383682Y-13660579D01*
X8383682Y-13660579D02*
X8393205Y-13698674D01*
X8393205Y-13698674D02*
X8393205Y-13746293D01*
X8393205Y-13746293D02*
X8383682Y-13784388D01*
X8383682Y-13784388D02*
X8374158Y-13803436D01*
X8374158Y-13803436D02*
X8364634Y-13812960D01*
X8364634Y-13812960D02*
X8345586Y-13822484D01*
X8345586Y-13822484D02*
X8326539Y-13822484D01*
X8326539Y-13822484D02*
X8307491Y-13812960D01*
X8307491Y-13812960D02*
X8297967Y-13803436D01*
X8297967Y-13803436D02*
X8288443Y-13784388D01*
X8288443Y-13784388D02*
X8278920Y-13746293D01*
X8278920Y-13746293D02*
X8278920Y-13698674D01*
X8278920Y-13698674D02*
X8288443Y-13660579D01*
X8288443Y-13660579D02*
X8297967Y-13641531D01*
X8297967Y-13641531D02*
X8307491Y-13632008D01*
X8307491Y-13632008D02*
X8326539Y-13622484D01*
X8478920Y-13822484D02*
X8478920Y-13689150D01*
X8478920Y-13708198D02*
X8488444Y-13698674D01*
X8488444Y-13698674D02*
X8507491Y-13689150D01*
X8507491Y-13689150D02*
X8536063Y-13689150D01*
X8536063Y-13689150D02*
X8555110Y-13698674D01*
X8555110Y-13698674D02*
X8564634Y-13717722D01*
X8564634Y-13717722D02*
X8564634Y-13822484D01*
X8564634Y-13717722D02*
X8574158Y-13698674D01*
X8574158Y-13698674D02*
X8593205Y-13689150D01*
X8593205Y-13689150D02*
X8621777Y-13689150D01*
X8621777Y-13689150D02*
X8640825Y-13698674D01*
X8640825Y-13698674D02*
X8650348Y-13717722D01*
X8650348Y-13717722D02*
X8650348Y-13822484D01*
X8745586Y-13822484D02*
X8745586Y-13689150D01*
X8745586Y-13708198D02*
X8755110Y-13698674D01*
X8755110Y-13698674D02*
X8774158Y-13689150D01*
X8774158Y-13689150D02*
X8802729Y-13689150D01*
X8802729Y-13689150D02*
X8821777Y-13698674D01*
X8821777Y-13698674D02*
X8831301Y-13717722D01*
X8831301Y-13717722D02*
X8831301Y-13822484D01*
X8831301Y-13717722D02*
X8840825Y-13698674D01*
X8840825Y-13698674D02*
X8859872Y-13689150D01*
X8859872Y-13689150D02*
X8888444Y-13689150D01*
X8888444Y-13689150D02*
X8907491Y-13698674D01*
X8907491Y-13698674D02*
X8917015Y-13717722D01*
X8917015Y-13717722D02*
X8917015Y-13822484D01*
X9307491Y-13612960D02*
X9136063Y-13870103D01*
X9564634Y-13622484D02*
X9583682Y-13622484D01*
X9583682Y-13622484D02*
X9602729Y-13632008D01*
X9602729Y-13632008D02*
X9612253Y-13641531D01*
X9612253Y-13641531D02*
X9621777Y-13660579D01*
X9621777Y-13660579D02*
X9631301Y-13698674D01*
X9631301Y-13698674D02*
X9631301Y-13746293D01*
X9631301Y-13746293D02*
X9621777Y-13784388D01*
X9621777Y-13784388D02*
X9612253Y-13803436D01*
X9612253Y-13803436D02*
X9602729Y-13812960D01*
X9602729Y-13812960D02*
X9583682Y-13822484D01*
X9583682Y-13822484D02*
X9564634Y-13822484D01*
X9564634Y-13822484D02*
X9545587Y-13812960D01*
X9545587Y-13812960D02*
X9536063Y-13803436D01*
X9536063Y-13803436D02*
X9526539Y-13784388D01*
X9526539Y-13784388D02*
X9517015Y-13746293D01*
X9517015Y-13746293D02*
X9517015Y-13698674D01*
X9517015Y-13698674D02*
X9526539Y-13660579D01*
X9526539Y-13660579D02*
X9536063Y-13641531D01*
X9536063Y-13641531D02*
X9545587Y-13632008D01*
X9545587Y-13632008D02*
X9564634Y-13622484D01*
X9717015Y-13803436D02*
X9726539Y-13812960D01*
X9726539Y-13812960D02*
X9717015Y-13822484D01*
X9717015Y-13822484D02*
X9707491Y-13812960D01*
X9707491Y-13812960D02*
X9717015Y-13803436D01*
X9717015Y-13803436D02*
X9717015Y-13822484D01*
X9917015Y-13822484D02*
X9802729Y-13822484D01*
X9859872Y-13822484D02*
X9859872Y-13622484D01*
X9859872Y-13622484D02*
X9840825Y-13651055D01*
X9840825Y-13651055D02*
X9821777Y-13670103D01*
X9821777Y-13670103D02*
X9802729Y-13679627D01*
X10107491Y-13822484D02*
X9993206Y-13822484D01*
X10050348Y-13822484D02*
X10050348Y-13622484D01*
X10050348Y-13622484D02*
X10031301Y-13651055D01*
X10031301Y-13651055D02*
X10012253Y-13670103D01*
X10012253Y-13670103D02*
X9993206Y-13679627D01*
X10221777Y-13708198D02*
X10202729Y-13698674D01*
X10202729Y-13698674D02*
X10193206Y-13689150D01*
X10193206Y-13689150D02*
X10183682Y-13670103D01*
X10183682Y-13670103D02*
X10183682Y-13660579D01*
X10183682Y-13660579D02*
X10193206Y-13641531D01*
X10193206Y-13641531D02*
X10202729Y-13632008D01*
X10202729Y-13632008D02*
X10221777Y-13622484D01*
X10221777Y-13622484D02*
X10259872Y-13622484D01*
X10259872Y-13622484D02*
X10278920Y-13632008D01*
X10278920Y-13632008D02*
X10288444Y-13641531D01*
X10288444Y-13641531D02*
X10297968Y-13660579D01*
X10297968Y-13660579D02*
X10297968Y-13670103D01*
X10297968Y-13670103D02*
X10288444Y-13689150D01*
X10288444Y-13689150D02*
X10278920Y-13698674D01*
X10278920Y-13698674D02*
X10259872Y-13708198D01*
X10259872Y-13708198D02*
X10221777Y-13708198D01*
X10221777Y-13708198D02*
X10202729Y-13717722D01*
X10202729Y-13717722D02*
X10193206Y-13727246D01*
X10193206Y-13727246D02*
X10183682Y-13746293D01*
X10183682Y-13746293D02*
X10183682Y-13784388D01*
X10183682Y-13784388D02*
X10193206Y-13803436D01*
X10193206Y-13803436D02*
X10202729Y-13812960D01*
X10202729Y-13812960D02*
X10221777Y-13822484D01*
X10221777Y-13822484D02*
X10259872Y-13822484D01*
X10259872Y-13822484D02*
X10278920Y-13812960D01*
X10278920Y-13812960D02*
X10288444Y-13803436D01*
X10288444Y-13803436D02*
X10297968Y-13784388D01*
X10297968Y-13784388D02*
X10297968Y-13746293D01*
X10297968Y-13746293D02*
X10288444Y-13727246D01*
X10288444Y-13727246D02*
X10278920Y-13717722D01*
X10278920Y-13717722D02*
X10259872Y-13708198D01*
X10488444Y-13822484D02*
X10374158Y-13822484D01*
X10431301Y-13822484D02*
X10431301Y-13622484D01*
X10431301Y-13622484D02*
X10412253Y-13651055D01*
X10412253Y-13651055D02*
X10393206Y-13670103D01*
X10393206Y-13670103D02*
X10374158Y-13679627D01*
X10564634Y-13622484D02*
X10564634Y-13660579D01*
X10640825Y-13622484D02*
X10640825Y-13660579D01*
X10936063Y-13898674D02*
X10926539Y-13889150D01*
X10926539Y-13889150D02*
X10907491Y-13860579D01*
X10907491Y-13860579D02*
X10897968Y-13841531D01*
X10897968Y-13841531D02*
X10888444Y-13812960D01*
X10888444Y-13812960D02*
X10878920Y-13765341D01*
X10878920Y-13765341D02*
X10878920Y-13727246D01*
X10878920Y-13727246D02*
X10888444Y-13679627D01*
X10888444Y-13679627D02*
X10897968Y-13651055D01*
X10897968Y-13651055D02*
X10907491Y-13632008D01*
X10907491Y-13632008D02*
X10926539Y-13603436D01*
X10926539Y-13603436D02*
X10936063Y-13593912D01*
X11117015Y-13822484D02*
X11002730Y-13822484D01*
X11059872Y-13822484D02*
X11059872Y-13622484D01*
X11059872Y-13622484D02*
X11040825Y-13651055D01*
X11040825Y-13651055D02*
X11021777Y-13670103D01*
X11021777Y-13670103D02*
X11002730Y-13679627D01*
X11355110Y-13822484D02*
X11355110Y-13622484D01*
X11440825Y-13822484D02*
X11440825Y-13717722D01*
X11440825Y-13717722D02*
X11431301Y-13698674D01*
X11431301Y-13698674D02*
X11412253Y-13689150D01*
X11412253Y-13689150D02*
X11383682Y-13689150D01*
X11383682Y-13689150D02*
X11364634Y-13698674D01*
X11364634Y-13698674D02*
X11355110Y-13708198D01*
X11564634Y-13822484D02*
X11545587Y-13812960D01*
X11545587Y-13812960D02*
X11536063Y-13803436D01*
X11536063Y-13803436D02*
X11526539Y-13784388D01*
X11526539Y-13784388D02*
X11526539Y-13727246D01*
X11526539Y-13727246D02*
X11536063Y-13708198D01*
X11536063Y-13708198D02*
X11545587Y-13698674D01*
X11545587Y-13698674D02*
X11564634Y-13689150D01*
X11564634Y-13689150D02*
X11593206Y-13689150D01*
X11593206Y-13689150D02*
X11612253Y-13698674D01*
X11612253Y-13698674D02*
X11621777Y-13708198D01*
X11621777Y-13708198D02*
X11631301Y-13727246D01*
X11631301Y-13727246D02*
X11631301Y-13784388D01*
X11631301Y-13784388D02*
X11621777Y-13803436D01*
X11621777Y-13803436D02*
X11612253Y-13812960D01*
X11612253Y-13812960D02*
X11593206Y-13822484D01*
X11593206Y-13822484D02*
X11564634Y-13822484D01*
X11745587Y-13822484D02*
X11726539Y-13812960D01*
X11726539Y-13812960D02*
X11717015Y-13793912D01*
X11717015Y-13793912D02*
X11717015Y-13622484D01*
X11897968Y-13812960D02*
X11878920Y-13822484D01*
X11878920Y-13822484D02*
X11840825Y-13822484D01*
X11840825Y-13822484D02*
X11821777Y-13812960D01*
X11821777Y-13812960D02*
X11812253Y-13793912D01*
X11812253Y-13793912D02*
X11812253Y-13717722D01*
X11812253Y-13717722D02*
X11821777Y-13698674D01*
X11821777Y-13698674D02*
X11840825Y-13689150D01*
X11840825Y-13689150D02*
X11878920Y-13689150D01*
X11878920Y-13689150D02*
X11897968Y-13698674D01*
X11897968Y-13698674D02*
X11907491Y-13717722D01*
X11907491Y-13717722D02*
X11907491Y-13736769D01*
X11907491Y-13736769D02*
X11812253Y-13755817D01*
X11974158Y-13898674D02*
X11983682Y-13889150D01*
X11983682Y-13889150D02*
X12002730Y-13860579D01*
X12002730Y-13860579D02*
X12012253Y-13841531D01*
X12012253Y-13841531D02*
X12021777Y-13812960D01*
X12021777Y-13812960D02*
X12031301Y-13765341D01*
X12031301Y-13765341D02*
X12031301Y-13727246D01*
X12031301Y-13727246D02*
X12021777Y-13679627D01*
X12021777Y-13679627D02*
X12012253Y-13651055D01*
X12012253Y-13651055D02*
X12002730Y-13632008D01*
X12002730Y-13632008D02*
X11983682Y-13603436D01*
X11983682Y-13603436D02*
X11974158Y-13593912D01*
X12336063Y-13898674D02*
X12326539Y-13889150D01*
X12326539Y-13889150D02*
X12307491Y-13860579D01*
X12307491Y-13860579D02*
X12297968Y-13841531D01*
X12297968Y-13841531D02*
X12288444Y-13812960D01*
X12288444Y-13812960D02*
X12278920Y-13765341D01*
X12278920Y-13765341D02*
X12278920Y-13727246D01*
X12278920Y-13727246D02*
X12288444Y-13679627D01*
X12288444Y-13679627D02*
X12297968Y-13651055D01*
X12297968Y-13651055D02*
X12307491Y-13632008D01*
X12307491Y-13632008D02*
X12326539Y-13603436D01*
X12326539Y-13603436D02*
X12336063Y-13593912D01*
X12412253Y-13689150D02*
X12412253Y-13822484D01*
X12412253Y-13708198D02*
X12421777Y-13698674D01*
X12421777Y-13698674D02*
X12440825Y-13689150D01*
X12440825Y-13689150D02*
X12469396Y-13689150D01*
X12469396Y-13689150D02*
X12488444Y-13698674D01*
X12488444Y-13698674D02*
X12497968Y-13717722D01*
X12497968Y-13717722D02*
X12497968Y-13822484D01*
X12621777Y-13822484D02*
X12602730Y-13812960D01*
X12602730Y-13812960D02*
X12593206Y-13803436D01*
X12593206Y-13803436D02*
X12583682Y-13784388D01*
X12583682Y-13784388D02*
X12583682Y-13727246D01*
X12583682Y-13727246D02*
X12593206Y-13708198D01*
X12593206Y-13708198D02*
X12602730Y-13698674D01*
X12602730Y-13698674D02*
X12621777Y-13689150D01*
X12621777Y-13689150D02*
X12650349Y-13689150D01*
X12650349Y-13689150D02*
X12669396Y-13698674D01*
X12669396Y-13698674D02*
X12678920Y-13708198D01*
X12678920Y-13708198D02*
X12688444Y-13727246D01*
X12688444Y-13727246D02*
X12688444Y-13784388D01*
X12688444Y-13784388D02*
X12678920Y-13803436D01*
X12678920Y-13803436D02*
X12669396Y-13812960D01*
X12669396Y-13812960D02*
X12650349Y-13822484D01*
X12650349Y-13822484D02*
X12621777Y-13822484D01*
X12745587Y-13689150D02*
X12821777Y-13689150D01*
X12774158Y-13622484D02*
X12774158Y-13793912D01*
X12774158Y-13793912D02*
X12783682Y-13812960D01*
X12783682Y-13812960D02*
X12802730Y-13822484D01*
X12802730Y-13822484D02*
X12821777Y-13822484D01*
X13040825Y-13689150D02*
X13040825Y-13889150D01*
X13040825Y-13698674D02*
X13059872Y-13689150D01*
X13059872Y-13689150D02*
X13097968Y-13689150D01*
X13097968Y-13689150D02*
X13117015Y-13698674D01*
X13117015Y-13698674D02*
X13126539Y-13708198D01*
X13126539Y-13708198D02*
X13136063Y-13727246D01*
X13136063Y-13727246D02*
X13136063Y-13784388D01*
X13136063Y-13784388D02*
X13126539Y-13803436D01*
X13126539Y-13803436D02*
X13117015Y-13812960D01*
X13117015Y-13812960D02*
X13097968Y-13822484D01*
X13097968Y-13822484D02*
X13059872Y-13822484D01*
X13059872Y-13822484D02*
X13040825Y-13812960D01*
X13250349Y-13822484D02*
X13231301Y-13812960D01*
X13231301Y-13812960D02*
X13221777Y-13793912D01*
X13221777Y-13793912D02*
X13221777Y-13622484D01*
X13412253Y-13822484D02*
X13412253Y-13717722D01*
X13412253Y-13717722D02*
X13402730Y-13698674D01*
X13402730Y-13698674D02*
X13383682Y-13689150D01*
X13383682Y-13689150D02*
X13345587Y-13689150D01*
X13345587Y-13689150D02*
X13326539Y-13698674D01*
X13412253Y-13812960D02*
X13393206Y-13822484D01*
X13393206Y-13822484D02*
X13345587Y-13822484D01*
X13345587Y-13822484D02*
X13326539Y-13812960D01*
X13326539Y-13812960D02*
X13317015Y-13793912D01*
X13317015Y-13793912D02*
X13317015Y-13774865D01*
X13317015Y-13774865D02*
X13326539Y-13755817D01*
X13326539Y-13755817D02*
X13345587Y-13746293D01*
X13345587Y-13746293D02*
X13393206Y-13746293D01*
X13393206Y-13746293D02*
X13412253Y-13736769D01*
X13478920Y-13689150D02*
X13555111Y-13689150D01*
X13507492Y-13622484D02*
X13507492Y-13793912D01*
X13507492Y-13793912D02*
X13517015Y-13812960D01*
X13517015Y-13812960D02*
X13536063Y-13822484D01*
X13536063Y-13822484D02*
X13555111Y-13822484D01*
X13697968Y-13812960D02*
X13678920Y-13822484D01*
X13678920Y-13822484D02*
X13640825Y-13822484D01*
X13640825Y-13822484D02*
X13621777Y-13812960D01*
X13621777Y-13812960D02*
X13612253Y-13793912D01*
X13612253Y-13793912D02*
X13612253Y-13717722D01*
X13612253Y-13717722D02*
X13621777Y-13698674D01*
X13621777Y-13698674D02*
X13640825Y-13689150D01*
X13640825Y-13689150D02*
X13678920Y-13689150D01*
X13678920Y-13689150D02*
X13697968Y-13698674D01*
X13697968Y-13698674D02*
X13707492Y-13717722D01*
X13707492Y-13717722D02*
X13707492Y-13736769D01*
X13707492Y-13736769D02*
X13612253Y-13755817D01*
X13878920Y-13822484D02*
X13878920Y-13622484D01*
X13878920Y-13812960D02*
X13859873Y-13822484D01*
X13859873Y-13822484D02*
X13821777Y-13822484D01*
X13821777Y-13822484D02*
X13802730Y-13812960D01*
X13802730Y-13812960D02*
X13793206Y-13803436D01*
X13793206Y-13803436D02*
X13783682Y-13784388D01*
X13783682Y-13784388D02*
X13783682Y-13727246D01*
X13783682Y-13727246D02*
X13793206Y-13708198D01*
X13793206Y-13708198D02*
X13802730Y-13698674D01*
X13802730Y-13698674D02*
X13821777Y-13689150D01*
X13821777Y-13689150D02*
X13859873Y-13689150D01*
X13859873Y-13689150D02*
X13878920Y-13698674D01*
X13955111Y-13898674D02*
X13964634Y-13889150D01*
X13964634Y-13889150D02*
X13983682Y-13860579D01*
X13983682Y-13860579D02*
X13993206Y-13841531D01*
X13993206Y-13841531D02*
X14002730Y-13812960D01*
X14002730Y-13812960D02*
X14012253Y-13765341D01*
X14012253Y-13765341D02*
X14012253Y-13727246D01*
X14012253Y-13727246D02*
X14002730Y-13679627D01*
X14002730Y-13679627D02*
X13993206Y-13651055D01*
X13993206Y-13651055D02*
X13983682Y-13632008D01*
X13983682Y-13632008D02*
X13964634Y-13603436D01*
X13964634Y-13603436D02*
X13955111Y-13593912D01*
M02*
