M48
; DRILL file {KiCad 8.0.2} date 2024-08-21T05:46:30-0400
; FORMAT={-:-/ absolute / metric / decimal}
; #@! TF.CreationDate,2024-08-21T05:46:30-04:00
; #@! TF.GenerationSoftware,Kicad,Pcbnew,8.0.2
; #@! TF.FileFunction,Plated,1,2,PTH
FMAT,2
METRIC
; #@! TA.AperFunction,Plated,PTH,ViaDrill
T1C0.400
; #@! TA.AperFunction,Plated,PTH,ComponentDrill
T2C0.600
; #@! TA.AperFunction,Plated,PTH,ComponentDrill
T3C1.000
; #@! TA.AperFunction,Plated,PTH,ComponentDrill
T4C1.500
; #@! TA.AperFunction,Plated,PTH,ComponentDrill
T5C2.000
%
G90
G05
T1
X112.014Y-100.838
X118.872Y-111.252
X122.936Y-105.156
X122.936Y-111.252
X122.936Y-114.046
X129.794Y-101.092
X131.572Y-106.68
X131.572Y-107.95
X134.62Y-110.744
X134.62Y-113.792
X134.62Y-116.586
X134.62Y-119.38
X134.62Y-122.174
X138.684Y-109.728
X142.24Y-112.522
X144.018Y-109.728
X147.828Y-109.474
X147.828Y-112.522
X149.606Y-106.68
X153.416Y-108.712
X159.512Y-109.474
X160.02Y-119.38
X161.036Y-111.252
X162.28Y-109.474
X164.084Y-112.014
X164.338Y-120.904
X167.626Y-102.821
X167.894Y-109.474
X170.434Y-102.844
X184.15Y-114.554
X184.15Y-117.856
X196.596Y-116.332
T3
X131.866Y-97.744
X134.366Y-97.744
X136.866Y-97.744
T4
X87.224Y-95.348
X87.224Y-106.778
X99.924Y-95.348
X99.924Y-106.778
T5
X188.298Y-98.96
X191.998Y-100.96
X193.798Y-98.96
X197.498Y-100.96
X199.898Y-98.96
T2
X199.9Y-107.44G85X200.5Y-107.44
G05
X199.9Y-116.08G85X200.5Y-116.08
G05
X203.7Y-107.44G85X204.3Y-107.44
G05
X203.7Y-116.08G85X204.3Y-116.08
G05
M30
