G04 #@! TF.GenerationSoftware,KiCad,Pcbnew,8.0.2*
G04 #@! TF.CreationDate,2024-08-21T05:46:25-04:00*
G04 #@! TF.ProjectId,plugnslay,706c7567-6e73-46c6-9179-2e6b69636164,rev?*
G04 #@! TF.SameCoordinates,Original*
G04 #@! TF.FileFunction,Copper,L1,Top*
G04 #@! TF.FilePolarity,Positive*
%FSLAX46Y46*%
G04 Gerber Fmt 4.6, Leading zero omitted, Abs format (unit mm)*
G04 Created by KiCad (PCBNEW 8.0.2) date 2024-08-21 05:46:25*
%MOMM*%
%LPD*%
G01*
G04 APERTURE LIST*
G04 Aperture macros list*
%AMRoundRect*
0 Rectangle with rounded corners*
0 $1 Rounding radius*
0 $2 $3 $4 $5 $6 $7 $8 $9 X,Y pos of 4 corners*
0 Add a 4 corners polygon primitive as box body*
4,1,4,$2,$3,$4,$5,$6,$7,$8,$9,$2,$3,0*
0 Add four circle primitives for the rounded corners*
1,1,$1+$1,$2,$3*
1,1,$1+$1,$4,$5*
1,1,$1+$1,$6,$7*
1,1,$1+$1,$8,$9*
0 Add four rect primitives between the rounded corners*
20,1,$1+$1,$2,$3,$4,$5,0*
20,1,$1+$1,$4,$5,$6,$7,0*
20,1,$1+$1,$6,$7,$8,$9,0*
20,1,$1+$1,$8,$9,$2,$3,0*%
%AMHorizOval*
0 Thick line with rounded ends*
0 $1 width*
0 $2 $3 position (X,Y) of the first rounded end (center of the circle)*
0 $4 $5 position (X,Y) of the second rounded end (center of the circle)*
0 Add line between two ends*
20,1,$1,$2,$3,$4,$5,0*
0 Add two circle primitives to create the rounded ends*
1,1,$1,$2,$3*
1,1,$1,$4,$5*%
G04 Aperture macros list end*
G04 #@! TA.AperFunction,SMDPad,CuDef*
%ADD10RoundRect,0.250000X-0.625000X0.400000X-0.625000X-0.400000X0.625000X-0.400000X0.625000X0.400000X0*%
G04 #@! TD*
G04 #@! TA.AperFunction,SMDPad,CuDef*
%ADD11RoundRect,0.175000X0.425000X-0.175000X0.425000X0.175000X-0.425000X0.175000X-0.425000X-0.175000X0*%
G04 #@! TD*
G04 #@! TA.AperFunction,SMDPad,CuDef*
%ADD12RoundRect,0.190000X-0.410000X0.190000X-0.410000X-0.190000X0.410000X-0.190000X0.410000X0.190000X0*%
G04 #@! TD*
G04 #@! TA.AperFunction,SMDPad,CuDef*
%ADD13RoundRect,0.200000X-0.400000X0.200000X-0.400000X-0.200000X0.400000X-0.200000X0.400000X0.200000X0*%
G04 #@! TD*
G04 #@! TA.AperFunction,SMDPad,CuDef*
%ADD14RoundRect,0.175000X-0.425000X0.175000X-0.425000X-0.175000X0.425000X-0.175000X0.425000X0.175000X0*%
G04 #@! TD*
G04 #@! TA.AperFunction,SMDPad,CuDef*
%ADD15RoundRect,0.190000X0.410000X-0.190000X0.410000X0.190000X-0.410000X0.190000X-0.410000X-0.190000X0*%
G04 #@! TD*
G04 #@! TA.AperFunction,SMDPad,CuDef*
%ADD16RoundRect,0.200000X0.400000X-0.200000X0.400000X0.200000X-0.400000X0.200000X-0.400000X-0.200000X0*%
G04 #@! TD*
G04 #@! TA.AperFunction,ComponentPad*
%ADD17O,1.700000X1.100000*%
G04 #@! TD*
G04 #@! TA.AperFunction,SMDPad,CuDef*
%ADD18RoundRect,0.250000X0.625000X-0.400000X0.625000X0.400000X-0.625000X0.400000X-0.625000X-0.400000X0*%
G04 #@! TD*
G04 #@! TA.AperFunction,SMDPad,CuDef*
%ADD19RoundRect,0.225000X-0.375000X0.225000X-0.375000X-0.225000X0.375000X-0.225000X0.375000X0.225000X0*%
G04 #@! TD*
G04 #@! TA.AperFunction,SMDPad,CuDef*
%ADD20RoundRect,0.250000X0.650000X-0.412500X0.650000X0.412500X-0.650000X0.412500X-0.650000X-0.412500X0*%
G04 #@! TD*
G04 #@! TA.AperFunction,SMDPad,CuDef*
%ADD21RoundRect,0.150000X-0.825000X-0.150000X0.825000X-0.150000X0.825000X0.150000X-0.825000X0.150000X0*%
G04 #@! TD*
G04 #@! TA.AperFunction,ComponentPad*
%ADD22C,3.000000*%
G04 #@! TD*
G04 #@! TA.AperFunction,SMDPad,CuDef*
%ADD23RoundRect,0.250000X0.400000X0.625000X-0.400000X0.625000X-0.400000X-0.625000X0.400000X-0.625000X0*%
G04 #@! TD*
G04 #@! TA.AperFunction,SMDPad,CuDef*
%ADD24RoundRect,0.250000X0.412500X0.650000X-0.412500X0.650000X-0.412500X-0.650000X0.412500X-0.650000X0*%
G04 #@! TD*
G04 #@! TA.AperFunction,SMDPad,CuDef*
%ADD25RoundRect,0.250000X-0.650000X0.412500X-0.650000X-0.412500X0.650000X-0.412500X0.650000X0.412500X0*%
G04 #@! TD*
G04 #@! TA.AperFunction,SMDPad,CuDef*
%ADD26RoundRect,0.250000X-0.400000X-0.625000X0.400000X-0.625000X0.400000X0.625000X-0.400000X0.625000X0*%
G04 #@! TD*
G04 #@! TA.AperFunction,SMDPad,CuDef*
%ADD27RoundRect,0.250000X-0.412500X-0.650000X0.412500X-0.650000X0.412500X0.650000X-0.412500X0.650000X0*%
G04 #@! TD*
G04 #@! TA.AperFunction,ComponentPad*
%ADD28HorizOval,2.400000X0.212132X-0.212132X-0.212132X0.212132X0*%
G04 #@! TD*
G04 #@! TA.AperFunction,SMDPad,CuDef*
%ADD29RoundRect,0.225000X-0.225000X-0.375000X0.225000X-0.375000X0.225000X0.375000X-0.225000X0.375000X0*%
G04 #@! TD*
G04 #@! TA.AperFunction,WasherPad*
%ADD30C,4.000000*%
G04 #@! TD*
G04 #@! TA.AperFunction,ComponentPad*
%ADD31C,1.800000*%
G04 #@! TD*
G04 #@! TA.AperFunction,SMDPad,CuDef*
%ADD32RoundRect,0.225000X0.225000X0.375000X-0.225000X0.375000X-0.225000X-0.375000X0.225000X-0.375000X0*%
G04 #@! TD*
G04 #@! TA.AperFunction,SMDPad,CuDef*
%ADD33RoundRect,0.225000X0.375000X-0.225000X0.375000X0.225000X-0.375000X0.225000X-0.375000X-0.225000X0*%
G04 #@! TD*
G04 #@! TA.AperFunction,ViaPad*
%ADD34C,0.800000*%
G04 #@! TD*
G04 #@! TA.AperFunction,Conductor*
%ADD35C,0.250000*%
G04 #@! TD*
G04 APERTURE END LIST*
D10*
X142240000Y-110972000D03*
X142240000Y-114072000D03*
D11*
X200120000Y-112260000D03*
D12*
X200120000Y-110240000D03*
D13*
X200120000Y-109010000D03*
D14*
X200120000Y-111260000D03*
D15*
X200120000Y-113280000D03*
D16*
X200120000Y-114510000D03*
D17*
X200200000Y-116080000D03*
X204000000Y-116080000D03*
X200200000Y-107440000D03*
X204000000Y-107440000D03*
D18*
X118872000Y-112776000D03*
X118872000Y-109676000D03*
D19*
X162306000Y-107824000D03*
X162306000Y-111124000D03*
D20*
X149606000Y-108242500D03*
X149606000Y-105117500D03*
D21*
X133669000Y-104267000D03*
X133669000Y-105537000D03*
X133669000Y-106807000D03*
X133669000Y-108077000D03*
X138619000Y-108077000D03*
X138619000Y-106807000D03*
X138619000Y-105537000D03*
X138619000Y-104267000D03*
D22*
X87224000Y-106778000D03*
X87224000Y-95348000D03*
X99924000Y-106778000D03*
X99924000Y-95348000D03*
D23*
X185700000Y-117856000D03*
X182600000Y-117856000D03*
D19*
X159512000Y-107824000D03*
X159512000Y-111124000D03*
D18*
X145796000Y-114072000D03*
X145796000Y-110972000D03*
D23*
X161570000Y-114046000D03*
X158470000Y-114046000D03*
D24*
X136182500Y-119380000D03*
X133057500Y-119380000D03*
D23*
X136170000Y-122174000D03*
X133070000Y-122174000D03*
D24*
X161582500Y-122174000D03*
X158457500Y-122174000D03*
D25*
X142240000Y-105117500D03*
X142240000Y-108242500D03*
D26*
X128244000Y-101092000D03*
X131344000Y-101092000D03*
D25*
X116078000Y-103593500D03*
X116078000Y-106718500D03*
D27*
X121335000Y-111252000D03*
X124460000Y-111252000D03*
D21*
X165302000Y-107134000D03*
X165302000Y-108404000D03*
X165302000Y-109674000D03*
X165302000Y-110944000D03*
X170252000Y-110944000D03*
X170252000Y-109674000D03*
X170252000Y-108404000D03*
X170252000Y-107134000D03*
D10*
X149606000Y-110972000D03*
X149606000Y-114072000D03*
D28*
X191998000Y-100960000D03*
X193798000Y-98960000D03*
X199898000Y-98960000D03*
X197498000Y-100960000D03*
X188298000Y-98960000D03*
D25*
X170434000Y-101307500D03*
X170434000Y-104432500D03*
D18*
X176250000Y-110770000D03*
X176250000Y-107670000D03*
D29*
X121286000Y-105156000D03*
X124586000Y-105156000D03*
D30*
X129966000Y-90744000D03*
X138766000Y-90744000D03*
D31*
X136866000Y-97744000D03*
X134366000Y-97744000D03*
X131866000Y-97744000D03*
D26*
X133070000Y-116586000D03*
X136170000Y-116586000D03*
X121386000Y-108204000D03*
X124486000Y-108204000D03*
D32*
X161670000Y-116840000D03*
X158370000Y-116840000D03*
D29*
X158370000Y-119380000D03*
X161670000Y-119380000D03*
D20*
X167640000Y-104432500D03*
X167640000Y-101307500D03*
D26*
X136626000Y-101346000D03*
X139726000Y-101346000D03*
D18*
X118872000Y-106706000D03*
X118872000Y-103606000D03*
D26*
X110464000Y-103632000D03*
X113564000Y-103632000D03*
D32*
X124586000Y-114046000D03*
X121286000Y-114046000D03*
D25*
X196596000Y-114808000D03*
X196596000Y-117933000D03*
D18*
X164338000Y-122454000D03*
X164338000Y-119354000D03*
D23*
X185700000Y-114554000D03*
X182600000Y-114554000D03*
D33*
X156972000Y-111124000D03*
X156972000Y-107824000D03*
D26*
X110464000Y-100838000D03*
X113564000Y-100838000D03*
D18*
X145796000Y-108230000D03*
X145796000Y-105130000D03*
D24*
X136182500Y-110744000D03*
X133057500Y-110744000D03*
D33*
X173482000Y-110616000D03*
X173482000Y-107316000D03*
D27*
X133057500Y-113792000D03*
X136182500Y-113792000D03*
D34*
X134620000Y-113792000D03*
X129794000Y-101092000D03*
X167626153Y-102820847D03*
X122936000Y-111252000D03*
X184150000Y-114554000D03*
X134620000Y-110744000D03*
X147828000Y-109474000D03*
X196596000Y-116332000D03*
X112014000Y-100838000D03*
X142240000Y-112522000D03*
X118872000Y-111252000D03*
X131572000Y-107950000D03*
X134620000Y-122174000D03*
X160020000Y-119380000D03*
X134620000Y-119380000D03*
X184150000Y-117856000D03*
X164084000Y-112014000D03*
X170434000Y-102844000D03*
X164338000Y-120904000D03*
X122936000Y-114046000D03*
X131572000Y-106680000D03*
X122936000Y-105156000D03*
X138684000Y-109728000D03*
X134620000Y-116586000D03*
X153416000Y-108712000D03*
X149606000Y-106680000D03*
X162280000Y-109474000D03*
X161036000Y-111252000D03*
X159512000Y-109474000D03*
X144018000Y-109728000D03*
X147828000Y-112522000D03*
X167894000Y-109474000D03*
D35*
X182600000Y-117856000D02*
X184150000Y-117856000D01*
X149606000Y-108242500D02*
X149059500Y-108242500D01*
X164232000Y-112014000D02*
X165302000Y-110944000D01*
X167640000Y-102807000D02*
X167640000Y-101307500D01*
X121335000Y-111252000D02*
X122936000Y-111252000D01*
X133057500Y-110744000D02*
X134620000Y-110744000D01*
X121286000Y-114046000D02*
X122936000Y-114046000D01*
X128244000Y-101092000D02*
X129794000Y-101092000D01*
X131572000Y-107950000D02*
X131699000Y-108077000D01*
X149326000Y-110972000D02*
X147828000Y-109474000D01*
X182600000Y-114554000D02*
X184150000Y-114554000D01*
X131699000Y-108077000D02*
X133669000Y-108077000D01*
X118872000Y-112776000D02*
X118872000Y-111252000D01*
X136182500Y-119380000D02*
X134620000Y-119380000D01*
X200120000Y-114510000D02*
X200120000Y-116000000D01*
X133057500Y-113792000D02*
X134620000Y-113792000D01*
X164084000Y-112014000D02*
X164232000Y-112014000D01*
X149606000Y-110972000D02*
X149326000Y-110972000D01*
X200120000Y-109010000D02*
X200120000Y-107520000D01*
X149059500Y-108242500D02*
X147828000Y-109474000D01*
X200120000Y-107520000D02*
X200200000Y-107440000D01*
X110464000Y-100838000D02*
X112014000Y-100838000D01*
X196596000Y-117933000D02*
X196596000Y-116332000D01*
X164338000Y-119354000D02*
X164338000Y-120904000D01*
X142240000Y-114072000D02*
X142240000Y-112522000D01*
X200120000Y-116000000D02*
X200200000Y-116080000D01*
X136170000Y-122174000D02*
X134620000Y-122174000D01*
X161670000Y-119380000D02*
X160020000Y-119380000D01*
X170434000Y-102844000D02*
X170434000Y-101307500D01*
X167626153Y-102820847D02*
X167640000Y-102807000D01*
X124486000Y-108204000D02*
X124486000Y-111226000D01*
X124486000Y-105256000D02*
X124586000Y-105156000D01*
X124486000Y-108204000D02*
X124486000Y-105256000D01*
X133669000Y-106807000D02*
X131699000Y-106807000D01*
X124486000Y-111226000D02*
X124460000Y-111252000D01*
X122936000Y-105156000D02*
X124586000Y-105156000D01*
X131699000Y-106807000D02*
X131572000Y-106680000D01*
X124586000Y-114046000D02*
X124586000Y-111378000D01*
X124586000Y-111378000D02*
X124460000Y-111252000D01*
X142240000Y-105117500D02*
X141008500Y-105117500D01*
X140589000Y-105537000D02*
X138619000Y-105537000D01*
X142252500Y-105130000D02*
X142240000Y-105117500D01*
X141008500Y-105117500D02*
X140589000Y-105537000D01*
X145796000Y-105130000D02*
X142252500Y-105130000D01*
X142240000Y-108242500D02*
X140804500Y-106807000D01*
X142240000Y-110972000D02*
X142240000Y-108242500D01*
X140804500Y-106807000D02*
X138619000Y-106807000D01*
X138619000Y-109663000D02*
X138619000Y-108077000D01*
X133057500Y-119380000D02*
X133057500Y-122161500D01*
X133057500Y-116598500D02*
X133070000Y-116586000D01*
X133057500Y-122161500D02*
X133070000Y-122174000D01*
X133057500Y-119380000D02*
X133057500Y-116598500D01*
X133070000Y-116586000D02*
X134620000Y-116586000D01*
X138684000Y-109728000D02*
X138619000Y-109663000D01*
X158370000Y-119760000D02*
X158457500Y-119847500D01*
X160020000Y-115190000D02*
X158370000Y-116840000D01*
X158457500Y-119847500D02*
X158457500Y-122174000D01*
X145834500Y-101346000D02*
X149606000Y-105117500D01*
X158370000Y-116840000D02*
X158370000Y-119380000D01*
X155828000Y-111124000D02*
X153416000Y-108712000D01*
X159512000Y-112268000D02*
X160020000Y-112776000D01*
X159512000Y-111124000D02*
X156972000Y-111124000D01*
X156972000Y-111124000D02*
X155828000Y-111124000D01*
X139726000Y-101346000D02*
X144056500Y-101346000D01*
X160020000Y-112776000D02*
X160020000Y-115190000D01*
X144056500Y-101346000D02*
X145834500Y-101346000D01*
X149606000Y-105841000D02*
X150329500Y-105117500D01*
X159512000Y-111124000D02*
X159512000Y-112268000D01*
X158370000Y-119380000D02*
X158370000Y-119760000D01*
X149606000Y-106680000D02*
X149606000Y-105841000D01*
X161862500Y-122454000D02*
X161582500Y-122174000D01*
X196824000Y-122454000D02*
X163894500Y-122454000D01*
X191998000Y-100960000D02*
X199520000Y-100960000D01*
X161582500Y-122174000D02*
X164058000Y-122174000D01*
X163894500Y-122454000D02*
X163614500Y-122174000D01*
X202184000Y-117094000D02*
X196824000Y-122454000D01*
X202184000Y-103624000D02*
X202184000Y-117094000D01*
X199520000Y-100960000D02*
X202184000Y-103624000D01*
X164058000Y-122174000D02*
X164338000Y-122454000D01*
X139508000Y-103378000D02*
X139954000Y-103378000D01*
X138619000Y-104267000D02*
X139508000Y-103378000D01*
X158470000Y-114046000D02*
X158470000Y-113818000D01*
X161036000Y-111506000D02*
X161570000Y-112040000D01*
X161036000Y-111252000D02*
X161036000Y-111506000D01*
X161164000Y-111124000D02*
X162306000Y-111124000D01*
X165302000Y-108404000D02*
X163350000Y-108404000D01*
X163350000Y-108404000D02*
X162280000Y-109474000D01*
X161036000Y-111252000D02*
X161164000Y-111124000D01*
X161570000Y-112040000D02*
X161570000Y-114046000D01*
X163376000Y-107134000D02*
X165302000Y-107134000D01*
X162306000Y-107824000D02*
X162686000Y-107824000D01*
X162686000Y-107824000D02*
X163376000Y-107134000D01*
X159512000Y-107824000D02*
X162306000Y-107824000D01*
X172774000Y-108404000D02*
X173482000Y-107696000D01*
X170252000Y-108404000D02*
X172774000Y-108404000D01*
X166961000Y-106509000D02*
X168856000Y-108404000D01*
X173482000Y-107696000D02*
X173482000Y-107316000D01*
X156972000Y-107824000D02*
X158287000Y-106509000D01*
X168856000Y-108404000D02*
X170252000Y-108404000D01*
X158287000Y-106509000D02*
X166961000Y-106509000D01*
X173482000Y-110616000D02*
X176096000Y-110616000D01*
X176096000Y-110616000D02*
X176250000Y-110770000D01*
X173482000Y-110616000D02*
X172540000Y-109674000D01*
X172540000Y-109674000D02*
X170252000Y-109674000D01*
X107318000Y-106778000D02*
X110464000Y-103632000D01*
X99924000Y-106778000D02*
X107318000Y-106778000D01*
X131927001Y-105537000D02*
X133669000Y-105537000D01*
X131318000Y-95504000D02*
X134626000Y-95504000D01*
X130302000Y-96520000D02*
X131318000Y-95504000D01*
X134626000Y-95504000D02*
X136866000Y-97744000D01*
X131344000Y-101092000D02*
X130302000Y-100050000D01*
X130302000Y-100050000D02*
X130302000Y-96520000D01*
X131344000Y-101092000D02*
X131344000Y-104953999D01*
X131927000Y-105537000D02*
X133669000Y-105537000D01*
X131344000Y-104953999D02*
X131927001Y-105537000D01*
X144018000Y-109728000D02*
X144298000Y-109728000D01*
X145796000Y-108230000D02*
X145796000Y-110972000D01*
X165302000Y-109674000D02*
X164777000Y-110199000D01*
X160237000Y-110199000D02*
X159512000Y-109474000D01*
X164777000Y-110199000D02*
X160237000Y-110199000D01*
X144298000Y-109728000D02*
X145796000Y-108230000D01*
X167894000Y-109474000D02*
X169364000Y-110944000D01*
X145796000Y-114072000D02*
X149606000Y-114072000D01*
X149378000Y-114072000D02*
X149606000Y-114072000D01*
X169364000Y-110944000D02*
X170252000Y-110944000D01*
X147828000Y-112522000D02*
X149378000Y-114072000D01*
X113564000Y-103632000D02*
X113564000Y-100838000D01*
X113564000Y-103632000D02*
X116039500Y-103632000D01*
X116039500Y-103632000D02*
X116078000Y-103593500D01*
X119914000Y-109676000D02*
X121386000Y-108204000D01*
X116078000Y-106718500D02*
X118859500Y-106718500D01*
X118872000Y-109676000D02*
X119914000Y-109676000D01*
X118872000Y-106706000D02*
X119888000Y-106706000D01*
X119888000Y-106706000D02*
X121386000Y-108204000D01*
X118859500Y-106718500D02*
X118872000Y-106706000D01*
X136626000Y-101346000D02*
X136626000Y-100004000D01*
X135001000Y-104267000D02*
X133669000Y-104267000D01*
X136626000Y-100004000D02*
X134366000Y-97744000D01*
X135382000Y-103886000D02*
X135001000Y-104267000D01*
X136626000Y-101346000D02*
X135636000Y-101346000D01*
X135636000Y-101346000D02*
X135382000Y-101600000D01*
X135382000Y-101600000D02*
X135382000Y-103886000D01*
X195102000Y-111260000D02*
X191192000Y-115170000D01*
X200120000Y-111260000D02*
X195102000Y-111260000D01*
X185808000Y-115170000D02*
X185700000Y-115062000D01*
X191192000Y-115170000D02*
X185808000Y-115170000D01*
X195102000Y-112260000D02*
X191192000Y-116170000D01*
X191192000Y-116170000D02*
X187132000Y-116170000D01*
X187132000Y-116170000D02*
X185700000Y-117602000D01*
X200120000Y-112260000D02*
X195102000Y-112260000D01*
G04 #@! TA.AperFunction,Conductor*
G36*
X200675677Y-83839685D02*
G01*
X200696319Y-83856319D01*
X205703681Y-88863681D01*
X205737166Y-88925004D01*
X205740000Y-88951362D01*
X205740000Y-119328638D01*
X205720315Y-119395677D01*
X205703681Y-119416319D01*
X200696319Y-124423681D01*
X200634996Y-124457166D01*
X200608638Y-124460000D01*
X78791362Y-124460000D01*
X78724323Y-124440315D01*
X78703681Y-124423681D01*
X73696319Y-119416319D01*
X73662834Y-119354996D01*
X73660000Y-119328638D01*
X73660000Y-106777998D01*
X85218390Y-106777998D01*
X85218390Y-106778001D01*
X85238804Y-107063433D01*
X85299628Y-107343037D01*
X85299630Y-107343043D01*
X85299631Y-107343046D01*
X85395342Y-107599656D01*
X85399635Y-107611166D01*
X85536770Y-107862309D01*
X85536775Y-107862317D01*
X85708254Y-108091387D01*
X85708270Y-108091405D01*
X85910594Y-108293729D01*
X85910612Y-108293745D01*
X86139682Y-108465224D01*
X86139690Y-108465229D01*
X86390833Y-108602364D01*
X86390832Y-108602364D01*
X86390836Y-108602365D01*
X86390839Y-108602367D01*
X86658954Y-108702369D01*
X86658960Y-108702370D01*
X86658962Y-108702371D01*
X86938566Y-108763195D01*
X86938568Y-108763195D01*
X86938572Y-108763196D01*
X87192220Y-108781337D01*
X87223999Y-108783610D01*
X87224000Y-108783610D01*
X87224001Y-108783610D01*
X87252595Y-108781564D01*
X87509428Y-108763196D01*
X87536868Y-108757227D01*
X87789037Y-108702371D01*
X87789037Y-108702370D01*
X87789046Y-108702369D01*
X88057161Y-108602367D01*
X88308315Y-108465226D01*
X88537395Y-108293739D01*
X88739739Y-108091395D01*
X88911226Y-107862315D01*
X89048367Y-107611161D01*
X89117431Y-107425992D01*
X89159300Y-107370062D01*
X89224764Y-107345645D01*
X89293037Y-107360497D01*
X89342443Y-107409902D01*
X89344095Y-107413032D01*
X89350701Y-107425996D01*
X89354476Y-107433405D01*
X89470172Y-107592646D01*
X89609354Y-107731828D01*
X89768595Y-107847524D01*
X89814666Y-107870998D01*
X89943970Y-107936882D01*
X89943972Y-107936882D01*
X89943975Y-107936884D01*
X89984342Y-107950000D01*
X90131173Y-107997709D01*
X90325578Y-108028500D01*
X90325583Y-108028500D01*
X90522422Y-108028500D01*
X90716826Y-107997709D01*
X90742238Y-107989452D01*
X90904025Y-107936884D01*
X91079405Y-107847524D01*
X91238646Y-107731828D01*
X91377828Y-107592646D01*
X91493524Y-107433405D01*
X91582884Y-107258025D01*
X91643709Y-107070826D01*
X91647667Y-107045834D01*
X91674500Y-106876422D01*
X91674500Y-106679577D01*
X91643709Y-106485173D01*
X91610837Y-106384005D01*
X91582884Y-106297975D01*
X91582882Y-106297972D01*
X91582882Y-106297970D01*
X91529166Y-106192547D01*
X91493524Y-106122595D01*
X91377828Y-105963354D01*
X91238646Y-105824172D01*
X91079405Y-105708476D01*
X91050370Y-105693682D01*
X90904029Y-105619117D01*
X90716826Y-105558290D01*
X90522422Y-105527500D01*
X90522417Y-105527500D01*
X90325583Y-105527500D01*
X90325578Y-105527500D01*
X90131173Y-105558290D01*
X89943970Y-105619117D01*
X89768594Y-105708476D01*
X89721458Y-105742723D01*
X89609354Y-105824172D01*
X89609352Y-105824174D01*
X89609351Y-105824174D01*
X89470174Y-105963351D01*
X89470174Y-105963352D01*
X89470172Y-105963354D01*
X89444523Y-105998657D01*
X89354475Y-106122595D01*
X89344094Y-106142969D01*
X89296118Y-106193763D01*
X89228296Y-106210556D01*
X89162162Y-106188016D01*
X89118712Y-106133299D01*
X89117447Y-106130051D01*
X89048367Y-105944839D01*
X89035539Y-105921347D01*
X88911229Y-105693690D01*
X88911224Y-105693682D01*
X88739745Y-105464612D01*
X88739729Y-105464594D01*
X88537405Y-105262270D01*
X88537387Y-105262254D01*
X88308317Y-105090775D01*
X88308309Y-105090770D01*
X88057166Y-104953635D01*
X88057167Y-104953635D01*
X87918728Y-104902000D01*
X87789046Y-104853631D01*
X87789043Y-104853630D01*
X87789037Y-104853628D01*
X87509433Y-104792804D01*
X87224001Y-104772390D01*
X87223999Y-104772390D01*
X86938566Y-104792804D01*
X86658962Y-104853628D01*
X86390833Y-104953635D01*
X86139690Y-105090770D01*
X86139682Y-105090775D01*
X85910612Y-105262254D01*
X85910594Y-105262270D01*
X85708270Y-105464594D01*
X85708254Y-105464612D01*
X85536775Y-105693682D01*
X85536770Y-105693690D01*
X85399635Y-105944833D01*
X85299628Y-106212962D01*
X85238804Y-106492566D01*
X85218390Y-106777998D01*
X73660000Y-106777998D01*
X73660000Y-104533258D01*
X95023500Y-104533258D01*
X95023500Y-104762741D01*
X95043086Y-104911500D01*
X95053452Y-104990238D01*
X95105543Y-105184646D01*
X95112842Y-105211887D01*
X95200650Y-105423876D01*
X95200657Y-105423890D01*
X95315392Y-105622617D01*
X95455081Y-105804661D01*
X95455089Y-105804670D01*
X95617330Y-105966911D01*
X95617338Y-105966918D01*
X95617339Y-105966919D01*
X95639655Y-105984043D01*
X95799382Y-106106607D01*
X95799385Y-106106608D01*
X95799388Y-106106611D01*
X95998112Y-106221344D01*
X95998117Y-106221346D01*
X95998123Y-106221349D01*
X96060210Y-106247066D01*
X96210113Y-106309158D01*
X96431762Y-106368548D01*
X96659266Y-106398500D01*
X96659273Y-106398500D01*
X96888727Y-106398500D01*
X96888734Y-106398500D01*
X97116238Y-106368548D01*
X97337887Y-106309158D01*
X97549888Y-106221344D01*
X97748612Y-106106611D01*
X97813282Y-106056987D01*
X97878447Y-106031794D01*
X97946892Y-106045831D01*
X97996882Y-106094645D01*
X98012547Y-106162736D01*
X98004950Y-106198692D01*
X97999629Y-106212959D01*
X97938804Y-106492566D01*
X97918390Y-106777998D01*
X97918390Y-106778001D01*
X97938804Y-107063433D01*
X97999628Y-107343037D01*
X97999630Y-107343043D01*
X97999631Y-107343046D01*
X98095342Y-107599656D01*
X98099635Y-107611166D01*
X98236770Y-107862309D01*
X98236775Y-107862317D01*
X98408254Y-108091387D01*
X98408270Y-108091405D01*
X98610594Y-108293729D01*
X98610612Y-108293745D01*
X98839682Y-108465224D01*
X98839690Y-108465229D01*
X99090833Y-108602364D01*
X99090832Y-108602364D01*
X99090836Y-108602365D01*
X99090839Y-108602367D01*
X99358954Y-108702369D01*
X99358960Y-108702370D01*
X99358962Y-108702371D01*
X99638566Y-108763195D01*
X99638568Y-108763195D01*
X99638572Y-108763196D01*
X99892220Y-108781337D01*
X99923999Y-108783610D01*
X99924000Y-108783610D01*
X99924001Y-108783610D01*
X99952595Y-108781564D01*
X100209428Y-108763196D01*
X100236868Y-108757227D01*
X100489037Y-108702371D01*
X100489037Y-108702370D01*
X100489046Y-108702369D01*
X100757161Y-108602367D01*
X101008315Y-108465226D01*
X101237395Y-108293739D01*
X101439739Y-108091395D01*
X101611226Y-107862315D01*
X101748367Y-107611161D01*
X101795734Y-107484166D01*
X101837606Y-107428232D01*
X101903071Y-107403816D01*
X101911916Y-107403500D01*
X107379607Y-107403500D01*
X107440029Y-107391481D01*
X107500452Y-107379463D01*
X107544272Y-107361312D01*
X107614286Y-107332312D01*
X107677155Y-107290303D01*
X107716733Y-107263858D01*
X107803858Y-107176733D01*
X107803859Y-107176731D01*
X107810925Y-107169665D01*
X107810928Y-107169661D01*
X108724606Y-106255983D01*
X114677500Y-106255983D01*
X114677500Y-107181001D01*
X114677501Y-107181019D01*
X114688000Y-107283796D01*
X114688001Y-107283799D01*
X114743185Y-107450331D01*
X114743187Y-107450336D01*
X114761958Y-107480769D01*
X114835288Y-107599656D01*
X114959344Y-107723712D01*
X115108666Y-107815814D01*
X115275203Y-107870999D01*
X115377991Y-107881500D01*
X116778008Y-107881499D01*
X116880797Y-107870999D01*
X117047334Y-107815814D01*
X117196656Y-107723712D01*
X117320712Y-107599656D01*
X117389671Y-107487855D01*
X117441619Y-107441130D01*
X117510581Y-107429907D01*
X117574664Y-107457751D01*
X117600749Y-107487855D01*
X117650460Y-107568451D01*
X117654288Y-107574656D01*
X117778344Y-107698712D01*
X117927666Y-107790814D01*
X118094203Y-107845999D01*
X118196991Y-107856500D01*
X119547008Y-107856499D01*
X119649797Y-107845999D01*
X119816334Y-107790814D01*
X119901053Y-107738559D01*
X119968442Y-107720120D01*
X120035106Y-107741042D01*
X120053828Y-107756418D01*
X120199181Y-107901771D01*
X120232666Y-107963094D01*
X120235500Y-107989452D01*
X120235500Y-108418546D01*
X120215815Y-108485585D01*
X120199185Y-108506222D01*
X120132224Y-108573184D01*
X120069908Y-108635500D01*
X120008585Y-108668984D01*
X119938893Y-108664000D01*
X119917131Y-108653357D01*
X119816340Y-108591189D01*
X119816335Y-108591187D01*
X119816334Y-108591186D01*
X119649797Y-108536001D01*
X119649795Y-108536000D01*
X119547010Y-108525500D01*
X118196998Y-108525500D01*
X118196981Y-108525501D01*
X118094203Y-108536000D01*
X118094200Y-108536001D01*
X117927668Y-108591185D01*
X117927663Y-108591187D01*
X117778342Y-108683289D01*
X117654289Y-108807342D01*
X117562187Y-108956663D01*
X117562185Y-108956668D01*
X117547329Y-109001500D01*
X117507001Y-109123203D01*
X117507001Y-109123204D01*
X117507000Y-109123204D01*
X117496500Y-109225983D01*
X117496500Y-110126001D01*
X117496501Y-110126019D01*
X117507000Y-110228796D01*
X117507001Y-110228799D01*
X117562185Y-110395331D01*
X117562187Y-110395336D01*
X117576908Y-110419203D01*
X117654288Y-110544656D01*
X117778344Y-110668712D01*
X117927666Y-110760814D01*
X117952463Y-110769031D01*
X118009907Y-110808802D01*
X118036730Y-110873318D01*
X118031389Y-110925054D01*
X117986327Y-111063740D01*
X117986326Y-111063744D01*
X117966540Y-111252000D01*
X117986326Y-111440256D01*
X117986327Y-111440259D01*
X118016135Y-111531999D01*
X118018130Y-111601840D01*
X117982050Y-111661673D01*
X117937216Y-111688020D01*
X117927671Y-111691183D01*
X117927669Y-111691184D01*
X117778342Y-111783289D01*
X117654289Y-111907342D01*
X117562187Y-112056663D01*
X117562185Y-112056668D01*
X117546182Y-112104962D01*
X117507001Y-112223203D01*
X117507001Y-112223204D01*
X117507000Y-112223204D01*
X117496500Y-112325983D01*
X117496500Y-113226001D01*
X117496501Y-113226019D01*
X117507000Y-113328796D01*
X117507001Y-113328799D01*
X117562185Y-113495331D01*
X117562187Y-113495336D01*
X117583568Y-113530000D01*
X117654288Y-113644656D01*
X117778344Y-113768712D01*
X117927666Y-113860814D01*
X118094203Y-113915999D01*
X118196991Y-113926500D01*
X119547008Y-113926499D01*
X119649797Y-113915999D01*
X119816334Y-113860814D01*
X119965656Y-113768712D01*
X120089712Y-113644656D01*
X120105961Y-113618311D01*
X120157909Y-113571587D01*
X120226871Y-113560364D01*
X120290953Y-113588207D01*
X120329810Y-113646276D01*
X120335500Y-113683408D01*
X120335500Y-114469337D01*
X120335501Y-114469355D01*
X120345650Y-114568707D01*
X120345651Y-114568710D01*
X120398996Y-114729694D01*
X120399001Y-114729705D01*
X120488029Y-114874040D01*
X120488032Y-114874044D01*
X120607955Y-114993967D01*
X120607959Y-114993970D01*
X120752294Y-115082998D01*
X120752297Y-115082999D01*
X120752303Y-115083003D01*
X120913292Y-115136349D01*
X121012655Y-115146500D01*
X121559344Y-115146499D01*
X121559352Y-115146498D01*
X121559355Y-115146498D01*
X121629378Y-115139345D01*
X121658708Y-115136349D01*
X121819697Y-115083003D01*
X121964044Y-114993968D01*
X122083968Y-114874044D01*
X122156016Y-114757235D01*
X122207961Y-114710515D01*
X122276923Y-114699292D01*
X122334437Y-114722018D01*
X122483265Y-114830148D01*
X122483270Y-114830151D01*
X122656192Y-114907142D01*
X122656197Y-114907144D01*
X122841354Y-114946500D01*
X122841355Y-114946500D01*
X123030644Y-114946500D01*
X123030646Y-114946500D01*
X123215803Y-114907144D01*
X123388730Y-114830151D01*
X123537564Y-114722016D01*
X123603368Y-114698538D01*
X123671422Y-114714363D01*
X123715985Y-114757239D01*
X123788029Y-114874040D01*
X123788032Y-114874044D01*
X123907955Y-114993967D01*
X123907959Y-114993970D01*
X124052294Y-115082998D01*
X124052297Y-115082999D01*
X124052303Y-115083003D01*
X124213292Y-115136349D01*
X124312655Y-115146500D01*
X124859344Y-115146499D01*
X124859352Y-115146498D01*
X124859355Y-115146498D01*
X124929378Y-115139345D01*
X124958708Y-115136349D01*
X125119697Y-115083003D01*
X125264044Y-114993968D01*
X125383968Y-114874044D01*
X125473003Y-114729697D01*
X125526349Y-114568708D01*
X125536500Y-114469345D01*
X125536499Y-113622656D01*
X125535810Y-113615914D01*
X125526349Y-113523292D01*
X125526348Y-113523289D01*
X125505490Y-113460344D01*
X125473003Y-113362303D01*
X125472999Y-113362297D01*
X125472998Y-113362294D01*
X125383970Y-113217959D01*
X125383969Y-113217958D01*
X125383968Y-113217956D01*
X125264044Y-113098032D01*
X125264043Y-113098031D01*
X125264041Y-113098029D01*
X125258590Y-113093719D01*
X125218213Y-113036697D01*
X125211500Y-112996452D01*
X125211500Y-112643890D01*
X125231185Y-112576851D01*
X125270402Y-112538352D01*
X125341156Y-112494712D01*
X125465212Y-112370656D01*
X125557314Y-112221334D01*
X125612499Y-112054797D01*
X125623000Y-111952009D01*
X125622999Y-110551992D01*
X125621120Y-110533602D01*
X125612499Y-110449203D01*
X125612498Y-110449200D01*
X125596489Y-110400888D01*
X125557314Y-110282666D01*
X125465212Y-110133344D01*
X125375851Y-110043983D01*
X131894500Y-110043983D01*
X131894500Y-111444001D01*
X131894501Y-111444018D01*
X131905000Y-111546796D01*
X131905001Y-111546799D01*
X131960185Y-111713331D01*
X131960187Y-111713336D01*
X131967667Y-111725463D01*
X132052288Y-111862656D01*
X132176344Y-111986712D01*
X132325666Y-112078814D01*
X132492203Y-112133999D01*
X132594991Y-112144500D01*
X132594994Y-112144499D01*
X132596384Y-112144642D01*
X132661076Y-112171038D01*
X132701227Y-112228218D01*
X132704091Y-112298029D01*
X132668757Y-112358306D01*
X132606444Y-112389912D01*
X132596384Y-112391358D01*
X132492202Y-112402001D01*
X132492200Y-112402001D01*
X132325668Y-112457185D01*
X132325663Y-112457187D01*
X132176342Y-112549289D01*
X132052289Y-112673342D01*
X131960187Y-112822663D01*
X131960185Y-112822668D01*
X131939365Y-112885500D01*
X131905001Y-112989203D01*
X131905001Y-112989204D01*
X131905000Y-112989204D01*
X131894500Y-113091983D01*
X131894500Y-114492001D01*
X131894501Y-114492018D01*
X131905000Y-114594796D01*
X131905001Y-114594799D01*
X131949705Y-114729705D01*
X131960186Y-114761334D01*
X132052288Y-114910656D01*
X132176344Y-115034712D01*
X132233345Y-115069870D01*
X132288145Y-115103671D01*
X132334869Y-115155619D01*
X132346092Y-115224582D01*
X132318248Y-115288664D01*
X132288145Y-115314749D01*
X132201342Y-115368289D01*
X132077289Y-115492342D01*
X131985187Y-115641663D01*
X131985185Y-115641668D01*
X131980327Y-115656330D01*
X131930001Y-115808203D01*
X131930001Y-115808204D01*
X131930000Y-115808204D01*
X131919500Y-115910983D01*
X131919500Y-117261001D01*
X131919501Y-117261018D01*
X131930000Y-117363796D01*
X131930001Y-117363799D01*
X131965352Y-117470480D01*
X131985186Y-117530334D01*
X132077288Y-117679656D01*
X132201344Y-117803712D01*
X132288144Y-117857250D01*
X132334869Y-117909198D01*
X132346092Y-117978160D01*
X132318249Y-118042242D01*
X132288145Y-118068327D01*
X132176347Y-118137285D01*
X132176343Y-118137288D01*
X132052289Y-118261342D01*
X131960187Y-118410663D01*
X131960185Y-118410668D01*
X131937377Y-118479500D01*
X131905001Y-118577203D01*
X131905001Y-118577204D01*
X131905000Y-118577204D01*
X131894500Y-118679983D01*
X131894500Y-120080001D01*
X131894501Y-120080018D01*
X131905000Y-120182796D01*
X131905001Y-120182799D01*
X131948177Y-120313094D01*
X131960186Y-120349334D01*
X132052288Y-120498656D01*
X132176344Y-120622712D01*
X132275645Y-120683961D01*
X132288145Y-120691671D01*
X132334869Y-120743619D01*
X132346092Y-120812582D01*
X132318248Y-120876664D01*
X132288145Y-120902749D01*
X132201342Y-120956289D01*
X132077289Y-121080342D01*
X131985187Y-121229663D01*
X131985185Y-121229668D01*
X131980394Y-121244126D01*
X131930001Y-121396203D01*
X131930001Y-121396204D01*
X131930000Y-121396204D01*
X131919500Y-121498983D01*
X131919500Y-122849001D01*
X131919501Y-122849018D01*
X131930000Y-122951796D01*
X131930001Y-122951799D01*
X131985184Y-123118329D01*
X131985186Y-123118334D01*
X132077288Y-123267656D01*
X132201344Y-123391712D01*
X132350666Y-123483814D01*
X132517203Y-123538999D01*
X132619991Y-123549500D01*
X133520008Y-123549499D01*
X133520016Y-123549498D01*
X133520019Y-123549498D01*
X133576302Y-123543748D01*
X133622797Y-123538999D01*
X133789334Y-123483814D01*
X133938656Y-123391712D01*
X134062712Y-123267656D01*
X134154814Y-123118334D01*
X134159606Y-123103873D01*
X134199375Y-123046433D01*
X134263890Y-123019608D01*
X134327746Y-123029601D01*
X134340192Y-123035142D01*
X134340197Y-123035144D01*
X134525354Y-123074500D01*
X134525355Y-123074500D01*
X134714644Y-123074500D01*
X134714646Y-123074500D01*
X134899803Y-123035144D01*
X134908032Y-123031479D01*
X134912251Y-123029602D01*
X134981500Y-123020315D01*
X135044778Y-123049942D01*
X135080394Y-123103873D01*
X135085186Y-123118334D01*
X135177288Y-123267656D01*
X135301344Y-123391712D01*
X135450666Y-123483814D01*
X135617203Y-123538999D01*
X135719991Y-123549500D01*
X136620008Y-123549499D01*
X136620016Y-123549498D01*
X136620019Y-123549498D01*
X136676302Y-123543748D01*
X136722797Y-123538999D01*
X136889334Y-123483814D01*
X137038656Y-123391712D01*
X137162712Y-123267656D01*
X137254814Y-123118334D01*
X137309999Y-122951797D01*
X137320500Y-122849009D01*
X137320499Y-121498992D01*
X137318151Y-121476011D01*
X137309999Y-121396203D01*
X137309998Y-121396200D01*
X137299161Y-121363497D01*
X137254814Y-121229666D01*
X137162712Y-121080344D01*
X137038656Y-120956288D01*
X137038655Y-120956287D01*
X136951855Y-120902749D01*
X136905130Y-120850801D01*
X136893907Y-120781839D01*
X136921751Y-120717756D01*
X136951855Y-120691671D01*
X136964355Y-120683961D01*
X137063656Y-120622712D01*
X137187712Y-120498656D01*
X137279814Y-120349334D01*
X137334999Y-120182797D01*
X137345500Y-120080009D01*
X137345499Y-118679992D01*
X137334999Y-118577203D01*
X137279814Y-118410666D01*
X137187712Y-118261344D01*
X137063656Y-118137288D01*
X136951377Y-118068034D01*
X136904654Y-118016087D01*
X136893431Y-117947124D01*
X136921275Y-117883042D01*
X136951379Y-117856957D01*
X137038343Y-117803317D01*
X137162315Y-117679345D01*
X137254356Y-117530124D01*
X137254358Y-117530119D01*
X137309505Y-117363697D01*
X137309506Y-117363690D01*
X137319999Y-117260986D01*
X137320000Y-117260973D01*
X137320000Y-116836000D01*
X136044000Y-116836000D01*
X135976961Y-116816315D01*
X135931206Y-116763511D01*
X135920000Y-116712000D01*
X135920000Y-115231862D01*
X135925331Y-115213707D01*
X136420000Y-115213707D01*
X136420000Y-116336000D01*
X137319999Y-116336000D01*
X137319999Y-115911028D01*
X137319998Y-115911013D01*
X137309505Y-115808302D01*
X137254358Y-115641880D01*
X137254356Y-115641875D01*
X137162315Y-115492654D01*
X137038345Y-115368684D01*
X136950902Y-115314749D01*
X136904178Y-115262801D01*
X136892955Y-115193838D01*
X136920799Y-115129756D01*
X136950902Y-115103671D01*
X137063345Y-115034315D01*
X137187315Y-114910345D01*
X137279356Y-114761124D01*
X137279358Y-114761119D01*
X137334505Y-114594697D01*
X137334506Y-114594690D01*
X137344999Y-114491986D01*
X137345000Y-114491973D01*
X137345000Y-114042000D01*
X136432500Y-114042000D01*
X136432500Y-115171138D01*
X136420000Y-115213707D01*
X135925331Y-115213707D01*
X135932500Y-115189292D01*
X135932500Y-113542000D01*
X136432500Y-113542000D01*
X137344999Y-113542000D01*
X137344999Y-113092028D01*
X137344998Y-113092013D01*
X137334505Y-112989302D01*
X137279358Y-112822880D01*
X137279356Y-112822875D01*
X137187315Y-112673654D01*
X137063345Y-112549684D01*
X136914124Y-112457643D01*
X136914119Y-112457641D01*
X136747697Y-112402494D01*
X136747690Y-112402493D01*
X136644986Y-112392000D01*
X136432500Y-112392000D01*
X136432500Y-113542000D01*
X135932500Y-113542000D01*
X135932500Y-112392000D01*
X135720029Y-112392000D01*
X135720012Y-112392001D01*
X135617302Y-112402494D01*
X135450880Y-112457641D01*
X135450875Y-112457643D01*
X135301654Y-112549684D01*
X135177684Y-112673654D01*
X135085643Y-112822875D01*
X135085642Y-112822878D01*
X135073635Y-112859114D01*
X135033862Y-112916558D01*
X134969346Y-112943381D01*
X134905499Y-112933391D01*
X134899809Y-112930858D01*
X134899802Y-112930855D01*
X134754001Y-112899865D01*
X134714646Y-112891500D01*
X134525354Y-112891500D01*
X134492897Y-112898398D01*
X134340197Y-112930855D01*
X134340186Y-112930859D01*
X134334958Y-112933187D01*
X134265707Y-112942468D01*
X134202433Y-112912836D01*
X134166823Y-112858908D01*
X134156677Y-112828288D01*
X134154814Y-112822666D01*
X134062712Y-112673344D01*
X133938656Y-112549288D01*
X133801910Y-112464943D01*
X133789336Y-112457187D01*
X133789331Y-112457185D01*
X133769012Y-112450452D01*
X133622797Y-112402001D01*
X133622794Y-112402000D01*
X133518614Y-112391357D01*
X133453922Y-112364961D01*
X133413771Y-112307780D01*
X133410908Y-112237969D01*
X133446243Y-112177692D01*
X133508556Y-112146087D01*
X133518616Y-112144641D01*
X133520005Y-112144499D01*
X133520008Y-112144499D01*
X133622797Y-112133999D01*
X133789334Y-112078814D01*
X133938656Y-111986712D01*
X134062712Y-111862656D01*
X134154814Y-111713334D01*
X134166823Y-111677092D01*
X134206592Y-111619648D01*
X134271107Y-111592823D01*
X134334966Y-111602815D01*
X134340197Y-111605144D01*
X134525354Y-111644500D01*
X134525355Y-111644500D01*
X134714644Y-111644500D01*
X134714646Y-111644500D01*
X134899803Y-111605144D01*
X134901558Y-111604362D01*
X134905491Y-111602612D01*
X134974741Y-111593325D01*
X135038018Y-111622952D01*
X135073635Y-111676886D01*
X135085641Y-111713119D01*
X135085643Y-111713124D01*
X135177684Y-111862345D01*
X135301654Y-111986315D01*
X135450875Y-112078356D01*
X135450880Y-112078358D01*
X135617302Y-112133505D01*
X135617309Y-112133506D01*
X135720019Y-112143999D01*
X135932499Y-112143999D01*
X136432500Y-112143999D01*
X136644972Y-112143999D01*
X136644986Y-112143998D01*
X136747697Y-112133505D01*
X136914119Y-112078358D01*
X136914124Y-112078356D01*
X137063345Y-111986315D01*
X137187315Y-111862345D01*
X137279356Y-111713124D01*
X137279358Y-111713119D01*
X137334505Y-111546697D01*
X137334506Y-111546690D01*
X137344999Y-111443986D01*
X137345000Y-111443973D01*
X137345000Y-110994000D01*
X136432500Y-110994000D01*
X136432500Y-112143999D01*
X135932499Y-112143999D01*
X135932500Y-112143998D01*
X135932500Y-110494000D01*
X136432500Y-110494000D01*
X137344999Y-110494000D01*
X137344999Y-110044028D01*
X137344998Y-110044013D01*
X137334505Y-109941302D01*
X137279358Y-109774880D01*
X137279356Y-109774875D01*
X137187315Y-109625654D01*
X137063345Y-109501684D01*
X136914124Y-109409643D01*
X136914119Y-109409641D01*
X136747697Y-109354494D01*
X136747690Y-109354493D01*
X136644986Y-109344000D01*
X136432500Y-109344000D01*
X136432500Y-110494000D01*
X135932500Y-110494000D01*
X135932500Y-109344000D01*
X135720029Y-109344000D01*
X135720012Y-109344001D01*
X135617302Y-109354494D01*
X135450880Y-109409641D01*
X135450875Y-109409643D01*
X135301654Y-109501684D01*
X135177684Y-109625654D01*
X135085643Y-109774875D01*
X135085642Y-109774878D01*
X135073635Y-109811114D01*
X135033862Y-109868558D01*
X134969346Y-109895381D01*
X134905499Y-109885391D01*
X134899809Y-109882858D01*
X134899802Y-109882855D01*
X134749141Y-109850832D01*
X134714646Y-109843500D01*
X134525354Y-109843500D01*
X134503623Y-109848119D01*
X134340197Y-109882855D01*
X134340186Y-109882859D01*
X134334958Y-109885187D01*
X134265707Y-109894468D01*
X134202433Y-109864836D01*
X134166823Y-109810908D01*
X134157838Y-109783793D01*
X134154814Y-109774666D01*
X134062712Y-109625344D01*
X133938656Y-109501288D01*
X133823455Y-109430232D01*
X133789336Y-109409187D01*
X133789331Y-109409185D01*
X133766836Y-109401731D01*
X133622797Y-109354001D01*
X133622795Y-109354000D01*
X133520010Y-109343500D01*
X132594998Y-109343500D01*
X132594980Y-109343501D01*
X132492203Y-109354000D01*
X132492200Y-109354001D01*
X132325668Y-109409185D01*
X132325663Y-109409187D01*
X132176342Y-109501289D01*
X132052289Y-109625342D01*
X131960187Y-109774663D01*
X131960185Y-109774668D01*
X131937780Y-109842284D01*
X131905001Y-109941203D01*
X131905001Y-109941204D01*
X131905000Y-109941204D01*
X131894500Y-110043983D01*
X125375851Y-110043983D01*
X125341156Y-110009288D01*
X125191834Y-109917186D01*
X125191832Y-109917185D01*
X125191830Y-109917184D01*
X125185289Y-109914134D01*
X125186400Y-109911750D01*
X125139020Y-109878919D01*
X125112223Y-109814392D01*
X125111500Y-109801024D01*
X125111500Y-109634448D01*
X125131185Y-109567409D01*
X125183989Y-109521654D01*
X125196488Y-109516744D01*
X125205334Y-109513814D01*
X125354656Y-109421712D01*
X125478712Y-109297656D01*
X125570814Y-109148334D01*
X125625999Y-108981797D01*
X125636500Y-108879009D01*
X125636499Y-107528992D01*
X125625999Y-107426203D01*
X125570814Y-107259666D01*
X125478712Y-107110344D01*
X125354656Y-106986288D01*
X125205334Y-106894186D01*
X125205333Y-106894185D01*
X125205332Y-106894185D01*
X125196493Y-106891256D01*
X125139049Y-106851482D01*
X125112228Y-106786965D01*
X125111500Y-106773551D01*
X125111500Y-106267265D01*
X125131185Y-106200226D01*
X125170400Y-106161728D01*
X125264044Y-106103968D01*
X125383968Y-105984044D01*
X125473003Y-105839697D01*
X125526349Y-105678708D01*
X125536500Y-105579345D01*
X125536499Y-104732656D01*
X125530854Y-104677398D01*
X125526349Y-104633292D01*
X125526348Y-104633289D01*
X125525802Y-104631640D01*
X125473003Y-104472303D01*
X125472999Y-104472297D01*
X125472998Y-104472294D01*
X125383970Y-104327959D01*
X125383967Y-104327955D01*
X125264044Y-104208032D01*
X125264040Y-104208029D01*
X125119705Y-104119001D01*
X125119699Y-104118998D01*
X125119697Y-104118997D01*
X125119694Y-104118996D01*
X124958709Y-104065651D01*
X124859346Y-104055500D01*
X124312662Y-104055500D01*
X124312644Y-104055501D01*
X124213292Y-104065650D01*
X124213289Y-104065651D01*
X124052305Y-104118996D01*
X124052294Y-104119001D01*
X123907959Y-104208029D01*
X123907955Y-104208032D01*
X123788031Y-104327956D01*
X123715985Y-104444761D01*
X123664037Y-104491485D01*
X123595074Y-104502706D01*
X123537562Y-104479981D01*
X123388734Y-104371851D01*
X123388729Y-104371848D01*
X123215807Y-104294857D01*
X123215802Y-104294855D01*
X123058140Y-104261344D01*
X123030646Y-104255500D01*
X122841354Y-104255500D01*
X122831945Y-104257500D01*
X122656197Y-104294855D01*
X122656192Y-104294857D01*
X122483271Y-104371848D01*
X122334031Y-104480276D01*
X122268224Y-104503755D01*
X122200170Y-104487929D01*
X122155607Y-104445054D01*
X122083571Y-104328266D01*
X121963732Y-104208427D01*
X121963728Y-104208424D01*
X121819492Y-104119457D01*
X121819481Y-104119452D01*
X121658606Y-104066144D01*
X121559322Y-104056000D01*
X121536000Y-104056000D01*
X121536000Y-106255999D01*
X121559308Y-106255999D01*
X121559322Y-106255998D01*
X121658607Y-106245855D01*
X121819481Y-106192547D01*
X121819492Y-106192542D01*
X121963728Y-106103575D01*
X121963732Y-106103572D01*
X122083571Y-105983733D01*
X122155607Y-105866945D01*
X122207555Y-105820221D01*
X122276518Y-105808998D01*
X122334031Y-105831724D01*
X122483265Y-105940148D01*
X122483270Y-105940151D01*
X122656192Y-106017142D01*
X122656197Y-106017144D01*
X122841354Y-106056500D01*
X122841355Y-106056500D01*
X123030644Y-106056500D01*
X123030646Y-106056500D01*
X123215803Y-106017144D01*
X123388730Y-105940151D01*
X123537564Y-105832016D01*
X123603368Y-105808538D01*
X123671422Y-105824363D01*
X123715985Y-105867239D01*
X123788029Y-105984040D01*
X123788031Y-105984043D01*
X123824181Y-106020193D01*
X123857666Y-106081516D01*
X123860500Y-106107874D01*
X123860500Y-106773551D01*
X123840815Y-106840590D01*
X123788011Y-106886345D01*
X123775507Y-106891256D01*
X123766667Y-106894185D01*
X123617342Y-106986289D01*
X123493289Y-107110342D01*
X123401187Y-107259663D01*
X123401185Y-107259668D01*
X123391034Y-107290303D01*
X123346001Y-107426203D01*
X123346001Y-107426204D01*
X123346000Y-107426204D01*
X123335500Y-107528983D01*
X123335500Y-108879001D01*
X123335501Y-108879018D01*
X123346000Y-108981796D01*
X123346001Y-108981799D01*
X123401185Y-109148331D01*
X123401187Y-109148336D01*
X123425740Y-109188142D01*
X123493288Y-109297656D01*
X123617344Y-109421712D01*
X123766666Y-109513814D01*
X123775498Y-109516740D01*
X123832944Y-109556508D01*
X123859771Y-109621022D01*
X123860500Y-109634448D01*
X123860500Y-109783793D01*
X123840815Y-109850832D01*
X123788011Y-109896587D01*
X123775506Y-109901498D01*
X123728168Y-109917184D01*
X123578842Y-110009289D01*
X123454789Y-110133342D01*
X123362687Y-110282663D01*
X123362683Y-110282673D01*
X123354441Y-110307544D01*
X123314667Y-110364987D01*
X123250150Y-110391807D01*
X123210957Y-110389825D01*
X123030647Y-110351500D01*
X123030646Y-110351500D01*
X122841354Y-110351500D01*
X122801999Y-110359865D01*
X122656198Y-110390855D01*
X122656193Y-110390857D01*
X122617413Y-110408123D01*
X122548163Y-110417407D01*
X122484887Y-110387778D01*
X122449273Y-110333846D01*
X122444684Y-110319998D01*
X122432314Y-110282666D01*
X122340212Y-110133344D01*
X122216156Y-110009288D01*
X122109342Y-109943405D01*
X122066836Y-109917187D01*
X122066831Y-109917185D01*
X122065362Y-109916698D01*
X121900297Y-109862001D01*
X121900295Y-109862000D01*
X121797516Y-109851500D01*
X120922450Y-109851500D01*
X120855411Y-109831815D01*
X120809656Y-109779011D01*
X120799712Y-109709853D01*
X120828737Y-109646297D01*
X120834755Y-109639833D01*
X120858772Y-109615816D01*
X120920093Y-109582333D01*
X120946441Y-109579499D01*
X121836008Y-109579499D01*
X121836016Y-109579498D01*
X121836019Y-109579498D01*
X121898239Y-109573142D01*
X121938797Y-109568999D01*
X122105334Y-109513814D01*
X122254656Y-109421712D01*
X122378712Y-109297656D01*
X122470814Y-109148334D01*
X122525999Y-108981797D01*
X122536500Y-108879009D01*
X122536499Y-107528992D01*
X122525999Y-107426203D01*
X122470814Y-107259666D01*
X122378712Y-107110344D01*
X122254656Y-106986288D01*
X122105334Y-106894186D01*
X121938797Y-106839001D01*
X121938795Y-106839000D01*
X121836016Y-106828500D01*
X120946452Y-106828500D01*
X120879413Y-106808815D01*
X120858771Y-106792181D01*
X120378198Y-106311608D01*
X120378178Y-106311586D01*
X120286738Y-106220146D01*
X120282029Y-106216282D01*
X120282766Y-106215383D01*
X120241952Y-106166538D01*
X120237947Y-106156063D01*
X120218351Y-106096927D01*
X120181814Y-105986666D01*
X120089712Y-105837344D01*
X119965656Y-105713288D01*
X119816334Y-105621186D01*
X119689997Y-105579322D01*
X120336001Y-105579322D01*
X120346144Y-105678607D01*
X120399452Y-105839481D01*
X120399457Y-105839492D01*
X120488424Y-105983728D01*
X120488427Y-105983732D01*
X120608267Y-106103572D01*
X120608271Y-106103575D01*
X120752507Y-106192542D01*
X120752518Y-106192547D01*
X120913393Y-106245855D01*
X121012683Y-106255999D01*
X121036000Y-106255998D01*
X121036000Y-105406000D01*
X120336001Y-105406000D01*
X120336001Y-105579322D01*
X119689997Y-105579322D01*
X119649797Y-105566001D01*
X119649795Y-105566000D01*
X119547010Y-105555500D01*
X118196998Y-105555500D01*
X118196981Y-105555501D01*
X118094203Y-105566000D01*
X118094200Y-105566001D01*
X117927668Y-105621185D01*
X117927663Y-105621187D01*
X117778342Y-105713289D01*
X117654289Y-105837342D01*
X117593039Y-105936645D01*
X117541091Y-105983369D01*
X117472128Y-105994592D01*
X117408046Y-105966748D01*
X117381961Y-105936645D01*
X117356799Y-105895851D01*
X117320712Y-105837344D01*
X117196656Y-105713288D01*
X117047334Y-105621186D01*
X116880797Y-105566001D01*
X116880795Y-105566000D01*
X116778010Y-105555500D01*
X115377998Y-105555500D01*
X115377981Y-105555501D01*
X115275203Y-105566000D01*
X115275200Y-105566001D01*
X115108668Y-105621185D01*
X115108663Y-105621187D01*
X114959342Y-105713289D01*
X114835289Y-105837342D01*
X114743187Y-105986663D01*
X114743185Y-105986668D01*
X114731099Y-106023142D01*
X114688001Y-106153203D01*
X114688001Y-106153204D01*
X114688000Y-106153204D01*
X114677500Y-106255983D01*
X108724606Y-106255983D01*
X109936772Y-105043816D01*
X109998093Y-105010333D01*
X110024441Y-105007499D01*
X110914008Y-105007499D01*
X110914016Y-105007498D01*
X110914019Y-105007498D01*
X110970302Y-105001748D01*
X111016797Y-104996999D01*
X111183334Y-104941814D01*
X111332656Y-104849712D01*
X111456712Y-104725656D01*
X111548814Y-104576334D01*
X111603999Y-104409797D01*
X111614500Y-104307009D01*
X111614499Y-102956992D01*
X111613815Y-102950300D01*
X111603999Y-102854203D01*
X111603998Y-102854200D01*
X111565378Y-102737654D01*
X111548814Y-102687666D01*
X111456712Y-102538344D01*
X111332656Y-102414288D01*
X111332655Y-102414287D01*
X111213089Y-102340539D01*
X111166364Y-102288591D01*
X111155141Y-102219629D01*
X111182985Y-102155546D01*
X111213089Y-102129461D01*
X111222272Y-102123797D01*
X111332656Y-102055712D01*
X111456712Y-101931656D01*
X111548814Y-101782334D01*
X111553606Y-101767873D01*
X111593375Y-101710433D01*
X111657890Y-101683608D01*
X111721746Y-101693601D01*
X111734192Y-101699142D01*
X111734197Y-101699144D01*
X111919354Y-101738500D01*
X111919355Y-101738500D01*
X112108644Y-101738500D01*
X112108646Y-101738500D01*
X112293803Y-101699144D01*
X112302032Y-101695479D01*
X112306251Y-101693602D01*
X112375500Y-101684315D01*
X112438778Y-101713942D01*
X112474394Y-101767873D01*
X112479184Y-101782329D01*
X112479187Y-101782336D01*
X112492712Y-101804264D01*
X112571288Y-101931656D01*
X112695344Y-102055712D01*
X112805728Y-102123797D01*
X112814911Y-102129461D01*
X112861635Y-102181409D01*
X112872858Y-102250372D01*
X112845014Y-102314454D01*
X112814911Y-102340539D01*
X112695342Y-102414289D01*
X112571289Y-102538342D01*
X112479187Y-102687663D01*
X112479185Y-102687668D01*
X112462621Y-102737656D01*
X112424001Y-102854203D01*
X112424001Y-102854204D01*
X112424000Y-102854204D01*
X112413500Y-102956983D01*
X112413500Y-104307001D01*
X112413501Y-104307018D01*
X112424000Y-104409796D01*
X112424001Y-104409799D01*
X112479185Y-104576331D01*
X112479187Y-104576336D01*
X112492989Y-104598712D01*
X112571288Y-104725656D01*
X112695344Y-104849712D01*
X112844666Y-104941814D01*
X113011203Y-104996999D01*
X113113991Y-105007500D01*
X114014008Y-105007499D01*
X114014016Y-105007498D01*
X114014019Y-105007498D01*
X114070302Y-105001748D01*
X114116797Y-104996999D01*
X114283334Y-104941814D01*
X114432656Y-104849712D01*
X114556712Y-104725656D01*
X114648814Y-104576334D01*
X114657298Y-104550729D01*
X114697066Y-104493287D01*
X114761581Y-104466462D01*
X114830358Y-104478774D01*
X114862684Y-104502052D01*
X114959344Y-104598712D01*
X115108666Y-104690814D01*
X115275203Y-104745999D01*
X115377991Y-104756500D01*
X116778008Y-104756499D01*
X116880797Y-104745999D01*
X117047334Y-104690814D01*
X117196656Y-104598712D01*
X117320712Y-104474656D01*
X117382255Y-104374877D01*
X117434201Y-104328154D01*
X117503164Y-104316931D01*
X117567246Y-104344774D01*
X117593331Y-104374878D01*
X117654680Y-104474340D01*
X117654683Y-104474344D01*
X117778654Y-104598315D01*
X117927875Y-104690356D01*
X117927880Y-104690358D01*
X118094302Y-104745505D01*
X118094309Y-104745506D01*
X118197019Y-104755999D01*
X118621999Y-104755999D01*
X119122000Y-104755999D01*
X119546972Y-104755999D01*
X119546986Y-104755998D01*
X119649697Y-104745505D01*
X119688409Y-104732677D01*
X120336000Y-104732677D01*
X120336000Y-104906000D01*
X121036000Y-104906000D01*
X121036000Y-104055999D01*
X121012693Y-104056000D01*
X121012674Y-104056001D01*
X120913392Y-104066144D01*
X120752518Y-104119452D01*
X120752507Y-104119457D01*
X120608271Y-104208424D01*
X120608267Y-104208427D01*
X120488427Y-104328267D01*
X120488424Y-104328271D01*
X120399457Y-104472507D01*
X120399452Y-104472518D01*
X120346144Y-104633393D01*
X120336000Y-104732677D01*
X119688409Y-104732677D01*
X119816119Y-104690358D01*
X119816124Y-104690356D01*
X119965345Y-104598315D01*
X120089315Y-104474345D01*
X120181356Y-104325124D01*
X120181358Y-104325119D01*
X120236505Y-104158697D01*
X120236506Y-104158690D01*
X120246999Y-104055986D01*
X120247000Y-104055973D01*
X120247000Y-103856000D01*
X119122000Y-103856000D01*
X119122000Y-104755999D01*
X118621999Y-104755999D01*
X118622000Y-104755998D01*
X118622000Y-103356000D01*
X119122000Y-103356000D01*
X120246999Y-103356000D01*
X120246999Y-103156028D01*
X120246998Y-103156013D01*
X120236505Y-103053302D01*
X120181358Y-102886880D01*
X120181356Y-102886875D01*
X120089315Y-102737654D01*
X119965345Y-102613684D01*
X119816124Y-102521643D01*
X119816119Y-102521641D01*
X119649697Y-102466494D01*
X119649690Y-102466493D01*
X119546986Y-102456000D01*
X119122000Y-102456000D01*
X119122000Y-103356000D01*
X118622000Y-103356000D01*
X118622000Y-102456000D01*
X118197028Y-102456000D01*
X118197012Y-102456001D01*
X118094302Y-102466494D01*
X117927880Y-102521641D01*
X117927875Y-102521643D01*
X117778654Y-102613684D01*
X117654682Y-102737656D01*
X117601041Y-102824622D01*
X117549093Y-102871346D01*
X117480130Y-102882567D01*
X117416048Y-102854724D01*
X117389964Y-102824620D01*
X117320712Y-102712344D01*
X117196657Y-102588289D01*
X117196656Y-102588288D01*
X117047334Y-102496186D01*
X116880797Y-102441001D01*
X116880795Y-102441000D01*
X116778010Y-102430500D01*
X115377998Y-102430500D01*
X115377981Y-102430501D01*
X115275203Y-102441000D01*
X115275200Y-102441001D01*
X115108668Y-102496185D01*
X115108663Y-102496187D01*
X114959345Y-102588287D01*
X114840258Y-102707374D01*
X114778935Y-102740858D01*
X114709243Y-102735874D01*
X114653310Y-102694002D01*
X114647047Y-102684801D01*
X114556712Y-102538344D01*
X114432656Y-102414288D01*
X114432655Y-102414287D01*
X114313089Y-102340539D01*
X114266364Y-102288591D01*
X114255141Y-102219629D01*
X114282985Y-102155546D01*
X114313089Y-102129461D01*
X114322272Y-102123797D01*
X114432656Y-102055712D01*
X114556712Y-101931656D01*
X114648814Y-101782334D01*
X114703999Y-101615797D01*
X114714500Y-101513009D01*
X114714499Y-100416983D01*
X127093500Y-100416983D01*
X127093500Y-101767001D01*
X127093501Y-101767018D01*
X127104000Y-101869796D01*
X127104001Y-101869799D01*
X127159185Y-102036331D01*
X127159187Y-102036336D01*
X127168647Y-102051673D01*
X127251288Y-102185656D01*
X127375344Y-102309712D01*
X127524666Y-102401814D01*
X127691203Y-102456999D01*
X127793991Y-102467500D01*
X128694008Y-102467499D01*
X128694016Y-102467498D01*
X128694019Y-102467498D01*
X128750302Y-102461748D01*
X128796797Y-102456999D01*
X128963334Y-102401814D01*
X129112656Y-102309712D01*
X129236712Y-102185656D01*
X129328814Y-102036334D01*
X129333606Y-102021873D01*
X129373375Y-101964433D01*
X129437890Y-101937608D01*
X129501746Y-101947601D01*
X129514192Y-101953142D01*
X129514197Y-101953144D01*
X129699354Y-101992500D01*
X129699355Y-101992500D01*
X129888644Y-101992500D01*
X129888646Y-101992500D01*
X130073803Y-101953144D01*
X130082032Y-101949479D01*
X130086251Y-101947602D01*
X130155500Y-101938315D01*
X130218778Y-101967942D01*
X130254394Y-102021873D01*
X130259184Y-102036329D01*
X130259187Y-102036336D01*
X130268647Y-102051673D01*
X130351288Y-102185656D01*
X130475344Y-102309712D01*
X130624666Y-102401814D01*
X130633498Y-102404740D01*
X130690944Y-102444508D01*
X130717771Y-102509022D01*
X130718500Y-102522448D01*
X130718500Y-104892392D01*
X130718500Y-105015606D01*
X130718500Y-105015608D01*
X130718499Y-105015608D01*
X130726513Y-105055891D01*
X130726513Y-105055893D01*
X130726514Y-105055893D01*
X130726514Y-105055894D01*
X130740578Y-105126603D01*
X130742538Y-105136454D01*
X130742539Y-105136459D01*
X130750632Y-105155994D01*
X130750633Y-105156000D01*
X130750634Y-105156000D01*
X130789685Y-105250279D01*
X130789687Y-105250282D01*
X130789688Y-105250285D01*
X130812504Y-105284431D01*
X130814012Y-105286687D01*
X130814013Y-105286689D01*
X130858141Y-105352731D01*
X130858144Y-105352735D01*
X130949586Y-105444177D01*
X130949608Y-105444197D01*
X131186811Y-105681400D01*
X131220296Y-105742723D01*
X131215312Y-105812415D01*
X131173440Y-105868348D01*
X131149568Y-105882358D01*
X131147006Y-105883500D01*
X131119267Y-105895850D01*
X131119265Y-105895851D01*
X130966129Y-106007111D01*
X130839466Y-106147785D01*
X130744821Y-106311715D01*
X130744818Y-106311722D01*
X130686327Y-106491740D01*
X130686326Y-106491744D01*
X130666540Y-106680000D01*
X130686326Y-106868256D01*
X130686327Y-106868259D01*
X130744818Y-107048277D01*
X130744821Y-107048284D01*
X130839467Y-107212216D01*
X130846501Y-107220028D01*
X130857307Y-107232030D01*
X130887535Y-107295022D01*
X130878909Y-107364357D01*
X130857307Y-107397970D01*
X130839466Y-107417785D01*
X130744821Y-107581715D01*
X130744818Y-107581722D01*
X130687055Y-107759500D01*
X130686326Y-107761744D01*
X130666540Y-107950000D01*
X130686326Y-108138256D01*
X130686327Y-108138259D01*
X130744818Y-108318277D01*
X130744821Y-108318284D01*
X130839467Y-108482216D01*
X130937584Y-108591186D01*
X130966129Y-108622888D01*
X131119265Y-108734148D01*
X131119270Y-108734151D01*
X131292192Y-108811142D01*
X131292197Y-108811144D01*
X131477354Y-108850500D01*
X131477355Y-108850500D01*
X131666644Y-108850500D01*
X131666646Y-108850500D01*
X131851803Y-108811144D01*
X132024730Y-108734151D01*
X132035698Y-108726181D01*
X132101504Y-108702702D01*
X132108584Y-108702500D01*
X132348191Y-108702500D01*
X132415230Y-108722185D01*
X132435872Y-108738819D01*
X132442129Y-108745076D01*
X132442133Y-108745079D01*
X132442135Y-108745081D01*
X132583602Y-108828744D01*
X132625224Y-108840836D01*
X132741426Y-108874597D01*
X132741429Y-108874597D01*
X132741431Y-108874598D01*
X132778306Y-108877500D01*
X132778314Y-108877500D01*
X134559686Y-108877500D01*
X134559694Y-108877500D01*
X134596569Y-108874598D01*
X134596571Y-108874597D01*
X134596573Y-108874597D01*
X134638191Y-108862505D01*
X134754398Y-108828744D01*
X134895865Y-108745081D01*
X135012081Y-108628865D01*
X135095744Y-108487398D01*
X135141598Y-108329569D01*
X135144500Y-108292694D01*
X135144500Y-107861306D01*
X135141598Y-107824431D01*
X135137841Y-107811500D01*
X135103132Y-107692031D01*
X135095744Y-107666602D01*
X135012081Y-107525135D01*
X135012078Y-107525132D01*
X135007298Y-107518969D01*
X135009750Y-107517066D01*
X134983155Y-107468421D01*
X134988104Y-107398726D01*
X135008940Y-107366304D01*
X135007298Y-107365031D01*
X135012075Y-107358870D01*
X135012081Y-107358865D01*
X135095744Y-107217398D01*
X135135807Y-107079501D01*
X135141597Y-107059573D01*
X135141598Y-107059567D01*
X135142486Y-107048284D01*
X135144500Y-107022694D01*
X135144500Y-106591306D01*
X135141598Y-106554431D01*
X135134643Y-106530493D01*
X135103325Y-106422697D01*
X135095744Y-106396602D01*
X135012081Y-106255135D01*
X135012078Y-106255132D01*
X135007298Y-106248969D01*
X135009750Y-106247066D01*
X134983155Y-106198421D01*
X134988104Y-106128726D01*
X135008940Y-106096304D01*
X135007298Y-106095031D01*
X135012075Y-106088870D01*
X135012081Y-106088865D01*
X135095744Y-105947398D01*
X135141598Y-105789569D01*
X135144500Y-105752694D01*
X135144500Y-105321306D01*
X135144499Y-105321298D01*
X137143500Y-105321298D01*
X137143500Y-105752701D01*
X137146401Y-105789567D01*
X137146402Y-105789573D01*
X137192254Y-105947393D01*
X137192255Y-105947396D01*
X137275917Y-106088862D01*
X137280702Y-106095031D01*
X137278256Y-106096927D01*
X137304857Y-106145642D01*
X137299873Y-106215334D01*
X137279069Y-106247703D01*
X137280702Y-106248969D01*
X137275917Y-106255137D01*
X137192255Y-106396603D01*
X137192254Y-106396606D01*
X137146402Y-106554426D01*
X137146401Y-106554432D01*
X137143500Y-106591298D01*
X137143500Y-107022701D01*
X137146401Y-107059567D01*
X137146402Y-107059573D01*
X137192254Y-107217393D01*
X137192255Y-107217396D01*
X137192256Y-107217398D01*
X137216283Y-107258025D01*
X137275917Y-107358862D01*
X137280702Y-107365031D01*
X137278256Y-107366927D01*
X137304857Y-107415642D01*
X137299873Y-107485334D01*
X137279069Y-107517703D01*
X137280702Y-107518969D01*
X137275917Y-107525137D01*
X137192255Y-107666603D01*
X137192254Y-107666606D01*
X137146402Y-107824426D01*
X137146401Y-107824432D01*
X137143500Y-107861298D01*
X137143500Y-108292701D01*
X137146401Y-108329567D01*
X137146402Y-108329573D01*
X137192254Y-108487393D01*
X137192255Y-108487396D01*
X137275917Y-108628862D01*
X137275923Y-108628870D01*
X137392129Y-108745076D01*
X137392133Y-108745079D01*
X137392135Y-108745081D01*
X137533602Y-108828744D01*
X137575224Y-108840836D01*
X137691426Y-108874597D01*
X137691429Y-108874597D01*
X137691431Y-108874598D01*
X137728306Y-108877500D01*
X137869500Y-108877500D01*
X137936539Y-108897185D01*
X137982294Y-108949989D01*
X137993500Y-109001500D01*
X137993500Y-109101502D01*
X137973815Y-109168541D01*
X137961651Y-109184473D01*
X137951468Y-109195782D01*
X137951464Y-109195787D01*
X137856821Y-109359715D01*
X137856818Y-109359722D01*
X137798327Y-109539740D01*
X137798326Y-109539744D01*
X137778540Y-109728000D01*
X137798326Y-109916256D01*
X137798327Y-109916259D01*
X137856818Y-110096277D01*
X137856821Y-110096284D01*
X137951467Y-110260216D01*
X138033660Y-110351500D01*
X138078129Y-110400888D01*
X138231265Y-110512148D01*
X138231270Y-110512151D01*
X138404192Y-110589142D01*
X138404197Y-110589144D01*
X138589354Y-110628500D01*
X138589355Y-110628500D01*
X138778644Y-110628500D01*
X138778646Y-110628500D01*
X138963803Y-110589144D01*
X139136730Y-110512151D01*
X139289871Y-110400888D01*
X139416533Y-110260216D01*
X139511179Y-110096284D01*
X139569674Y-109916256D01*
X139589460Y-109728000D01*
X139569674Y-109539744D01*
X139511179Y-109359716D01*
X139416533Y-109195784D01*
X139316307Y-109084472D01*
X139286077Y-109021481D01*
X139294702Y-108952145D01*
X139339444Y-108898480D01*
X139406096Y-108877522D01*
X139408457Y-108877500D01*
X139509686Y-108877500D01*
X139509694Y-108877500D01*
X139546569Y-108874598D01*
X139546571Y-108874597D01*
X139546573Y-108874597D01*
X139588191Y-108862505D01*
X139704398Y-108828744D01*
X139845865Y-108745081D01*
X139962081Y-108628865D01*
X140045744Y-108487398D01*
X140091598Y-108329569D01*
X140094500Y-108292694D01*
X140094500Y-107861306D01*
X140091598Y-107824431D01*
X140087841Y-107811500D01*
X140053132Y-107692031D01*
X140045744Y-107666602D01*
X140017958Y-107619619D01*
X140000778Y-107551896D01*
X140022938Y-107485634D01*
X140077404Y-107441871D01*
X140124692Y-107432500D01*
X140494048Y-107432500D01*
X140561087Y-107452185D01*
X140581728Y-107468818D01*
X140803182Y-107690272D01*
X140836666Y-107751594D01*
X140839500Y-107777952D01*
X140839500Y-108705001D01*
X140839501Y-108705019D01*
X140850000Y-108807796D01*
X140850001Y-108807799D01*
X140905185Y-108974331D01*
X140905187Y-108974336D01*
X140920944Y-108999882D01*
X140997288Y-109123656D01*
X141121344Y-109247712D01*
X141270666Y-109339814D01*
X141437203Y-109394999D01*
X141503103Y-109401731D01*
X141567794Y-109428127D01*
X141607945Y-109485307D01*
X141614500Y-109525089D01*
X141614500Y-109704465D01*
X141594815Y-109771504D01*
X141542011Y-109817259D01*
X141503102Y-109827823D01*
X141462202Y-109832001D01*
X141462200Y-109832001D01*
X141295668Y-109887185D01*
X141295663Y-109887187D01*
X141146342Y-109979289D01*
X141022289Y-110103342D01*
X140930187Y-110252663D01*
X140930185Y-110252668D01*
X140905875Y-110326032D01*
X140875001Y-110419203D01*
X140875001Y-110419204D01*
X140875000Y-110419204D01*
X140864500Y-110521983D01*
X140864500Y-111422001D01*
X140864501Y-111422019D01*
X140875000Y-111524796D01*
X140875001Y-111524799D01*
X140930185Y-111691331D01*
X140930187Y-111691336D01*
X140958878Y-111737851D01*
X141022288Y-111840656D01*
X141146344Y-111964712D01*
X141295666Y-112056814D01*
X141312835Y-112062503D01*
X141370278Y-112102272D01*
X141397103Y-112166787D01*
X141391762Y-112218526D01*
X141355670Y-112329607D01*
X141354326Y-112333744D01*
X141334540Y-112522000D01*
X141354326Y-112710256D01*
X141354327Y-112710259D01*
X141391762Y-112825472D01*
X141393757Y-112895313D01*
X141357677Y-112955146D01*
X141312839Y-112981495D01*
X141295666Y-112987185D01*
X141146342Y-113079289D01*
X141022289Y-113203342D01*
X140930187Y-113352663D01*
X140930185Y-113352668D01*
X140916918Y-113392706D01*
X140875001Y-113519203D01*
X140875001Y-113519204D01*
X140875000Y-113519204D01*
X140864500Y-113621983D01*
X140864500Y-114522001D01*
X140864501Y-114522019D01*
X140875000Y-114624796D01*
X140875001Y-114624799D01*
X140930185Y-114791331D01*
X140930187Y-114791336D01*
X140954128Y-114830151D01*
X141022288Y-114940656D01*
X141146344Y-115064712D01*
X141295666Y-115156814D01*
X141462203Y-115211999D01*
X141564991Y-115222500D01*
X142915008Y-115222499D01*
X143017797Y-115211999D01*
X143184334Y-115156814D01*
X143333656Y-115064712D01*
X143457712Y-114940656D01*
X143549814Y-114791334D01*
X143604999Y-114624797D01*
X143615500Y-114522009D01*
X143615499Y-113621992D01*
X143604999Y-113519203D01*
X143549814Y-113352666D01*
X143457712Y-113203344D01*
X143333656Y-113079288D01*
X143219702Y-113009001D01*
X143184336Y-112987187D01*
X143184329Y-112987184D01*
X143174952Y-112984077D01*
X143167164Y-112981496D01*
X143109719Y-112941725D01*
X143082896Y-112877209D01*
X143088236Y-112825475D01*
X143125674Y-112710256D01*
X143145460Y-112522000D01*
X143125674Y-112333744D01*
X143088236Y-112218525D01*
X143086242Y-112148685D01*
X143122322Y-112088852D01*
X143167161Y-112062504D01*
X143184334Y-112056814D01*
X143333656Y-111964712D01*
X143457712Y-111840656D01*
X143549814Y-111691334D01*
X143604999Y-111524797D01*
X143615500Y-111422009D01*
X143615499Y-110716189D01*
X143635183Y-110649151D01*
X143687987Y-110603396D01*
X143757146Y-110593452D01*
X143765262Y-110594896D01*
X143923354Y-110628500D01*
X143923355Y-110628500D01*
X144112644Y-110628500D01*
X144112646Y-110628500D01*
X144270721Y-110594900D01*
X144340386Y-110600216D01*
X144396120Y-110642353D01*
X144420225Y-110707933D01*
X144420500Y-110716190D01*
X144420500Y-111422001D01*
X144420501Y-111422019D01*
X144431000Y-111524796D01*
X144431001Y-111524799D01*
X144486185Y-111691331D01*
X144486187Y-111691336D01*
X144514878Y-111737851D01*
X144578288Y-111840656D01*
X144702344Y-111964712D01*
X144851666Y-112056814D01*
X145018203Y-112111999D01*
X145120991Y-112122500D01*
X146471008Y-112122499D01*
X146573797Y-112111999D01*
X146740334Y-112056814D01*
X146818129Y-112008829D01*
X146885518Y-111990390D01*
X146952181Y-112011312D01*
X146996951Y-112064954D01*
X147005613Y-112134284D01*
X147001154Y-112152687D01*
X146943670Y-112329607D01*
X146942326Y-112333744D01*
X146922540Y-112522000D01*
X146942326Y-112710256D01*
X146942327Y-112710259D01*
X147001154Y-112891312D01*
X147003149Y-112961153D01*
X146967068Y-113020986D01*
X146904367Y-113051814D01*
X146834953Y-113043849D01*
X146818133Y-113035173D01*
X146740334Y-112987186D01*
X146573797Y-112932001D01*
X146573795Y-112932000D01*
X146471010Y-112921500D01*
X145120998Y-112921500D01*
X145120981Y-112921501D01*
X145018203Y-112932000D01*
X145018200Y-112932001D01*
X144851668Y-112987185D01*
X144851663Y-112987187D01*
X144702342Y-113079289D01*
X144578289Y-113203342D01*
X144486187Y-113352663D01*
X144486185Y-113352668D01*
X144472918Y-113392706D01*
X144431001Y-113519203D01*
X144431001Y-113519204D01*
X144431000Y-113519204D01*
X144420500Y-113621983D01*
X144420500Y-114522001D01*
X144420501Y-114522019D01*
X144431000Y-114624796D01*
X144431001Y-114624799D01*
X144486185Y-114791331D01*
X144486187Y-114791336D01*
X144510128Y-114830151D01*
X144578288Y-114940656D01*
X144702344Y-115064712D01*
X144851666Y-115156814D01*
X145018203Y-115211999D01*
X145120991Y-115222500D01*
X146471008Y-115222499D01*
X146573797Y-115211999D01*
X146740334Y-115156814D01*
X146889656Y-115064712D01*
X147013712Y-114940656D01*
X147105814Y-114791334D01*
X147108744Y-114782493D01*
X147148518Y-114725049D01*
X147213035Y-114698228D01*
X147226449Y-114697500D01*
X148175551Y-114697500D01*
X148242590Y-114717185D01*
X148288345Y-114769989D01*
X148293256Y-114782493D01*
X148296186Y-114791334D01*
X148388288Y-114940656D01*
X148512344Y-115064712D01*
X148661666Y-115156814D01*
X148828203Y-115211999D01*
X148930991Y-115222500D01*
X150281008Y-115222499D01*
X150383797Y-115211999D01*
X150550334Y-115156814D01*
X150699656Y-115064712D01*
X150823712Y-114940656D01*
X150915814Y-114791334D01*
X150939125Y-114720986D01*
X157320001Y-114720986D01*
X157330494Y-114823697D01*
X157385641Y-114990119D01*
X157385643Y-114990124D01*
X157477684Y-115139345D01*
X157601654Y-115263315D01*
X157750875Y-115355356D01*
X157750880Y-115355358D01*
X157917302Y-115410505D01*
X157917309Y-115410506D01*
X158020019Y-115420999D01*
X158219999Y-115420999D01*
X158220000Y-115420998D01*
X158220000Y-114296000D01*
X157320001Y-114296000D01*
X157320001Y-114720986D01*
X150939125Y-114720986D01*
X150970999Y-114624797D01*
X150981500Y-114522009D01*
X150981499Y-113621992D01*
X150970999Y-113519203D01*
X150921894Y-113371013D01*
X157320000Y-113371013D01*
X157320000Y-113796000D01*
X158220000Y-113796000D01*
X158220000Y-112671000D01*
X158020029Y-112671000D01*
X158020012Y-112671001D01*
X157917302Y-112681494D01*
X157750880Y-112736641D01*
X157750875Y-112736643D01*
X157601654Y-112828684D01*
X157477684Y-112952654D01*
X157385643Y-113101875D01*
X157385641Y-113101880D01*
X157330494Y-113268302D01*
X157330493Y-113268309D01*
X157320000Y-113371013D01*
X150921894Y-113371013D01*
X150915814Y-113352666D01*
X150823712Y-113203344D01*
X150699656Y-113079288D01*
X150585702Y-113009001D01*
X150550336Y-112987187D01*
X150550331Y-112987185D01*
X150533160Y-112981495D01*
X150383797Y-112932001D01*
X150383795Y-112932000D01*
X150281016Y-112921500D01*
X150281009Y-112921500D01*
X149163452Y-112921500D01*
X149096413Y-112901815D01*
X149075771Y-112885181D01*
X148766960Y-112576370D01*
X148733475Y-112515047D01*
X148731323Y-112501671D01*
X148713674Y-112333744D01*
X148694034Y-112273301D01*
X148692040Y-112203463D01*
X148728120Y-112143630D01*
X148790820Y-112112801D01*
X148824569Y-112111627D01*
X148828199Y-112111997D01*
X148828203Y-112111999D01*
X148930991Y-112122500D01*
X150281008Y-112122499D01*
X150383797Y-112111999D01*
X150550334Y-112056814D01*
X150699656Y-111964712D01*
X150823712Y-111840656D01*
X150915814Y-111691334D01*
X150970999Y-111524797D01*
X150981500Y-111422009D01*
X150981499Y-110521992D01*
X150980493Y-110512148D01*
X150970999Y-110419203D01*
X150970998Y-110419200D01*
X150964930Y-110400888D01*
X150915814Y-110252666D01*
X150823712Y-110103344D01*
X150699656Y-109979288D01*
X150584001Y-109907952D01*
X150550336Y-109887187D01*
X150550331Y-109887185D01*
X150525386Y-109878919D01*
X150383797Y-109832001D01*
X150383795Y-109832000D01*
X150281016Y-109821500D01*
X150281009Y-109821500D01*
X149111452Y-109821500D01*
X149044413Y-109801815D01*
X149023771Y-109785181D01*
X148855770Y-109617180D01*
X148822285Y-109555857D01*
X148827269Y-109486165D01*
X148869141Y-109430232D01*
X148934605Y-109405815D01*
X148943423Y-109405499D01*
X150306008Y-109405499D01*
X150408797Y-109394999D01*
X150575334Y-109339814D01*
X150724656Y-109247712D01*
X150848712Y-109123656D01*
X150940814Y-108974334D01*
X150995999Y-108807797D01*
X151005786Y-108712000D01*
X152510540Y-108712000D01*
X152530326Y-108900256D01*
X152530327Y-108900259D01*
X152588818Y-109080277D01*
X152588821Y-109080284D01*
X152683467Y-109244216D01*
X152789358Y-109361819D01*
X152810129Y-109384888D01*
X152963265Y-109496148D01*
X152963270Y-109496151D01*
X153136192Y-109573142D01*
X153136197Y-109573144D01*
X153321354Y-109612500D01*
X153380548Y-109612500D01*
X153447587Y-109632185D01*
X153468229Y-109648819D01*
X155339016Y-111519606D01*
X155339045Y-111519637D01*
X155429265Y-111609857D01*
X155432586Y-111612076D01*
X155468390Y-111635999D01*
X155468392Y-111636001D01*
X155468393Y-111636001D01*
X155531714Y-111678312D01*
X155612207Y-111711652D01*
X155645548Y-111725463D01*
X155705971Y-111737481D01*
X155766393Y-111749500D01*
X155766394Y-111749500D01*
X155922453Y-111749500D01*
X155989492Y-111769185D01*
X156019724Y-111796595D01*
X156024032Y-111802044D01*
X156143956Y-111921968D01*
X156143958Y-111921969D01*
X156143959Y-111921970D01*
X156288294Y-112010998D01*
X156288297Y-112010999D01*
X156288303Y-112011003D01*
X156449292Y-112064349D01*
X156548655Y-112074500D01*
X157395344Y-112074499D01*
X157395352Y-112074498D01*
X157395355Y-112074498D01*
X157449760Y-112068940D01*
X157494708Y-112064349D01*
X157655697Y-112011003D01*
X157800044Y-111921968D01*
X157919968Y-111802044D01*
X157919971Y-111802038D01*
X157924276Y-111796595D01*
X157981296Y-111756215D01*
X158021547Y-111749500D01*
X158462453Y-111749500D01*
X158529492Y-111769185D01*
X158559724Y-111796595D01*
X158564032Y-111802044D01*
X158683956Y-111921968D01*
X158827600Y-112010569D01*
X158874321Y-112062514D01*
X158886500Y-112116105D01*
X158886500Y-112329607D01*
X158888477Y-112339546D01*
X158888477Y-112339548D01*
X158888478Y-112339548D01*
X158888478Y-112339549D01*
X158898811Y-112391501D01*
X158910538Y-112450455D01*
X158910539Y-112450459D01*
X158914654Y-112460392D01*
X158914653Y-112460392D01*
X158914656Y-112460396D01*
X158930873Y-112499548D01*
X158938342Y-112569017D01*
X158907066Y-112631496D01*
X158846977Y-112667148D01*
X158816312Y-112671000D01*
X158720000Y-112671000D01*
X158720000Y-115420999D01*
X158724523Y-115425522D01*
X158758008Y-115486845D01*
X158753024Y-115556537D01*
X158724524Y-115600884D01*
X158622228Y-115703181D01*
X158560905Y-115736666D01*
X158534546Y-115739500D01*
X158096662Y-115739500D01*
X158096644Y-115739501D01*
X157997292Y-115749650D01*
X157997289Y-115749651D01*
X157836305Y-115802996D01*
X157836294Y-115803001D01*
X157691959Y-115892029D01*
X157691955Y-115892032D01*
X157572032Y-116011955D01*
X157572029Y-116011959D01*
X157483001Y-116156294D01*
X157482996Y-116156305D01*
X157429651Y-116317290D01*
X157419500Y-116416647D01*
X157419500Y-117263337D01*
X157419501Y-117263355D01*
X157429650Y-117362707D01*
X157429651Y-117362710D01*
X157482996Y-117523694D01*
X157483001Y-117523705D01*
X157572029Y-117668040D01*
X157572032Y-117668044D01*
X157691956Y-117787968D01*
X157691963Y-117787972D01*
X157697404Y-117792274D01*
X157737785Y-117849293D01*
X157744500Y-117889546D01*
X157744500Y-118330452D01*
X157724815Y-118397491D01*
X157697410Y-118427719D01*
X157691958Y-118432029D01*
X157572029Y-118551959D01*
X157483001Y-118696294D01*
X157482996Y-118696305D01*
X157429651Y-118857290D01*
X157419500Y-118956647D01*
X157419500Y-119803337D01*
X157419501Y-119803355D01*
X157429650Y-119902707D01*
X157429651Y-119902710D01*
X157482996Y-120063694D01*
X157483001Y-120063705D01*
X157572029Y-120208040D01*
X157572032Y-120208044D01*
X157691955Y-120327967D01*
X157691959Y-120327970D01*
X157773097Y-120378017D01*
X157819822Y-120429965D01*
X157832000Y-120483555D01*
X157832000Y-120714409D01*
X157812315Y-120781448D01*
X157759511Y-120827203D01*
X157747006Y-120832114D01*
X157725668Y-120839184D01*
X157576342Y-120931289D01*
X157452289Y-121055342D01*
X157360187Y-121204663D01*
X157360185Y-121204668D01*
X157347110Y-121244126D01*
X157305001Y-121371203D01*
X157305001Y-121371204D01*
X157305000Y-121371204D01*
X157294500Y-121473983D01*
X157294500Y-122874001D01*
X157294501Y-122874018D01*
X157305000Y-122976796D01*
X157305001Y-122976799D01*
X157348162Y-123107049D01*
X157360186Y-123143334D01*
X157452288Y-123292656D01*
X157576344Y-123416712D01*
X157725666Y-123508814D01*
X157892203Y-123563999D01*
X157994991Y-123574500D01*
X158920008Y-123574499D01*
X158920016Y-123574498D01*
X158920019Y-123574498D01*
X158976302Y-123568748D01*
X159022797Y-123563999D01*
X159189334Y-123508814D01*
X159338656Y-123416712D01*
X159462712Y-123292656D01*
X159554814Y-123143334D01*
X159609999Y-122976797D01*
X159620500Y-122874009D01*
X159620499Y-121473992D01*
X159620498Y-121473983D01*
X160419500Y-121473983D01*
X160419500Y-122874001D01*
X160419501Y-122874018D01*
X160430000Y-122976796D01*
X160430001Y-122976799D01*
X160473162Y-123107049D01*
X160485186Y-123143334D01*
X160577288Y-123292656D01*
X160701344Y-123416712D01*
X160850666Y-123508814D01*
X161017203Y-123563999D01*
X161119991Y-123574500D01*
X162045008Y-123574499D01*
X162045016Y-123574498D01*
X162045019Y-123574498D01*
X162101302Y-123568748D01*
X162147797Y-123563999D01*
X162314334Y-123508814D01*
X162463656Y-123416712D01*
X162587712Y-123292656D01*
X162679814Y-123143334D01*
X162732378Y-122984704D01*
X162772149Y-122927261D01*
X162836665Y-122900438D01*
X162905441Y-122912753D01*
X162956641Y-122960296D01*
X162969948Y-123000531D01*
X162971585Y-123000181D01*
X162973001Y-123006799D01*
X163006221Y-123107049D01*
X163028186Y-123173334D01*
X163120288Y-123322656D01*
X163244344Y-123446712D01*
X163393666Y-123538814D01*
X163560203Y-123593999D01*
X163662991Y-123604500D01*
X165013008Y-123604499D01*
X165115797Y-123593999D01*
X165282334Y-123538814D01*
X165431656Y-123446712D01*
X165555712Y-123322656D01*
X165647814Y-123173334D01*
X165650744Y-123164493D01*
X165690518Y-123107049D01*
X165755035Y-123080228D01*
X165768449Y-123079500D01*
X196885607Y-123079500D01*
X196946029Y-123067481D01*
X197006452Y-123055463D01*
X197055504Y-123035144D01*
X197055507Y-123035144D01*
X197120281Y-123008314D01*
X197120280Y-123008314D01*
X197120286Y-123008312D01*
X197171509Y-122974084D01*
X197171767Y-122973912D01*
X197184271Y-122965556D01*
X197222733Y-122939858D01*
X197309858Y-122852733D01*
X197309858Y-122852731D01*
X197320066Y-122842524D01*
X197320067Y-122842521D01*
X202669858Y-117492733D01*
X202738312Y-117390285D01*
X202785463Y-117276451D01*
X202809501Y-117155606D01*
X202809501Y-117032393D01*
X202809501Y-117027283D01*
X202809500Y-117027257D01*
X202809500Y-116974495D01*
X202829185Y-116907456D01*
X202881989Y-116861701D01*
X202951147Y-116851757D01*
X203014703Y-116880782D01*
X203021181Y-116886814D01*
X203030342Y-116895975D01*
X203030345Y-116895977D01*
X203202402Y-117010941D01*
X203393580Y-117090130D01*
X203534779Y-117118216D01*
X203596530Y-117130499D01*
X203596534Y-117130500D01*
X203596535Y-117130500D01*
X204403466Y-117130500D01*
X204403467Y-117130499D01*
X204606420Y-117090130D01*
X204797598Y-117010941D01*
X204969655Y-116895977D01*
X205115977Y-116749655D01*
X205230941Y-116577598D01*
X205310130Y-116386420D01*
X205350500Y-116183465D01*
X205350500Y-115976535D01*
X205310130Y-115773580D01*
X205230941Y-115582402D01*
X205115977Y-115410345D01*
X205115976Y-115410344D01*
X205115975Y-115410342D01*
X204969657Y-115264024D01*
X204864615Y-115193838D01*
X204797598Y-115149059D01*
X204791415Y-115146498D01*
X204606420Y-115069870D01*
X204606412Y-115069868D01*
X204403469Y-115029500D01*
X204403465Y-115029500D01*
X203596535Y-115029500D01*
X203596530Y-115029500D01*
X203393587Y-115069868D01*
X203393579Y-115069870D01*
X203202403Y-115149058D01*
X203030342Y-115264024D01*
X203030341Y-115264025D01*
X203021181Y-115273186D01*
X202959858Y-115306671D01*
X202890166Y-115301687D01*
X202834233Y-115259815D01*
X202809816Y-115194351D01*
X202809500Y-115185505D01*
X202809500Y-108334495D01*
X202829185Y-108267456D01*
X202881989Y-108221701D01*
X202951147Y-108211757D01*
X203014703Y-108240782D01*
X203021181Y-108246814D01*
X203030342Y-108255975D01*
X203030345Y-108255977D01*
X203202402Y-108370941D01*
X203393580Y-108450130D01*
X203580915Y-108487393D01*
X203596530Y-108490499D01*
X203596534Y-108490500D01*
X203596535Y-108490500D01*
X204403466Y-108490500D01*
X204403467Y-108490499D01*
X204606420Y-108450130D01*
X204797598Y-108370941D01*
X204969655Y-108255977D01*
X205115977Y-108109655D01*
X205230941Y-107937598D01*
X205310130Y-107746420D01*
X205350500Y-107543465D01*
X205350500Y-107336535D01*
X205310130Y-107133580D01*
X205230941Y-106942402D01*
X205115977Y-106770345D01*
X205115975Y-106770342D01*
X204969657Y-106624024D01*
X204865383Y-106554351D01*
X204797598Y-106509059D01*
X204755791Y-106491742D01*
X204606420Y-106429870D01*
X204606412Y-106429868D01*
X204403469Y-106389500D01*
X204403465Y-106389500D01*
X203596535Y-106389500D01*
X203596530Y-106389500D01*
X203393587Y-106429868D01*
X203393579Y-106429870D01*
X203202403Y-106509058D01*
X203030342Y-106624024D01*
X203030341Y-106624025D01*
X203021181Y-106633186D01*
X202959858Y-106666671D01*
X202890166Y-106661687D01*
X202834233Y-106619815D01*
X202809816Y-106554351D01*
X202809500Y-106545505D01*
X202809500Y-103562396D01*
X202809500Y-103562394D01*
X202785463Y-103441548D01*
X202775606Y-103417752D01*
X202765962Y-103394468D01*
X202765947Y-103394435D01*
X202765932Y-103394397D01*
X202738312Y-103327715D01*
X202709461Y-103284537D01*
X202709461Y-103284536D01*
X202669861Y-103225271D01*
X202669855Y-103225263D01*
X202579637Y-103135045D01*
X202579606Y-103135016D01*
X200472637Y-101028047D01*
X200439152Y-100966724D01*
X200444136Y-100897032D01*
X200486008Y-100841099D01*
X200528222Y-100820592D01*
X200657913Y-100785842D01*
X200863858Y-100700537D01*
X201056906Y-100589080D01*
X201233755Y-100453379D01*
X201391379Y-100295755D01*
X201527080Y-100118906D01*
X201638537Y-99925858D01*
X201723842Y-99719913D01*
X201781536Y-99504595D01*
X201810633Y-99283588D01*
X201810633Y-99060676D01*
X201781536Y-98839669D01*
X201723842Y-98624351D01*
X201638537Y-98418406D01*
X201527080Y-98225358D01*
X201391379Y-98048509D01*
X201391374Y-98048503D01*
X200809496Y-97466625D01*
X200809489Y-97466619D01*
X200632650Y-97330926D01*
X200632648Y-97330925D01*
X200632642Y-97330920D01*
X200439594Y-97219463D01*
X200439590Y-97219461D01*
X200233658Y-97134161D01*
X200233651Y-97134159D01*
X200233649Y-97134158D01*
X200018331Y-97076464D01*
X199969218Y-97069998D01*
X199797331Y-97047367D01*
X199797324Y-97047367D01*
X199574412Y-97047367D01*
X199574404Y-97047367D01*
X199377961Y-97073231D01*
X199353405Y-97076464D01*
X199238547Y-97107240D01*
X199138087Y-97134158D01*
X199138077Y-97134161D01*
X198932145Y-97219461D01*
X198932141Y-97219463D01*
X198739094Y-97330920D01*
X198739085Y-97330926D01*
X198562246Y-97466619D01*
X198562239Y-97466625D01*
X198404625Y-97624239D01*
X198404619Y-97624246D01*
X198268926Y-97801085D01*
X198268920Y-97801094D01*
X198157463Y-97994141D01*
X198157461Y-97994145D01*
X198072161Y-98200077D01*
X198072158Y-98200087D01*
X198023748Y-98380759D01*
X198014464Y-98415406D01*
X197985367Y-98636404D01*
X197985367Y-98859331D01*
X198004354Y-99003540D01*
X197993589Y-99072576D01*
X197947209Y-99124831D01*
X197879940Y-99143717D01*
X197837645Y-99135044D01*
X197837502Y-99135466D01*
X197834144Y-99134326D01*
X197833971Y-99134291D01*
X197833659Y-99134162D01*
X197833656Y-99134160D01*
X197833649Y-99134158D01*
X197618331Y-99076464D01*
X197569218Y-99069998D01*
X197397331Y-99047367D01*
X197397324Y-99047367D01*
X197174412Y-99047367D01*
X197174404Y-99047367D01*
X196984448Y-99072377D01*
X196953405Y-99076464D01*
X196772896Y-99124831D01*
X196738087Y-99134158D01*
X196738077Y-99134161D01*
X196532145Y-99219461D01*
X196532141Y-99219463D01*
X196339094Y-99330920D01*
X196339085Y-99330926D01*
X196162246Y-99466619D01*
X196162239Y-99466625D01*
X196004625Y-99624239D01*
X196004619Y-99624246D01*
X195868926Y-99801085D01*
X195868916Y-99801100D01*
X195828507Y-99871089D01*
X195777939Y-99919303D01*
X195709332Y-99932525D01*
X195644468Y-99906556D01*
X195603940Y-99849642D01*
X195600617Y-99779851D01*
X195606561Y-99761632D01*
X195620908Y-99726997D01*
X195623842Y-99719913D01*
X195681536Y-99504595D01*
X195710633Y-99283588D01*
X195710633Y-99060676D01*
X195681536Y-98839669D01*
X195623842Y-98624351D01*
X195538537Y-98418406D01*
X195427080Y-98225358D01*
X195291379Y-98048509D01*
X195291374Y-98048503D01*
X194709496Y-97466625D01*
X194709489Y-97466619D01*
X194532650Y-97330926D01*
X194532648Y-97330925D01*
X194532642Y-97330920D01*
X194339594Y-97219463D01*
X194339590Y-97219461D01*
X194133658Y-97134161D01*
X194133651Y-97134159D01*
X194133649Y-97134158D01*
X193918331Y-97076464D01*
X193869218Y-97069998D01*
X193697331Y-97047367D01*
X193697324Y-97047367D01*
X193474412Y-97047367D01*
X193474404Y-97047367D01*
X193277961Y-97073231D01*
X193253405Y-97076464D01*
X193138547Y-97107240D01*
X193038087Y-97134158D01*
X193038077Y-97134161D01*
X192832145Y-97219461D01*
X192832141Y-97219463D01*
X192639094Y-97330920D01*
X192639085Y-97330926D01*
X192462246Y-97466619D01*
X192462239Y-97466625D01*
X192304625Y-97624239D01*
X192304619Y-97624246D01*
X192168926Y-97801085D01*
X192168920Y-97801094D01*
X192057463Y-97994141D01*
X192057461Y-97994145D01*
X191972161Y-98200077D01*
X191972158Y-98200087D01*
X191923748Y-98380759D01*
X191914464Y-98415406D01*
X191885367Y-98636404D01*
X191885367Y-98859317D01*
X191885368Y-98859336D01*
X191891667Y-98907183D01*
X191880901Y-98976218D01*
X191834521Y-99028473D01*
X191768728Y-99047367D01*
X191674404Y-99047367D01*
X191484448Y-99072377D01*
X191453405Y-99076464D01*
X191272896Y-99124831D01*
X191238087Y-99134158D01*
X191238077Y-99134161D01*
X191032145Y-99219461D01*
X191032141Y-99219463D01*
X190839094Y-99330920D01*
X190839085Y-99330926D01*
X190662246Y-99466619D01*
X190662239Y-99466625D01*
X190504625Y-99624239D01*
X190504619Y-99624246D01*
X190368926Y-99801085D01*
X190368916Y-99801100D01*
X190328507Y-99871089D01*
X190277939Y-99919303D01*
X190209332Y-99932525D01*
X190144468Y-99906556D01*
X190103940Y-99849642D01*
X190100617Y-99779851D01*
X190106561Y-99761632D01*
X190120908Y-99726997D01*
X190123842Y-99719913D01*
X190181536Y-99504595D01*
X190210633Y-99283588D01*
X190210633Y-99060676D01*
X190181536Y-98839669D01*
X190123842Y-98624351D01*
X190038537Y-98418406D01*
X189927080Y-98225358D01*
X189791379Y-98048509D01*
X189791374Y-98048503D01*
X189209496Y-97466625D01*
X189209489Y-97466619D01*
X189032650Y-97330926D01*
X189032648Y-97330925D01*
X189032642Y-97330920D01*
X188839594Y-97219463D01*
X188839590Y-97219461D01*
X188633658Y-97134161D01*
X188633651Y-97134159D01*
X188633649Y-97134158D01*
X188418331Y-97076464D01*
X188369218Y-97069998D01*
X188197331Y-97047367D01*
X188197324Y-97047367D01*
X187974412Y-97047367D01*
X187974404Y-97047367D01*
X187777961Y-97073231D01*
X187753405Y-97076464D01*
X187638547Y-97107240D01*
X187538087Y-97134158D01*
X187538077Y-97134161D01*
X187332145Y-97219461D01*
X187332141Y-97219463D01*
X187139094Y-97330920D01*
X187139085Y-97330926D01*
X186962246Y-97466619D01*
X186962239Y-97466625D01*
X186804625Y-97624239D01*
X186804619Y-97624246D01*
X186668926Y-97801085D01*
X186668920Y-97801094D01*
X186557463Y-97994141D01*
X186557461Y-97994145D01*
X186472161Y-98200077D01*
X186472158Y-98200087D01*
X186423748Y-98380759D01*
X186414464Y-98415406D01*
X186385367Y-98636404D01*
X186385367Y-98859331D01*
X186399885Y-98969598D01*
X186414464Y-99080331D01*
X186468928Y-99283595D01*
X186472158Y-99295648D01*
X186472161Y-99295658D01*
X186542978Y-99466625D01*
X186557463Y-99501594D01*
X186668920Y-99694642D01*
X186668925Y-99694648D01*
X186668926Y-99694650D01*
X186804619Y-99871489D01*
X186804625Y-99871496D01*
X187386503Y-100453374D01*
X187386509Y-100453379D01*
X187563358Y-100589080D01*
X187756406Y-100700537D01*
X187833615Y-100732518D01*
X187915937Y-100766617D01*
X187962351Y-100785842D01*
X188177669Y-100843536D01*
X188398676Y-100872633D01*
X188398683Y-100872633D01*
X188621581Y-100872633D01*
X188621588Y-100872633D01*
X188842595Y-100843536D01*
X189057913Y-100785842D01*
X189263858Y-100700537D01*
X189456906Y-100589080D01*
X189633755Y-100453379D01*
X189791379Y-100295755D01*
X189927080Y-100118906D01*
X189967491Y-100048911D01*
X190018058Y-100000696D01*
X190086665Y-99987473D01*
X190151530Y-100013441D01*
X190192058Y-100070356D01*
X190195383Y-100140146D01*
X190189440Y-100158364D01*
X190187524Y-100162991D01*
X190172158Y-100200087D01*
X190118146Y-100401666D01*
X190114464Y-100415406D01*
X190085367Y-100636404D01*
X190085367Y-100859331D01*
X190097876Y-100954338D01*
X190114464Y-101080331D01*
X190172158Y-101295648D01*
X190172161Y-101295658D01*
X190257461Y-101501590D01*
X190257463Y-101501594D01*
X190368920Y-101694642D01*
X190368925Y-101694648D01*
X190368926Y-101694650D01*
X190504619Y-101871489D01*
X190504625Y-101871496D01*
X191086503Y-102453374D01*
X191086510Y-102453380D01*
X191104912Y-102467500D01*
X191263358Y-102589080D01*
X191456406Y-102700537D01*
X191662351Y-102785842D01*
X191877669Y-102843536D01*
X192098676Y-102872633D01*
X192098683Y-102872633D01*
X192321581Y-102872633D01*
X192321588Y-102872633D01*
X192542595Y-102843536D01*
X192757913Y-102785842D01*
X192963858Y-102700537D01*
X193156906Y-102589080D01*
X193333755Y-102453379D01*
X193491379Y-102295755D01*
X193627080Y-102118906D01*
X193738537Y-101925858D01*
X193823842Y-101719913D01*
X193829408Y-101699142D01*
X193835233Y-101677405D01*
X193871598Y-101617745D01*
X193934446Y-101587217D01*
X193955007Y-101585500D01*
X195734315Y-101585500D01*
X195801354Y-101605185D01*
X195841701Y-101647497D01*
X195868919Y-101694641D01*
X195868926Y-101694650D01*
X196004619Y-101871489D01*
X196004625Y-101871496D01*
X196586503Y-102453374D01*
X196586510Y-102453380D01*
X196604912Y-102467500D01*
X196763358Y-102589080D01*
X196956406Y-102700537D01*
X197162351Y-102785842D01*
X197377669Y-102843536D01*
X197598676Y-102872633D01*
X197598683Y-102872633D01*
X197821581Y-102872633D01*
X197821588Y-102872633D01*
X198042595Y-102843536D01*
X198257913Y-102785842D01*
X198463858Y-102700537D01*
X198656906Y-102589080D01*
X198833755Y-102453379D01*
X198991379Y-102295755D01*
X199127080Y-102118906D01*
X199238537Y-101925858D01*
X199273761Y-101840819D01*
X199317600Y-101786418D01*
X199383894Y-101764352D01*
X199451593Y-101781631D01*
X199476002Y-101800592D01*
X201522181Y-103846771D01*
X201555666Y-103908094D01*
X201558500Y-103934452D01*
X201558500Y-106724532D01*
X201538815Y-106791571D01*
X201486011Y-106837326D01*
X201416853Y-106847270D01*
X201353297Y-106818245D01*
X201331399Y-106793424D01*
X201315979Y-106770347D01*
X201315974Y-106770341D01*
X201169657Y-106624024D01*
X201065383Y-106554351D01*
X200997598Y-106509059D01*
X200955791Y-106491742D01*
X200806420Y-106429870D01*
X200806412Y-106429868D01*
X200603469Y-106389500D01*
X200603465Y-106389500D01*
X199796535Y-106389500D01*
X199796530Y-106389500D01*
X199593587Y-106429868D01*
X199593579Y-106429870D01*
X199402403Y-106509058D01*
X199230342Y-106624024D01*
X199084024Y-106770342D01*
X198969058Y-106942403D01*
X198889870Y-107133579D01*
X198889868Y-107133587D01*
X198849500Y-107336530D01*
X198849500Y-107543469D01*
X198889868Y-107746412D01*
X198889870Y-107746420D01*
X198965021Y-107927851D01*
X198969059Y-107937598D01*
X199006480Y-107993603D01*
X199084024Y-108109657D01*
X199169173Y-108194806D01*
X199202658Y-108256129D01*
X199197674Y-108325821D01*
X199169182Y-108370159D01*
X199164534Y-108374807D01*
X199164528Y-108374814D01*
X199076522Y-108520393D01*
X199025913Y-108682807D01*
X199021972Y-108726182D01*
X199019500Y-108753384D01*
X199019500Y-109266616D01*
X199020679Y-109279586D01*
X199025913Y-109337192D01*
X199025913Y-109337194D01*
X199025914Y-109337196D01*
X199075876Y-109497534D01*
X199076523Y-109499608D01*
X199117702Y-109567727D01*
X199135538Y-109635281D01*
X199117703Y-109696024D01*
X199076168Y-109764733D01*
X199076167Y-109764735D01*
X199026318Y-109924705D01*
X199026317Y-109924712D01*
X199020384Y-109990000D01*
X201219615Y-109990000D01*
X201213682Y-109924712D01*
X201213681Y-109924705D01*
X201163833Y-109764738D01*
X201163832Y-109764737D01*
X201122296Y-109696027D01*
X201104460Y-109628472D01*
X201122297Y-109567727D01*
X201163478Y-109499606D01*
X201214086Y-109337196D01*
X201220500Y-109266616D01*
X201220500Y-108753384D01*
X201214086Y-108682804D01*
X201163478Y-108520394D01*
X201112704Y-108436404D01*
X201094869Y-108368853D01*
X201116386Y-108302379D01*
X201149931Y-108269155D01*
X201169655Y-108255977D01*
X201315977Y-108109655D01*
X201331397Y-108086576D01*
X201385009Y-108041771D01*
X201454334Y-108033064D01*
X201517362Y-108063218D01*
X201554082Y-108122661D01*
X201558500Y-108155467D01*
X201558500Y-115364532D01*
X201538815Y-115431571D01*
X201486011Y-115477326D01*
X201416853Y-115487270D01*
X201353297Y-115458245D01*
X201331399Y-115433424D01*
X201315979Y-115410347D01*
X201315974Y-115410341D01*
X201169657Y-115264024D01*
X201149931Y-115250844D01*
X201105126Y-115197231D01*
X201096419Y-115127906D01*
X201112704Y-115083595D01*
X201163478Y-114999606D01*
X201214086Y-114837196D01*
X201220500Y-114766616D01*
X201220500Y-114253384D01*
X201214086Y-114182804D01*
X201163478Y-114020394D01*
X201122295Y-113952270D01*
X201104460Y-113884718D01*
X201122297Y-113823971D01*
X201163831Y-113755264D01*
X201163833Y-113755261D01*
X201213681Y-113595294D01*
X201213682Y-113595287D01*
X201219616Y-113530000D01*
X199020384Y-113530000D01*
X199026317Y-113595287D01*
X199026318Y-113595294D01*
X199076166Y-113755261D01*
X199117703Y-113823974D01*
X199135538Y-113891529D01*
X199117703Y-113952270D01*
X199076523Y-114020392D01*
X199076522Y-114020394D01*
X199033376Y-114158854D01*
X199025913Y-114182807D01*
X199019500Y-114253386D01*
X199019500Y-114766613D01*
X199025913Y-114837192D01*
X199025913Y-114837194D01*
X199025914Y-114837196D01*
X199076522Y-114999606D01*
X199159186Y-115136349D01*
X199164530Y-115145188D01*
X199169173Y-115149831D01*
X199202658Y-115211154D01*
X199197674Y-115280846D01*
X199169174Y-115325193D01*
X199084023Y-115410344D01*
X198969058Y-115582403D01*
X198889870Y-115773579D01*
X198889868Y-115773587D01*
X198849500Y-115976530D01*
X198849500Y-116183469D01*
X198889868Y-116386412D01*
X198889870Y-116386420D01*
X198927665Y-116477666D01*
X198969059Y-116577598D01*
X199072622Y-116732592D01*
X199084023Y-116749655D01*
X199084025Y-116749658D01*
X199230342Y-116895975D01*
X199230345Y-116895977D01*
X199402402Y-117010941D01*
X199593580Y-117090130D01*
X199734779Y-117118216D01*
X199796530Y-117130499D01*
X199796534Y-117130500D01*
X199796535Y-117130500D01*
X200603466Y-117130500D01*
X200603467Y-117130499D01*
X200806420Y-117090130D01*
X200997598Y-117010941D01*
X201110654Y-116935399D01*
X201177331Y-116914522D01*
X201244711Y-116933007D01*
X201291401Y-116984985D01*
X201302577Y-117053955D01*
X201274691Y-117118019D01*
X201267225Y-117126183D01*
X196601229Y-121792181D01*
X196539906Y-121825666D01*
X196513548Y-121828500D01*
X165768449Y-121828500D01*
X165701410Y-121808815D01*
X165655655Y-121756011D01*
X165650744Y-121743507D01*
X165647814Y-121734667D01*
X165647814Y-121734666D01*
X165555712Y-121585344D01*
X165431656Y-121461288D01*
X165285604Y-121371203D01*
X165282336Y-121369187D01*
X165282329Y-121369184D01*
X165272952Y-121366077D01*
X165265164Y-121363496D01*
X165207719Y-121323725D01*
X165180896Y-121259209D01*
X165186236Y-121207475D01*
X165223674Y-121092256D01*
X165243460Y-120904000D01*
X165223674Y-120715744D01*
X165186236Y-120600525D01*
X165184242Y-120530685D01*
X165220322Y-120470852D01*
X165265161Y-120444504D01*
X165282334Y-120438814D01*
X165431656Y-120346712D01*
X165555712Y-120222656D01*
X165647814Y-120073334D01*
X165702999Y-119906797D01*
X165713500Y-119804009D01*
X165713499Y-118903992D01*
X165702999Y-118801203D01*
X165647814Y-118634666D01*
X165555712Y-118485344D01*
X165431656Y-118361288D01*
X165315512Y-118289650D01*
X165282336Y-118269187D01*
X165282331Y-118269185D01*
X165258662Y-118261342D01*
X165115797Y-118214001D01*
X165115795Y-118214000D01*
X165013010Y-118203500D01*
X163662998Y-118203500D01*
X163662981Y-118203501D01*
X163560203Y-118214000D01*
X163560200Y-118214001D01*
X163393668Y-118269185D01*
X163393663Y-118269187D01*
X163244342Y-118361289D01*
X163120289Y-118485342D01*
X163028187Y-118634663D01*
X163028185Y-118634668D01*
X163016888Y-118668761D01*
X162973001Y-118801203D01*
X162973001Y-118801204D01*
X162973000Y-118801204D01*
X162962500Y-118903983D01*
X162962500Y-119804001D01*
X162962501Y-119804019D01*
X162973000Y-119906796D01*
X162973001Y-119906799D01*
X163028185Y-120073331D01*
X163028187Y-120073336D01*
X163039230Y-120091239D01*
X163120288Y-120222656D01*
X163244344Y-120346712D01*
X163393666Y-120438814D01*
X163410835Y-120444503D01*
X163468278Y-120484272D01*
X163495103Y-120548787D01*
X163489762Y-120600526D01*
X163452628Y-120714814D01*
X163452326Y-120715744D01*
X163432540Y-120904000D01*
X163452326Y-121092256D01*
X163452327Y-121092259D01*
X163489762Y-121207472D01*
X163491757Y-121277313D01*
X163455677Y-121337146D01*
X163410839Y-121363495D01*
X163393666Y-121369185D01*
X163244342Y-121461289D01*
X163193451Y-121512181D01*
X163132128Y-121545666D01*
X163105770Y-121548500D01*
X162865089Y-121548500D01*
X162798050Y-121528815D01*
X162752295Y-121476011D01*
X162741731Y-121437102D01*
X162739839Y-121418591D01*
X162734999Y-121371203D01*
X162679814Y-121204666D01*
X162587712Y-121055344D01*
X162463656Y-120931288D01*
X162314334Y-120839186D01*
X162147797Y-120784001D01*
X162147795Y-120784000D01*
X162045010Y-120773500D01*
X161119998Y-120773500D01*
X161119980Y-120773501D01*
X161017203Y-120784000D01*
X161017200Y-120784001D01*
X160850668Y-120839185D01*
X160850663Y-120839187D01*
X160701342Y-120931289D01*
X160577289Y-121055342D01*
X160485187Y-121204663D01*
X160485185Y-121204668D01*
X160472110Y-121244126D01*
X160430001Y-121371203D01*
X160430001Y-121371204D01*
X160430000Y-121371204D01*
X160419500Y-121473983D01*
X159620498Y-121473983D01*
X159609999Y-121371203D01*
X159554814Y-121204666D01*
X159462712Y-121055344D01*
X159338656Y-120931288D01*
X159189334Y-120839186D01*
X159189332Y-120839185D01*
X159189330Y-120839184D01*
X159189331Y-120839184D01*
X159167994Y-120832114D01*
X159110550Y-120792341D01*
X159083728Y-120727825D01*
X159083000Y-120714409D01*
X159083000Y-120344374D01*
X159102685Y-120277335D01*
X159119319Y-120256693D01*
X159137197Y-120238815D01*
X159167968Y-120208044D01*
X159240016Y-120091235D01*
X159291961Y-120044515D01*
X159360923Y-120033292D01*
X159418437Y-120056018D01*
X159567265Y-120164148D01*
X159567270Y-120164151D01*
X159740192Y-120241142D01*
X159740197Y-120241144D01*
X159925354Y-120280500D01*
X159925355Y-120280500D01*
X160114644Y-120280500D01*
X160114646Y-120280500D01*
X160299803Y-120241144D01*
X160472730Y-120164151D01*
X160621564Y-120056016D01*
X160687368Y-120032538D01*
X160755422Y-120048363D01*
X160799985Y-120091239D01*
X160872029Y-120208040D01*
X160872032Y-120208044D01*
X160991955Y-120327967D01*
X160991959Y-120327970D01*
X161136294Y-120416998D01*
X161136297Y-120416999D01*
X161136303Y-120417003D01*
X161297292Y-120470349D01*
X161396655Y-120480500D01*
X161943344Y-120480499D01*
X161943352Y-120480498D01*
X161943355Y-120480498D01*
X161997760Y-120474940D01*
X162042708Y-120470349D01*
X162203697Y-120417003D01*
X162348044Y-120327968D01*
X162467968Y-120208044D01*
X162557003Y-120063697D01*
X162610349Y-119902708D01*
X162620500Y-119803345D01*
X162620499Y-118956656D01*
X162615118Y-118903983D01*
X162610349Y-118857292D01*
X162610348Y-118857289D01*
X162601890Y-118831765D01*
X162557003Y-118696303D01*
X162556999Y-118696297D01*
X162556998Y-118696294D01*
X162467970Y-118551959D01*
X162467967Y-118551955D01*
X162348044Y-118432032D01*
X162348040Y-118432029D01*
X162203705Y-118343001D01*
X162203699Y-118342998D01*
X162203697Y-118342997D01*
X162203694Y-118342996D01*
X162042709Y-118289651D01*
X161943346Y-118279500D01*
X161396662Y-118279500D01*
X161396644Y-118279501D01*
X161297292Y-118289650D01*
X161297289Y-118289651D01*
X161136305Y-118342996D01*
X161136294Y-118343001D01*
X160991959Y-118432029D01*
X160991955Y-118432032D01*
X160872031Y-118551956D01*
X160799985Y-118668761D01*
X160748037Y-118715485D01*
X160679074Y-118726706D01*
X160621562Y-118703981D01*
X160472734Y-118595851D01*
X160472729Y-118595848D01*
X160299807Y-118518857D01*
X160299802Y-118518855D01*
X160142140Y-118485344D01*
X160114646Y-118479500D01*
X159925354Y-118479500D01*
X159897869Y-118485342D01*
X159740197Y-118518855D01*
X159740192Y-118518857D01*
X159567271Y-118595848D01*
X159418437Y-118703981D01*
X159352630Y-118727460D01*
X159284576Y-118711634D01*
X159240014Y-118668759D01*
X159167970Y-118551959D01*
X159167969Y-118551958D01*
X159167968Y-118551956D01*
X159048044Y-118432032D01*
X159048043Y-118432031D01*
X159048041Y-118432029D01*
X159042590Y-118427719D01*
X159002213Y-118370697D01*
X158995500Y-118330452D01*
X158995500Y-117889546D01*
X159015185Y-117822507D01*
X159042596Y-117792274D01*
X159048032Y-117787975D01*
X159048044Y-117787968D01*
X159167968Y-117668044D01*
X159257003Y-117523697D01*
X159310349Y-117362708D01*
X159320500Y-117263345D01*
X159320500Y-117263322D01*
X160720001Y-117263322D01*
X160730144Y-117362607D01*
X160783452Y-117523481D01*
X160783457Y-117523492D01*
X160872424Y-117667728D01*
X160872427Y-117667732D01*
X160992267Y-117787572D01*
X160992271Y-117787575D01*
X161136507Y-117876542D01*
X161136518Y-117876547D01*
X161297393Y-117929855D01*
X161396683Y-117939999D01*
X161920000Y-117939999D01*
X161943308Y-117939999D01*
X161943322Y-117939998D01*
X162042607Y-117929855D01*
X162203481Y-117876547D01*
X162203492Y-117876542D01*
X162347728Y-117787575D01*
X162347732Y-117787572D01*
X162467572Y-117667732D01*
X162467575Y-117667728D01*
X162556542Y-117523492D01*
X162556547Y-117523481D01*
X162609855Y-117362606D01*
X162619999Y-117263322D01*
X162620000Y-117263309D01*
X162620000Y-117090000D01*
X161920000Y-117090000D01*
X161920000Y-117939999D01*
X161396683Y-117939999D01*
X161420000Y-117939998D01*
X161420000Y-117090000D01*
X160720001Y-117090000D01*
X160720001Y-117263322D01*
X159320500Y-117263322D01*
X159320499Y-116825450D01*
X159340183Y-116758412D01*
X159356813Y-116737775D01*
X159677912Y-116416677D01*
X160720000Y-116416677D01*
X160720000Y-116590000D01*
X161420000Y-116590000D01*
X161920000Y-116590000D01*
X162619999Y-116590000D01*
X162619999Y-116416692D01*
X162619998Y-116416677D01*
X162609855Y-116317392D01*
X162556547Y-116156518D01*
X162556542Y-116156507D01*
X162467575Y-116012271D01*
X162467572Y-116012267D01*
X162347732Y-115892427D01*
X162347728Y-115892424D01*
X162203492Y-115803457D01*
X162203481Y-115803452D01*
X162042606Y-115750144D01*
X161943322Y-115740000D01*
X161920000Y-115740000D01*
X161920000Y-116590000D01*
X161420000Y-116590000D01*
X161420000Y-115739999D01*
X161396693Y-115740000D01*
X161396674Y-115740001D01*
X161297392Y-115750144D01*
X161136518Y-115803452D01*
X161136507Y-115803457D01*
X160992271Y-115892424D01*
X160992267Y-115892427D01*
X160872427Y-116012267D01*
X160872424Y-116012271D01*
X160783457Y-116156507D01*
X160783452Y-116156518D01*
X160730144Y-116317393D01*
X160720000Y-116416677D01*
X159677912Y-116416677D01*
X160505857Y-115588734D01*
X160519222Y-115568733D01*
X160574311Y-115486286D01*
X160617871Y-115381123D01*
X160661710Y-115326721D01*
X160728004Y-115304656D01*
X160795704Y-115321935D01*
X160797527Y-115323038D01*
X160850659Y-115355810D01*
X160850660Y-115355810D01*
X160850666Y-115355814D01*
X161017203Y-115410999D01*
X161119991Y-115421500D01*
X162020008Y-115421499D01*
X162020016Y-115421498D01*
X162020019Y-115421498D01*
X162082239Y-115415142D01*
X162122797Y-115410999D01*
X162289334Y-115355814D01*
X162438656Y-115263712D01*
X162562712Y-115139656D01*
X162654814Y-114990334D01*
X162709999Y-114823797D01*
X162720500Y-114721009D01*
X162720499Y-113878983D01*
X181449500Y-113878983D01*
X181449500Y-115229001D01*
X181449501Y-115229018D01*
X181460000Y-115331796D01*
X181460001Y-115331799D01*
X181491058Y-115425522D01*
X181515186Y-115498334D01*
X181607288Y-115647656D01*
X181731344Y-115771712D01*
X181880666Y-115863814D01*
X182047203Y-115918999D01*
X182149991Y-115929500D01*
X183050008Y-115929499D01*
X183050016Y-115929498D01*
X183050019Y-115929498D01*
X183106302Y-115923748D01*
X183152797Y-115918999D01*
X183319334Y-115863814D01*
X183468656Y-115771712D01*
X183592712Y-115647656D01*
X183684814Y-115498334D01*
X183689606Y-115483873D01*
X183729375Y-115426433D01*
X183793890Y-115399608D01*
X183857746Y-115409601D01*
X183870192Y-115415142D01*
X183870197Y-115415144D01*
X184055354Y-115454500D01*
X184055355Y-115454500D01*
X184244644Y-115454500D01*
X184244646Y-115454500D01*
X184429803Y-115415144D01*
X184440220Y-115410506D01*
X184442251Y-115409602D01*
X184511500Y-115400315D01*
X184574778Y-115429942D01*
X184610394Y-115483873D01*
X184615186Y-115498334D01*
X184707288Y-115647656D01*
X184831344Y-115771712D01*
X184980666Y-115863814D01*
X185147203Y-115918999D01*
X185249991Y-115929500D01*
X186150008Y-115929499D01*
X186179613Y-115926474D01*
X186248302Y-115939242D01*
X186299188Y-115987121D01*
X186316110Y-116054911D01*
X186293696Y-116121088D01*
X186279895Y-116137513D01*
X185973227Y-116444181D01*
X185911904Y-116477666D01*
X185885546Y-116480500D01*
X185249998Y-116480500D01*
X185249980Y-116480501D01*
X185147203Y-116491000D01*
X185147200Y-116491001D01*
X184980668Y-116546185D01*
X184980663Y-116546187D01*
X184831342Y-116638289D01*
X184707289Y-116762342D01*
X184615185Y-116911667D01*
X184610394Y-116926126D01*
X184570620Y-116983570D01*
X184506104Y-117010391D01*
X184442256Y-117000400D01*
X184429802Y-116994855D01*
X184284001Y-116963865D01*
X184244646Y-116955500D01*
X184055354Y-116955500D01*
X184022897Y-116962398D01*
X183870197Y-116994855D01*
X183870195Y-116994856D01*
X183857741Y-117000401D01*
X183788491Y-117009683D01*
X183725215Y-116980051D01*
X183689604Y-116926122D01*
X183684815Y-116911670D01*
X183684814Y-116911666D01*
X183592712Y-116762344D01*
X183468656Y-116638288D01*
X183319334Y-116546186D01*
X183152797Y-116491001D01*
X183152795Y-116491000D01*
X183050010Y-116480500D01*
X182149998Y-116480500D01*
X182149980Y-116480501D01*
X182047203Y-116491000D01*
X182047200Y-116491001D01*
X181880668Y-116546185D01*
X181880663Y-116546187D01*
X181731342Y-116638289D01*
X181607289Y-116762342D01*
X181515187Y-116911663D01*
X181515185Y-116911668D01*
X181509843Y-116927789D01*
X181460001Y-117078203D01*
X181460001Y-117078204D01*
X181460000Y-117078204D01*
X181449500Y-117180983D01*
X181449500Y-118531001D01*
X181449501Y-118531018D01*
X181460000Y-118633796D01*
X181460001Y-118633799D01*
X181515185Y-118800331D01*
X181515187Y-118800336D01*
X181523711Y-118814156D01*
X181607288Y-118949656D01*
X181731344Y-119073712D01*
X181880666Y-119165814D01*
X182047203Y-119220999D01*
X182149991Y-119231500D01*
X183050008Y-119231499D01*
X183050016Y-119231498D01*
X183050019Y-119231498D01*
X183106302Y-119225748D01*
X183152797Y-119220999D01*
X183319334Y-119165814D01*
X183468656Y-119073712D01*
X183592712Y-118949656D01*
X183684814Y-118800334D01*
X183689606Y-118785873D01*
X183729375Y-118728433D01*
X183793890Y-118701608D01*
X183857746Y-118711601D01*
X183870192Y-118717142D01*
X183870197Y-118717144D01*
X184055354Y-118756500D01*
X184055355Y-118756500D01*
X184244644Y-118756500D01*
X184244646Y-118756500D01*
X184429803Y-118717144D01*
X184438032Y-118713479D01*
X184442251Y-118711602D01*
X184511500Y-118702315D01*
X184574778Y-118731942D01*
X184610394Y-118785873D01*
X184615184Y-118800329D01*
X184615187Y-118800336D01*
X184623711Y-118814156D01*
X184707288Y-118949656D01*
X184831344Y-119073712D01*
X184980666Y-119165814D01*
X185147203Y-119220999D01*
X185249991Y-119231500D01*
X186150008Y-119231499D01*
X186150016Y-119231498D01*
X186150019Y-119231498D01*
X186206302Y-119225748D01*
X186252797Y-119220999D01*
X186419334Y-119165814D01*
X186568656Y-119073712D01*
X186692712Y-118949656D01*
X186784814Y-118800334D01*
X186839999Y-118633797D01*
X186850500Y-118531009D01*
X186850499Y-117470483D01*
X195195500Y-117470483D01*
X195195500Y-118395501D01*
X195195501Y-118395519D01*
X195206000Y-118498296D01*
X195206001Y-118498299D01*
X195261185Y-118664831D01*
X195261187Y-118664836D01*
X195280596Y-118696303D01*
X195353288Y-118814156D01*
X195477344Y-118938212D01*
X195626666Y-119030314D01*
X195793203Y-119085499D01*
X195895991Y-119096000D01*
X197296008Y-119095999D01*
X197398797Y-119085499D01*
X197565334Y-119030314D01*
X197714656Y-118938212D01*
X197838712Y-118814156D01*
X197930814Y-118664834D01*
X197985999Y-118498297D01*
X197996500Y-118395509D01*
X197996499Y-117470492D01*
X197995604Y-117461735D01*
X197985999Y-117367703D01*
X197985998Y-117367700D01*
X197975523Y-117336090D01*
X197930814Y-117201166D01*
X197838712Y-117051844D01*
X197714656Y-116927788D01*
X197607511Y-116861701D01*
X197565336Y-116835687D01*
X197565325Y-116835682D01*
X197514300Y-116818774D01*
X197456855Y-116779001D01*
X197430033Y-116714485D01*
X197435374Y-116662751D01*
X197481674Y-116520256D01*
X197501460Y-116332000D01*
X197481674Y-116143744D01*
X197457805Y-116070286D01*
X197455811Y-116000448D01*
X197491891Y-115940615D01*
X197536738Y-115914262D01*
X197565120Y-115904858D01*
X197714345Y-115812815D01*
X197838315Y-115688845D01*
X197930356Y-115539624D01*
X197930358Y-115539619D01*
X197985505Y-115373197D01*
X197985506Y-115373190D01*
X197995999Y-115270486D01*
X197996000Y-115270473D01*
X197996000Y-115058000D01*
X195196001Y-115058000D01*
X195196001Y-115270486D01*
X195206494Y-115373197D01*
X195261641Y-115539619D01*
X195261643Y-115539624D01*
X195353684Y-115688845D01*
X195477654Y-115812815D01*
X195626875Y-115904856D01*
X195626882Y-115904859D01*
X195655265Y-115914264D01*
X195712710Y-115954036D01*
X195739534Y-116018551D01*
X195734193Y-116070288D01*
X195710327Y-116143740D01*
X195710326Y-116143744D01*
X195690540Y-116332000D01*
X195710326Y-116520256D01*
X195710327Y-116520259D01*
X195756625Y-116662751D01*
X195758620Y-116732592D01*
X195722539Y-116792425D01*
X195677700Y-116818774D01*
X195626672Y-116835683D01*
X195626663Y-116835687D01*
X195477342Y-116927789D01*
X195353289Y-117051842D01*
X195261187Y-117201163D01*
X195261185Y-117201168D01*
X195236241Y-117276444D01*
X195206001Y-117367703D01*
X195206001Y-117367704D01*
X195206000Y-117367704D01*
X195195500Y-117470483D01*
X186850499Y-117470483D01*
X186850499Y-117387451D01*
X186870184Y-117320413D01*
X186886818Y-117299771D01*
X187354771Y-116831819D01*
X187416094Y-116798334D01*
X187442452Y-116795500D01*
X191253608Y-116795500D01*
X191253608Y-116795499D01*
X191339611Y-116778393D01*
X191339612Y-116778393D01*
X191351330Y-116776061D01*
X191374452Y-116771463D01*
X191427101Y-116749655D01*
X191488286Y-116724312D01*
X191552412Y-116681463D01*
X191590733Y-116655858D01*
X191677858Y-116568733D01*
X191677859Y-116568731D01*
X191684925Y-116561665D01*
X191684927Y-116561661D01*
X193901076Y-114345513D01*
X195196000Y-114345513D01*
X195196000Y-114558000D01*
X196346000Y-114558000D01*
X196846000Y-114558000D01*
X197995999Y-114558000D01*
X197995999Y-114345528D01*
X197995998Y-114345513D01*
X197985505Y-114242802D01*
X197930358Y-114076380D01*
X197930356Y-114076375D01*
X197838315Y-113927154D01*
X197714345Y-113803184D01*
X197565124Y-113711143D01*
X197565119Y-113711141D01*
X197398697Y-113655994D01*
X197398690Y-113655993D01*
X197295986Y-113645500D01*
X196846000Y-113645500D01*
X196846000Y-114558000D01*
X196346000Y-114558000D01*
X196346000Y-113645500D01*
X195896028Y-113645500D01*
X195896012Y-113645501D01*
X195793302Y-113655994D01*
X195626880Y-113711141D01*
X195626875Y-113711143D01*
X195477654Y-113803184D01*
X195353684Y-113927154D01*
X195261643Y-114076375D01*
X195261641Y-114076380D01*
X195206494Y-114242802D01*
X195206493Y-114242809D01*
X195196000Y-114345513D01*
X193901076Y-114345513D01*
X195324771Y-112921819D01*
X195386094Y-112888334D01*
X195412452Y-112885500D01*
X198897736Y-112885500D01*
X198964775Y-112905185D01*
X199010530Y-112957989D01*
X199021227Y-113020722D01*
X199020383Y-113030000D01*
X199338961Y-113030000D01*
X199403109Y-113047882D01*
X199415730Y-113055512D01*
X199415732Y-113055513D01*
X199415738Y-113055514D01*
X199572343Y-113104315D01*
X199640406Y-113110500D01*
X199640409Y-113110500D01*
X200599591Y-113110500D01*
X200599594Y-113110500D01*
X200667657Y-113104315D01*
X200824270Y-113055512D01*
X200836890Y-113047882D01*
X200901039Y-113030000D01*
X201219615Y-113030000D01*
X201213682Y-112964712D01*
X201213681Y-112964705D01*
X201161853Y-112798384D01*
X201160701Y-112728524D01*
X201163421Y-112720981D01*
X201175384Y-112682590D01*
X201214315Y-112557657D01*
X201220500Y-112489594D01*
X201220500Y-112030406D01*
X201214315Y-111962343D01*
X201187393Y-111875948D01*
X201163281Y-111798568D01*
X201166021Y-111797713D01*
X201158264Y-111741727D01*
X201164143Y-111721700D01*
X201163281Y-111721432D01*
X201193968Y-111622952D01*
X201214315Y-111557657D01*
X201220500Y-111489594D01*
X201220500Y-111030406D01*
X201214315Y-110962343D01*
X201171361Y-110824500D01*
X201163281Y-110798570D01*
X201165567Y-110797857D01*
X201157599Y-110740183D01*
X201161853Y-110721615D01*
X201213681Y-110555294D01*
X201213682Y-110555287D01*
X201219616Y-110490000D01*
X200901039Y-110490000D01*
X200836890Y-110472117D01*
X200827290Y-110466313D01*
X200824267Y-110464486D01*
X200824263Y-110464485D01*
X200667664Y-110415687D01*
X200667662Y-110415686D01*
X200667657Y-110415685D01*
X200599594Y-110409500D01*
X199640406Y-110409500D01*
X199572343Y-110415685D01*
X199572339Y-110415686D01*
X199572335Y-110415687D01*
X199415736Y-110464485D01*
X199415732Y-110464486D01*
X199408513Y-110468850D01*
X199403109Y-110472117D01*
X199338961Y-110490000D01*
X199020384Y-110490000D01*
X199021227Y-110499278D01*
X199007690Y-110567824D01*
X198959244Y-110618170D01*
X198897736Y-110634500D01*
X195040389Y-110634500D01*
X194979971Y-110646518D01*
X194919548Y-110658537D01*
X194919547Y-110658537D01*
X194919544Y-110658538D01*
X194894983Y-110668712D01*
X194894982Y-110668712D01*
X194805718Y-110705685D01*
X194805715Y-110705687D01*
X194805714Y-110705688D01*
X194776413Y-110725267D01*
X194703268Y-110774140D01*
X194679552Y-110797857D01*
X194616142Y-110861267D01*
X194616139Y-110861270D01*
X192780707Y-112696703D01*
X190969229Y-114508181D01*
X190907906Y-114541666D01*
X190881548Y-114544500D01*
X186974499Y-114544500D01*
X186907460Y-114524815D01*
X186861705Y-114472011D01*
X186850499Y-114420500D01*
X186850499Y-113878998D01*
X186850498Y-113878981D01*
X186839999Y-113776203D01*
X186839998Y-113776200D01*
X186818440Y-113711143D01*
X186784814Y-113609666D01*
X186692712Y-113460344D01*
X186568656Y-113336288D01*
X186458444Y-113268309D01*
X186419336Y-113244187D01*
X186419331Y-113244185D01*
X186393975Y-113235783D01*
X186252797Y-113189001D01*
X186252795Y-113189000D01*
X186150010Y-113178500D01*
X185249998Y-113178500D01*
X185249980Y-113178501D01*
X185147203Y-113189000D01*
X185147200Y-113189001D01*
X184980668Y-113244185D01*
X184980663Y-113244187D01*
X184831342Y-113336289D01*
X184707289Y-113460342D01*
X184615185Y-113609667D01*
X184610394Y-113624126D01*
X184570620Y-113681570D01*
X184506104Y-113708391D01*
X184442256Y-113698400D01*
X184429802Y-113692855D01*
X184256379Y-113655994D01*
X184244646Y-113653500D01*
X184055354Y-113653500D01*
X184043621Y-113655994D01*
X183870197Y-113692855D01*
X183870195Y-113692856D01*
X183857741Y-113698401D01*
X183788491Y-113707683D01*
X183725215Y-113678051D01*
X183689604Y-113624122D01*
X183684815Y-113609670D01*
X183684814Y-113609666D01*
X183592712Y-113460344D01*
X183468656Y-113336288D01*
X183358444Y-113268309D01*
X183319336Y-113244187D01*
X183319331Y-113244185D01*
X183293975Y-113235783D01*
X183152797Y-113189001D01*
X183152795Y-113189000D01*
X183050010Y-113178500D01*
X182149998Y-113178500D01*
X182149980Y-113178501D01*
X182047203Y-113189000D01*
X182047200Y-113189001D01*
X181880668Y-113244185D01*
X181880663Y-113244187D01*
X181731342Y-113336289D01*
X181607289Y-113460342D01*
X181515187Y-113609663D01*
X181515185Y-113609668D01*
X181500661Y-113653500D01*
X181460001Y-113776203D01*
X181460001Y-113776204D01*
X181460000Y-113776204D01*
X181449500Y-113878983D01*
X162720499Y-113878983D01*
X162720499Y-113370992D01*
X162719611Y-113362303D01*
X162709999Y-113268203D01*
X162709998Y-113268200D01*
X162702041Y-113244187D01*
X162654814Y-113101666D01*
X162562712Y-112952344D01*
X162438656Y-112828288D01*
X162289334Y-112736186D01*
X162289333Y-112736185D01*
X162289332Y-112736185D01*
X162280493Y-112733256D01*
X162223049Y-112693482D01*
X162196228Y-112628965D01*
X162195500Y-112615551D01*
X162195500Y-112198499D01*
X162215185Y-112131460D01*
X162267989Y-112085705D01*
X162319500Y-112074499D01*
X162729338Y-112074499D01*
X162729344Y-112074499D01*
X162729352Y-112074498D01*
X162729355Y-112074498D01*
X162783760Y-112068940D01*
X162828708Y-112064349D01*
X162989697Y-112011003D01*
X162998937Y-112005303D01*
X163066327Y-111986862D01*
X163132991Y-112007783D01*
X163177762Y-112061423D01*
X163187355Y-112097877D01*
X163198326Y-112202256D01*
X163198327Y-112202259D01*
X163256818Y-112382277D01*
X163256821Y-112382284D01*
X163351467Y-112546216D01*
X163443762Y-112648720D01*
X163478129Y-112686888D01*
X163631265Y-112798148D01*
X163631270Y-112798151D01*
X163804192Y-112875142D01*
X163804197Y-112875144D01*
X163989354Y-112914500D01*
X163989355Y-112914500D01*
X164178644Y-112914500D01*
X164178646Y-112914500D01*
X164363803Y-112875144D01*
X164536730Y-112798151D01*
X164689871Y-112686888D01*
X164816533Y-112546216D01*
X164911179Y-112382284D01*
X164969674Y-112202256D01*
X164969938Y-112199738D01*
X164970499Y-112198374D01*
X164971027Y-112195894D01*
X164971480Y-112195990D01*
X164996517Y-112135123D01*
X165005569Y-112125020D01*
X165349772Y-111780819D01*
X165411095Y-111747334D01*
X165437453Y-111744500D01*
X166192686Y-111744500D01*
X166192694Y-111744500D01*
X166229569Y-111741598D01*
X166229571Y-111741597D01*
X166229573Y-111741597D01*
X166271191Y-111729505D01*
X166387398Y-111695744D01*
X166528865Y-111612081D01*
X166645081Y-111495865D01*
X166728744Y-111354398D01*
X166774598Y-111196569D01*
X166777500Y-111159694D01*
X166777500Y-110728306D01*
X166774598Y-110691431D01*
X166767997Y-110668712D01*
X166740836Y-110575224D01*
X166728744Y-110533602D01*
X166645081Y-110392135D01*
X166645078Y-110392132D01*
X166640298Y-110385969D01*
X166642750Y-110384066D01*
X166616155Y-110335421D01*
X166621104Y-110265726D01*
X166641940Y-110233304D01*
X166640298Y-110232031D01*
X166645075Y-110225870D01*
X166645081Y-110225865D01*
X166728744Y-110084398D01*
X166773137Y-109931597D01*
X166774597Y-109926573D01*
X166774598Y-109926567D01*
X166775336Y-109917186D01*
X166777500Y-109889694D01*
X166777500Y-109734751D01*
X166797185Y-109667712D01*
X166849989Y-109621957D01*
X166919147Y-109612013D01*
X166982703Y-109641038D01*
X167019431Y-109696433D01*
X167066818Y-109842278D01*
X167066821Y-109842284D01*
X167161467Y-110006216D01*
X167269751Y-110126477D01*
X167288129Y-110146888D01*
X167441265Y-110258148D01*
X167441270Y-110258151D01*
X167614192Y-110335142D01*
X167614197Y-110335144D01*
X167799354Y-110374500D01*
X167858548Y-110374500D01*
X167925587Y-110394185D01*
X167946229Y-110410819D01*
X168776308Y-111240898D01*
X168807703Y-111293983D01*
X168825254Y-111354395D01*
X168825255Y-111354396D01*
X168908917Y-111495862D01*
X168908923Y-111495870D01*
X169025129Y-111612076D01*
X169025133Y-111612079D01*
X169025135Y-111612081D01*
X169166602Y-111695744D01*
X169208224Y-111707836D01*
X169324426Y-111741597D01*
X169324429Y-111741597D01*
X169324431Y-111741598D01*
X169361306Y-111744500D01*
X169361314Y-111744500D01*
X171142686Y-111744500D01*
X171142694Y-111744500D01*
X171179569Y-111741598D01*
X171179571Y-111741597D01*
X171179573Y-111741597D01*
X171221191Y-111729505D01*
X171337398Y-111695744D01*
X171478865Y-111612081D01*
X171595081Y-111495865D01*
X171678744Y-111354398D01*
X171724598Y-111196569D01*
X171727500Y-111159694D01*
X171727500Y-110728306D01*
X171724598Y-110691431D01*
X171717997Y-110668712D01*
X171690836Y-110575224D01*
X171678744Y-110533602D01*
X171650958Y-110486619D01*
X171633778Y-110418896D01*
X171655938Y-110352634D01*
X171710404Y-110308871D01*
X171757692Y-110299500D01*
X172229548Y-110299500D01*
X172296587Y-110319185D01*
X172317229Y-110335819D01*
X172345181Y-110363771D01*
X172378666Y-110425094D01*
X172381500Y-110451452D01*
X172381500Y-110889337D01*
X172381501Y-110889355D01*
X172391650Y-110988707D01*
X172391651Y-110988710D01*
X172444996Y-111149694D01*
X172445001Y-111149705D01*
X172534029Y-111294040D01*
X172534032Y-111294044D01*
X172653955Y-111413967D01*
X172653959Y-111413970D01*
X172798294Y-111502998D01*
X172798297Y-111502999D01*
X172798303Y-111503003D01*
X172959292Y-111556349D01*
X173058655Y-111566500D01*
X173905344Y-111566499D01*
X173905352Y-111566498D01*
X173905355Y-111566498D01*
X173959760Y-111560940D01*
X174004708Y-111556349D01*
X174165697Y-111503003D01*
X174310044Y-111413968D01*
X174429968Y-111294044D01*
X174429971Y-111294038D01*
X174434276Y-111288595D01*
X174491296Y-111248215D01*
X174531547Y-111241500D01*
X174768520Y-111241500D01*
X174835559Y-111261185D01*
X174881314Y-111313989D01*
X174886226Y-111326495D01*
X174909704Y-111397345D01*
X174925166Y-111444008D01*
X174940186Y-111489333D01*
X174940187Y-111489336D01*
X174961290Y-111523549D01*
X175032288Y-111638656D01*
X175156344Y-111762712D01*
X175305666Y-111854814D01*
X175472203Y-111909999D01*
X175574991Y-111920500D01*
X176925008Y-111920499D01*
X177027797Y-111909999D01*
X177194334Y-111854814D01*
X177343656Y-111762712D01*
X177467712Y-111638656D01*
X177559814Y-111489334D01*
X177614999Y-111322797D01*
X177625500Y-111220009D01*
X177625499Y-110319992D01*
X177624227Y-110307544D01*
X177614999Y-110217203D01*
X177614998Y-110217200D01*
X177603881Y-110183651D01*
X177559814Y-110050666D01*
X177467712Y-109901344D01*
X177343656Y-109777288D01*
X177234326Y-109709853D01*
X177194336Y-109685187D01*
X177194331Y-109685185D01*
X177165559Y-109675651D01*
X177027797Y-109630001D01*
X177027795Y-109630000D01*
X176925010Y-109619500D01*
X175574998Y-109619500D01*
X175574981Y-109619501D01*
X175472203Y-109630000D01*
X175472200Y-109630001D01*
X175305668Y-109685185D01*
X175305663Y-109685187D01*
X175156342Y-109777289D01*
X175032288Y-109901343D01*
X175032285Y-109901347D01*
X175013627Y-109931597D01*
X174961679Y-109978322D01*
X174908089Y-109990500D01*
X174531547Y-109990500D01*
X174464508Y-109970815D01*
X174434276Y-109943405D01*
X174429967Y-109937955D01*
X174370931Y-109878919D01*
X174310044Y-109818032D01*
X174310041Y-109818030D01*
X174310040Y-109818029D01*
X174165705Y-109729001D01*
X174165699Y-109728998D01*
X174165697Y-109728997D01*
X174091661Y-109704464D01*
X174004709Y-109675651D01*
X173905352Y-109665500D01*
X173905345Y-109665500D01*
X173467452Y-109665500D01*
X173400413Y-109645815D01*
X173379771Y-109629181D01*
X173030198Y-109279608D01*
X173030178Y-109279586D01*
X172945974Y-109195382D01*
X172912489Y-109134059D01*
X172917473Y-109064367D01*
X172959345Y-109008434D01*
X172986203Y-108993140D01*
X172989887Y-108991613D01*
X172998266Y-108988143D01*
X173070286Y-108958312D01*
X173128089Y-108919688D01*
X173172733Y-108889858D01*
X173259858Y-108802733D01*
X173259859Y-108802731D01*
X173266925Y-108795665D01*
X173266928Y-108795661D01*
X173759771Y-108302818D01*
X173821094Y-108269333D01*
X173847452Y-108266499D01*
X173905338Y-108266499D01*
X173905344Y-108266499D01*
X173905352Y-108266498D01*
X173905355Y-108266498D01*
X173959760Y-108260940D01*
X174004708Y-108256349D01*
X174165697Y-108203003D01*
X174300287Y-108119986D01*
X174875001Y-108119986D01*
X174885494Y-108222697D01*
X174940641Y-108389119D01*
X174940643Y-108389124D01*
X175032684Y-108538345D01*
X175156654Y-108662315D01*
X175305875Y-108754356D01*
X175305880Y-108754358D01*
X175472302Y-108809505D01*
X175472309Y-108809506D01*
X175575019Y-108819999D01*
X175999999Y-108819999D01*
X176500000Y-108819999D01*
X176924972Y-108819999D01*
X176924986Y-108819998D01*
X177027697Y-108809505D01*
X177194119Y-108754358D01*
X177194124Y-108754356D01*
X177343345Y-108662315D01*
X177467315Y-108538345D01*
X177559356Y-108389124D01*
X177559358Y-108389119D01*
X177614505Y-108222697D01*
X177614506Y-108222690D01*
X177624999Y-108119986D01*
X177625000Y-108119973D01*
X177625000Y-107920000D01*
X176500000Y-107920000D01*
X176500000Y-108819999D01*
X175999999Y-108819999D01*
X176000000Y-108819998D01*
X176000000Y-107920000D01*
X174875001Y-107920000D01*
X174875001Y-108119986D01*
X174300287Y-108119986D01*
X174310044Y-108113968D01*
X174429968Y-107994044D01*
X174519003Y-107849697D01*
X174572349Y-107688708D01*
X174582500Y-107589345D01*
X174582499Y-107220013D01*
X174875000Y-107220013D01*
X174875000Y-107420000D01*
X176000000Y-107420000D01*
X176500000Y-107420000D01*
X177624999Y-107420000D01*
X177624999Y-107220028D01*
X177624998Y-107220013D01*
X177614505Y-107117302D01*
X177559358Y-106950880D01*
X177559356Y-106950875D01*
X177467315Y-106801654D01*
X177343345Y-106677684D01*
X177194124Y-106585643D01*
X177194119Y-106585641D01*
X177027697Y-106530494D01*
X177027690Y-106530493D01*
X176924986Y-106520000D01*
X176500000Y-106520000D01*
X176500000Y-107420000D01*
X176000000Y-107420000D01*
X176000000Y-106520000D01*
X175575028Y-106520000D01*
X175575012Y-106520001D01*
X175472302Y-106530494D01*
X175305880Y-106585641D01*
X175305875Y-106585643D01*
X175156654Y-106677684D01*
X175032684Y-106801654D01*
X174940643Y-106950875D01*
X174940641Y-106950880D01*
X174885494Y-107117302D01*
X174885493Y-107117309D01*
X174875000Y-107220013D01*
X174582499Y-107220013D01*
X174582499Y-107042656D01*
X174572349Y-106943292D01*
X174519003Y-106782303D01*
X174518999Y-106782297D01*
X174518998Y-106782294D01*
X174429970Y-106637959D01*
X174429967Y-106637955D01*
X174310044Y-106518032D01*
X174310040Y-106518029D01*
X174165705Y-106429001D01*
X174165699Y-106428998D01*
X174165697Y-106428997D01*
X174146685Y-106422697D01*
X174004709Y-106375651D01*
X173905346Y-106365500D01*
X173058662Y-106365500D01*
X173058644Y-106365501D01*
X172959292Y-106375650D01*
X172959289Y-106375651D01*
X172798305Y-106428996D01*
X172798294Y-106429001D01*
X172653959Y-106518029D01*
X172653955Y-106518032D01*
X172534032Y-106637955D01*
X172534029Y-106637959D01*
X172445001Y-106782294D01*
X172444996Y-106782305D01*
X172391651Y-106943290D01*
X172381500Y-107042647D01*
X172381500Y-107589337D01*
X172381502Y-107589357D01*
X172386869Y-107641900D01*
X172374099Y-107710592D01*
X172326218Y-107761476D01*
X172263511Y-107778500D01*
X171757111Y-107778500D01*
X171690072Y-107758815D01*
X171644317Y-107706011D01*
X171634373Y-107636853D01*
X171650379Y-107591379D01*
X171678281Y-107544198D01*
X171724100Y-107386486D01*
X171724295Y-107384001D01*
X171724295Y-107384000D01*
X168771953Y-107384000D01*
X168704914Y-107364315D01*
X168684272Y-107347681D01*
X168220589Y-106883998D01*
X168779704Y-106883998D01*
X168779705Y-106884000D01*
X170002000Y-106884000D01*
X170502000Y-106884000D01*
X171724295Y-106884000D01*
X171724295Y-106883998D01*
X171724100Y-106881513D01*
X171678281Y-106723801D01*
X171594685Y-106582447D01*
X171594678Y-106582438D01*
X171478561Y-106466321D01*
X171478552Y-106466314D01*
X171337196Y-106382717D01*
X171337193Y-106382716D01*
X171179495Y-106336900D01*
X171179489Y-106336899D01*
X171142649Y-106334000D01*
X170502000Y-106334000D01*
X170502000Y-106884000D01*
X170002000Y-106884000D01*
X170002000Y-106334000D01*
X169361350Y-106334000D01*
X169324510Y-106336899D01*
X169324504Y-106336900D01*
X169166806Y-106382716D01*
X169166803Y-106382717D01*
X169025447Y-106466314D01*
X169025438Y-106466321D01*
X168909321Y-106582438D01*
X168909314Y-106582447D01*
X168825718Y-106723801D01*
X168779899Y-106881513D01*
X168779704Y-106883998D01*
X168220589Y-106883998D01*
X167453928Y-106117338D01*
X167453925Y-106117334D01*
X167453925Y-106117335D01*
X167446858Y-106110268D01*
X167446858Y-106110267D01*
X167359733Y-106023142D01*
X167359732Y-106023141D01*
X167359731Y-106023140D01*
X167301219Y-105984044D01*
X167275589Y-105966918D01*
X167257285Y-105954687D01*
X167213725Y-105936645D01*
X167176792Y-105921347D01*
X167143453Y-105907537D01*
X167133427Y-105905543D01*
X167083029Y-105895518D01*
X167022610Y-105883500D01*
X167022607Y-105883500D01*
X167022606Y-105883500D01*
X158348607Y-105883500D01*
X158225393Y-105883500D01*
X158225389Y-105883500D01*
X158164971Y-105895518D01*
X158104548Y-105907537D01*
X158104543Y-105907538D01*
X158071207Y-105921347D01*
X158057397Y-105927067D01*
X157990718Y-105954685D01*
X157977748Y-105963352D01*
X157965190Y-105971743D01*
X157965189Y-105971744D01*
X157965188Y-105971743D01*
X157888266Y-106023142D01*
X157888265Y-106023143D01*
X157865578Y-106045831D01*
X157801142Y-106110267D01*
X157801139Y-106110270D01*
X157074227Y-106837181D01*
X157012904Y-106870666D01*
X156986546Y-106873500D01*
X156548662Y-106873500D01*
X156548644Y-106873501D01*
X156449292Y-106883650D01*
X156449289Y-106883651D01*
X156288305Y-106936996D01*
X156288294Y-106937001D01*
X156143959Y-107026029D01*
X156143955Y-107026032D01*
X156024032Y-107145955D01*
X156024029Y-107145959D01*
X155935001Y-107290294D01*
X155934996Y-107290305D01*
X155881651Y-107451290D01*
X155871500Y-107550647D01*
X155871500Y-108097337D01*
X155871501Y-108097355D01*
X155881650Y-108196707D01*
X155881651Y-108196710D01*
X155934996Y-108357694D01*
X155935001Y-108357705D01*
X156024029Y-108502040D01*
X156024032Y-108502044D01*
X156143955Y-108621967D01*
X156143959Y-108621970D01*
X156288294Y-108710998D01*
X156288297Y-108710999D01*
X156288303Y-108711003D01*
X156449292Y-108764349D01*
X156548655Y-108774500D01*
X157395344Y-108774499D01*
X157395352Y-108774498D01*
X157395355Y-108774498D01*
X157474923Y-108766370D01*
X157494708Y-108764349D01*
X157655697Y-108711003D01*
X157800044Y-108621968D01*
X157919968Y-108502044D01*
X158009003Y-108357697D01*
X158062349Y-108196708D01*
X158072500Y-108097345D01*
X158072499Y-107659450D01*
X158092183Y-107592412D01*
X158108809Y-107571779D01*
X158199821Y-107480767D01*
X158261143Y-107447285D01*
X158330834Y-107452269D01*
X158386768Y-107494141D01*
X158411184Y-107559606D01*
X158411500Y-107568451D01*
X158411500Y-108097337D01*
X158411501Y-108097355D01*
X158421650Y-108196707D01*
X158421651Y-108196710D01*
X158474996Y-108357694D01*
X158475001Y-108357705D01*
X158564029Y-108502040D01*
X158564032Y-108502044D01*
X158683955Y-108621967D01*
X158683959Y-108621970D01*
X158803982Y-108696002D01*
X158850707Y-108747950D01*
X158861928Y-108816912D01*
X158834085Y-108880994D01*
X158831035Y-108884512D01*
X158779466Y-108941785D01*
X158684821Y-109105715D01*
X158684818Y-109105722D01*
X158626327Y-109285740D01*
X158626326Y-109285744D01*
X158606540Y-109474000D01*
X158626326Y-109662256D01*
X158626327Y-109662259D01*
X158684818Y-109842277D01*
X158684821Y-109842284D01*
X158779465Y-110006214D01*
X158779467Y-110006216D01*
X158831034Y-110063487D01*
X158861264Y-110126477D01*
X158852640Y-110195813D01*
X158807899Y-110249479D01*
X158803983Y-110251997D01*
X158683958Y-110326030D01*
X158564032Y-110445955D01*
X158559724Y-110451405D01*
X158502704Y-110491785D01*
X158462453Y-110498500D01*
X158021547Y-110498500D01*
X157954508Y-110478815D01*
X157924276Y-110451405D01*
X157919967Y-110445955D01*
X157860515Y-110386503D01*
X157800044Y-110326032D01*
X157800041Y-110326030D01*
X157800040Y-110326029D01*
X157655705Y-110237001D01*
X157655699Y-110236998D01*
X157655697Y-110236997D01*
X157644552Y-110233304D01*
X157494709Y-110183651D01*
X157395346Y-110173500D01*
X156548662Y-110173500D01*
X156548644Y-110173501D01*
X156449292Y-110183650D01*
X156449289Y-110183651D01*
X156288305Y-110236996D01*
X156288294Y-110237001D01*
X156143959Y-110326029D01*
X156143955Y-110326032D01*
X156116970Y-110353018D01*
X156055647Y-110386503D01*
X155985955Y-110381519D01*
X155941608Y-110353018D01*
X154354960Y-108766370D01*
X154321475Y-108705047D01*
X154319323Y-108691671D01*
X154301674Y-108523744D01*
X154243179Y-108343716D01*
X154148533Y-108179784D01*
X154021871Y-108039112D01*
X154007265Y-108028500D01*
X153868734Y-107927851D01*
X153868729Y-107927848D01*
X153695807Y-107850857D01*
X153695802Y-107850855D01*
X153550001Y-107819865D01*
X153510646Y-107811500D01*
X153321354Y-107811500D01*
X153301058Y-107815814D01*
X153136197Y-107850855D01*
X153136192Y-107850857D01*
X152963270Y-107927848D01*
X152963265Y-107927851D01*
X152810129Y-108039111D01*
X152683466Y-108179785D01*
X152588821Y-108343715D01*
X152588818Y-108343722D01*
X152531414Y-108520394D01*
X152530326Y-108523744D01*
X152510540Y-108712000D01*
X151005786Y-108712000D01*
X151006500Y-108705009D01*
X151006499Y-107779992D01*
X151000198Y-107718313D01*
X150995999Y-107677203D01*
X150995998Y-107677200D01*
X150992487Y-107666605D01*
X150940814Y-107510666D01*
X150848712Y-107361344D01*
X150724656Y-107237288D01*
X150575334Y-107145186D01*
X150535592Y-107132016D01*
X150478148Y-107092243D01*
X150451326Y-107027727D01*
X150456666Y-106975997D01*
X150491674Y-106868256D01*
X150511460Y-106680000D01*
X150491674Y-106491744D01*
X150456666Y-106384004D01*
X150454672Y-106314164D01*
X150490752Y-106254331D01*
X150535591Y-106227983D01*
X150575334Y-106214814D01*
X150724656Y-106122712D01*
X150848712Y-105998656D01*
X150940814Y-105849334D01*
X150995999Y-105682797D01*
X151006500Y-105580009D01*
X151006499Y-104894986D01*
X166240001Y-104894986D01*
X166250494Y-104997697D01*
X166305641Y-105164119D01*
X166305643Y-105164124D01*
X166397684Y-105313345D01*
X166521654Y-105437315D01*
X166670875Y-105529356D01*
X166670880Y-105529358D01*
X166837302Y-105584505D01*
X166837309Y-105584506D01*
X166940019Y-105594999D01*
X167389999Y-105594999D01*
X167890000Y-105594999D01*
X168339972Y-105594999D01*
X168339986Y-105594998D01*
X168442697Y-105584505D01*
X168609119Y-105529358D01*
X168609124Y-105529356D01*
X168758345Y-105437315D01*
X168882315Y-105313345D01*
X168931461Y-105233668D01*
X168983409Y-105186944D01*
X169052372Y-105175721D01*
X169116454Y-105203565D01*
X169142539Y-105233668D01*
X169191684Y-105313345D01*
X169315654Y-105437315D01*
X169464875Y-105529356D01*
X169464880Y-105529358D01*
X169631302Y-105584505D01*
X169631309Y-105584506D01*
X169734019Y-105594999D01*
X170183999Y-105594999D01*
X170684000Y-105594999D01*
X171133972Y-105594999D01*
X171133986Y-105594998D01*
X171236697Y-105584505D01*
X171403119Y-105529358D01*
X171403124Y-105529356D01*
X171552345Y-105437315D01*
X171676315Y-105313345D01*
X171768356Y-105164124D01*
X171768358Y-105164119D01*
X171823505Y-104997697D01*
X171823506Y-104997690D01*
X171833999Y-104894986D01*
X171834000Y-104894973D01*
X171834000Y-104682500D01*
X170684000Y-104682500D01*
X170684000Y-105594999D01*
X170183999Y-105594999D01*
X170184000Y-105594998D01*
X170184000Y-104682500D01*
X167890000Y-104682500D01*
X167890000Y-105594999D01*
X167389999Y-105594999D01*
X167390000Y-105594998D01*
X167390000Y-104682500D01*
X166240001Y-104682500D01*
X166240001Y-104894986D01*
X151006499Y-104894986D01*
X151006499Y-104654992D01*
X151004282Y-104633292D01*
X150995999Y-104552203D01*
X150995998Y-104552200D01*
X150988157Y-104528537D01*
X150940814Y-104385666D01*
X150848712Y-104236344D01*
X150724656Y-104112288D01*
X150625788Y-104051306D01*
X150575336Y-104020187D01*
X150575331Y-104020185D01*
X150558214Y-104014513D01*
X150408797Y-103965001D01*
X150408795Y-103965000D01*
X150306016Y-103954500D01*
X150306009Y-103954500D01*
X149378953Y-103954500D01*
X149311914Y-103934815D01*
X149291272Y-103918181D01*
X146327428Y-100954338D01*
X146327425Y-100954334D01*
X146327425Y-100954335D01*
X146320358Y-100947268D01*
X146320358Y-100947267D01*
X146233233Y-100860142D01*
X146233232Y-100860141D01*
X146233231Y-100860140D01*
X146210547Y-100844983D01*
X166239500Y-100844983D01*
X166239500Y-101770001D01*
X166239501Y-101770019D01*
X166250000Y-101872796D01*
X166250001Y-101872799D01*
X166276625Y-101953144D01*
X166305186Y-102039334D01*
X166397288Y-102188656D01*
X166521344Y-102312712D01*
X166670666Y-102404814D01*
X166683486Y-102409062D01*
X166740929Y-102448832D01*
X166767753Y-102513348D01*
X166762412Y-102565084D01*
X166740480Y-102632585D01*
X166740479Y-102632589D01*
X166740479Y-102632591D01*
X166720693Y-102820847D01*
X166740479Y-103009103D01*
X166740480Y-103009106D01*
X166791403Y-103165833D01*
X166793398Y-103235675D01*
X166757317Y-103295507D01*
X166712479Y-103321856D01*
X166670882Y-103335640D01*
X166670875Y-103335643D01*
X166521654Y-103427684D01*
X166397684Y-103551654D01*
X166305643Y-103700875D01*
X166305641Y-103700880D01*
X166250494Y-103867302D01*
X166250493Y-103867309D01*
X166240000Y-103970013D01*
X166240000Y-104182500D01*
X171833999Y-104182500D01*
X171833999Y-103970028D01*
X171833998Y-103970013D01*
X171823505Y-103867302D01*
X171768358Y-103700880D01*
X171768356Y-103700875D01*
X171676315Y-103551654D01*
X171552345Y-103427684D01*
X171403124Y-103335643D01*
X171403116Y-103335640D01*
X171355811Y-103319964D01*
X171298367Y-103280191D01*
X171271545Y-103215675D01*
X171276885Y-103163944D01*
X171319674Y-103032256D01*
X171339460Y-102844000D01*
X171319674Y-102655744D01*
X171292293Y-102571477D01*
X171290299Y-102501637D01*
X171326379Y-102441804D01*
X171371217Y-102415456D01*
X171403334Y-102404814D01*
X171552656Y-102312712D01*
X171676712Y-102188656D01*
X171768814Y-102039334D01*
X171823999Y-101872797D01*
X171834500Y-101770009D01*
X171834499Y-100844992D01*
X171834101Y-100841099D01*
X171823999Y-100742203D01*
X171823998Y-100742200D01*
X171810284Y-100700815D01*
X171768814Y-100575666D01*
X171676712Y-100426344D01*
X171552656Y-100302288D01*
X171403334Y-100210186D01*
X171236797Y-100155001D01*
X171236795Y-100155000D01*
X171134010Y-100144500D01*
X169733998Y-100144500D01*
X169733981Y-100144501D01*
X169631203Y-100155000D01*
X169631200Y-100155001D01*
X169464668Y-100210185D01*
X169464663Y-100210187D01*
X169315342Y-100302289D01*
X169191288Y-100426343D01*
X169191285Y-100426347D01*
X169142538Y-100505379D01*
X169090590Y-100552104D01*
X169021628Y-100563325D01*
X168957546Y-100535482D01*
X168931462Y-100505379D01*
X168882714Y-100426347D01*
X168882711Y-100426343D01*
X168758657Y-100302289D01*
X168758656Y-100302288D01*
X168609334Y-100210186D01*
X168442797Y-100155001D01*
X168442795Y-100155000D01*
X168340010Y-100144500D01*
X166939998Y-100144500D01*
X166939981Y-100144501D01*
X166837203Y-100155000D01*
X166837200Y-100155001D01*
X166670668Y-100210185D01*
X166670663Y-100210187D01*
X166521342Y-100302289D01*
X166397289Y-100426342D01*
X166305187Y-100575663D01*
X166305186Y-100575666D01*
X166250001Y-100742203D01*
X166250001Y-100742204D01*
X166250000Y-100742204D01*
X166239500Y-100844983D01*
X146210547Y-100844983D01*
X146175614Y-100821642D01*
X146175613Y-100821641D01*
X146130790Y-100791690D01*
X146130786Y-100791688D01*
X146116670Y-100785841D01*
X146050292Y-100758347D01*
X146016953Y-100744537D01*
X146005203Y-100742200D01*
X145956529Y-100732518D01*
X145940607Y-100729351D01*
X145896110Y-100720500D01*
X145896107Y-100720500D01*
X145896106Y-100720500D01*
X144118106Y-100720500D01*
X140993535Y-100720500D01*
X140926496Y-100700815D01*
X140880741Y-100648011D01*
X140870177Y-100609102D01*
X140869663Y-100604071D01*
X140865999Y-100568203D01*
X140810814Y-100401666D01*
X140718712Y-100252344D01*
X140594656Y-100128288D01*
X140445334Y-100036186D01*
X140278797Y-99981001D01*
X140278795Y-99981000D01*
X140176010Y-99970500D01*
X139275998Y-99970500D01*
X139275980Y-99970501D01*
X139173203Y-99981000D01*
X139173200Y-99981001D01*
X139006668Y-100036185D01*
X139006663Y-100036187D01*
X138857342Y-100128289D01*
X138733289Y-100252342D01*
X138641187Y-100401663D01*
X138641185Y-100401668D01*
X138624052Y-100453374D01*
X138586001Y-100568203D01*
X138586001Y-100568204D01*
X138586000Y-100568204D01*
X138575500Y-100670983D01*
X138575500Y-102021001D01*
X138575501Y-102021018D01*
X138586000Y-102123796D01*
X138586001Y-102123799D01*
X138641185Y-102290331D01*
X138641187Y-102290336D01*
X138676069Y-102346888D01*
X138733288Y-102439656D01*
X138857344Y-102563712D01*
X139006666Y-102655814D01*
X139173203Y-102710999D01*
X139275991Y-102721500D01*
X140176008Y-102721499D01*
X140176016Y-102721498D01*
X140176019Y-102721498D01*
X140265630Y-102712344D01*
X140278797Y-102710999D01*
X140445334Y-102655814D01*
X140594656Y-102563712D01*
X140718712Y-102439656D01*
X140810814Y-102290334D01*
X140865999Y-102123797D01*
X140870177Y-102082896D01*
X140896573Y-102018207D01*
X140953753Y-101978055D01*
X140993535Y-101971500D01*
X143994894Y-101971500D01*
X145524048Y-101971500D01*
X145591087Y-101991185D01*
X145611728Y-102007818D01*
X148169182Y-104565273D01*
X148202666Y-104626594D01*
X148205500Y-104652952D01*
X148205500Y-105580001D01*
X148205501Y-105580019D01*
X148216000Y-105682796D01*
X148216001Y-105682799D01*
X148271185Y-105849331D01*
X148271187Y-105849336D01*
X148299877Y-105895850D01*
X148363288Y-105998656D01*
X148487344Y-106122712D01*
X148636666Y-106214814D01*
X148676407Y-106227982D01*
X148733849Y-106267752D01*
X148760673Y-106332268D01*
X148755332Y-106384005D01*
X148720327Y-106491740D01*
X148720326Y-106491744D01*
X148700540Y-106680000D01*
X148720326Y-106868256D01*
X148720327Y-106868259D01*
X148755332Y-106975993D01*
X148757327Y-107045834D01*
X148721247Y-107105667D01*
X148676407Y-107132016D01*
X148636668Y-107145184D01*
X148487342Y-107237289D01*
X148363289Y-107361342D01*
X148271187Y-107510663D01*
X148271185Y-107510668D01*
X148257935Y-107550655D01*
X148216001Y-107677203D01*
X148216001Y-107677204D01*
X148216000Y-107677204D01*
X148205500Y-107779983D01*
X148205500Y-108160547D01*
X148185815Y-108227586D01*
X148169181Y-108248228D01*
X147880229Y-108537181D01*
X147818906Y-108570666D01*
X147792548Y-108573500D01*
X147733354Y-108573500D01*
X147700897Y-108580398D01*
X147548197Y-108612855D01*
X147548192Y-108612857D01*
X147375270Y-108689848D01*
X147375267Y-108689850D01*
X147368377Y-108694856D01*
X147302569Y-108718330D01*
X147234516Y-108702500D01*
X147185825Y-108652390D01*
X147171499Y-108594535D01*
X147171499Y-107779992D01*
X147165198Y-107718313D01*
X147160999Y-107677203D01*
X147160998Y-107677200D01*
X147157487Y-107666605D01*
X147105814Y-107510666D01*
X147013712Y-107361344D01*
X146889656Y-107237288D01*
X146780008Y-107169657D01*
X146740336Y-107145187D01*
X146740331Y-107145185D01*
X146738862Y-107144698D01*
X146573797Y-107090001D01*
X146573795Y-107090000D01*
X146471010Y-107079500D01*
X145120998Y-107079500D01*
X145120981Y-107079501D01*
X145018203Y-107090000D01*
X145018200Y-107090001D01*
X144851668Y-107145185D01*
X144851663Y-107145187D01*
X144702342Y-107237289D01*
X144578289Y-107361342D01*
X144486187Y-107510663D01*
X144486185Y-107510668D01*
X144472935Y-107550655D01*
X144431001Y-107677203D01*
X144431001Y-107677204D01*
X144431000Y-107677204D01*
X144420500Y-107779983D01*
X144420500Y-108669546D01*
X144400815Y-108736585D01*
X144384181Y-108757227D01*
X144326235Y-108815173D01*
X144264912Y-108848658D01*
X144212776Y-108848782D01*
X144112646Y-108827500D01*
X143923354Y-108827500D01*
X143787859Y-108856299D01*
X143718193Y-108850983D01*
X143662460Y-108808845D01*
X143638355Y-108743265D01*
X143638723Y-108722402D01*
X143639835Y-108711520D01*
X143640500Y-108705009D01*
X143640499Y-107779992D01*
X143634198Y-107718313D01*
X143629999Y-107677203D01*
X143629998Y-107677200D01*
X143626487Y-107666605D01*
X143574814Y-107510666D01*
X143482712Y-107361344D01*
X143358656Y-107237288D01*
X143249008Y-107169657D01*
X143209336Y-107145187D01*
X143209331Y-107145185D01*
X143207862Y-107144698D01*
X143042797Y-107090001D01*
X143042795Y-107090000D01*
X142940016Y-107079500D01*
X142940009Y-107079500D01*
X142012953Y-107079500D01*
X141945914Y-107059815D01*
X141925272Y-107043181D01*
X141366110Y-106484020D01*
X141332625Y-106422697D01*
X141337609Y-106353006D01*
X141379480Y-106297072D01*
X141444945Y-106272655D01*
X141466391Y-106272980D01*
X141539991Y-106280500D01*
X142940008Y-106280499D01*
X143042797Y-106269999D01*
X143209334Y-106214814D01*
X143358656Y-106122712D01*
X143482712Y-105998656D01*
X143574814Y-105849334D01*
X143577744Y-105840493D01*
X143617518Y-105783049D01*
X143682035Y-105756228D01*
X143695449Y-105755500D01*
X144365551Y-105755500D01*
X144432590Y-105775185D01*
X144478345Y-105827989D01*
X144483256Y-105840493D01*
X144486186Y-105849334D01*
X144578288Y-105998656D01*
X144702344Y-106122712D01*
X144851666Y-106214814D01*
X145018203Y-106269999D01*
X145120991Y-106280500D01*
X146471008Y-106280499D01*
X146573797Y-106269999D01*
X146740334Y-106214814D01*
X146889656Y-106122712D01*
X147013712Y-105998656D01*
X147105814Y-105849334D01*
X147160999Y-105682797D01*
X147171500Y-105580009D01*
X147171499Y-104679992D01*
X147170042Y-104665733D01*
X147160999Y-104577203D01*
X147160998Y-104577200D01*
X147145523Y-104530500D01*
X147105814Y-104410666D01*
X147013712Y-104261344D01*
X146889656Y-104137288D01*
X146778058Y-104068454D01*
X146740336Y-104045187D01*
X146740331Y-104045185D01*
X146715944Y-104037104D01*
X146573797Y-103990001D01*
X146573795Y-103990000D01*
X146471010Y-103979500D01*
X145120998Y-103979500D01*
X145120981Y-103979501D01*
X145018203Y-103990000D01*
X145018200Y-103990001D01*
X144851668Y-104045185D01*
X144851663Y-104045187D01*
X144702342Y-104137289D01*
X144578289Y-104261342D01*
X144486185Y-104410667D01*
X144483256Y-104419507D01*
X144443482Y-104476951D01*
X144378965Y-104503772D01*
X144365551Y-104504500D01*
X143703733Y-104504500D01*
X143636694Y-104484815D01*
X143590939Y-104432011D01*
X143586028Y-104419506D01*
X143581495Y-104405829D01*
X143574814Y-104385666D01*
X143482712Y-104236344D01*
X143358656Y-104112288D01*
X143259788Y-104051306D01*
X143209336Y-104020187D01*
X143209331Y-104020185D01*
X143192214Y-104014513D01*
X143042797Y-103965001D01*
X143042795Y-103965000D01*
X142940010Y-103954500D01*
X141539998Y-103954500D01*
X141539981Y-103954501D01*
X141437203Y-103965000D01*
X141437200Y-103965001D01*
X141270668Y-104020185D01*
X141270663Y-104020187D01*
X141121342Y-104112289D01*
X140997289Y-104236342D01*
X140905187Y-104385663D01*
X140905184Y-104385671D01*
X140885545Y-104444936D01*
X140845772Y-104502380D01*
X140815296Y-104520490D01*
X140795873Y-104528536D01*
X140795870Y-104528537D01*
X140712211Y-104563189D01*
X140609768Y-104631640D01*
X140564211Y-104677198D01*
X140366227Y-104875182D01*
X140304907Y-104908666D01*
X140278548Y-104911500D01*
X140124111Y-104911500D01*
X140057072Y-104891815D01*
X140011317Y-104839011D01*
X140001373Y-104769853D01*
X140017379Y-104724379D01*
X140045281Y-104677198D01*
X140091100Y-104519486D01*
X140091295Y-104517001D01*
X140091295Y-104517000D01*
X137146705Y-104517000D01*
X137146704Y-104517001D01*
X137146899Y-104519486D01*
X137192718Y-104677198D01*
X137276314Y-104818552D01*
X137281100Y-104824722D01*
X137278640Y-104826629D01*
X137305210Y-104875288D01*
X137300226Y-104944980D01*
X137279162Y-104977781D01*
X137280699Y-104978974D01*
X137275915Y-104985140D01*
X137192255Y-105126603D01*
X137192254Y-105126606D01*
X137146402Y-105284426D01*
X137146401Y-105284432D01*
X137143500Y-105321298D01*
X135144499Y-105321298D01*
X135141598Y-105284431D01*
X135131678Y-105250288D01*
X135095745Y-105126606D01*
X135095744Y-105126603D01*
X135095744Y-105126602D01*
X135057446Y-105061844D01*
X135040264Y-104994122D01*
X135062424Y-104927860D01*
X135116890Y-104884096D01*
X135139985Y-104877108D01*
X135183452Y-104868463D01*
X135228721Y-104849712D01*
X135297286Y-104821312D01*
X135371761Y-104771548D01*
X135399733Y-104752858D01*
X135486858Y-104665733D01*
X135486859Y-104665730D01*
X135867857Y-104284734D01*
X135877021Y-104271019D01*
X135886057Y-104257498D01*
X135919110Y-104208029D01*
X135936311Y-104182286D01*
X135983463Y-104068452D01*
X135993698Y-104016998D01*
X137146704Y-104016998D01*
X137146705Y-104017000D01*
X138369000Y-104017000D01*
X138869000Y-104017000D01*
X140091295Y-104017000D01*
X140091295Y-104016998D01*
X140091100Y-104014513D01*
X140045281Y-103856801D01*
X139961685Y-103715447D01*
X139961678Y-103715438D01*
X139845561Y-103599321D01*
X139845552Y-103599314D01*
X139704196Y-103515717D01*
X139704193Y-103515716D01*
X139546495Y-103469900D01*
X139546489Y-103469899D01*
X139509649Y-103467000D01*
X138869000Y-103467000D01*
X138869000Y-104017000D01*
X138369000Y-104017000D01*
X138369000Y-103467000D01*
X137728350Y-103467000D01*
X137691510Y-103469899D01*
X137691504Y-103469900D01*
X137533806Y-103515716D01*
X137533803Y-103515717D01*
X137392447Y-103599314D01*
X137392438Y-103599321D01*
X137276321Y-103715438D01*
X137276314Y-103715447D01*
X137192718Y-103856801D01*
X137146899Y-104014513D01*
X137146704Y-104016998D01*
X135993698Y-104016998D01*
X136007500Y-103947606D01*
X136007500Y-102841600D01*
X136027185Y-102774561D01*
X136079989Y-102728806D01*
X136144102Y-102718242D01*
X136175991Y-102721500D01*
X137076008Y-102721499D01*
X137076016Y-102721498D01*
X137076019Y-102721498D01*
X137165630Y-102712344D01*
X137178797Y-102710999D01*
X137345334Y-102655814D01*
X137494656Y-102563712D01*
X137618712Y-102439656D01*
X137710814Y-102290334D01*
X137765999Y-102123797D01*
X137776500Y-102021009D01*
X137776499Y-100670992D01*
X137774151Y-100648011D01*
X137765999Y-100568203D01*
X137765998Y-100568200D01*
X137718991Y-100426343D01*
X137710814Y-100401666D01*
X137618712Y-100252344D01*
X137494656Y-100128288D01*
X137345334Y-100036186D01*
X137345332Y-100036185D01*
X137345330Y-100036184D01*
X137345331Y-100036184D01*
X137333379Y-100032224D01*
X137275935Y-99992451D01*
X137250769Y-99938714D01*
X137227463Y-99821549D01*
X137227461Y-99821545D01*
X137227460Y-99821539D01*
X137224969Y-99815528D01*
X137224947Y-99815476D01*
X137211158Y-99782187D01*
X137188300Y-99727001D01*
X137180312Y-99707715D01*
X137111858Y-99605267D01*
X137111855Y-99605263D01*
X136862772Y-99356181D01*
X136829287Y-99294858D01*
X136834271Y-99225167D01*
X136876142Y-99169233D01*
X136941607Y-99144816D01*
X136950453Y-99144500D01*
X136982048Y-99144500D01*
X136982049Y-99144500D01*
X137210981Y-99106298D01*
X137430503Y-99030936D01*
X137634626Y-98920470D01*
X137643069Y-98913899D01*
X137738438Y-98839670D01*
X137817784Y-98777913D01*
X137974979Y-98607153D01*
X138101924Y-98412849D01*
X138195157Y-98200300D01*
X138252134Y-97975305D01*
X138252135Y-97975297D01*
X138271300Y-97744006D01*
X138271300Y-97743993D01*
X138252135Y-97512702D01*
X138252133Y-97512691D01*
X138195157Y-97287699D01*
X138101924Y-97075151D01*
X137974983Y-96880852D01*
X137974980Y-96880849D01*
X137974979Y-96880847D01*
X137817784Y-96710087D01*
X137817779Y-96710083D01*
X137817777Y-96710081D01*
X137634634Y-96567535D01*
X137634628Y-96567531D01*
X137430504Y-96457064D01*
X137430495Y-96457061D01*
X137210984Y-96381702D01*
X136993189Y-96345359D01*
X136982049Y-96343500D01*
X136749951Y-96343500D01*
X136738811Y-96345359D01*
X136521014Y-96381702D01*
X136495419Y-96390489D01*
X136425620Y-96393637D01*
X136367478Y-96360888D01*
X135118928Y-95112338D01*
X135118925Y-95112334D01*
X135118925Y-95112335D01*
X135111858Y-95105268D01*
X135111858Y-95105267D01*
X135024733Y-95018142D01*
X135024732Y-95018141D01*
X135024731Y-95018140D01*
X134973509Y-94983915D01*
X134922286Y-94949688D01*
X134922283Y-94949686D01*
X134922280Y-94949685D01*
X134841792Y-94916347D01*
X134808453Y-94902537D01*
X134798427Y-94900543D01*
X134748029Y-94890518D01*
X134687610Y-94878500D01*
X134687607Y-94878500D01*
X134687606Y-94878500D01*
X131379607Y-94878500D01*
X131256393Y-94878500D01*
X131256389Y-94878500D01*
X131195971Y-94890518D01*
X131158259Y-94898019D01*
X131135550Y-94902536D01*
X131135548Y-94902537D01*
X131102207Y-94916347D01*
X131021719Y-94949684D01*
X131021705Y-94949692D01*
X130919272Y-95018138D01*
X130919264Y-95018144D01*
X129816144Y-96121264D01*
X129816138Y-96121272D01*
X129747690Y-96223708D01*
X129747688Y-96223713D01*
X129700540Y-96337538D01*
X129700535Y-96337554D01*
X129676772Y-96457025D01*
X129676766Y-96457060D01*
X129676500Y-96458395D01*
X129676500Y-100095944D01*
X129656815Y-100162983D01*
X129604011Y-100208738D01*
X129578282Y-100217234D01*
X129514196Y-100230856D01*
X129501741Y-100236401D01*
X129432491Y-100245683D01*
X129369215Y-100216051D01*
X129333604Y-100162122D01*
X129332359Y-100158364D01*
X129328814Y-100147666D01*
X129236712Y-99998344D01*
X129112656Y-99874288D01*
X128993989Y-99801094D01*
X128963336Y-99782187D01*
X128963331Y-99782185D01*
X128901306Y-99761632D01*
X128796797Y-99727001D01*
X128796795Y-99727000D01*
X128694010Y-99716500D01*
X127793998Y-99716500D01*
X127793980Y-99716501D01*
X127691203Y-99727000D01*
X127691200Y-99727001D01*
X127524668Y-99782185D01*
X127524663Y-99782187D01*
X127375342Y-99874289D01*
X127251289Y-99998342D01*
X127159187Y-100147663D01*
X127159185Y-100147668D01*
X127136525Y-100216051D01*
X127104001Y-100314203D01*
X127104001Y-100314204D01*
X127104000Y-100314204D01*
X127093500Y-100416983D01*
X114714499Y-100416983D01*
X114714499Y-100162992D01*
X114714376Y-100161792D01*
X114703999Y-100060203D01*
X114703998Y-100060200D01*
X114648814Y-99893666D01*
X114556712Y-99744344D01*
X114432656Y-99620288D01*
X114283334Y-99528186D01*
X114116797Y-99473001D01*
X114116795Y-99473000D01*
X114014010Y-99462500D01*
X113113998Y-99462500D01*
X113113980Y-99462501D01*
X113011203Y-99473000D01*
X113011200Y-99473001D01*
X112844668Y-99528185D01*
X112844663Y-99528187D01*
X112695342Y-99620289D01*
X112571289Y-99744342D01*
X112479185Y-99893667D01*
X112474394Y-99908126D01*
X112434620Y-99965570D01*
X112370104Y-99992391D01*
X112306256Y-99982400D01*
X112293802Y-99976855D01*
X112148001Y-99945865D01*
X112108646Y-99937500D01*
X111919354Y-99937500D01*
X111886897Y-99944398D01*
X111734197Y-99976855D01*
X111734195Y-99976856D01*
X111721741Y-99982401D01*
X111652491Y-99991683D01*
X111589215Y-99962051D01*
X111553604Y-99908122D01*
X111548815Y-99893670D01*
X111548814Y-99893666D01*
X111456712Y-99744344D01*
X111332656Y-99620288D01*
X111183334Y-99528186D01*
X111016797Y-99473001D01*
X111016795Y-99473000D01*
X110914010Y-99462500D01*
X110013998Y-99462500D01*
X110013980Y-99462501D01*
X109911203Y-99473000D01*
X109911200Y-99473001D01*
X109744668Y-99528185D01*
X109744663Y-99528187D01*
X109595342Y-99620289D01*
X109471289Y-99744342D01*
X109379187Y-99893663D01*
X109379185Y-99893668D01*
X109366309Y-99932525D01*
X109324001Y-100060203D01*
X109324001Y-100060204D01*
X109324000Y-100060204D01*
X109313500Y-100162983D01*
X109313500Y-101513001D01*
X109313501Y-101513018D01*
X109324000Y-101615796D01*
X109324001Y-101615799D01*
X109379185Y-101782331D01*
X109379187Y-101782336D01*
X109392712Y-101804264D01*
X109471288Y-101931656D01*
X109595344Y-102055712D01*
X109705728Y-102123797D01*
X109714911Y-102129461D01*
X109761635Y-102181409D01*
X109772858Y-102250372D01*
X109745014Y-102314454D01*
X109714911Y-102340539D01*
X109595342Y-102414289D01*
X109471289Y-102538342D01*
X109379187Y-102687663D01*
X109379185Y-102687668D01*
X109362621Y-102737656D01*
X109324001Y-102854203D01*
X109324001Y-102854204D01*
X109324000Y-102854204D01*
X109313500Y-102956983D01*
X109313500Y-103846547D01*
X109293815Y-103913586D01*
X109277181Y-103934228D01*
X107095229Y-106116181D01*
X107033906Y-106149666D01*
X107007548Y-106152500D01*
X101911916Y-106152500D01*
X101844877Y-106132815D01*
X101799122Y-106080011D01*
X101795734Y-106071834D01*
X101777573Y-106023143D01*
X101748367Y-105944839D01*
X101735539Y-105921347D01*
X101611229Y-105693690D01*
X101611224Y-105693682D01*
X101439745Y-105464612D01*
X101439729Y-105464594D01*
X101237405Y-105262270D01*
X101237387Y-105262254D01*
X101008317Y-105090775D01*
X101008309Y-105090770D01*
X100757166Y-104953635D01*
X100757167Y-104953635D01*
X100618728Y-104902000D01*
X100489046Y-104853631D01*
X100489043Y-104853630D01*
X100489037Y-104853628D01*
X100209433Y-104792804D01*
X99924001Y-104772390D01*
X99923999Y-104772390D01*
X99638566Y-104792804D01*
X99358962Y-104853628D01*
X99090833Y-104953635D01*
X98839690Y-105090770D01*
X98661063Y-105224488D01*
X98595598Y-105248904D01*
X98527326Y-105234052D01*
X98477920Y-105184646D01*
X98463069Y-105116373D01*
X98466975Y-105093141D01*
X98494548Y-104990238D01*
X98524500Y-104762734D01*
X98524500Y-104533266D01*
X98494548Y-104305762D01*
X98435158Y-104084113D01*
X98373166Y-103934452D01*
X98347349Y-103872123D01*
X98347346Y-103872117D01*
X98347344Y-103872112D01*
X98232611Y-103673388D01*
X98232608Y-103673385D01*
X98232607Y-103673382D01*
X98131764Y-103541962D01*
X98092919Y-103491339D01*
X98092918Y-103491338D01*
X98092911Y-103491330D01*
X97930670Y-103329089D01*
X97930661Y-103329081D01*
X97748617Y-103189392D01*
X97549890Y-103074657D01*
X97549876Y-103074650D01*
X97337887Y-102986842D01*
X97226506Y-102956998D01*
X97116238Y-102927452D01*
X97078215Y-102922446D01*
X96888741Y-102897500D01*
X96888734Y-102897500D01*
X96659266Y-102897500D01*
X96659258Y-102897500D01*
X96442715Y-102926009D01*
X96431762Y-102927452D01*
X96346491Y-102950300D01*
X96210112Y-102986842D01*
X95998123Y-103074650D01*
X95998109Y-103074657D01*
X95799382Y-103189392D01*
X95617338Y-103329081D01*
X95455081Y-103491338D01*
X95315392Y-103673382D01*
X95200657Y-103872109D01*
X95200650Y-103872123D01*
X95112842Y-104084112D01*
X95092831Y-104158797D01*
X95056375Y-104294855D01*
X95053453Y-104305759D01*
X95053451Y-104305770D01*
X95023500Y-104533258D01*
X73660000Y-104533258D01*
X73660000Y-95347998D01*
X85218390Y-95347998D01*
X85218390Y-95348001D01*
X85238804Y-95633433D01*
X85299628Y-95913037D01*
X85299630Y-95913043D01*
X85299631Y-95913046D01*
X85380699Y-96130396D01*
X85399635Y-96181166D01*
X85536770Y-96432309D01*
X85536775Y-96432317D01*
X85708254Y-96661387D01*
X85708270Y-96661405D01*
X85910594Y-96863729D01*
X85910612Y-96863745D01*
X86139682Y-97035224D01*
X86139690Y-97035229D01*
X86390833Y-97172364D01*
X86390832Y-97172364D01*
X86390836Y-97172365D01*
X86390839Y-97172367D01*
X86658954Y-97272369D01*
X86658960Y-97272370D01*
X86658962Y-97272371D01*
X86938566Y-97333195D01*
X86938568Y-97333195D01*
X86938572Y-97333196D01*
X87192220Y-97351337D01*
X87223999Y-97353610D01*
X87224000Y-97353610D01*
X87224001Y-97353610D01*
X87252595Y-97351564D01*
X87509428Y-97333196D01*
X87718571Y-97287700D01*
X87789037Y-97272371D01*
X87789037Y-97272370D01*
X87789046Y-97272369D01*
X88057161Y-97172367D01*
X88308315Y-97035226D01*
X88537395Y-96863739D01*
X88739739Y-96661395D01*
X88911226Y-96432315D01*
X89048367Y-96181161D01*
X89117431Y-95995992D01*
X89159300Y-95940062D01*
X89224764Y-95915645D01*
X89293037Y-95930497D01*
X89342443Y-95979902D01*
X89344095Y-95983032D01*
X89350701Y-95995996D01*
X89354476Y-96003405D01*
X89470172Y-96162646D01*
X89609354Y-96301828D01*
X89768595Y-96417524D01*
X89846121Y-96457025D01*
X89943970Y-96506882D01*
X89943972Y-96506882D01*
X89943975Y-96506884D01*
X90044317Y-96539487D01*
X90131173Y-96567709D01*
X90325578Y-96598500D01*
X90325583Y-96598500D01*
X90522422Y-96598500D01*
X90716826Y-96567709D01*
X90717377Y-96567530D01*
X90904025Y-96506884D01*
X91079405Y-96417524D01*
X91238646Y-96301828D01*
X91377828Y-96162646D01*
X91493524Y-96003405D01*
X91582884Y-95828025D01*
X91643709Y-95640826D01*
X91644881Y-95633428D01*
X91674500Y-95446422D01*
X91674500Y-95347998D01*
X97918390Y-95347998D01*
X97918390Y-95348001D01*
X97938804Y-95633433D01*
X97999628Y-95913037D01*
X97999630Y-95913043D01*
X97999631Y-95913046D01*
X98080699Y-96130396D01*
X98099635Y-96181166D01*
X98236770Y-96432309D01*
X98236775Y-96432317D01*
X98408254Y-96661387D01*
X98408270Y-96661405D01*
X98610594Y-96863729D01*
X98610612Y-96863745D01*
X98839682Y-97035224D01*
X98839690Y-97035229D01*
X99090833Y-97172364D01*
X99090832Y-97172364D01*
X99090836Y-97172365D01*
X99090839Y-97172367D01*
X99358954Y-97272369D01*
X99358960Y-97272370D01*
X99358962Y-97272371D01*
X99638566Y-97333195D01*
X99638568Y-97333195D01*
X99638572Y-97333196D01*
X99892220Y-97351337D01*
X99923999Y-97353610D01*
X99924000Y-97353610D01*
X99924001Y-97353610D01*
X99952595Y-97351564D01*
X100209428Y-97333196D01*
X100418571Y-97287700D01*
X100489037Y-97272371D01*
X100489037Y-97272370D01*
X100489046Y-97272369D01*
X100757161Y-97172367D01*
X101008315Y-97035226D01*
X101237395Y-96863739D01*
X101439739Y-96661395D01*
X101611226Y-96432315D01*
X101748367Y-96181161D01*
X101848369Y-95913046D01*
X101909196Y-95633428D01*
X101929610Y-95348000D01*
X101909196Y-95062572D01*
X101907586Y-95055173D01*
X101848371Y-94782962D01*
X101848370Y-94782960D01*
X101848369Y-94782954D01*
X101748367Y-94514839D01*
X101611226Y-94263685D01*
X101611224Y-94263682D01*
X101439745Y-94034612D01*
X101439729Y-94034594D01*
X101237405Y-93832270D01*
X101237387Y-93832254D01*
X101008317Y-93660775D01*
X101008309Y-93660770D01*
X100757166Y-93523635D01*
X100757167Y-93523635D01*
X100649915Y-93483632D01*
X100489046Y-93423631D01*
X100489043Y-93423630D01*
X100489037Y-93423628D01*
X100209433Y-93362804D01*
X99924001Y-93342390D01*
X99923999Y-93342390D01*
X99638566Y-93362804D01*
X99358962Y-93423628D01*
X99090833Y-93523635D01*
X98839690Y-93660770D01*
X98839682Y-93660775D01*
X98610612Y-93832254D01*
X98610594Y-93832270D01*
X98408270Y-94034594D01*
X98408254Y-94034612D01*
X98236775Y-94263682D01*
X98236770Y-94263690D01*
X98099635Y-94514833D01*
X97999628Y-94782962D01*
X97938804Y-95062566D01*
X97918390Y-95347998D01*
X91674500Y-95347998D01*
X91674500Y-95249577D01*
X91643709Y-95055173D01*
X91594114Y-94902537D01*
X91582884Y-94867975D01*
X91582882Y-94867972D01*
X91582882Y-94867970D01*
X91503905Y-94712969D01*
X91493524Y-94692595D01*
X91377828Y-94533354D01*
X91238646Y-94394172D01*
X91079405Y-94278476D01*
X91050370Y-94263682D01*
X90904029Y-94189117D01*
X90716826Y-94128290D01*
X90522422Y-94097500D01*
X90522417Y-94097500D01*
X90325583Y-94097500D01*
X90325578Y-94097500D01*
X90131173Y-94128290D01*
X89943970Y-94189117D01*
X89768594Y-94278476D01*
X89677741Y-94344485D01*
X89609354Y-94394172D01*
X89609352Y-94394174D01*
X89609351Y-94394174D01*
X89470174Y-94533351D01*
X89470174Y-94533352D01*
X89470172Y-94533354D01*
X89429268Y-94589652D01*
X89354475Y-94692595D01*
X89344094Y-94712969D01*
X89296118Y-94763763D01*
X89228296Y-94780556D01*
X89162162Y-94758016D01*
X89118712Y-94703299D01*
X89117447Y-94700051D01*
X89048367Y-94514839D01*
X88911226Y-94263685D01*
X88911224Y-94263682D01*
X88739745Y-94034612D01*
X88739729Y-94034594D01*
X88537405Y-93832270D01*
X88537387Y-93832254D01*
X88308317Y-93660775D01*
X88308309Y-93660770D01*
X88057166Y-93523635D01*
X88057167Y-93523635D01*
X87949915Y-93483632D01*
X87789046Y-93423631D01*
X87789043Y-93423630D01*
X87789037Y-93423628D01*
X87509433Y-93362804D01*
X87224001Y-93342390D01*
X87223999Y-93342390D01*
X86938566Y-93362804D01*
X86658962Y-93423628D01*
X86390833Y-93523635D01*
X86139690Y-93660770D01*
X86139682Y-93660775D01*
X85910612Y-93832254D01*
X85910594Y-93832270D01*
X85708270Y-94034594D01*
X85708254Y-94034612D01*
X85536775Y-94263682D01*
X85536770Y-94263690D01*
X85399635Y-94514833D01*
X85299628Y-94782962D01*
X85238804Y-95062566D01*
X85218390Y-95347998D01*
X73660000Y-95347998D01*
X73660000Y-90743994D01*
X127460556Y-90743994D01*
X127460556Y-90744005D01*
X127480310Y-91058004D01*
X127480311Y-91058011D01*
X127539270Y-91367083D01*
X127636497Y-91666316D01*
X127636499Y-91666321D01*
X127770461Y-91951003D01*
X127770464Y-91951009D01*
X127939051Y-92216661D01*
X127939054Y-92216665D01*
X128139606Y-92459090D01*
X128139608Y-92459092D01*
X128368968Y-92674476D01*
X128368978Y-92674484D01*
X128623504Y-92859408D01*
X128623509Y-92859410D01*
X128623516Y-92859416D01*
X128899234Y-93010994D01*
X128899239Y-93010996D01*
X128899241Y-93010997D01*
X128899242Y-93010998D01*
X129191771Y-93126818D01*
X129191774Y-93126819D01*
X129496523Y-93205065D01*
X129496527Y-93205066D01*
X129562010Y-93213338D01*
X129808670Y-93244499D01*
X129808679Y-93244499D01*
X129808682Y-93244500D01*
X129808684Y-93244500D01*
X130123316Y-93244500D01*
X130123318Y-93244500D01*
X130123321Y-93244499D01*
X130123329Y-93244499D01*
X130309593Y-93220968D01*
X130435473Y-93205066D01*
X130740225Y-93126819D01*
X130740228Y-93126818D01*
X131032757Y-93010998D01*
X131032758Y-93010997D01*
X131032756Y-93010997D01*
X131032766Y-93010994D01*
X131308484Y-92859416D01*
X131563030Y-92674478D01*
X131792390Y-92459094D01*
X131992947Y-92216663D01*
X132161537Y-91951007D01*
X132295503Y-91666315D01*
X132392731Y-91367079D01*
X132451688Y-91058015D01*
X132471444Y-90744000D01*
X132471444Y-90743994D01*
X136260556Y-90743994D01*
X136260556Y-90744005D01*
X136280310Y-91058004D01*
X136280311Y-91058011D01*
X136339270Y-91367083D01*
X136436497Y-91666316D01*
X136436499Y-91666321D01*
X136570461Y-91951003D01*
X136570464Y-91951009D01*
X136739051Y-92216661D01*
X136739054Y-92216665D01*
X136939606Y-92459090D01*
X136939608Y-92459092D01*
X137168968Y-92674476D01*
X137168978Y-92674484D01*
X137423504Y-92859408D01*
X137423509Y-92859410D01*
X137423516Y-92859416D01*
X137699234Y-93010994D01*
X137699239Y-93010996D01*
X137699241Y-93010997D01*
X137699242Y-93010998D01*
X137991771Y-93126818D01*
X137991774Y-93126819D01*
X138296523Y-93205065D01*
X138296527Y-93205066D01*
X138362010Y-93213338D01*
X138608670Y-93244499D01*
X138608679Y-93244499D01*
X138608682Y-93244500D01*
X138608684Y-93244500D01*
X138923316Y-93244500D01*
X138923318Y-93244500D01*
X138923321Y-93244499D01*
X138923329Y-93244499D01*
X139109593Y-93220968D01*
X139235473Y-93205066D01*
X139540225Y-93126819D01*
X139540228Y-93126818D01*
X139832757Y-93010998D01*
X139832758Y-93010997D01*
X139832756Y-93010997D01*
X139832766Y-93010994D01*
X140108484Y-92859416D01*
X140363030Y-92674478D01*
X140592390Y-92459094D01*
X140792947Y-92216663D01*
X140961537Y-91951007D01*
X141095503Y-91666315D01*
X141192731Y-91367079D01*
X141251688Y-91058015D01*
X141271444Y-90744000D01*
X141251688Y-90429985D01*
X141192731Y-90120921D01*
X141095503Y-89821685D01*
X140961537Y-89536993D01*
X140792947Y-89271337D01*
X140792945Y-89271334D01*
X140592393Y-89028909D01*
X140592391Y-89028907D01*
X140363031Y-88813523D01*
X140363021Y-88813515D01*
X140108495Y-88628591D01*
X140108488Y-88628586D01*
X140108484Y-88628584D01*
X139832766Y-88477006D01*
X139832763Y-88477004D01*
X139832758Y-88477002D01*
X139832757Y-88477001D01*
X139540228Y-88361181D01*
X139540225Y-88361180D01*
X139235476Y-88282934D01*
X139235463Y-88282932D01*
X138923329Y-88243500D01*
X138923318Y-88243500D01*
X138608682Y-88243500D01*
X138608670Y-88243500D01*
X138296536Y-88282932D01*
X138296523Y-88282934D01*
X137991774Y-88361180D01*
X137991771Y-88361181D01*
X137699242Y-88477001D01*
X137699241Y-88477002D01*
X137423516Y-88628584D01*
X137423504Y-88628591D01*
X137168978Y-88813515D01*
X137168968Y-88813523D01*
X136939608Y-89028907D01*
X136939606Y-89028909D01*
X136739054Y-89271334D01*
X136739051Y-89271338D01*
X136570464Y-89536990D01*
X136570461Y-89536996D01*
X136436499Y-89821678D01*
X136436497Y-89821683D01*
X136339270Y-90120916D01*
X136280311Y-90429988D01*
X136280310Y-90429995D01*
X136260556Y-90743994D01*
X132471444Y-90743994D01*
X132451688Y-90429985D01*
X132392731Y-90120921D01*
X132295503Y-89821685D01*
X132161537Y-89536993D01*
X131992947Y-89271337D01*
X131992945Y-89271334D01*
X131792393Y-89028909D01*
X131792391Y-89028907D01*
X131563031Y-88813523D01*
X131563021Y-88813515D01*
X131308495Y-88628591D01*
X131308488Y-88628586D01*
X131308484Y-88628584D01*
X131032766Y-88477006D01*
X131032763Y-88477004D01*
X131032758Y-88477002D01*
X131032757Y-88477001D01*
X130740228Y-88361181D01*
X130740225Y-88361180D01*
X130435476Y-88282934D01*
X130435463Y-88282932D01*
X130123329Y-88243500D01*
X130123318Y-88243500D01*
X129808682Y-88243500D01*
X129808670Y-88243500D01*
X129496536Y-88282932D01*
X129496523Y-88282934D01*
X129191774Y-88361180D01*
X129191771Y-88361181D01*
X128899242Y-88477001D01*
X128899241Y-88477002D01*
X128623516Y-88628584D01*
X128623504Y-88628591D01*
X128368978Y-88813515D01*
X128368968Y-88813523D01*
X128139608Y-89028907D01*
X128139606Y-89028909D01*
X127939054Y-89271334D01*
X127939051Y-89271338D01*
X127770464Y-89536990D01*
X127770461Y-89536996D01*
X127636499Y-89821678D01*
X127636497Y-89821683D01*
X127539270Y-90120916D01*
X127480311Y-90429988D01*
X127480310Y-90429995D01*
X127460556Y-90743994D01*
X73660000Y-90743994D01*
X73660000Y-88951362D01*
X73679685Y-88884323D01*
X73696319Y-88863681D01*
X78703681Y-83856319D01*
X78765004Y-83822834D01*
X78791362Y-83820000D01*
X200608638Y-83820000D01*
X200675677Y-83839685D01*
G37*
G04 #@! TD.AperFunction*
M02*
