G04 #@! TF.GenerationSoftware,KiCad,Pcbnew,8.0.2*
G04 #@! TF.CreationDate,2024-08-21T05:46:25-04:00*
G04 #@! TF.ProjectId,plugnslay,706c7567-6e73-46c6-9179-2e6b69636164,rev?*
G04 #@! TF.SameCoordinates,Original*
G04 #@! TF.FileFunction,Copper,L2,Bot*
G04 #@! TF.FilePolarity,Positive*
%FSLAX46Y46*%
G04 Gerber Fmt 4.6, Leading zero omitted, Abs format (unit mm)*
G04 Created by KiCad (PCBNEW 8.0.2) date 2024-08-21 05:46:25*
%MOMM*%
%LPD*%
G01*
G04 APERTURE LIST*
G04 Aperture macros list*
%AMHorizOval*
0 Thick line with rounded ends*
0 $1 width*
0 $2 $3 position (X,Y) of the first rounded end (center of the circle)*
0 $4 $5 position (X,Y) of the second rounded end (center of the circle)*
0 Add line between two ends*
20,1,$1,$2,$3,$4,$5,0*
0 Add two circle primitives to create the rounded ends*
1,1,$1,$2,$3*
1,1,$1,$4,$5*%
G04 Aperture macros list end*
G04 #@! TA.AperFunction,ComponentPad*
%ADD10O,1.700000X1.100000*%
G04 #@! TD*
G04 #@! TA.AperFunction,ComponentPad*
%ADD11C,3.000000*%
G04 #@! TD*
G04 #@! TA.AperFunction,ComponentPad*
%ADD12HorizOval,2.400000X0.212132X-0.212132X-0.212132X0.212132X0*%
G04 #@! TD*
G04 #@! TA.AperFunction,WasherPad*
%ADD13C,4.000000*%
G04 #@! TD*
G04 #@! TA.AperFunction,ComponentPad*
%ADD14C,1.800000*%
G04 #@! TD*
G04 #@! TA.AperFunction,ViaPad*
%ADD15C,0.800000*%
G04 #@! TD*
G04 #@! TA.AperFunction,Conductor*
%ADD16C,0.250000*%
G04 #@! TD*
G04 APERTURE END LIST*
D10*
X200200000Y-116080000D03*
X204000000Y-116080000D03*
X200200000Y-107440000D03*
X204000000Y-107440000D03*
D11*
X87224000Y-106778000D03*
X87224000Y-95348000D03*
X99924000Y-106778000D03*
X99924000Y-95348000D03*
D12*
X191998000Y-100960000D03*
X193798000Y-98960000D03*
X199898000Y-98960000D03*
X197498000Y-100960000D03*
X188298000Y-98960000D03*
D13*
X129966000Y-90744000D03*
X138766000Y-90744000D03*
D14*
X136866000Y-97744000D03*
X134366000Y-97744000D03*
X131866000Y-97744000D03*
D15*
X134620000Y-113792000D03*
X129794000Y-101092000D03*
X167626153Y-102820847D03*
X122936000Y-111252000D03*
X184150000Y-114554000D03*
X134620000Y-110744000D03*
X147828000Y-109474000D03*
X196596000Y-116332000D03*
X112014000Y-100838000D03*
X142240000Y-112522000D03*
X118872000Y-111252000D03*
X131572000Y-107950000D03*
X134620000Y-122174000D03*
X160020000Y-119380000D03*
X134620000Y-119380000D03*
X184150000Y-117856000D03*
X164084000Y-112014000D03*
X170434000Y-102844000D03*
X164338000Y-120904000D03*
X122936000Y-114046000D03*
X131572000Y-106680000D03*
X122936000Y-105156000D03*
X138684000Y-109728000D03*
X134620000Y-116586000D03*
X153416000Y-108712000D03*
X149606000Y-106680000D03*
X162280000Y-109474000D03*
X161036000Y-111252000D03*
X159512000Y-109474000D03*
X144018000Y-109728000D03*
X147828000Y-112522000D03*
X167894000Y-109474000D03*
D16*
X124460000Y-106680000D02*
X122936000Y-105156000D01*
X131572000Y-106680000D02*
X124460000Y-106680000D01*
X136398000Y-111760000D02*
X136398000Y-114808000D01*
X136398000Y-114808000D02*
X134620000Y-116586000D01*
X138684000Y-109728000D02*
X138430000Y-109728000D01*
X138430000Y-109728000D02*
X136398000Y-111760000D01*
X151384000Y-106680000D02*
X153416000Y-108712000D01*
X149606000Y-106680000D02*
X151384000Y-106680000D01*
X162280000Y-110008000D02*
X162280000Y-109474000D01*
X161036000Y-111252000D02*
X162280000Y-110008000D01*
X145034000Y-110744000D02*
X144018000Y-109728000D01*
X159512000Y-109474000D02*
X158242000Y-110744000D01*
X158242000Y-110744000D02*
X145034000Y-110744000D01*
X167894000Y-109474000D02*
X167894000Y-111252000D01*
X148590000Y-113284000D02*
X147828000Y-112522000D01*
X165862000Y-113284000D02*
X148590000Y-113284000D01*
X167894000Y-111252000D02*
X165862000Y-113284000D01*
G04 #@! TA.AperFunction,Conductor*
G36*
X200675677Y-83839685D02*
G01*
X200696319Y-83856319D01*
X205703681Y-88863681D01*
X205737166Y-88925004D01*
X205740000Y-88951362D01*
X205740000Y-119328638D01*
X205720315Y-119395677D01*
X205703681Y-119416319D01*
X200696319Y-124423681D01*
X200634996Y-124457166D01*
X200608638Y-124460000D01*
X78791362Y-124460000D01*
X78724323Y-124440315D01*
X78703681Y-124423681D01*
X73696319Y-119416319D01*
X73662834Y-119354996D01*
X73660000Y-119328638D01*
X73660000Y-116586000D01*
X133714540Y-116586000D01*
X133734326Y-116774256D01*
X133734327Y-116774259D01*
X133792818Y-116954277D01*
X133792821Y-116954284D01*
X133887467Y-117118216D01*
X134014129Y-117258888D01*
X134167265Y-117370148D01*
X134167270Y-117370151D01*
X134340192Y-117447142D01*
X134340197Y-117447144D01*
X134525354Y-117486500D01*
X134525355Y-117486500D01*
X134714644Y-117486500D01*
X134714646Y-117486500D01*
X134899803Y-117447144D01*
X135072730Y-117370151D01*
X135225871Y-117258888D01*
X135352533Y-117118216D01*
X135447179Y-116954284D01*
X135505674Y-116774256D01*
X135523321Y-116606344D01*
X135549904Y-116541734D01*
X135558951Y-116531638D01*
X136260590Y-115830000D01*
X198879157Y-115830000D01*
X199733012Y-115830000D01*
X199715795Y-115839940D01*
X199659940Y-115895795D01*
X199620444Y-115964204D01*
X199600000Y-116040504D01*
X199600000Y-116119496D01*
X199620444Y-116195796D01*
X199659940Y-116264205D01*
X199715795Y-116320060D01*
X199733012Y-116330000D01*
X198879157Y-116330000D01*
X198890350Y-116386274D01*
X198890351Y-116386276D01*
X198969500Y-116577358D01*
X198969505Y-116577368D01*
X199084410Y-116749335D01*
X199084413Y-116749339D01*
X199230660Y-116895586D01*
X199230664Y-116895589D01*
X199402631Y-117010494D01*
X199402641Y-117010499D01*
X199593725Y-117089649D01*
X199593733Y-117089651D01*
X199796579Y-117129999D01*
X199796583Y-117130000D01*
X199950000Y-117130000D01*
X199950000Y-116380000D01*
X200450000Y-116380000D01*
X200450000Y-117130000D01*
X200603417Y-117130000D01*
X200603420Y-117129999D01*
X200806266Y-117089651D01*
X200806274Y-117089649D01*
X200997358Y-117010499D01*
X200997368Y-117010494D01*
X201169335Y-116895589D01*
X201169339Y-116895586D01*
X201315586Y-116749339D01*
X201315589Y-116749335D01*
X201430494Y-116577368D01*
X201430499Y-116577358D01*
X201509648Y-116386276D01*
X201509649Y-116386274D01*
X201520843Y-116330000D01*
X200666988Y-116330000D01*
X200684205Y-116320060D01*
X200740060Y-116264205D01*
X200779556Y-116195796D01*
X200800000Y-116119496D01*
X200800000Y-116040504D01*
X200779556Y-115964204D01*
X200740060Y-115895795D01*
X200684205Y-115839940D01*
X200666988Y-115830000D01*
X201520843Y-115830000D01*
X202679157Y-115830000D01*
X203533012Y-115830000D01*
X203515795Y-115839940D01*
X203459940Y-115895795D01*
X203420444Y-115964204D01*
X203400000Y-116040504D01*
X203400000Y-116119496D01*
X203420444Y-116195796D01*
X203459940Y-116264205D01*
X203515795Y-116320060D01*
X203533012Y-116330000D01*
X202679157Y-116330000D01*
X202690350Y-116386274D01*
X202690351Y-116386276D01*
X202769500Y-116577358D01*
X202769505Y-116577368D01*
X202884410Y-116749335D01*
X202884413Y-116749339D01*
X203030660Y-116895586D01*
X203030664Y-116895589D01*
X203202631Y-117010494D01*
X203202641Y-117010499D01*
X203393725Y-117089649D01*
X203393733Y-117089651D01*
X203596579Y-117129999D01*
X203596583Y-117130000D01*
X203750000Y-117130000D01*
X203750000Y-116380000D01*
X204250000Y-116380000D01*
X204250000Y-117130000D01*
X204403417Y-117130000D01*
X204403420Y-117129999D01*
X204606266Y-117089651D01*
X204606274Y-117089649D01*
X204797358Y-117010499D01*
X204797368Y-117010494D01*
X204969335Y-116895589D01*
X204969339Y-116895586D01*
X205115586Y-116749339D01*
X205115589Y-116749335D01*
X205230494Y-116577368D01*
X205230499Y-116577358D01*
X205309648Y-116386276D01*
X205309649Y-116386274D01*
X205320843Y-116330000D01*
X204466988Y-116330000D01*
X204484205Y-116320060D01*
X204540060Y-116264205D01*
X204579556Y-116195796D01*
X204600000Y-116119496D01*
X204600000Y-116040504D01*
X204579556Y-115964204D01*
X204540060Y-115895795D01*
X204484205Y-115839940D01*
X204466988Y-115830000D01*
X205320843Y-115830000D01*
X205309649Y-115773725D01*
X205309648Y-115773723D01*
X205230499Y-115582641D01*
X205230494Y-115582631D01*
X205115589Y-115410664D01*
X205115586Y-115410660D01*
X204969339Y-115264413D01*
X204969335Y-115264410D01*
X204797368Y-115149505D01*
X204797358Y-115149500D01*
X204606274Y-115070350D01*
X204606266Y-115070348D01*
X204403420Y-115030000D01*
X204250000Y-115030000D01*
X204250000Y-115780000D01*
X203750000Y-115780000D01*
X203750000Y-115030000D01*
X203596579Y-115030000D01*
X203393733Y-115070348D01*
X203393725Y-115070350D01*
X203202641Y-115149500D01*
X203202631Y-115149505D01*
X203030664Y-115264410D01*
X203030660Y-115264413D01*
X202884413Y-115410660D01*
X202884410Y-115410664D01*
X202769505Y-115582631D01*
X202769500Y-115582641D01*
X202690351Y-115773723D01*
X202690350Y-115773725D01*
X202679157Y-115830000D01*
X201520843Y-115830000D01*
X201509649Y-115773725D01*
X201509648Y-115773723D01*
X201430499Y-115582641D01*
X201430494Y-115582631D01*
X201315589Y-115410664D01*
X201315586Y-115410660D01*
X201169339Y-115264413D01*
X201169335Y-115264410D01*
X200997368Y-115149505D01*
X200997358Y-115149500D01*
X200806274Y-115070350D01*
X200806266Y-115070348D01*
X200603420Y-115030000D01*
X200450000Y-115030000D01*
X200450000Y-115780000D01*
X199950000Y-115780000D01*
X199950000Y-115030000D01*
X199796579Y-115030000D01*
X199593733Y-115070348D01*
X199593725Y-115070350D01*
X199402641Y-115149500D01*
X199402631Y-115149505D01*
X199230664Y-115264410D01*
X199230660Y-115264413D01*
X199084413Y-115410660D01*
X199084410Y-115410664D01*
X198969505Y-115582631D01*
X198969500Y-115582641D01*
X198890351Y-115773723D01*
X198890350Y-115773725D01*
X198879157Y-115830000D01*
X136260590Y-115830000D01*
X136883858Y-115206733D01*
X136952312Y-115104285D01*
X136999463Y-114990451D01*
X137023500Y-114869606D01*
X137023500Y-114746393D01*
X137023500Y-112522000D01*
X146922540Y-112522000D01*
X146942326Y-112710256D01*
X146942327Y-112710259D01*
X147000818Y-112890277D01*
X147000821Y-112890284D01*
X147095467Y-113054216D01*
X147222129Y-113194888D01*
X147375265Y-113306148D01*
X147375270Y-113306151D01*
X147548192Y-113383142D01*
X147548197Y-113383144D01*
X147733354Y-113422500D01*
X147792548Y-113422500D01*
X147859587Y-113442185D01*
X147880229Y-113458819D01*
X148101016Y-113679606D01*
X148101045Y-113679637D01*
X148191264Y-113769856D01*
X148191267Y-113769858D01*
X148268190Y-113821256D01*
X148293710Y-113838309D01*
X148293712Y-113838310D01*
X148293715Y-113838312D01*
X148360396Y-113865931D01*
X148360398Y-113865933D01*
X148390129Y-113878247D01*
X148407548Y-113885463D01*
X148528394Y-113909500D01*
X148528396Y-113909500D01*
X165923607Y-113909500D01*
X165984029Y-113897481D01*
X166044452Y-113885463D01*
X166044455Y-113885461D01*
X166044458Y-113885461D01*
X166077787Y-113871654D01*
X166077786Y-113871654D01*
X166077792Y-113871652D01*
X166158286Y-113838312D01*
X166209509Y-113804084D01*
X166260733Y-113769858D01*
X166347858Y-113682733D01*
X166347859Y-113682731D01*
X166354925Y-113675665D01*
X166354928Y-113675661D01*
X168292729Y-111737860D01*
X168292733Y-111737858D01*
X168379858Y-111650733D01*
X168448311Y-111548286D01*
X168448312Y-111548285D01*
X168448313Y-111548282D01*
X168448315Y-111548279D01*
X168458672Y-111523272D01*
X168495463Y-111434451D01*
X168519500Y-111313607D01*
X168519500Y-111190393D01*
X168519500Y-110172687D01*
X168539185Y-110105648D01*
X168551350Y-110089715D01*
X168569891Y-110069122D01*
X168626533Y-110006216D01*
X168721179Y-109842284D01*
X168779674Y-109662256D01*
X168799460Y-109474000D01*
X168779674Y-109285744D01*
X168721179Y-109105716D01*
X168626533Y-108941784D01*
X168499871Y-108801112D01*
X168499870Y-108801111D01*
X168346734Y-108689851D01*
X168346729Y-108689848D01*
X168173807Y-108612857D01*
X168173802Y-108612855D01*
X168028001Y-108581865D01*
X167988646Y-108573500D01*
X167799354Y-108573500D01*
X167766897Y-108580398D01*
X167614197Y-108612855D01*
X167614192Y-108612857D01*
X167441270Y-108689848D01*
X167441265Y-108689851D01*
X167288129Y-108801111D01*
X167161466Y-108941785D01*
X167066821Y-109105715D01*
X167066818Y-109105722D01*
X167021820Y-109244214D01*
X167008326Y-109285744D01*
X166988540Y-109474000D01*
X167008326Y-109662256D01*
X167008327Y-109662259D01*
X167066818Y-109842277D01*
X167066821Y-109842284D01*
X167161467Y-110006216D01*
X167204772Y-110054310D01*
X167236650Y-110089715D01*
X167266880Y-110152706D01*
X167268500Y-110172687D01*
X167268500Y-110941548D01*
X167248815Y-111008587D01*
X167232181Y-111029229D01*
X165639229Y-112622181D01*
X165577906Y-112655666D01*
X165551548Y-112658500D01*
X148900452Y-112658500D01*
X148833413Y-112638815D01*
X148812771Y-112622181D01*
X148766960Y-112576370D01*
X148733475Y-112515047D01*
X148731323Y-112501671D01*
X148713674Y-112333744D01*
X148655179Y-112153716D01*
X148560533Y-111989784D01*
X148433871Y-111849112D01*
X148433870Y-111849111D01*
X148280734Y-111737851D01*
X148280729Y-111737848D01*
X148107807Y-111660857D01*
X148107802Y-111660855D01*
X147962001Y-111629865D01*
X147922646Y-111621500D01*
X147733354Y-111621500D01*
X147700897Y-111628398D01*
X147548197Y-111660855D01*
X147548192Y-111660857D01*
X147375270Y-111737848D01*
X147375265Y-111737851D01*
X147222129Y-111849111D01*
X147095466Y-111989785D01*
X147000821Y-112153715D01*
X147000818Y-112153722D01*
X146942327Y-112333740D01*
X146942326Y-112333744D01*
X146922540Y-112522000D01*
X137023500Y-112522000D01*
X137023500Y-112070451D01*
X137043185Y-112003412D01*
X137059814Y-111982775D01*
X138397207Y-110645381D01*
X138458528Y-110611898D01*
X138510663Y-110611774D01*
X138589354Y-110628500D01*
X138589356Y-110628500D01*
X138778644Y-110628500D01*
X138778646Y-110628500D01*
X138963803Y-110589144D01*
X139136730Y-110512151D01*
X139289871Y-110400888D01*
X139416533Y-110260216D01*
X139511179Y-110096284D01*
X139569674Y-109916256D01*
X139589460Y-109728000D01*
X143112540Y-109728000D01*
X143132326Y-109916256D01*
X143132327Y-109916259D01*
X143190818Y-110096277D01*
X143190821Y-110096284D01*
X143285467Y-110260216D01*
X143325150Y-110304288D01*
X143412129Y-110400888D01*
X143565265Y-110512148D01*
X143565270Y-110512151D01*
X143738192Y-110589142D01*
X143738197Y-110589144D01*
X143923354Y-110628500D01*
X143982548Y-110628500D01*
X144049587Y-110648185D01*
X144070229Y-110664819D01*
X144545016Y-111139606D01*
X144545045Y-111139637D01*
X144635263Y-111229855D01*
X144635269Y-111229860D01*
X144640141Y-111233115D01*
X144668401Y-111251997D01*
X144668404Y-111252001D01*
X144668405Y-111252000D01*
X144737714Y-111298312D01*
X144818207Y-111331652D01*
X144851548Y-111345463D01*
X144911971Y-111357481D01*
X144972393Y-111369500D01*
X158303607Y-111369500D01*
X158364029Y-111357481D01*
X158424452Y-111345463D01*
X158424455Y-111345461D01*
X158424458Y-111345461D01*
X158457787Y-111331654D01*
X158457786Y-111331654D01*
X158457792Y-111331652D01*
X158538286Y-111298312D01*
X158607595Y-111252000D01*
X160130540Y-111252000D01*
X160150326Y-111440256D01*
X160150327Y-111440259D01*
X160208818Y-111620277D01*
X160208821Y-111620284D01*
X160303467Y-111784216D01*
X160361899Y-111849111D01*
X160430129Y-111924888D01*
X160583265Y-112036148D01*
X160583270Y-112036151D01*
X160756192Y-112113142D01*
X160756197Y-112113144D01*
X160941354Y-112152500D01*
X160941355Y-112152500D01*
X161130644Y-112152500D01*
X161130646Y-112152500D01*
X161315803Y-112113144D01*
X161488730Y-112036151D01*
X161641871Y-111924888D01*
X161768533Y-111784216D01*
X161863179Y-111620284D01*
X161921674Y-111440256D01*
X161939321Y-111272344D01*
X161965904Y-111207734D01*
X161974950Y-111197639D01*
X162765858Y-110406733D01*
X162834312Y-110304285D01*
X162881463Y-110190451D01*
X162884683Y-110174260D01*
X162914148Y-110115481D01*
X163012533Y-110006216D01*
X163107179Y-109842284D01*
X163165674Y-109662256D01*
X163185460Y-109474000D01*
X163165674Y-109285744D01*
X163107179Y-109105716D01*
X163012533Y-108941784D01*
X162885871Y-108801112D01*
X162885870Y-108801111D01*
X162732734Y-108689851D01*
X162732729Y-108689848D01*
X162559807Y-108612857D01*
X162559802Y-108612855D01*
X162414001Y-108581865D01*
X162374646Y-108573500D01*
X162185354Y-108573500D01*
X162152897Y-108580398D01*
X162000197Y-108612855D01*
X162000192Y-108612857D01*
X161827270Y-108689848D01*
X161827265Y-108689851D01*
X161674129Y-108801111D01*
X161547466Y-108941785D01*
X161452821Y-109105715D01*
X161452818Y-109105722D01*
X161407820Y-109244214D01*
X161394326Y-109285744D01*
X161374540Y-109474000D01*
X161394326Y-109662256D01*
X161394327Y-109662259D01*
X161454829Y-109848465D01*
X161452826Y-109849115D01*
X161460809Y-109908604D01*
X161431188Y-109971884D01*
X161425925Y-109977484D01*
X161088227Y-110315182D01*
X161026906Y-110348666D01*
X161000548Y-110351500D01*
X160941354Y-110351500D01*
X160908897Y-110358398D01*
X160756197Y-110390855D01*
X160756192Y-110390857D01*
X160583270Y-110467848D01*
X160583265Y-110467851D01*
X160430129Y-110579111D01*
X160303466Y-110719785D01*
X160208821Y-110883715D01*
X160208818Y-110883722D01*
X160150327Y-111063740D01*
X160150326Y-111063744D01*
X160130540Y-111252000D01*
X158607595Y-111252000D01*
X158640733Y-111229858D01*
X158727858Y-111142733D01*
X158727859Y-111142731D01*
X158734925Y-111135665D01*
X158734927Y-111135661D01*
X159459771Y-110410819D01*
X159521094Y-110377334D01*
X159547452Y-110374500D01*
X159606644Y-110374500D01*
X159606646Y-110374500D01*
X159791803Y-110335144D01*
X159964730Y-110258151D01*
X160117871Y-110146888D01*
X160244533Y-110006216D01*
X160339179Y-109842284D01*
X160397674Y-109662256D01*
X160417460Y-109474000D01*
X160397674Y-109285744D01*
X160339179Y-109105716D01*
X160244533Y-108941784D01*
X160117871Y-108801112D01*
X160117870Y-108801111D01*
X159964734Y-108689851D01*
X159964729Y-108689848D01*
X159791807Y-108612857D01*
X159791802Y-108612855D01*
X159646001Y-108581865D01*
X159606646Y-108573500D01*
X159417354Y-108573500D01*
X159384897Y-108580398D01*
X159232197Y-108612855D01*
X159232192Y-108612857D01*
X159059270Y-108689848D01*
X159059265Y-108689851D01*
X158906129Y-108801111D01*
X158779466Y-108941785D01*
X158684821Y-109105715D01*
X158684818Y-109105722D01*
X158639820Y-109244214D01*
X158626326Y-109285744D01*
X158618552Y-109359715D01*
X158608678Y-109453651D01*
X158582093Y-109518266D01*
X158573038Y-109528370D01*
X158019229Y-110082181D01*
X157957906Y-110115666D01*
X157931548Y-110118500D01*
X145344452Y-110118500D01*
X145277413Y-110098815D01*
X145256771Y-110082181D01*
X144956960Y-109782370D01*
X144923475Y-109721047D01*
X144921323Y-109707671D01*
X144903674Y-109539744D01*
X144845179Y-109359716D01*
X144750533Y-109195784D01*
X144623871Y-109055112D01*
X144623870Y-109055111D01*
X144470734Y-108943851D01*
X144470729Y-108943848D01*
X144297807Y-108866857D01*
X144297802Y-108866855D01*
X144152001Y-108835865D01*
X144112646Y-108827500D01*
X143923354Y-108827500D01*
X143890897Y-108834398D01*
X143738197Y-108866855D01*
X143738192Y-108866857D01*
X143565270Y-108943848D01*
X143565265Y-108943851D01*
X143412129Y-109055111D01*
X143285466Y-109195785D01*
X143190821Y-109359715D01*
X143190818Y-109359722D01*
X143132327Y-109539740D01*
X143132326Y-109539744D01*
X143112540Y-109728000D01*
X139589460Y-109728000D01*
X139569674Y-109539744D01*
X139511179Y-109359716D01*
X139416533Y-109195784D01*
X139289871Y-109055112D01*
X139289870Y-109055111D01*
X139136734Y-108943851D01*
X139136729Y-108943848D01*
X138963807Y-108866857D01*
X138963802Y-108866855D01*
X138818001Y-108835865D01*
X138778646Y-108827500D01*
X138589354Y-108827500D01*
X138556897Y-108834398D01*
X138404197Y-108866855D01*
X138404192Y-108866857D01*
X138231270Y-108943848D01*
X138231265Y-108943851D01*
X138078129Y-109055111D01*
X137951466Y-109195785D01*
X137856821Y-109359715D01*
X137856817Y-109359725D01*
X137838645Y-109415651D01*
X137808396Y-109465012D01*
X135999270Y-111274139D01*
X135912144Y-111361264D01*
X135912138Y-111361272D01*
X135843690Y-111463708D01*
X135843688Y-111463713D01*
X135796540Y-111577538D01*
X135796535Y-111577554D01*
X135779966Y-111660857D01*
X135779966Y-111660858D01*
X135772500Y-111698391D01*
X135772500Y-114497547D01*
X135752815Y-114564586D01*
X135736181Y-114585228D01*
X134672229Y-115649181D01*
X134610906Y-115682666D01*
X134584548Y-115685500D01*
X134525354Y-115685500D01*
X134492897Y-115692398D01*
X134340197Y-115724855D01*
X134340192Y-115724857D01*
X134167270Y-115801848D01*
X134167265Y-115801851D01*
X134014129Y-115913111D01*
X133887466Y-116053785D01*
X133792821Y-116217715D01*
X133792818Y-116217722D01*
X133759567Y-116320060D01*
X133734326Y-116397744D01*
X133714540Y-116586000D01*
X73660000Y-116586000D01*
X73660000Y-106777998D01*
X85218891Y-106777998D01*
X85218891Y-106778001D01*
X85239300Y-107063362D01*
X85300109Y-107342895D01*
X85400091Y-107610958D01*
X85537191Y-107862038D01*
X85537196Y-107862046D01*
X85643882Y-108004561D01*
X85643883Y-108004562D01*
X86546421Y-107102024D01*
X86559359Y-107133258D01*
X86641437Y-107256097D01*
X86745903Y-107360563D01*
X86868742Y-107442641D01*
X86899974Y-107455578D01*
X85997436Y-108358115D01*
X86139960Y-108464807D01*
X86139961Y-108464808D01*
X86391042Y-108601908D01*
X86391041Y-108601908D01*
X86659104Y-108701890D01*
X86938637Y-108762699D01*
X87223999Y-108783109D01*
X87224001Y-108783109D01*
X87509362Y-108762699D01*
X87788895Y-108701890D01*
X88056958Y-108601908D01*
X88308047Y-108464803D01*
X88450561Y-108358116D01*
X88450562Y-108358115D01*
X87548025Y-107455577D01*
X87579258Y-107442641D01*
X87702097Y-107360563D01*
X87806563Y-107256097D01*
X87888641Y-107133258D01*
X87901578Y-107102025D01*
X88804115Y-108004562D01*
X88804116Y-108004561D01*
X88910803Y-107862047D01*
X89047908Y-107610957D01*
X89047910Y-107610953D01*
X89117121Y-107425391D01*
X89158992Y-107369457D01*
X89224457Y-107345040D01*
X89292730Y-107359892D01*
X89342135Y-107409297D01*
X89343787Y-107412428D01*
X89354474Y-107433402D01*
X89354476Y-107433405D01*
X89470172Y-107592646D01*
X89609354Y-107731828D01*
X89768595Y-107847524D01*
X89851455Y-107889743D01*
X89943970Y-107936882D01*
X89943972Y-107936882D01*
X89943975Y-107936884D01*
X90044317Y-107969487D01*
X90131173Y-107997709D01*
X90325578Y-108028500D01*
X90325583Y-108028500D01*
X90522422Y-108028500D01*
X90716826Y-107997709D01*
X90904025Y-107936884D01*
X91079405Y-107847524D01*
X91238646Y-107731828D01*
X91377828Y-107592646D01*
X91493524Y-107433405D01*
X91582884Y-107258025D01*
X91643709Y-107070826D01*
X91655439Y-106996767D01*
X91674500Y-106876422D01*
X91674500Y-106679577D01*
X91643709Y-106485173D01*
X91605814Y-106368546D01*
X91582884Y-106297975D01*
X91582882Y-106297972D01*
X91582882Y-106297970D01*
X91527166Y-106188622D01*
X91493524Y-106122595D01*
X91377828Y-105963354D01*
X91238646Y-105824172D01*
X91079405Y-105708476D01*
X91050370Y-105693682D01*
X90904029Y-105619117D01*
X90716826Y-105558290D01*
X90522422Y-105527500D01*
X90522417Y-105527500D01*
X90325583Y-105527500D01*
X90325578Y-105527500D01*
X90131173Y-105558290D01*
X89943970Y-105619117D01*
X89768594Y-105708476D01*
X89677741Y-105774485D01*
X89609354Y-105824172D01*
X89609352Y-105824174D01*
X89609351Y-105824174D01*
X89470174Y-105963351D01*
X89470174Y-105963352D01*
X89470172Y-105963354D01*
X89431093Y-106017142D01*
X89354474Y-106122597D01*
X89343786Y-106143573D01*
X89295811Y-106194367D01*
X89227989Y-106211161D01*
X89161855Y-106188622D01*
X89118405Y-106133906D01*
X89117121Y-106130608D01*
X89047910Y-105945046D01*
X89047908Y-105945042D01*
X88910808Y-105693961D01*
X88910807Y-105693960D01*
X88804115Y-105551436D01*
X87901577Y-106453973D01*
X87888641Y-106422742D01*
X87806563Y-106299903D01*
X87702097Y-106195437D01*
X87579258Y-106113359D01*
X87548024Y-106100421D01*
X88450562Y-105197883D01*
X88450561Y-105197882D01*
X88308046Y-105091196D01*
X88308038Y-105091191D01*
X88056957Y-104954091D01*
X88056958Y-104954091D01*
X87788895Y-104854109D01*
X87509362Y-104793300D01*
X87224001Y-104772891D01*
X87223999Y-104772891D01*
X86938637Y-104793300D01*
X86659104Y-104854109D01*
X86391041Y-104954091D01*
X86139961Y-105091191D01*
X86139953Y-105091196D01*
X85997437Y-105197882D01*
X85997436Y-105197883D01*
X86899975Y-106100421D01*
X86868742Y-106113359D01*
X86745903Y-106195437D01*
X86641437Y-106299903D01*
X86559359Y-106422742D01*
X86546421Y-106453974D01*
X85643883Y-105551436D01*
X85643882Y-105551437D01*
X85537196Y-105693953D01*
X85537191Y-105693961D01*
X85400091Y-105945041D01*
X85300109Y-106213104D01*
X85239300Y-106492637D01*
X85218891Y-106777998D01*
X73660000Y-106777998D01*
X73660000Y-104533258D01*
X95023500Y-104533258D01*
X95023500Y-104762741D01*
X95048446Y-104952215D01*
X95053452Y-104990238D01*
X95092414Y-105135649D01*
X95112842Y-105211887D01*
X95200650Y-105423876D01*
X95200657Y-105423890D01*
X95315392Y-105622617D01*
X95455081Y-105804661D01*
X95455089Y-105804670D01*
X95617330Y-105966911D01*
X95617338Y-105966918D01*
X95799382Y-106106607D01*
X95799385Y-106106608D01*
X95799388Y-106106611D01*
X95998112Y-106221344D01*
X95998117Y-106221346D01*
X95998123Y-106221349D01*
X96089480Y-106259190D01*
X96210113Y-106309158D01*
X96431762Y-106368548D01*
X96659266Y-106398500D01*
X96659273Y-106398500D01*
X96888727Y-106398500D01*
X96888734Y-106398500D01*
X97116238Y-106368548D01*
X97337887Y-106309158D01*
X97549888Y-106221344D01*
X97748612Y-106106611D01*
X97813282Y-106056987D01*
X97878447Y-106031794D01*
X97946892Y-106045831D01*
X97996882Y-106094645D01*
X98012547Y-106162736D01*
X98004950Y-106198692D01*
X97999629Y-106212959D01*
X97938804Y-106492566D01*
X97918390Y-106777998D01*
X97918390Y-106778001D01*
X97938804Y-107063433D01*
X97999628Y-107343037D01*
X97999630Y-107343043D01*
X97999631Y-107343046D01*
X98099557Y-107610957D01*
X98099635Y-107611166D01*
X98236770Y-107862309D01*
X98236775Y-107862317D01*
X98408254Y-108091387D01*
X98408270Y-108091405D01*
X98610594Y-108293729D01*
X98610612Y-108293745D01*
X98839682Y-108465224D01*
X98839690Y-108465229D01*
X99090833Y-108602364D01*
X99090832Y-108602364D01*
X99090836Y-108602365D01*
X99090839Y-108602367D01*
X99358954Y-108702369D01*
X99358960Y-108702370D01*
X99358962Y-108702371D01*
X99638566Y-108763195D01*
X99638568Y-108763195D01*
X99638572Y-108763196D01*
X99892220Y-108781337D01*
X99923999Y-108783610D01*
X99924000Y-108783610D01*
X99924001Y-108783610D01*
X99952595Y-108781564D01*
X100209428Y-108763196D01*
X100489046Y-108702369D01*
X100757161Y-108602367D01*
X101008315Y-108465226D01*
X101237395Y-108293739D01*
X101439739Y-108091395D01*
X101611226Y-107862315D01*
X101748367Y-107611161D01*
X101848369Y-107343046D01*
X101893904Y-107133723D01*
X101909195Y-107063433D01*
X101909195Y-107063432D01*
X101909196Y-107063428D01*
X101929610Y-106778000D01*
X101909196Y-106492572D01*
X101907586Y-106485173D01*
X101848371Y-106212962D01*
X101848370Y-106212959D01*
X101848369Y-106212954D01*
X101748367Y-105944839D01*
X101721617Y-105895851D01*
X101611229Y-105693690D01*
X101611224Y-105693682D01*
X101439745Y-105464612D01*
X101439729Y-105464594D01*
X101237405Y-105262270D01*
X101237387Y-105262254D01*
X101095448Y-105156000D01*
X122030540Y-105156000D01*
X122050326Y-105344256D01*
X122050327Y-105344259D01*
X122108818Y-105524277D01*
X122108821Y-105524284D01*
X122203467Y-105688216D01*
X122330129Y-105828888D01*
X122483265Y-105940148D01*
X122483270Y-105940151D01*
X122656192Y-106017142D01*
X122656197Y-106017144D01*
X122841354Y-106056500D01*
X122900548Y-106056500D01*
X122967587Y-106076185D01*
X122988229Y-106092819D01*
X124061262Y-107165854D01*
X124061265Y-107165857D01*
X124097398Y-107190000D01*
X124163714Y-107234311D01*
X124277548Y-107281463D01*
X124398388Y-107305499D01*
X124398392Y-107305500D01*
X124398393Y-107305500D01*
X124398394Y-107305500D01*
X130868252Y-107305500D01*
X130935291Y-107325185D01*
X130960400Y-107346526D01*
X130966126Y-107352885D01*
X130966130Y-107352889D01*
X131119265Y-107464148D01*
X131119270Y-107464151D01*
X131292192Y-107541142D01*
X131292197Y-107541144D01*
X131477354Y-107580500D01*
X131477355Y-107580500D01*
X131666644Y-107580500D01*
X131666646Y-107580500D01*
X131851803Y-107541144D01*
X132024730Y-107464151D01*
X132177871Y-107352888D01*
X132304533Y-107212216D01*
X132399179Y-107048284D01*
X132457674Y-106868256D01*
X132477460Y-106680000D01*
X148700540Y-106680000D01*
X148720326Y-106868256D01*
X148720327Y-106868259D01*
X148778818Y-107048277D01*
X148778821Y-107048284D01*
X148873467Y-107212216D01*
X148974302Y-107324204D01*
X149000129Y-107352888D01*
X149153265Y-107464148D01*
X149153270Y-107464151D01*
X149326192Y-107541142D01*
X149326197Y-107541144D01*
X149511354Y-107580500D01*
X149511355Y-107580500D01*
X149700644Y-107580500D01*
X149700646Y-107580500D01*
X149885803Y-107541144D01*
X150058730Y-107464151D01*
X150211871Y-107352888D01*
X150214788Y-107349647D01*
X150217600Y-107346526D01*
X150277087Y-107309879D01*
X150309748Y-107305500D01*
X151073548Y-107305500D01*
X151140587Y-107325185D01*
X151161229Y-107341819D01*
X152477038Y-108657628D01*
X152510523Y-108718951D01*
X152512678Y-108732347D01*
X152518014Y-108783109D01*
X152530326Y-108900256D01*
X152530327Y-108900259D01*
X152588818Y-109080277D01*
X152588821Y-109080284D01*
X152683467Y-109244216D01*
X152787472Y-109359725D01*
X152810129Y-109384888D01*
X152963265Y-109496148D01*
X152963270Y-109496151D01*
X153136192Y-109573142D01*
X153136197Y-109573144D01*
X153321354Y-109612500D01*
X153321355Y-109612500D01*
X153510644Y-109612500D01*
X153510646Y-109612500D01*
X153695803Y-109573144D01*
X153868730Y-109496151D01*
X154021871Y-109384888D01*
X154148533Y-109244216D01*
X154243179Y-109080284D01*
X154301674Y-108900256D01*
X154321460Y-108712000D01*
X154301674Y-108523744D01*
X154243179Y-108343716D01*
X154148533Y-108179784D01*
X154021871Y-108039112D01*
X153974317Y-108004562D01*
X153868734Y-107927851D01*
X153868729Y-107927848D01*
X153695807Y-107850857D01*
X153695802Y-107850855D01*
X153550001Y-107819865D01*
X153510646Y-107811500D01*
X153510645Y-107811500D01*
X153451452Y-107811500D01*
X153384413Y-107791815D01*
X153363771Y-107775181D01*
X152778590Y-107190000D01*
X198879157Y-107190000D01*
X199733012Y-107190000D01*
X199715795Y-107199940D01*
X199659940Y-107255795D01*
X199620444Y-107324204D01*
X199600000Y-107400504D01*
X199600000Y-107479496D01*
X199620444Y-107555796D01*
X199659940Y-107624205D01*
X199715795Y-107680060D01*
X199733012Y-107690000D01*
X198879157Y-107690000D01*
X198890350Y-107746274D01*
X198890351Y-107746276D01*
X198969500Y-107937358D01*
X198969505Y-107937368D01*
X199084410Y-108109335D01*
X199084413Y-108109339D01*
X199230660Y-108255586D01*
X199230664Y-108255589D01*
X199402631Y-108370494D01*
X199402641Y-108370499D01*
X199593725Y-108449649D01*
X199593733Y-108449651D01*
X199796579Y-108489999D01*
X199796583Y-108490000D01*
X199950000Y-108490000D01*
X199950000Y-107740000D01*
X200450000Y-107740000D01*
X200450000Y-108490000D01*
X200603417Y-108490000D01*
X200603420Y-108489999D01*
X200806266Y-108449651D01*
X200806274Y-108449649D01*
X200997358Y-108370499D01*
X200997368Y-108370494D01*
X201169335Y-108255589D01*
X201169339Y-108255586D01*
X201315586Y-108109339D01*
X201315589Y-108109335D01*
X201430494Y-107937368D01*
X201430499Y-107937358D01*
X201509648Y-107746276D01*
X201509649Y-107746274D01*
X201520843Y-107690000D01*
X200666988Y-107690000D01*
X200684205Y-107680060D01*
X200740060Y-107624205D01*
X200779556Y-107555796D01*
X200800000Y-107479496D01*
X200800000Y-107400504D01*
X200779556Y-107324204D01*
X200740060Y-107255795D01*
X200684205Y-107199940D01*
X200666988Y-107190000D01*
X201520843Y-107190000D01*
X202679157Y-107190000D01*
X203533012Y-107190000D01*
X203515795Y-107199940D01*
X203459940Y-107255795D01*
X203420444Y-107324204D01*
X203400000Y-107400504D01*
X203400000Y-107479496D01*
X203420444Y-107555796D01*
X203459940Y-107624205D01*
X203515795Y-107680060D01*
X203533012Y-107690000D01*
X202679157Y-107690000D01*
X202690350Y-107746274D01*
X202690351Y-107746276D01*
X202769500Y-107937358D01*
X202769505Y-107937368D01*
X202884410Y-108109335D01*
X202884413Y-108109339D01*
X203030660Y-108255586D01*
X203030664Y-108255589D01*
X203202631Y-108370494D01*
X203202641Y-108370499D01*
X203393725Y-108449649D01*
X203393733Y-108449651D01*
X203596579Y-108489999D01*
X203596583Y-108490000D01*
X203750000Y-108490000D01*
X203750000Y-107740000D01*
X204250000Y-107740000D01*
X204250000Y-108490000D01*
X204403417Y-108490000D01*
X204403420Y-108489999D01*
X204606266Y-108449651D01*
X204606274Y-108449649D01*
X204797358Y-108370499D01*
X204797368Y-108370494D01*
X204969335Y-108255589D01*
X204969339Y-108255586D01*
X205115586Y-108109339D01*
X205115589Y-108109335D01*
X205230494Y-107937368D01*
X205230499Y-107937358D01*
X205309648Y-107746276D01*
X205309649Y-107746274D01*
X205320843Y-107690000D01*
X204466988Y-107690000D01*
X204484205Y-107680060D01*
X204540060Y-107624205D01*
X204579556Y-107555796D01*
X204600000Y-107479496D01*
X204600000Y-107400504D01*
X204579556Y-107324204D01*
X204540060Y-107255795D01*
X204484205Y-107199940D01*
X204466988Y-107190000D01*
X205320843Y-107190000D01*
X205309649Y-107133725D01*
X205309648Y-107133723D01*
X205230499Y-106942641D01*
X205230494Y-106942631D01*
X205115589Y-106770664D01*
X205115586Y-106770660D01*
X204969339Y-106624413D01*
X204969335Y-106624410D01*
X204797368Y-106509505D01*
X204797358Y-106509500D01*
X204606274Y-106430350D01*
X204606266Y-106430348D01*
X204403420Y-106390000D01*
X204250000Y-106390000D01*
X204250000Y-107140000D01*
X203750000Y-107140000D01*
X203750000Y-106390000D01*
X203596579Y-106390000D01*
X203393733Y-106430348D01*
X203393725Y-106430350D01*
X203202641Y-106509500D01*
X203202631Y-106509505D01*
X203030664Y-106624410D01*
X203030660Y-106624413D01*
X202884413Y-106770660D01*
X202884410Y-106770664D01*
X202769505Y-106942631D01*
X202769500Y-106942641D01*
X202690351Y-107133723D01*
X202690350Y-107133725D01*
X202679157Y-107190000D01*
X201520843Y-107190000D01*
X201509649Y-107133725D01*
X201509648Y-107133723D01*
X201430499Y-106942641D01*
X201430494Y-106942631D01*
X201315589Y-106770664D01*
X201315586Y-106770660D01*
X201169339Y-106624413D01*
X201169335Y-106624410D01*
X200997368Y-106509505D01*
X200997358Y-106509500D01*
X200806274Y-106430350D01*
X200806266Y-106430348D01*
X200603420Y-106390000D01*
X200450000Y-106390000D01*
X200450000Y-107140000D01*
X199950000Y-107140000D01*
X199950000Y-106390000D01*
X199796579Y-106390000D01*
X199593733Y-106430348D01*
X199593725Y-106430350D01*
X199402641Y-106509500D01*
X199402631Y-106509505D01*
X199230664Y-106624410D01*
X199230660Y-106624413D01*
X199084413Y-106770660D01*
X199084410Y-106770664D01*
X198969505Y-106942631D01*
X198969500Y-106942641D01*
X198890351Y-107133723D01*
X198890350Y-107133725D01*
X198879157Y-107190000D01*
X152778590Y-107190000D01*
X151874198Y-106285608D01*
X151874178Y-106285586D01*
X151782733Y-106194141D01*
X151731509Y-106159915D01*
X151680286Y-106125688D01*
X151680283Y-106125686D01*
X151680280Y-106125685D01*
X151599792Y-106092347D01*
X151566453Y-106078537D01*
X151554628Y-106076185D01*
X151506029Y-106066518D01*
X151445610Y-106054500D01*
X151445607Y-106054500D01*
X151445606Y-106054500D01*
X150309748Y-106054500D01*
X150242709Y-106034815D01*
X150217600Y-106013474D01*
X150211873Y-106007114D01*
X150211869Y-106007110D01*
X150058734Y-105895851D01*
X150058729Y-105895848D01*
X149885807Y-105818857D01*
X149885802Y-105818855D01*
X149740001Y-105787865D01*
X149700646Y-105779500D01*
X149511354Y-105779500D01*
X149478897Y-105786398D01*
X149326197Y-105818855D01*
X149326192Y-105818857D01*
X149153270Y-105895848D01*
X149153265Y-105895851D01*
X149000129Y-106007111D01*
X148873466Y-106147785D01*
X148778821Y-106311715D01*
X148778818Y-106311722D01*
X148720327Y-106491740D01*
X148720326Y-106491744D01*
X148700540Y-106680000D01*
X132477460Y-106680000D01*
X132457674Y-106491744D01*
X132399179Y-106311716D01*
X132304533Y-106147784D01*
X132177871Y-106007112D01*
X132177870Y-106007111D01*
X132024734Y-105895851D01*
X132024729Y-105895848D01*
X131851807Y-105818857D01*
X131851802Y-105818855D01*
X131706001Y-105787865D01*
X131666646Y-105779500D01*
X131477354Y-105779500D01*
X131444897Y-105786398D01*
X131292197Y-105818855D01*
X131292192Y-105818857D01*
X131119270Y-105895848D01*
X131119265Y-105895851D01*
X130966130Y-106007110D01*
X130966126Y-106007114D01*
X130960400Y-106013474D01*
X130900913Y-106050121D01*
X130868252Y-106054500D01*
X124770453Y-106054500D01*
X124703414Y-106034815D01*
X124682772Y-106018181D01*
X123874960Y-105210369D01*
X123841475Y-105149046D01*
X123839323Y-105135668D01*
X123821674Y-104967744D01*
X123763179Y-104787716D01*
X123668533Y-104623784D01*
X123541871Y-104483112D01*
X123541870Y-104483111D01*
X123388734Y-104371851D01*
X123388729Y-104371848D01*
X123215807Y-104294857D01*
X123215802Y-104294855D01*
X123070001Y-104263865D01*
X123030646Y-104255500D01*
X122841354Y-104255500D01*
X122808897Y-104262398D01*
X122656197Y-104294855D01*
X122656192Y-104294857D01*
X122483270Y-104371848D01*
X122483265Y-104371851D01*
X122330129Y-104483111D01*
X122203466Y-104623785D01*
X122108821Y-104787715D01*
X122108818Y-104787722D01*
X122087248Y-104854109D01*
X122050326Y-104967744D01*
X122030540Y-105156000D01*
X101095448Y-105156000D01*
X101008317Y-105090775D01*
X101008309Y-105090770D01*
X100757166Y-104953635D01*
X100757167Y-104953635D01*
X100649915Y-104913632D01*
X100489046Y-104853631D01*
X100489043Y-104853630D01*
X100489037Y-104853628D01*
X100209433Y-104792804D01*
X99924001Y-104772390D01*
X99923999Y-104772390D01*
X99638566Y-104792804D01*
X99358962Y-104853628D01*
X99090833Y-104953635D01*
X98839690Y-105090770D01*
X98661063Y-105224488D01*
X98595598Y-105248904D01*
X98527326Y-105234052D01*
X98477920Y-105184646D01*
X98463069Y-105116373D01*
X98466975Y-105093141D01*
X98494548Y-104990238D01*
X98524500Y-104762734D01*
X98524500Y-104533266D01*
X98494548Y-104305762D01*
X98435158Y-104084113D01*
X98347344Y-103872112D01*
X98232611Y-103673388D01*
X98232608Y-103673385D01*
X98232607Y-103673382D01*
X98092918Y-103491338D01*
X98092911Y-103491330D01*
X97930670Y-103329089D01*
X97930661Y-103329081D01*
X97748617Y-103189392D01*
X97549890Y-103074657D01*
X97549876Y-103074650D01*
X97337887Y-102986842D01*
X97116238Y-102927452D01*
X97078215Y-102922446D01*
X96888741Y-102897500D01*
X96888734Y-102897500D01*
X96659266Y-102897500D01*
X96659258Y-102897500D01*
X96442715Y-102926009D01*
X96431762Y-102927452D01*
X96338076Y-102952554D01*
X96210112Y-102986842D01*
X95998123Y-103074650D01*
X95998109Y-103074657D01*
X95799382Y-103189392D01*
X95617338Y-103329081D01*
X95455081Y-103491338D01*
X95315392Y-103673382D01*
X95200657Y-103872109D01*
X95200650Y-103872123D01*
X95112842Y-104084112D01*
X95112842Y-104084113D01*
X95056375Y-104294855D01*
X95053453Y-104305759D01*
X95053451Y-104305770D01*
X95023500Y-104533258D01*
X73660000Y-104533258D01*
X73660000Y-97743993D01*
X130460700Y-97743993D01*
X130460700Y-97744006D01*
X130479864Y-97975297D01*
X130479866Y-97975308D01*
X130536842Y-98200300D01*
X130630075Y-98412848D01*
X130757016Y-98607147D01*
X130757019Y-98607151D01*
X130757021Y-98607153D01*
X130914216Y-98777913D01*
X130914219Y-98777915D01*
X130914222Y-98777918D01*
X131097365Y-98920464D01*
X131097371Y-98920468D01*
X131097374Y-98920470D01*
X131170419Y-98960000D01*
X131296947Y-99028474D01*
X131301497Y-99030936D01*
X131381762Y-99058491D01*
X131521015Y-99106297D01*
X131521017Y-99106297D01*
X131521019Y-99106298D01*
X131749951Y-99144500D01*
X131749952Y-99144500D01*
X131982048Y-99144500D01*
X131982049Y-99144500D01*
X132210981Y-99106298D01*
X132430503Y-99030936D01*
X132634626Y-98920470D01*
X132817784Y-98777913D01*
X132974979Y-98607153D01*
X133012191Y-98550196D01*
X133065337Y-98504839D01*
X133134569Y-98495415D01*
X133197904Y-98524917D01*
X133219809Y-98550196D01*
X133257016Y-98607147D01*
X133257019Y-98607151D01*
X133257021Y-98607153D01*
X133414216Y-98777913D01*
X133414219Y-98777915D01*
X133414222Y-98777918D01*
X133597365Y-98920464D01*
X133597371Y-98920468D01*
X133597374Y-98920470D01*
X133670419Y-98960000D01*
X133796947Y-99028474D01*
X133801497Y-99030936D01*
X133881762Y-99058491D01*
X134021015Y-99106297D01*
X134021017Y-99106297D01*
X134021019Y-99106298D01*
X134249951Y-99144500D01*
X134249952Y-99144500D01*
X134482048Y-99144500D01*
X134482049Y-99144500D01*
X134710981Y-99106298D01*
X134930503Y-99030936D01*
X135134626Y-98920470D01*
X135317784Y-98777913D01*
X135474979Y-98607153D01*
X135512191Y-98550196D01*
X135565337Y-98504839D01*
X135634569Y-98495415D01*
X135697904Y-98524917D01*
X135719809Y-98550196D01*
X135757016Y-98607147D01*
X135757019Y-98607151D01*
X135757021Y-98607153D01*
X135914216Y-98777913D01*
X135914219Y-98777915D01*
X135914222Y-98777918D01*
X136097365Y-98920464D01*
X136097371Y-98920468D01*
X136097374Y-98920470D01*
X136170419Y-98960000D01*
X136296947Y-99028474D01*
X136301497Y-99030936D01*
X136381762Y-99058491D01*
X136521015Y-99106297D01*
X136521017Y-99106297D01*
X136521019Y-99106298D01*
X136749951Y-99144500D01*
X136749952Y-99144500D01*
X136982048Y-99144500D01*
X136982049Y-99144500D01*
X137210981Y-99106298D01*
X137430503Y-99030936D01*
X137634626Y-98920470D01*
X137817784Y-98777913D01*
X137948016Y-98636443D01*
X186385868Y-98636443D01*
X186385868Y-98859292D01*
X186414954Y-99080230D01*
X186472635Y-99295495D01*
X186557907Y-99501363D01*
X186557912Y-99501372D01*
X186669337Y-99694363D01*
X186669343Y-99694372D01*
X186804995Y-99871158D01*
X186919142Y-99985304D01*
X187435426Y-99469020D01*
X187521249Y-99597463D01*
X187660537Y-99736751D01*
X187788978Y-99822573D01*
X187272695Y-100338857D01*
X187386838Y-100453001D01*
X187563625Y-100588656D01*
X187563642Y-100588667D01*
X187756625Y-100700086D01*
X187756639Y-100700093D01*
X187962505Y-100785364D01*
X188177769Y-100843045D01*
X188398707Y-100872132D01*
X188621557Y-100872132D01*
X188842494Y-100843045D01*
X189057759Y-100785364D01*
X189263624Y-100700093D01*
X189263638Y-100700086D01*
X189456621Y-100588667D01*
X189456638Y-100588656D01*
X189633425Y-100453001D01*
X189633434Y-100452994D01*
X189790994Y-100295434D01*
X189791001Y-100295425D01*
X189926656Y-100118638D01*
X189926664Y-100118626D01*
X189968955Y-100045376D01*
X190019522Y-99997160D01*
X190088129Y-99983936D01*
X190152994Y-100009904D01*
X190193523Y-100066818D01*
X190196848Y-100136608D01*
X190190905Y-100154827D01*
X190172158Y-100200087D01*
X190146613Y-100295425D01*
X190114464Y-100415406D01*
X190085367Y-100636404D01*
X190085367Y-100859331D01*
X190105510Y-101012319D01*
X190114464Y-101080331D01*
X190168928Y-101283595D01*
X190172158Y-101295648D01*
X190172161Y-101295658D01*
X190257461Y-101501590D01*
X190257463Y-101501594D01*
X190368920Y-101694642D01*
X190368925Y-101694648D01*
X190368926Y-101694650D01*
X190504619Y-101871489D01*
X190504625Y-101871496D01*
X191086503Y-102453374D01*
X191086509Y-102453379D01*
X191263358Y-102589080D01*
X191456406Y-102700537D01*
X191662351Y-102785842D01*
X191877669Y-102843536D01*
X192098676Y-102872633D01*
X192098683Y-102872633D01*
X192321581Y-102872633D01*
X192321588Y-102872633D01*
X192542595Y-102843536D01*
X192757913Y-102785842D01*
X192963858Y-102700537D01*
X193156906Y-102589080D01*
X193333755Y-102453379D01*
X193491379Y-102295755D01*
X193627080Y-102118906D01*
X193738537Y-101925858D01*
X193823842Y-101719913D01*
X193881536Y-101504595D01*
X193910633Y-101283588D01*
X193910633Y-101060676D01*
X193904266Y-101012317D01*
X193915031Y-100943283D01*
X193961410Y-100891027D01*
X194027205Y-100872132D01*
X194121557Y-100872132D01*
X194342494Y-100843045D01*
X194557759Y-100785364D01*
X194763624Y-100700093D01*
X194763638Y-100700086D01*
X194956621Y-100588667D01*
X194956638Y-100588656D01*
X195133425Y-100453001D01*
X195133434Y-100452994D01*
X195290994Y-100295434D01*
X195291001Y-100295425D01*
X195426656Y-100118638D01*
X195426664Y-100118626D01*
X195468955Y-100045376D01*
X195519522Y-99997160D01*
X195588129Y-99983936D01*
X195652994Y-100009904D01*
X195693523Y-100066818D01*
X195696848Y-100136608D01*
X195690905Y-100154827D01*
X195672158Y-100200087D01*
X195646613Y-100295425D01*
X195614464Y-100415406D01*
X195585367Y-100636404D01*
X195585367Y-100859331D01*
X195605510Y-101012319D01*
X195614464Y-101080331D01*
X195668928Y-101283595D01*
X195672158Y-101295648D01*
X195672161Y-101295658D01*
X195757461Y-101501590D01*
X195757463Y-101501594D01*
X195868920Y-101694642D01*
X195868925Y-101694648D01*
X195868926Y-101694650D01*
X196004619Y-101871489D01*
X196004625Y-101871496D01*
X196586503Y-102453374D01*
X196586509Y-102453379D01*
X196763358Y-102589080D01*
X196956406Y-102700537D01*
X197162351Y-102785842D01*
X197377669Y-102843536D01*
X197598676Y-102872633D01*
X197598683Y-102872633D01*
X197821581Y-102872633D01*
X197821588Y-102872633D01*
X198042595Y-102843536D01*
X198257913Y-102785842D01*
X198463858Y-102700537D01*
X198656906Y-102589080D01*
X198833755Y-102453379D01*
X198991379Y-102295755D01*
X199127080Y-102118906D01*
X199238537Y-101925858D01*
X199323842Y-101719913D01*
X199381536Y-101504595D01*
X199410633Y-101283588D01*
X199410633Y-101060676D01*
X199391570Y-100915884D01*
X199402335Y-100846851D01*
X199448715Y-100794595D01*
X199515984Y-100775709D01*
X199558536Y-100784436D01*
X199558664Y-100784061D01*
X199561652Y-100785075D01*
X199561963Y-100785139D01*
X199562511Y-100785366D01*
X199777769Y-100843045D01*
X199998707Y-100872132D01*
X200221557Y-100872132D01*
X200442494Y-100843045D01*
X200657759Y-100785364D01*
X200863624Y-100700093D01*
X200863638Y-100700086D01*
X201056624Y-100588665D01*
X201122535Y-100538089D01*
X201122535Y-100538088D01*
X200407020Y-99822573D01*
X200535463Y-99736751D01*
X200674751Y-99597463D01*
X200760573Y-99469020D01*
X201476088Y-100184536D01*
X201476089Y-100184535D01*
X201526662Y-100118629D01*
X201638086Y-99925638D01*
X201638093Y-99925624D01*
X201723364Y-99719759D01*
X201781045Y-99504494D01*
X201810132Y-99283556D01*
X201810132Y-99060707D01*
X201781045Y-98839769D01*
X201723364Y-98624505D01*
X201638093Y-98418639D01*
X201638086Y-98418625D01*
X201526667Y-98225642D01*
X201526656Y-98225625D01*
X201391001Y-98048838D01*
X201276857Y-97934695D01*
X200760573Y-98450979D01*
X200674751Y-98322537D01*
X200535463Y-98183249D01*
X200407020Y-98097425D01*
X200923304Y-97581141D01*
X200809158Y-97466995D01*
X200632372Y-97331343D01*
X200632363Y-97331337D01*
X200439372Y-97219912D01*
X200439363Y-97219907D01*
X200233495Y-97134635D01*
X200018230Y-97076954D01*
X199797293Y-97047868D01*
X199574443Y-97047868D01*
X199353505Y-97076954D01*
X199138240Y-97134635D01*
X198932372Y-97219907D01*
X198932363Y-97219912D01*
X198739372Y-97331337D01*
X198673463Y-97381909D01*
X198673463Y-97381910D01*
X199388979Y-98097426D01*
X199260537Y-98183249D01*
X199121249Y-98322537D01*
X199035426Y-98450979D01*
X198319910Y-97735463D01*
X198319909Y-97735463D01*
X198269337Y-97801372D01*
X198157912Y-97994363D01*
X198157907Y-97994372D01*
X198072635Y-98200240D01*
X198014954Y-98415505D01*
X197985868Y-98636443D01*
X197985868Y-98859292D01*
X198004887Y-99003762D01*
X197994121Y-99072798D01*
X197947741Y-99125053D01*
X197880472Y-99143938D01*
X197837610Y-99135147D01*
X197837502Y-99135466D01*
X197834963Y-99134604D01*
X197834498Y-99134509D01*
X197833663Y-99134163D01*
X197833653Y-99134159D01*
X197833649Y-99134158D01*
X197618331Y-99076464D01*
X197569218Y-99069998D01*
X197397331Y-99047367D01*
X197397324Y-99047367D01*
X197174412Y-99047367D01*
X197174404Y-99047367D01*
X196981250Y-99072798D01*
X196953405Y-99076464D01*
X196738087Y-99134158D01*
X196738077Y-99134161D01*
X196532145Y-99219461D01*
X196532141Y-99219463D01*
X196339094Y-99330920D01*
X196339085Y-99330926D01*
X196162246Y-99466619D01*
X196162239Y-99466625D01*
X196004625Y-99624239D01*
X196004619Y-99624246D01*
X195868926Y-99801085D01*
X195868920Y-99801094D01*
X195826592Y-99874408D01*
X195776024Y-99922623D01*
X195707417Y-99935845D01*
X195642553Y-99909877D01*
X195602025Y-99852963D01*
X195598701Y-99783172D01*
X195604644Y-99764954D01*
X195623365Y-99719756D01*
X195681045Y-99504494D01*
X195710132Y-99283556D01*
X195710132Y-99060707D01*
X195681045Y-98839769D01*
X195623364Y-98624505D01*
X195538093Y-98418639D01*
X195538086Y-98418625D01*
X195426667Y-98225642D01*
X195426656Y-98225625D01*
X195291001Y-98048838D01*
X195176857Y-97934695D01*
X194660573Y-98450978D01*
X194574751Y-98322537D01*
X194435463Y-98183249D01*
X194307020Y-98097426D01*
X194823304Y-97581142D01*
X194823304Y-97581140D01*
X194709166Y-97467002D01*
X194709159Y-97466996D01*
X194532372Y-97331343D01*
X194532363Y-97331337D01*
X194339372Y-97219912D01*
X194339363Y-97219907D01*
X194133495Y-97134635D01*
X193918230Y-97076954D01*
X193697293Y-97047868D01*
X193474443Y-97047868D01*
X193253505Y-97076954D01*
X193038240Y-97134635D01*
X192832372Y-97219907D01*
X192832363Y-97219912D01*
X192639372Y-97331337D01*
X192573463Y-97381909D01*
X192573463Y-97381910D01*
X193288979Y-98097426D01*
X193160537Y-98183249D01*
X193021249Y-98322537D01*
X192935426Y-98450979D01*
X192219910Y-97735463D01*
X192219909Y-97735463D01*
X192169337Y-97801372D01*
X192057912Y-97994363D01*
X192057907Y-97994372D01*
X191972635Y-98200240D01*
X191914954Y-98415505D01*
X191885868Y-98636443D01*
X191885868Y-98859294D01*
X191892172Y-98907183D01*
X191881406Y-98976219D01*
X191835025Y-99028474D01*
X191769233Y-99047367D01*
X191674404Y-99047367D01*
X191481250Y-99072798D01*
X191453405Y-99076464D01*
X191238087Y-99134158D01*
X191238077Y-99134161D01*
X191032145Y-99219461D01*
X191032141Y-99219463D01*
X190839094Y-99330920D01*
X190839085Y-99330926D01*
X190662246Y-99466619D01*
X190662239Y-99466625D01*
X190504625Y-99624239D01*
X190504619Y-99624246D01*
X190368926Y-99801085D01*
X190368920Y-99801094D01*
X190326592Y-99874408D01*
X190276024Y-99922623D01*
X190207417Y-99935845D01*
X190142553Y-99909877D01*
X190102025Y-99852963D01*
X190098701Y-99783172D01*
X190104644Y-99764954D01*
X190123365Y-99719756D01*
X190181045Y-99504494D01*
X190210132Y-99283556D01*
X190210132Y-99060707D01*
X190181045Y-98839769D01*
X190123364Y-98624505D01*
X190038093Y-98418639D01*
X190038086Y-98418625D01*
X189926667Y-98225642D01*
X189926656Y-98225625D01*
X189791001Y-98048838D01*
X189676857Y-97934695D01*
X189160573Y-98450978D01*
X189074751Y-98322537D01*
X188935463Y-98183249D01*
X188807020Y-98097426D01*
X189323304Y-97581142D01*
X189323304Y-97581140D01*
X189209166Y-97467002D01*
X189209159Y-97466996D01*
X189032372Y-97331343D01*
X189032363Y-97331337D01*
X188839372Y-97219912D01*
X188839363Y-97219907D01*
X188633495Y-97134635D01*
X188418230Y-97076954D01*
X188197293Y-97047868D01*
X187974443Y-97047868D01*
X187753505Y-97076954D01*
X187538240Y-97134635D01*
X187332372Y-97219907D01*
X187332363Y-97219912D01*
X187139372Y-97331337D01*
X187073463Y-97381909D01*
X187073463Y-97381910D01*
X187788979Y-98097426D01*
X187660537Y-98183249D01*
X187521249Y-98322537D01*
X187435426Y-98450979D01*
X186719910Y-97735463D01*
X186719909Y-97735463D01*
X186669337Y-97801372D01*
X186557912Y-97994363D01*
X186557907Y-97994372D01*
X186472635Y-98200240D01*
X186414954Y-98415505D01*
X186385868Y-98636443D01*
X137948016Y-98636443D01*
X137974979Y-98607153D01*
X138101924Y-98412849D01*
X138195157Y-98200300D01*
X138252134Y-97975305D01*
X138252135Y-97975297D01*
X138271300Y-97744006D01*
X138271300Y-97743993D01*
X138252135Y-97512702D01*
X138252133Y-97512691D01*
X138195157Y-97287699D01*
X138101924Y-97075151D01*
X137974983Y-96880852D01*
X137974980Y-96880849D01*
X137974979Y-96880847D01*
X137817784Y-96710087D01*
X137817779Y-96710083D01*
X137817777Y-96710081D01*
X137634634Y-96567535D01*
X137634628Y-96567531D01*
X137430504Y-96457064D01*
X137430495Y-96457061D01*
X137210984Y-96381702D01*
X137039282Y-96353050D01*
X136982049Y-96343500D01*
X136749951Y-96343500D01*
X136704164Y-96351140D01*
X136521015Y-96381702D01*
X136301504Y-96457061D01*
X136301495Y-96457064D01*
X136097371Y-96567531D01*
X136097365Y-96567535D01*
X135914222Y-96710081D01*
X135914219Y-96710084D01*
X135757015Y-96880854D01*
X135719808Y-96937804D01*
X135666662Y-96983161D01*
X135597430Y-96992584D01*
X135534095Y-96963082D01*
X135512192Y-96937804D01*
X135474984Y-96880854D01*
X135474982Y-96880852D01*
X135474979Y-96880847D01*
X135317784Y-96710087D01*
X135317779Y-96710083D01*
X135317777Y-96710081D01*
X135134634Y-96567535D01*
X135134628Y-96567531D01*
X134930504Y-96457064D01*
X134930495Y-96457061D01*
X134710984Y-96381702D01*
X134539282Y-96353050D01*
X134482049Y-96343500D01*
X134249951Y-96343500D01*
X134204164Y-96351140D01*
X134021015Y-96381702D01*
X133801504Y-96457061D01*
X133801495Y-96457064D01*
X133597371Y-96567531D01*
X133597365Y-96567535D01*
X133414222Y-96710081D01*
X133414219Y-96710084D01*
X133257015Y-96880854D01*
X133219808Y-96937804D01*
X133166662Y-96983161D01*
X133097430Y-96992584D01*
X133034095Y-96963082D01*
X133012192Y-96937804D01*
X132974984Y-96880854D01*
X132974982Y-96880852D01*
X132974979Y-96880847D01*
X132817784Y-96710087D01*
X132817779Y-96710083D01*
X132817777Y-96710081D01*
X132634634Y-96567535D01*
X132634628Y-96567531D01*
X132430504Y-96457064D01*
X132430495Y-96457061D01*
X132210984Y-96381702D01*
X132039282Y-96353050D01*
X131982049Y-96343500D01*
X131749951Y-96343500D01*
X131704164Y-96351140D01*
X131521015Y-96381702D01*
X131301504Y-96457061D01*
X131301495Y-96457064D01*
X131097371Y-96567531D01*
X131097365Y-96567535D01*
X130914222Y-96710081D01*
X130914219Y-96710084D01*
X130757016Y-96880852D01*
X130630075Y-97075151D01*
X130536842Y-97287699D01*
X130479866Y-97512691D01*
X130479864Y-97512702D01*
X130460700Y-97743993D01*
X73660000Y-97743993D01*
X73660000Y-95347998D01*
X85218891Y-95347998D01*
X85218891Y-95348001D01*
X85239300Y-95633362D01*
X85300109Y-95912895D01*
X85400091Y-96180958D01*
X85537191Y-96432038D01*
X85537196Y-96432046D01*
X85643882Y-96574561D01*
X85643883Y-96574562D01*
X86546421Y-95672024D01*
X86559359Y-95703258D01*
X86641437Y-95826097D01*
X86745903Y-95930563D01*
X86868742Y-96012641D01*
X86899974Y-96025578D01*
X85997436Y-96928115D01*
X86139960Y-97034807D01*
X86139961Y-97034808D01*
X86391042Y-97171908D01*
X86391041Y-97171908D01*
X86659104Y-97271890D01*
X86938637Y-97332699D01*
X87223999Y-97353109D01*
X87224001Y-97353109D01*
X87509362Y-97332699D01*
X87788895Y-97271890D01*
X88056958Y-97171908D01*
X88308047Y-97034803D01*
X88450561Y-96928116D01*
X88450562Y-96928115D01*
X87548025Y-96025577D01*
X87579258Y-96012641D01*
X87702097Y-95930563D01*
X87806563Y-95826097D01*
X87888641Y-95703258D01*
X87901578Y-95672025D01*
X88804115Y-96574562D01*
X88804116Y-96574561D01*
X88910803Y-96432047D01*
X89047908Y-96180957D01*
X89047910Y-96180953D01*
X89117121Y-95995391D01*
X89158992Y-95939457D01*
X89224457Y-95915040D01*
X89292730Y-95929892D01*
X89342135Y-95979297D01*
X89343787Y-95982428D01*
X89354474Y-96003402D01*
X89354476Y-96003405D01*
X89470172Y-96162646D01*
X89609354Y-96301828D01*
X89768595Y-96417524D01*
X89846191Y-96457061D01*
X89943970Y-96506882D01*
X89943972Y-96506882D01*
X89943975Y-96506884D01*
X90044317Y-96539487D01*
X90131173Y-96567709D01*
X90325578Y-96598500D01*
X90325583Y-96598500D01*
X90522422Y-96598500D01*
X90716826Y-96567709D01*
X90717377Y-96567530D01*
X90904025Y-96506884D01*
X91079405Y-96417524D01*
X91238646Y-96301828D01*
X91377828Y-96162646D01*
X91493524Y-96003405D01*
X91582884Y-95828025D01*
X91643709Y-95640826D01*
X91655439Y-95566767D01*
X91674500Y-95446422D01*
X91674500Y-95347998D01*
X97918891Y-95347998D01*
X97918891Y-95348001D01*
X97939300Y-95633362D01*
X98000109Y-95912895D01*
X98100091Y-96180958D01*
X98237191Y-96432038D01*
X98237196Y-96432046D01*
X98343882Y-96574561D01*
X98343883Y-96574562D01*
X99246421Y-95672024D01*
X99259359Y-95703258D01*
X99341437Y-95826097D01*
X99445903Y-95930563D01*
X99568742Y-96012641D01*
X99599974Y-96025578D01*
X98697436Y-96928115D01*
X98839960Y-97034807D01*
X98839961Y-97034808D01*
X99091042Y-97171908D01*
X99091041Y-97171908D01*
X99359104Y-97271890D01*
X99638637Y-97332699D01*
X99923999Y-97353109D01*
X99924001Y-97353109D01*
X100209362Y-97332699D01*
X100488895Y-97271890D01*
X100756958Y-97171908D01*
X101008047Y-97034803D01*
X101150561Y-96928116D01*
X101150562Y-96928115D01*
X100248025Y-96025577D01*
X100279258Y-96012641D01*
X100402097Y-95930563D01*
X100506563Y-95826097D01*
X100588641Y-95703258D01*
X100601578Y-95672025D01*
X101504115Y-96574562D01*
X101504116Y-96574561D01*
X101610803Y-96432047D01*
X101747908Y-96180958D01*
X101847890Y-95912895D01*
X101908699Y-95633362D01*
X101929109Y-95348001D01*
X101929109Y-95347998D01*
X101908699Y-95062637D01*
X101847890Y-94783104D01*
X101747908Y-94515041D01*
X101610808Y-94263961D01*
X101610807Y-94263960D01*
X101504115Y-94121436D01*
X100601577Y-95023973D01*
X100588641Y-94992742D01*
X100506563Y-94869903D01*
X100402097Y-94765437D01*
X100279258Y-94683359D01*
X100248024Y-94670421D01*
X101150562Y-93767883D01*
X101150561Y-93767882D01*
X101008046Y-93661196D01*
X101008038Y-93661191D01*
X100756957Y-93524091D01*
X100756958Y-93524091D01*
X100488895Y-93424109D01*
X100209362Y-93363300D01*
X99924001Y-93342891D01*
X99923999Y-93342891D01*
X99638637Y-93363300D01*
X99359104Y-93424109D01*
X99091041Y-93524091D01*
X98839961Y-93661191D01*
X98839953Y-93661196D01*
X98697437Y-93767882D01*
X98697436Y-93767883D01*
X99599975Y-94670421D01*
X99568742Y-94683359D01*
X99445903Y-94765437D01*
X99341437Y-94869903D01*
X99259359Y-94992742D01*
X99246421Y-95023974D01*
X98343883Y-94121436D01*
X98343882Y-94121437D01*
X98237196Y-94263953D01*
X98237191Y-94263961D01*
X98100091Y-94515041D01*
X98000109Y-94783104D01*
X97939300Y-95062637D01*
X97918891Y-95347998D01*
X91674500Y-95347998D01*
X91674500Y-95249577D01*
X91643709Y-95055173D01*
X91582882Y-94867970D01*
X91527166Y-94758622D01*
X91493524Y-94692595D01*
X91377828Y-94533354D01*
X91238646Y-94394172D01*
X91079405Y-94278476D01*
X91050902Y-94263953D01*
X90904029Y-94189117D01*
X90716826Y-94128290D01*
X90522422Y-94097500D01*
X90522417Y-94097500D01*
X90325583Y-94097500D01*
X90325578Y-94097500D01*
X90131173Y-94128290D01*
X89943970Y-94189117D01*
X89768594Y-94278476D01*
X89677741Y-94344485D01*
X89609354Y-94394172D01*
X89609352Y-94394174D01*
X89609351Y-94394174D01*
X89470174Y-94533351D01*
X89470174Y-94533352D01*
X89470172Y-94533354D01*
X89423204Y-94598000D01*
X89354474Y-94692597D01*
X89343786Y-94713573D01*
X89295811Y-94764367D01*
X89227989Y-94781161D01*
X89161855Y-94758622D01*
X89118405Y-94703906D01*
X89117121Y-94700608D01*
X89047910Y-94515046D01*
X89047908Y-94515042D01*
X88910808Y-94263961D01*
X88910807Y-94263960D01*
X88804115Y-94121436D01*
X87901577Y-95023973D01*
X87888641Y-94992742D01*
X87806563Y-94869903D01*
X87702097Y-94765437D01*
X87579258Y-94683359D01*
X87548024Y-94670421D01*
X88450562Y-93767883D01*
X88450561Y-93767882D01*
X88308046Y-93661196D01*
X88308038Y-93661191D01*
X88056957Y-93524091D01*
X88056958Y-93524091D01*
X87788895Y-93424109D01*
X87509362Y-93363300D01*
X87224001Y-93342891D01*
X87223999Y-93342891D01*
X86938637Y-93363300D01*
X86659104Y-93424109D01*
X86391041Y-93524091D01*
X86139961Y-93661191D01*
X86139953Y-93661196D01*
X85997437Y-93767882D01*
X85997436Y-93767883D01*
X86899975Y-94670421D01*
X86868742Y-94683359D01*
X86745903Y-94765437D01*
X86641437Y-94869903D01*
X86559359Y-94992742D01*
X86546421Y-95023974D01*
X85643883Y-94121436D01*
X85643882Y-94121437D01*
X85537196Y-94263953D01*
X85537191Y-94263961D01*
X85400091Y-94515041D01*
X85300109Y-94783104D01*
X85239300Y-95062637D01*
X85218891Y-95347998D01*
X73660000Y-95347998D01*
X73660000Y-90743994D01*
X127460556Y-90743994D01*
X127460556Y-90744005D01*
X127480310Y-91058004D01*
X127480311Y-91058011D01*
X127539270Y-91367083D01*
X127636497Y-91666316D01*
X127636499Y-91666321D01*
X127770461Y-91951003D01*
X127770464Y-91951009D01*
X127939051Y-92216661D01*
X127939054Y-92216665D01*
X128139606Y-92459090D01*
X128139608Y-92459092D01*
X128368968Y-92674476D01*
X128368978Y-92674484D01*
X128623504Y-92859408D01*
X128623509Y-92859410D01*
X128623516Y-92859416D01*
X128899234Y-93010994D01*
X128899239Y-93010996D01*
X128899241Y-93010997D01*
X128899242Y-93010998D01*
X129191771Y-93126818D01*
X129191774Y-93126819D01*
X129496523Y-93205065D01*
X129496527Y-93205066D01*
X129562010Y-93213338D01*
X129808670Y-93244499D01*
X129808679Y-93244499D01*
X129808682Y-93244500D01*
X129808684Y-93244500D01*
X130123316Y-93244500D01*
X130123318Y-93244500D01*
X130123321Y-93244499D01*
X130123329Y-93244499D01*
X130309593Y-93220968D01*
X130435473Y-93205066D01*
X130740225Y-93126819D01*
X130740228Y-93126818D01*
X131032757Y-93010998D01*
X131032758Y-93010997D01*
X131032756Y-93010997D01*
X131032766Y-93010994D01*
X131308484Y-92859416D01*
X131563030Y-92674478D01*
X131792390Y-92459094D01*
X131992947Y-92216663D01*
X132161537Y-91951007D01*
X132295503Y-91666315D01*
X132392731Y-91367079D01*
X132451688Y-91058015D01*
X132471444Y-90744000D01*
X132471444Y-90743994D01*
X136260556Y-90743994D01*
X136260556Y-90744005D01*
X136280310Y-91058004D01*
X136280311Y-91058011D01*
X136339270Y-91367083D01*
X136436497Y-91666316D01*
X136436499Y-91666321D01*
X136570461Y-91951003D01*
X136570464Y-91951009D01*
X136739051Y-92216661D01*
X136739054Y-92216665D01*
X136939606Y-92459090D01*
X136939608Y-92459092D01*
X137168968Y-92674476D01*
X137168978Y-92674484D01*
X137423504Y-92859408D01*
X137423509Y-92859410D01*
X137423516Y-92859416D01*
X137699234Y-93010994D01*
X137699239Y-93010996D01*
X137699241Y-93010997D01*
X137699242Y-93010998D01*
X137991771Y-93126818D01*
X137991774Y-93126819D01*
X138296523Y-93205065D01*
X138296527Y-93205066D01*
X138362010Y-93213338D01*
X138608670Y-93244499D01*
X138608679Y-93244499D01*
X138608682Y-93244500D01*
X138608684Y-93244500D01*
X138923316Y-93244500D01*
X138923318Y-93244500D01*
X138923321Y-93244499D01*
X138923329Y-93244499D01*
X139109593Y-93220968D01*
X139235473Y-93205066D01*
X139540225Y-93126819D01*
X139540228Y-93126818D01*
X139832757Y-93010998D01*
X139832758Y-93010997D01*
X139832756Y-93010997D01*
X139832766Y-93010994D01*
X140108484Y-92859416D01*
X140363030Y-92674478D01*
X140592390Y-92459094D01*
X140792947Y-92216663D01*
X140961537Y-91951007D01*
X141095503Y-91666315D01*
X141192731Y-91367079D01*
X141251688Y-91058015D01*
X141271444Y-90744000D01*
X141251688Y-90429985D01*
X141192731Y-90120921D01*
X141095503Y-89821685D01*
X140961537Y-89536993D01*
X140792947Y-89271337D01*
X140792945Y-89271334D01*
X140592393Y-89028909D01*
X140592391Y-89028907D01*
X140363031Y-88813523D01*
X140363021Y-88813515D01*
X140108495Y-88628591D01*
X140108488Y-88628586D01*
X140108484Y-88628584D01*
X139832766Y-88477006D01*
X139832763Y-88477004D01*
X139832758Y-88477002D01*
X139832757Y-88477001D01*
X139540228Y-88361181D01*
X139540225Y-88361180D01*
X139235476Y-88282934D01*
X139235463Y-88282932D01*
X138923329Y-88243500D01*
X138923318Y-88243500D01*
X138608682Y-88243500D01*
X138608670Y-88243500D01*
X138296536Y-88282932D01*
X138296523Y-88282934D01*
X137991774Y-88361180D01*
X137991771Y-88361181D01*
X137699242Y-88477001D01*
X137699241Y-88477002D01*
X137423516Y-88628584D01*
X137423504Y-88628591D01*
X137168978Y-88813515D01*
X137168968Y-88813523D01*
X136939608Y-89028907D01*
X136939606Y-89028909D01*
X136739054Y-89271334D01*
X136739051Y-89271338D01*
X136570464Y-89536990D01*
X136570461Y-89536996D01*
X136436499Y-89821678D01*
X136436497Y-89821683D01*
X136339270Y-90120916D01*
X136280311Y-90429988D01*
X136280310Y-90429995D01*
X136260556Y-90743994D01*
X132471444Y-90743994D01*
X132451688Y-90429985D01*
X132392731Y-90120921D01*
X132295503Y-89821685D01*
X132161537Y-89536993D01*
X131992947Y-89271337D01*
X131992945Y-89271334D01*
X131792393Y-89028909D01*
X131792391Y-89028907D01*
X131563031Y-88813523D01*
X131563021Y-88813515D01*
X131308495Y-88628591D01*
X131308488Y-88628586D01*
X131308484Y-88628584D01*
X131032766Y-88477006D01*
X131032763Y-88477004D01*
X131032758Y-88477002D01*
X131032757Y-88477001D01*
X130740228Y-88361181D01*
X130740225Y-88361180D01*
X130435476Y-88282934D01*
X130435463Y-88282932D01*
X130123329Y-88243500D01*
X130123318Y-88243500D01*
X129808682Y-88243500D01*
X129808670Y-88243500D01*
X129496536Y-88282932D01*
X129496523Y-88282934D01*
X129191774Y-88361180D01*
X129191771Y-88361181D01*
X128899242Y-88477001D01*
X128899241Y-88477002D01*
X128623516Y-88628584D01*
X128623504Y-88628591D01*
X128368978Y-88813515D01*
X128368968Y-88813523D01*
X128139608Y-89028907D01*
X128139606Y-89028909D01*
X127939054Y-89271334D01*
X127939051Y-89271338D01*
X127770464Y-89536990D01*
X127770461Y-89536996D01*
X127636499Y-89821678D01*
X127636497Y-89821683D01*
X127539270Y-90120916D01*
X127480311Y-90429988D01*
X127480310Y-90429995D01*
X127460556Y-90743994D01*
X73660000Y-90743994D01*
X73660000Y-88951362D01*
X73679685Y-88884323D01*
X73696319Y-88863681D01*
X78703681Y-83856319D01*
X78765004Y-83822834D01*
X78791362Y-83820000D01*
X200608638Y-83820000D01*
X200675677Y-83839685D01*
G37*
G04 #@! TD.AperFunction*
M02*
