G04 #@! TF.GenerationSoftware,KiCad,Pcbnew,8.0.2*
G04 #@! TF.CreationDate,2024-08-21T05:46:25-04:00*
G04 #@! TF.ProjectId,plugnslay,706c7567-6e73-46c6-9179-2e6b69636164,rev?*
G04 #@! TF.SameCoordinates,Original*
G04 #@! TF.FileFunction,Soldermask,Bot*
G04 #@! TF.FilePolarity,Negative*
%FSLAX46Y46*%
G04 Gerber Fmt 4.6, Leading zero omitted, Abs format (unit mm)*
G04 Created by KiCad (PCBNEW 8.0.2) date 2024-08-21 05:46:25*
%MOMM*%
%LPD*%
G01*
G04 APERTURE LIST*
G04 Aperture macros list*
%AMHorizOval*
0 Thick line with rounded ends*
0 $1 width*
0 $2 $3 position (X,Y) of the first rounded end (center of the circle)*
0 $4 $5 position (X,Y) of the second rounded end (center of the circle)*
0 Add line between two ends*
20,1,$1,$2,$3,$4,$5,0*
0 Add two circle primitives to create the rounded ends*
1,1,$1,$2,$3*
1,1,$1,$4,$5*%
G04 Aperture macros list end*
%ADD10O,1.700000X1.100000*%
%ADD11C,3.000000*%
%ADD12C,2.000000*%
%ADD13HorizOval,2.400000X0.212132X-0.212132X-0.212132X0.212132X0*%
%ADD14C,4.000000*%
%ADD15C,1.800000*%
%ADD16C,0.800000*%
G04 APERTURE END LIST*
D10*
X200200000Y-116080000D03*
X204000000Y-116080000D03*
X200200000Y-107440000D03*
X204000000Y-107440000D03*
D11*
X96774000Y-104648000D03*
D12*
X90424000Y-106778000D03*
X90424000Y-95348000D03*
D11*
X87224000Y-106778000D03*
X87224000Y-95348000D03*
X99924000Y-106778000D03*
X99924000Y-95348000D03*
D13*
X191998000Y-100960000D03*
X193798000Y-98960000D03*
X199898000Y-98960000D03*
X197498000Y-100960000D03*
X188298000Y-98960000D03*
D14*
X129966000Y-90744000D03*
X138766000Y-90744000D03*
D15*
X136866000Y-97744000D03*
X134366000Y-97744000D03*
X131866000Y-97744000D03*
D16*
X134620000Y-113792000D03*
X129794000Y-101092000D03*
X167626153Y-102820847D03*
X122936000Y-111252000D03*
X184150000Y-114554000D03*
X134620000Y-110744000D03*
X147828000Y-109474000D03*
X196596000Y-116332000D03*
X112014000Y-100838000D03*
X142240000Y-112522000D03*
X118872000Y-111252000D03*
X131572000Y-107950000D03*
X134620000Y-122174000D03*
X160020000Y-119380000D03*
X134620000Y-119380000D03*
X184150000Y-117856000D03*
X164084000Y-112014000D03*
X170434000Y-102844000D03*
X164338000Y-120904000D03*
X122936000Y-114046000D03*
X131572000Y-106680000D03*
X122936000Y-105156000D03*
X138684000Y-109728000D03*
X134620000Y-116586000D03*
X153416000Y-108712000D03*
X149606000Y-106680000D03*
X162280000Y-109474000D03*
X161036000Y-111252000D03*
X159512000Y-109474000D03*
X144018000Y-109728000D03*
X147828000Y-112522000D03*
X167894000Y-109474000D03*
M02*
