G04 #@! TF.GenerationSoftware,KiCad,Pcbnew,8.0.2*
G04 #@! TF.CreationDate,2024-08-20T22:37:26-04:00*
G04 #@! TF.ProjectId,plugnslay,706c7567-6e73-46c6-9179-2e6b69636164,rev?*
G04 #@! TF.SameCoordinates,Original*
G04 #@! TF.FileFunction,Legend,Top*
G04 #@! TF.FilePolarity,Positive*
%FSLAX46Y46*%
G04 Gerber Fmt 4.6, Leading zero omitted, Abs format (unit mm)*
G04 Created by KiCad (PCBNEW 8.0.2) date 2024-08-20 22:37:26*
%MOMM*%
%LPD*%
G01*
G04 APERTURE LIST*
G04 Aperture macros list*
%AMRoundRect*
0 Rectangle with rounded corners*
0 $1 Rounding radius*
0 $2 $3 $4 $5 $6 $7 $8 $9 X,Y pos of 4 corners*
0 Add a 4 corners polygon primitive as box body*
4,1,4,$2,$3,$4,$5,$6,$7,$8,$9,$2,$3,0*
0 Add four circle primitives for the rounded corners*
1,1,$1+$1,$2,$3*
1,1,$1+$1,$4,$5*
1,1,$1+$1,$6,$7*
1,1,$1+$1,$8,$9*
0 Add four rect primitives between the rounded corners*
20,1,$1+$1,$2,$3,$4,$5,0*
20,1,$1+$1,$4,$5,$6,$7,0*
20,1,$1+$1,$6,$7,$8,$9,0*
20,1,$1+$1,$8,$9,$2,$3,0*%
%AMHorizOval*
0 Thick line with rounded ends*
0 $1 width*
0 $2 $3 position (X,Y) of the first rounded end (center of the circle)*
0 $4 $5 position (X,Y) of the second rounded end (center of the circle)*
0 Add line between two ends*
20,1,$1,$2,$3,$4,$5,0*
0 Add two circle primitives to create the rounded ends*
1,1,$1,$2,$3*
1,1,$1,$4,$5*%
G04 Aperture macros list end*
%ADD10C,0.300000*%
%ADD11C,0.150000*%
%ADD12C,0.120000*%
%ADD13RoundRect,0.250000X-0.625000X0.400000X-0.625000X-0.400000X0.625000X-0.400000X0.625000X0.400000X0*%
%ADD14RoundRect,0.175000X0.425000X-0.175000X0.425000X0.175000X-0.425000X0.175000X-0.425000X-0.175000X0*%
%ADD15RoundRect,0.190000X-0.410000X0.190000X-0.410000X-0.190000X0.410000X-0.190000X0.410000X0.190000X0*%
%ADD16RoundRect,0.200000X-0.400000X0.200000X-0.400000X-0.200000X0.400000X-0.200000X0.400000X0.200000X0*%
%ADD17RoundRect,0.175000X-0.425000X0.175000X-0.425000X-0.175000X0.425000X-0.175000X0.425000X0.175000X0*%
%ADD18RoundRect,0.190000X0.410000X-0.190000X0.410000X0.190000X-0.410000X0.190000X-0.410000X-0.190000X0*%
%ADD19RoundRect,0.200000X0.400000X-0.200000X0.400000X0.200000X-0.400000X0.200000X-0.400000X-0.200000X0*%
%ADD20O,1.700000X1.100000*%
%ADD21RoundRect,0.250000X0.625000X-0.400000X0.625000X0.400000X-0.625000X0.400000X-0.625000X-0.400000X0*%
%ADD22RoundRect,0.225000X-0.375000X0.225000X-0.375000X-0.225000X0.375000X-0.225000X0.375000X0.225000X0*%
%ADD23RoundRect,0.250000X0.650000X-0.412500X0.650000X0.412500X-0.650000X0.412500X-0.650000X-0.412500X0*%
%ADD24RoundRect,0.150000X-0.825000X-0.150000X0.825000X-0.150000X0.825000X0.150000X-0.825000X0.150000X0*%
%ADD25C,3.000000*%
%ADD26C,2.000000*%
%ADD27RoundRect,0.250000X0.400000X0.625000X-0.400000X0.625000X-0.400000X-0.625000X0.400000X-0.625000X0*%
%ADD28RoundRect,0.250000X0.412500X0.650000X-0.412500X0.650000X-0.412500X-0.650000X0.412500X-0.650000X0*%
%ADD29RoundRect,0.250000X-0.650000X0.412500X-0.650000X-0.412500X0.650000X-0.412500X0.650000X0.412500X0*%
%ADD30RoundRect,0.250000X-0.400000X-0.625000X0.400000X-0.625000X0.400000X0.625000X-0.400000X0.625000X0*%
%ADD31RoundRect,0.250000X-0.412500X-0.650000X0.412500X-0.650000X0.412500X0.650000X-0.412500X0.650000X0*%
%ADD32HorizOval,2.400000X0.212132X-0.212132X-0.212132X0.212132X0*%
%ADD33RoundRect,0.225000X-0.225000X-0.375000X0.225000X-0.375000X0.225000X0.375000X-0.225000X0.375000X0*%
%ADD34C,4.000000*%
%ADD35C,1.800000*%
%ADD36RoundRect,0.225000X0.225000X0.375000X-0.225000X0.375000X-0.225000X-0.375000X0.225000X-0.375000X0*%
%ADD37RoundRect,0.225000X0.375000X-0.225000X0.375000X0.225000X-0.375000X0.225000X-0.375000X-0.225000X0*%
%ADD38C,0.800000*%
G04 APERTURE END LIST*
D10*
X189784510Y-90224828D02*
X189784510Y-88724828D01*
X189784510Y-88724828D02*
X190355939Y-88724828D01*
X190355939Y-88724828D02*
X190498796Y-88796257D01*
X190498796Y-88796257D02*
X190570225Y-88867685D01*
X190570225Y-88867685D02*
X190641653Y-89010542D01*
X190641653Y-89010542D02*
X190641653Y-89224828D01*
X190641653Y-89224828D02*
X190570225Y-89367685D01*
X190570225Y-89367685D02*
X190498796Y-89439114D01*
X190498796Y-89439114D02*
X190355939Y-89510542D01*
X190355939Y-89510542D02*
X189784510Y-89510542D01*
X192141653Y-90081971D02*
X192070225Y-90153400D01*
X192070225Y-90153400D02*
X191855939Y-90224828D01*
X191855939Y-90224828D02*
X191713082Y-90224828D01*
X191713082Y-90224828D02*
X191498796Y-90153400D01*
X191498796Y-90153400D02*
X191355939Y-90010542D01*
X191355939Y-90010542D02*
X191284510Y-89867685D01*
X191284510Y-89867685D02*
X191213082Y-89581971D01*
X191213082Y-89581971D02*
X191213082Y-89367685D01*
X191213082Y-89367685D02*
X191284510Y-89081971D01*
X191284510Y-89081971D02*
X191355939Y-88939114D01*
X191355939Y-88939114D02*
X191498796Y-88796257D01*
X191498796Y-88796257D02*
X191713082Y-88724828D01*
X191713082Y-88724828D02*
X191855939Y-88724828D01*
X191855939Y-88724828D02*
X192070225Y-88796257D01*
X192070225Y-88796257D02*
X192141653Y-88867685D01*
X193927367Y-89439114D02*
X194427367Y-89439114D01*
X194641653Y-90224828D02*
X193927367Y-90224828D01*
X193927367Y-90224828D02*
X193927367Y-88724828D01*
X193927367Y-88724828D02*
X194641653Y-88724828D01*
X195284510Y-90224828D02*
X195284510Y-88724828D01*
X195284510Y-88724828D02*
X196141653Y-90224828D01*
X196141653Y-90224828D02*
X196141653Y-88724828D01*
X196855939Y-90224828D02*
X196855939Y-88724828D01*
X196855939Y-88724828D02*
X197213082Y-88724828D01*
X197213082Y-88724828D02*
X197427368Y-88796257D01*
X197427368Y-88796257D02*
X197570225Y-88939114D01*
X197570225Y-88939114D02*
X197641654Y-89081971D01*
X197641654Y-89081971D02*
X197713082Y-89367685D01*
X197713082Y-89367685D02*
X197713082Y-89581971D01*
X197713082Y-89581971D02*
X197641654Y-89867685D01*
X197641654Y-89867685D02*
X197570225Y-90010542D01*
X197570225Y-90010542D02*
X197427368Y-90153400D01*
X197427368Y-90153400D02*
X197213082Y-90224828D01*
X197213082Y-90224828D02*
X196855939Y-90224828D01*
X199498796Y-89653400D02*
X200641654Y-89653400D01*
X200355939Y-89939114D02*
X200641654Y-89653400D01*
X200641654Y-89653400D02*
X200355939Y-89367685D01*
X117203939Y-86033971D02*
X117203939Y-87176828D01*
X117489653Y-86891114D02*
X117203939Y-87176828D01*
X117203939Y-87176828D02*
X116918225Y-86891114D01*
X119632510Y-87176828D02*
X119632510Y-85676828D01*
X119632510Y-85676828D02*
X120203939Y-85676828D01*
X120203939Y-85676828D02*
X120346796Y-85748257D01*
X120346796Y-85748257D02*
X120418225Y-85819685D01*
X120418225Y-85819685D02*
X120489653Y-85962542D01*
X120489653Y-85962542D02*
X120489653Y-86176828D01*
X120489653Y-86176828D02*
X120418225Y-86319685D01*
X120418225Y-86319685D02*
X120346796Y-86391114D01*
X120346796Y-86391114D02*
X120203939Y-86462542D01*
X120203939Y-86462542D02*
X119632510Y-86462542D01*
X121418225Y-85676828D02*
X121703939Y-85676828D01*
X121703939Y-85676828D02*
X121846796Y-85748257D01*
X121846796Y-85748257D02*
X121989653Y-85891114D01*
X121989653Y-85891114D02*
X122061082Y-86176828D01*
X122061082Y-86176828D02*
X122061082Y-86676828D01*
X122061082Y-86676828D02*
X121989653Y-86962542D01*
X121989653Y-86962542D02*
X121846796Y-87105400D01*
X121846796Y-87105400D02*
X121703939Y-87176828D01*
X121703939Y-87176828D02*
X121418225Y-87176828D01*
X121418225Y-87176828D02*
X121275368Y-87105400D01*
X121275368Y-87105400D02*
X121132510Y-86962542D01*
X121132510Y-86962542D02*
X121061082Y-86676828D01*
X121061082Y-86676828D02*
X121061082Y-86176828D01*
X121061082Y-86176828D02*
X121132510Y-85891114D01*
X121132510Y-85891114D02*
X121275368Y-85748257D01*
X121275368Y-85748257D02*
X121418225Y-85676828D01*
X122561082Y-85676828D02*
X122918225Y-87176828D01*
X122918225Y-87176828D02*
X123203939Y-86105400D01*
X123203939Y-86105400D02*
X123489654Y-87176828D01*
X123489654Y-87176828D02*
X123846797Y-85676828D01*
X124418225Y-86391114D02*
X124918225Y-86391114D01*
X125132511Y-87176828D02*
X124418225Y-87176828D01*
X124418225Y-87176828D02*
X124418225Y-85676828D01*
X124418225Y-85676828D02*
X125132511Y-85676828D01*
X126632511Y-87176828D02*
X126132511Y-86462542D01*
X125775368Y-87176828D02*
X125775368Y-85676828D01*
X125775368Y-85676828D02*
X126346797Y-85676828D01*
X126346797Y-85676828D02*
X126489654Y-85748257D01*
X126489654Y-85748257D02*
X126561083Y-85819685D01*
X126561083Y-85819685D02*
X126632511Y-85962542D01*
X126632511Y-85962542D02*
X126632511Y-86176828D01*
X126632511Y-86176828D02*
X126561083Y-86319685D01*
X126561083Y-86319685D02*
X126489654Y-86391114D01*
X126489654Y-86391114D02*
X126346797Y-86462542D01*
X126346797Y-86462542D02*
X125775368Y-86462542D01*
X88692510Y-89145400D02*
X89835368Y-89145400D01*
X89549653Y-89431114D02*
X89835368Y-89145400D01*
X89835368Y-89145400D02*
X89549653Y-88859685D01*
X92192510Y-88931114D02*
X91692510Y-88931114D01*
X91692510Y-89716828D02*
X91692510Y-88216828D01*
X91692510Y-88216828D02*
X92406796Y-88216828D01*
X93835367Y-89716828D02*
X93335367Y-89002542D01*
X92978224Y-89716828D02*
X92978224Y-88216828D01*
X92978224Y-88216828D02*
X93549653Y-88216828D01*
X93549653Y-88216828D02*
X93692510Y-88288257D01*
X93692510Y-88288257D02*
X93763939Y-88359685D01*
X93763939Y-88359685D02*
X93835367Y-88502542D01*
X93835367Y-88502542D02*
X93835367Y-88716828D01*
X93835367Y-88716828D02*
X93763939Y-88859685D01*
X93763939Y-88859685D02*
X93692510Y-88931114D01*
X93692510Y-88931114D02*
X93549653Y-89002542D01*
X93549653Y-89002542D02*
X92978224Y-89002542D01*
X94763939Y-88216828D02*
X95049653Y-88216828D01*
X95049653Y-88216828D02*
X95192510Y-88288257D01*
X95192510Y-88288257D02*
X95335367Y-88431114D01*
X95335367Y-88431114D02*
X95406796Y-88716828D01*
X95406796Y-88716828D02*
X95406796Y-89216828D01*
X95406796Y-89216828D02*
X95335367Y-89502542D01*
X95335367Y-89502542D02*
X95192510Y-89645400D01*
X95192510Y-89645400D02*
X95049653Y-89716828D01*
X95049653Y-89716828D02*
X94763939Y-89716828D01*
X94763939Y-89716828D02*
X94621082Y-89645400D01*
X94621082Y-89645400D02*
X94478224Y-89502542D01*
X94478224Y-89502542D02*
X94406796Y-89216828D01*
X94406796Y-89216828D02*
X94406796Y-88716828D01*
X94406796Y-88716828D02*
X94478224Y-88431114D01*
X94478224Y-88431114D02*
X94621082Y-88288257D01*
X94621082Y-88288257D02*
X94763939Y-88216828D01*
X96049653Y-89716828D02*
X96049653Y-88216828D01*
X96049653Y-88216828D02*
X96549653Y-89288257D01*
X96549653Y-89288257D02*
X97049653Y-88216828D01*
X97049653Y-88216828D02*
X97049653Y-89716828D01*
X98906796Y-89716828D02*
X98906796Y-88216828D01*
X99621082Y-89716828D02*
X99621082Y-88216828D01*
X99621082Y-88216828D02*
X100478225Y-89716828D01*
X100478225Y-89716828D02*
X100478225Y-88216828D01*
X101121083Y-89645400D02*
X101335369Y-89716828D01*
X101335369Y-89716828D02*
X101692511Y-89716828D01*
X101692511Y-89716828D02*
X101835369Y-89645400D01*
X101835369Y-89645400D02*
X101906797Y-89573971D01*
X101906797Y-89573971D02*
X101978226Y-89431114D01*
X101978226Y-89431114D02*
X101978226Y-89288257D01*
X101978226Y-89288257D02*
X101906797Y-89145400D01*
X101906797Y-89145400D02*
X101835369Y-89073971D01*
X101835369Y-89073971D02*
X101692511Y-89002542D01*
X101692511Y-89002542D02*
X101406797Y-88931114D01*
X101406797Y-88931114D02*
X101263940Y-88859685D01*
X101263940Y-88859685D02*
X101192511Y-88788257D01*
X101192511Y-88788257D02*
X101121083Y-88645400D01*
X101121083Y-88645400D02*
X101121083Y-88502542D01*
X101121083Y-88502542D02*
X101192511Y-88359685D01*
X101192511Y-88359685D02*
X101263940Y-88288257D01*
X101263940Y-88288257D02*
X101406797Y-88216828D01*
X101406797Y-88216828D02*
X101763940Y-88216828D01*
X101763940Y-88216828D02*
X101978226Y-88288257D01*
X102406797Y-88216828D02*
X103263940Y-88216828D01*
X102835368Y-89716828D02*
X102835368Y-88216828D01*
X152954510Y-89587912D02*
X152954510Y-88587912D01*
X152954510Y-88730769D02*
X153025939Y-88659341D01*
X153025939Y-88659341D02*
X153168796Y-88587912D01*
X153168796Y-88587912D02*
X153383082Y-88587912D01*
X153383082Y-88587912D02*
X153525939Y-88659341D01*
X153525939Y-88659341D02*
X153597368Y-88802198D01*
X153597368Y-88802198D02*
X153597368Y-89587912D01*
X153597368Y-88802198D02*
X153668796Y-88659341D01*
X153668796Y-88659341D02*
X153811653Y-88587912D01*
X153811653Y-88587912D02*
X154025939Y-88587912D01*
X154025939Y-88587912D02*
X154168796Y-88659341D01*
X154168796Y-88659341D02*
X154240225Y-88802198D01*
X154240225Y-88802198D02*
X154240225Y-89587912D01*
X155597368Y-89587912D02*
X155597368Y-88802198D01*
X155597368Y-88802198D02*
X155525939Y-88659341D01*
X155525939Y-88659341D02*
X155383082Y-88587912D01*
X155383082Y-88587912D02*
X155097368Y-88587912D01*
X155097368Y-88587912D02*
X154954510Y-88659341D01*
X155597368Y-89516484D02*
X155454510Y-89587912D01*
X155454510Y-89587912D02*
X155097368Y-89587912D01*
X155097368Y-89587912D02*
X154954510Y-89516484D01*
X154954510Y-89516484D02*
X154883082Y-89373626D01*
X154883082Y-89373626D02*
X154883082Y-89230769D01*
X154883082Y-89230769D02*
X154954510Y-89087912D01*
X154954510Y-89087912D02*
X155097368Y-89016484D01*
X155097368Y-89016484D02*
X155454510Y-89016484D01*
X155454510Y-89016484D02*
X155597368Y-88945055D01*
X156954511Y-89587912D02*
X156954511Y-88087912D01*
X156954511Y-89516484D02*
X156811653Y-89587912D01*
X156811653Y-89587912D02*
X156525939Y-89587912D01*
X156525939Y-89587912D02*
X156383082Y-89516484D01*
X156383082Y-89516484D02*
X156311653Y-89445055D01*
X156311653Y-89445055D02*
X156240225Y-89302198D01*
X156240225Y-89302198D02*
X156240225Y-88873626D01*
X156240225Y-88873626D02*
X156311653Y-88730769D01*
X156311653Y-88730769D02*
X156383082Y-88659341D01*
X156383082Y-88659341D02*
X156525939Y-88587912D01*
X156525939Y-88587912D02*
X156811653Y-88587912D01*
X156811653Y-88587912D02*
X156954511Y-88659341D01*
X158240225Y-89516484D02*
X158097368Y-89587912D01*
X158097368Y-89587912D02*
X157811654Y-89587912D01*
X157811654Y-89587912D02*
X157668796Y-89516484D01*
X157668796Y-89516484D02*
X157597368Y-89373626D01*
X157597368Y-89373626D02*
X157597368Y-88802198D01*
X157597368Y-88802198D02*
X157668796Y-88659341D01*
X157668796Y-88659341D02*
X157811654Y-88587912D01*
X157811654Y-88587912D02*
X158097368Y-88587912D01*
X158097368Y-88587912D02*
X158240225Y-88659341D01*
X158240225Y-88659341D02*
X158311654Y-88802198D01*
X158311654Y-88802198D02*
X158311654Y-88945055D01*
X158311654Y-88945055D02*
X157597368Y-89087912D01*
X159954510Y-88587912D02*
X160240225Y-89587912D01*
X160240225Y-89587912D02*
X160525939Y-88873626D01*
X160525939Y-88873626D02*
X160811653Y-89587912D01*
X160811653Y-89587912D02*
X161097367Y-88587912D01*
X163025939Y-89587912D02*
X162883082Y-89516484D01*
X162883082Y-89516484D02*
X162811653Y-89373626D01*
X162811653Y-89373626D02*
X162811653Y-88087912D01*
X163811653Y-89587912D02*
X163668796Y-89516484D01*
X163668796Y-89516484D02*
X163597367Y-89445055D01*
X163597367Y-89445055D02*
X163525939Y-89302198D01*
X163525939Y-89302198D02*
X163525939Y-88873626D01*
X163525939Y-88873626D02*
X163597367Y-88730769D01*
X163597367Y-88730769D02*
X163668796Y-88659341D01*
X163668796Y-88659341D02*
X163811653Y-88587912D01*
X163811653Y-88587912D02*
X164025939Y-88587912D01*
X164025939Y-88587912D02*
X164168796Y-88659341D01*
X164168796Y-88659341D02*
X164240225Y-88730769D01*
X164240225Y-88730769D02*
X164311653Y-88873626D01*
X164311653Y-88873626D02*
X164311653Y-89302198D01*
X164311653Y-89302198D02*
X164240225Y-89445055D01*
X164240225Y-89445055D02*
X164168796Y-89516484D01*
X164168796Y-89516484D02*
X164025939Y-89587912D01*
X164025939Y-89587912D02*
X163811653Y-89587912D01*
X164811653Y-88587912D02*
X165168796Y-89587912D01*
X165168796Y-89587912D02*
X165525939Y-88587912D01*
X166668796Y-89516484D02*
X166525939Y-89587912D01*
X166525939Y-89587912D02*
X166240225Y-89587912D01*
X166240225Y-89587912D02*
X166097367Y-89516484D01*
X166097367Y-89516484D02*
X166025939Y-89373626D01*
X166025939Y-89373626D02*
X166025939Y-88802198D01*
X166025939Y-88802198D02*
X166097367Y-88659341D01*
X166097367Y-88659341D02*
X166240225Y-88587912D01*
X166240225Y-88587912D02*
X166525939Y-88587912D01*
X166525939Y-88587912D02*
X166668796Y-88659341D01*
X166668796Y-88659341D02*
X166740225Y-88802198D01*
X166740225Y-88802198D02*
X166740225Y-88945055D01*
X166740225Y-88945055D02*
X166025939Y-89087912D01*
X168525938Y-89587912D02*
X168525938Y-88087912D01*
X168525938Y-88659341D02*
X168668796Y-88587912D01*
X168668796Y-88587912D02*
X168954510Y-88587912D01*
X168954510Y-88587912D02*
X169097367Y-88659341D01*
X169097367Y-88659341D02*
X169168796Y-88730769D01*
X169168796Y-88730769D02*
X169240224Y-88873626D01*
X169240224Y-88873626D02*
X169240224Y-89302198D01*
X169240224Y-89302198D02*
X169168796Y-89445055D01*
X169168796Y-89445055D02*
X169097367Y-89516484D01*
X169097367Y-89516484D02*
X168954510Y-89587912D01*
X168954510Y-89587912D02*
X168668796Y-89587912D01*
X168668796Y-89587912D02*
X168525938Y-89516484D01*
X169740224Y-88587912D02*
X170097367Y-89587912D01*
X170454510Y-88587912D02*
X170097367Y-89587912D01*
X170097367Y-89587912D02*
X169954510Y-89945055D01*
X169954510Y-89945055D02*
X169883081Y-90016484D01*
X169883081Y-90016484D02*
X169740224Y-90087912D01*
X172740224Y-89516484D02*
X172597367Y-89587912D01*
X172597367Y-89587912D02*
X172311653Y-89587912D01*
X172311653Y-89587912D02*
X172168795Y-89516484D01*
X172168795Y-89516484D02*
X172097367Y-89373626D01*
X172097367Y-89373626D02*
X172097367Y-88802198D01*
X172097367Y-88802198D02*
X172168795Y-88659341D01*
X172168795Y-88659341D02*
X172311653Y-88587912D01*
X172311653Y-88587912D02*
X172597367Y-88587912D01*
X172597367Y-88587912D02*
X172740224Y-88659341D01*
X172740224Y-88659341D02*
X172811653Y-88802198D01*
X172811653Y-88802198D02*
X172811653Y-88945055D01*
X172811653Y-88945055D02*
X172097367Y-89087912D01*
X173311652Y-88587912D02*
X173668795Y-89587912D01*
X173668795Y-89587912D02*
X174025938Y-88587912D01*
X175240224Y-89587912D02*
X175240224Y-88802198D01*
X175240224Y-88802198D02*
X175168795Y-88659341D01*
X175168795Y-88659341D02*
X175025938Y-88587912D01*
X175025938Y-88587912D02*
X174740224Y-88587912D01*
X174740224Y-88587912D02*
X174597366Y-88659341D01*
X175240224Y-89516484D02*
X175097366Y-89587912D01*
X175097366Y-89587912D02*
X174740224Y-89587912D01*
X174740224Y-89587912D02*
X174597366Y-89516484D01*
X174597366Y-89516484D02*
X174525938Y-89373626D01*
X174525938Y-89373626D02*
X174525938Y-89230769D01*
X174525938Y-89230769D02*
X174597366Y-89087912D01*
X174597366Y-89087912D02*
X174740224Y-89016484D01*
X174740224Y-89016484D02*
X175097366Y-89016484D01*
X175097366Y-89016484D02*
X175240224Y-88945055D01*
X175954509Y-88587912D02*
X175954509Y-89587912D01*
X175954509Y-88730769D02*
X176025938Y-88659341D01*
X176025938Y-88659341D02*
X176168795Y-88587912D01*
X176168795Y-88587912D02*
X176383081Y-88587912D01*
X176383081Y-88587912D02*
X176525938Y-88659341D01*
X176525938Y-88659341D02*
X176597367Y-88802198D01*
X176597367Y-88802198D02*
X176597367Y-89587912D01*
X178454509Y-89587912D02*
X178454509Y-88587912D01*
X178454509Y-88730769D02*
X178525938Y-88659341D01*
X178525938Y-88659341D02*
X178668795Y-88587912D01*
X178668795Y-88587912D02*
X178883081Y-88587912D01*
X178883081Y-88587912D02*
X179025938Y-88659341D01*
X179025938Y-88659341D02*
X179097367Y-88802198D01*
X179097367Y-88802198D02*
X179097367Y-89587912D01*
X179097367Y-88802198D02*
X179168795Y-88659341D01*
X179168795Y-88659341D02*
X179311652Y-88587912D01*
X179311652Y-88587912D02*
X179525938Y-88587912D01*
X179525938Y-88587912D02*
X179668795Y-88659341D01*
X179668795Y-88659341D02*
X179740224Y-88802198D01*
X179740224Y-88802198D02*
X179740224Y-89587912D01*
X152954510Y-91002828D02*
X152954510Y-92502828D01*
X152954510Y-91074257D02*
X153097368Y-91002828D01*
X153097368Y-91002828D02*
X153383082Y-91002828D01*
X153383082Y-91002828D02*
X153525939Y-91074257D01*
X153525939Y-91074257D02*
X153597368Y-91145685D01*
X153597368Y-91145685D02*
X153668796Y-91288542D01*
X153668796Y-91288542D02*
X153668796Y-91717114D01*
X153668796Y-91717114D02*
X153597368Y-91859971D01*
X153597368Y-91859971D02*
X153525939Y-91931400D01*
X153525939Y-91931400D02*
X153383082Y-92002828D01*
X153383082Y-92002828D02*
X153097368Y-92002828D01*
X153097368Y-92002828D02*
X152954510Y-91931400D01*
X154311653Y-92002828D02*
X154311653Y-91002828D01*
X154311653Y-91288542D02*
X154383082Y-91145685D01*
X154383082Y-91145685D02*
X154454511Y-91074257D01*
X154454511Y-91074257D02*
X154597368Y-91002828D01*
X154597368Y-91002828D02*
X154740225Y-91002828D01*
X155454510Y-92002828D02*
X155311653Y-91931400D01*
X155311653Y-91931400D02*
X155240224Y-91859971D01*
X155240224Y-91859971D02*
X155168796Y-91717114D01*
X155168796Y-91717114D02*
X155168796Y-91288542D01*
X155168796Y-91288542D02*
X155240224Y-91145685D01*
X155240224Y-91145685D02*
X155311653Y-91074257D01*
X155311653Y-91074257D02*
X155454510Y-91002828D01*
X155454510Y-91002828D02*
X155668796Y-91002828D01*
X155668796Y-91002828D02*
X155811653Y-91074257D01*
X155811653Y-91074257D02*
X155883082Y-91145685D01*
X155883082Y-91145685D02*
X155954510Y-91288542D01*
X155954510Y-91288542D02*
X155954510Y-91717114D01*
X155954510Y-91717114D02*
X155883082Y-91859971D01*
X155883082Y-91859971D02*
X155811653Y-91931400D01*
X155811653Y-91931400D02*
X155668796Y-92002828D01*
X155668796Y-92002828D02*
X155454510Y-92002828D01*
X156383082Y-91002828D02*
X156954510Y-91002828D01*
X156597367Y-90502828D02*
X156597367Y-91788542D01*
X156597367Y-91788542D02*
X156668796Y-91931400D01*
X156668796Y-91931400D02*
X156811653Y-92002828D01*
X156811653Y-92002828D02*
X156954510Y-92002828D01*
X157668796Y-92002828D02*
X157525939Y-91931400D01*
X157525939Y-91931400D02*
X157454510Y-91859971D01*
X157454510Y-91859971D02*
X157383082Y-91717114D01*
X157383082Y-91717114D02*
X157383082Y-91288542D01*
X157383082Y-91288542D02*
X157454510Y-91145685D01*
X157454510Y-91145685D02*
X157525939Y-91074257D01*
X157525939Y-91074257D02*
X157668796Y-91002828D01*
X157668796Y-91002828D02*
X157883082Y-91002828D01*
X157883082Y-91002828D02*
X158025939Y-91074257D01*
X158025939Y-91074257D02*
X158097368Y-91145685D01*
X158097368Y-91145685D02*
X158168796Y-91288542D01*
X158168796Y-91288542D02*
X158168796Y-91717114D01*
X158168796Y-91717114D02*
X158097368Y-91859971D01*
X158097368Y-91859971D02*
X158025939Y-91931400D01*
X158025939Y-91931400D02*
X157883082Y-92002828D01*
X157883082Y-92002828D02*
X157668796Y-92002828D01*
D11*
X141597142Y-116532819D02*
X141263809Y-116056628D01*
X141025714Y-116532819D02*
X141025714Y-115532819D01*
X141025714Y-115532819D02*
X141406666Y-115532819D01*
X141406666Y-115532819D02*
X141501904Y-115580438D01*
X141501904Y-115580438D02*
X141549523Y-115628057D01*
X141549523Y-115628057D02*
X141597142Y-115723295D01*
X141597142Y-115723295D02*
X141597142Y-115866152D01*
X141597142Y-115866152D02*
X141549523Y-115961390D01*
X141549523Y-115961390D02*
X141501904Y-116009009D01*
X141501904Y-116009009D02*
X141406666Y-116056628D01*
X141406666Y-116056628D02*
X141025714Y-116056628D01*
X142549523Y-116532819D02*
X141978095Y-116532819D01*
X142263809Y-116532819D02*
X142263809Y-115532819D01*
X142263809Y-115532819D02*
X142168571Y-115675676D01*
X142168571Y-115675676D02*
X142073333Y-115770914D01*
X142073333Y-115770914D02*
X141978095Y-115818533D01*
X143168571Y-115532819D02*
X143263809Y-115532819D01*
X143263809Y-115532819D02*
X143359047Y-115580438D01*
X143359047Y-115580438D02*
X143406666Y-115628057D01*
X143406666Y-115628057D02*
X143454285Y-115723295D01*
X143454285Y-115723295D02*
X143501904Y-115913771D01*
X143501904Y-115913771D02*
X143501904Y-116151866D01*
X143501904Y-116151866D02*
X143454285Y-116342342D01*
X143454285Y-116342342D02*
X143406666Y-116437580D01*
X143406666Y-116437580D02*
X143359047Y-116485200D01*
X143359047Y-116485200D02*
X143263809Y-116532819D01*
X143263809Y-116532819D02*
X143168571Y-116532819D01*
X143168571Y-116532819D02*
X143073333Y-116485200D01*
X143073333Y-116485200D02*
X143025714Y-116437580D01*
X143025714Y-116437580D02*
X142978095Y-116342342D01*
X142978095Y-116342342D02*
X142930476Y-116151866D01*
X142930476Y-116151866D02*
X142930476Y-115913771D01*
X142930476Y-115913771D02*
X142978095Y-115723295D01*
X142978095Y-115723295D02*
X143025714Y-115628057D01*
X143025714Y-115628057D02*
X143073333Y-115580438D01*
X143073333Y-115580438D02*
X143168571Y-115532819D01*
X197554819Y-112093333D02*
X198269104Y-112093333D01*
X198269104Y-112093333D02*
X198411961Y-112140952D01*
X198411961Y-112140952D02*
X198507200Y-112236190D01*
X198507200Y-112236190D02*
X198554819Y-112379047D01*
X198554819Y-112379047D02*
X198554819Y-112474285D01*
X197554819Y-111712380D02*
X197554819Y-111093333D01*
X197554819Y-111093333D02*
X197935771Y-111426666D01*
X197935771Y-111426666D02*
X197935771Y-111283809D01*
X197935771Y-111283809D02*
X197983390Y-111188571D01*
X197983390Y-111188571D02*
X198031009Y-111140952D01*
X198031009Y-111140952D02*
X198126247Y-111093333D01*
X198126247Y-111093333D02*
X198364342Y-111093333D01*
X198364342Y-111093333D02*
X198459580Y-111140952D01*
X198459580Y-111140952D02*
X198507200Y-111188571D01*
X198507200Y-111188571D02*
X198554819Y-111283809D01*
X198554819Y-111283809D02*
X198554819Y-111569523D01*
X198554819Y-111569523D02*
X198507200Y-111664761D01*
X198507200Y-111664761D02*
X198459580Y-111712380D01*
X118705333Y-115262819D02*
X118372000Y-114786628D01*
X118133905Y-115262819D02*
X118133905Y-114262819D01*
X118133905Y-114262819D02*
X118514857Y-114262819D01*
X118514857Y-114262819D02*
X118610095Y-114310438D01*
X118610095Y-114310438D02*
X118657714Y-114358057D01*
X118657714Y-114358057D02*
X118705333Y-114453295D01*
X118705333Y-114453295D02*
X118705333Y-114596152D01*
X118705333Y-114596152D02*
X118657714Y-114691390D01*
X118657714Y-114691390D02*
X118610095Y-114739009D01*
X118610095Y-114739009D02*
X118514857Y-114786628D01*
X118514857Y-114786628D02*
X118133905Y-114786628D01*
X119562476Y-114596152D02*
X119562476Y-115262819D01*
X119324381Y-114215200D02*
X119086286Y-114929485D01*
X119086286Y-114929485D02*
X119705333Y-114929485D01*
X161541905Y-106626819D02*
X161541905Y-105626819D01*
X161541905Y-105626819D02*
X161780000Y-105626819D01*
X161780000Y-105626819D02*
X161922857Y-105674438D01*
X161922857Y-105674438D02*
X162018095Y-105769676D01*
X162018095Y-105769676D02*
X162065714Y-105864914D01*
X162065714Y-105864914D02*
X162113333Y-106055390D01*
X162113333Y-106055390D02*
X162113333Y-106198247D01*
X162113333Y-106198247D02*
X162065714Y-106388723D01*
X162065714Y-106388723D02*
X162018095Y-106483961D01*
X162018095Y-106483961D02*
X161922857Y-106579200D01*
X161922857Y-106579200D02*
X161780000Y-106626819D01*
X161780000Y-106626819D02*
X161541905Y-106626819D01*
X162446667Y-105626819D02*
X163065714Y-105626819D01*
X163065714Y-105626819D02*
X162732381Y-106007771D01*
X162732381Y-106007771D02*
X162875238Y-106007771D01*
X162875238Y-106007771D02*
X162970476Y-106055390D01*
X162970476Y-106055390D02*
X163018095Y-106103009D01*
X163018095Y-106103009D02*
X163065714Y-106198247D01*
X163065714Y-106198247D02*
X163065714Y-106436342D01*
X163065714Y-106436342D02*
X163018095Y-106531580D01*
X163018095Y-106531580D02*
X162970476Y-106579200D01*
X162970476Y-106579200D02*
X162875238Y-106626819D01*
X162875238Y-106626819D02*
X162589524Y-106626819D01*
X162589524Y-106626819D02*
X162494286Y-106579200D01*
X162494286Y-106579200D02*
X162446667Y-106531580D01*
X149439333Y-103483580D02*
X149391714Y-103531200D01*
X149391714Y-103531200D02*
X149248857Y-103578819D01*
X149248857Y-103578819D02*
X149153619Y-103578819D01*
X149153619Y-103578819D02*
X149010762Y-103531200D01*
X149010762Y-103531200D02*
X148915524Y-103435961D01*
X148915524Y-103435961D02*
X148867905Y-103340723D01*
X148867905Y-103340723D02*
X148820286Y-103150247D01*
X148820286Y-103150247D02*
X148820286Y-103007390D01*
X148820286Y-103007390D02*
X148867905Y-102816914D01*
X148867905Y-102816914D02*
X148915524Y-102721676D01*
X148915524Y-102721676D02*
X149010762Y-102626438D01*
X149010762Y-102626438D02*
X149153619Y-102578819D01*
X149153619Y-102578819D02*
X149248857Y-102578819D01*
X149248857Y-102578819D02*
X149391714Y-102626438D01*
X149391714Y-102626438D02*
X149439333Y-102674057D01*
X149772667Y-102578819D02*
X150439333Y-102578819D01*
X150439333Y-102578819D02*
X150010762Y-103578819D01*
X133096095Y-101816819D02*
X133096095Y-102626342D01*
X133096095Y-102626342D02*
X133143714Y-102721580D01*
X133143714Y-102721580D02*
X133191333Y-102769200D01*
X133191333Y-102769200D02*
X133286571Y-102816819D01*
X133286571Y-102816819D02*
X133477047Y-102816819D01*
X133477047Y-102816819D02*
X133572285Y-102769200D01*
X133572285Y-102769200D02*
X133619904Y-102721580D01*
X133619904Y-102721580D02*
X133667523Y-102626342D01*
X133667523Y-102626342D02*
X133667523Y-101816819D01*
X134667523Y-102816819D02*
X134096095Y-102816819D01*
X134381809Y-102816819D02*
X134381809Y-101816819D01*
X134381809Y-101816819D02*
X134286571Y-101959676D01*
X134286571Y-101959676D02*
X134191333Y-102054914D01*
X134191333Y-102054914D02*
X134096095Y-102102533D01*
X93240666Y-109732819D02*
X93240666Y-110447104D01*
X93240666Y-110447104D02*
X93193047Y-110589961D01*
X93193047Y-110589961D02*
X93097809Y-110685200D01*
X93097809Y-110685200D02*
X92954952Y-110732819D01*
X92954952Y-110732819D02*
X92859714Y-110732819D01*
X94240666Y-110732819D02*
X93669238Y-110732819D01*
X93954952Y-110732819D02*
X93954952Y-109732819D01*
X93954952Y-109732819D02*
X93859714Y-109875676D01*
X93859714Y-109875676D02*
X93764476Y-109970914D01*
X93764476Y-109970914D02*
X93669238Y-110018533D01*
X183507142Y-120342819D02*
X183173809Y-119866628D01*
X182935714Y-120342819D02*
X182935714Y-119342819D01*
X182935714Y-119342819D02*
X183316666Y-119342819D01*
X183316666Y-119342819D02*
X183411904Y-119390438D01*
X183411904Y-119390438D02*
X183459523Y-119438057D01*
X183459523Y-119438057D02*
X183507142Y-119533295D01*
X183507142Y-119533295D02*
X183507142Y-119676152D01*
X183507142Y-119676152D02*
X183459523Y-119771390D01*
X183459523Y-119771390D02*
X183411904Y-119819009D01*
X183411904Y-119819009D02*
X183316666Y-119866628D01*
X183316666Y-119866628D02*
X182935714Y-119866628D01*
X184459523Y-120342819D02*
X183888095Y-120342819D01*
X184173809Y-120342819D02*
X184173809Y-119342819D01*
X184173809Y-119342819D02*
X184078571Y-119485676D01*
X184078571Y-119485676D02*
X183983333Y-119580914D01*
X183983333Y-119580914D02*
X183888095Y-119628533D01*
X185030952Y-119771390D02*
X184935714Y-119723771D01*
X184935714Y-119723771D02*
X184888095Y-119676152D01*
X184888095Y-119676152D02*
X184840476Y-119580914D01*
X184840476Y-119580914D02*
X184840476Y-119533295D01*
X184840476Y-119533295D02*
X184888095Y-119438057D01*
X184888095Y-119438057D02*
X184935714Y-119390438D01*
X184935714Y-119390438D02*
X185030952Y-119342819D01*
X185030952Y-119342819D02*
X185221428Y-119342819D01*
X185221428Y-119342819D02*
X185316666Y-119390438D01*
X185316666Y-119390438D02*
X185364285Y-119438057D01*
X185364285Y-119438057D02*
X185411904Y-119533295D01*
X185411904Y-119533295D02*
X185411904Y-119580914D01*
X185411904Y-119580914D02*
X185364285Y-119676152D01*
X185364285Y-119676152D02*
X185316666Y-119723771D01*
X185316666Y-119723771D02*
X185221428Y-119771390D01*
X185221428Y-119771390D02*
X185030952Y-119771390D01*
X185030952Y-119771390D02*
X184935714Y-119819009D01*
X184935714Y-119819009D02*
X184888095Y-119866628D01*
X184888095Y-119866628D02*
X184840476Y-119961866D01*
X184840476Y-119961866D02*
X184840476Y-120152342D01*
X184840476Y-120152342D02*
X184888095Y-120247580D01*
X184888095Y-120247580D02*
X184935714Y-120295200D01*
X184935714Y-120295200D02*
X185030952Y-120342819D01*
X185030952Y-120342819D02*
X185221428Y-120342819D01*
X185221428Y-120342819D02*
X185316666Y-120295200D01*
X185316666Y-120295200D02*
X185364285Y-120247580D01*
X185364285Y-120247580D02*
X185411904Y-120152342D01*
X185411904Y-120152342D02*
X185411904Y-119961866D01*
X185411904Y-119961866D02*
X185364285Y-119866628D01*
X185364285Y-119866628D02*
X185316666Y-119819009D01*
X185316666Y-119819009D02*
X185221428Y-119771390D01*
X158747905Y-106626819D02*
X158747905Y-105626819D01*
X158747905Y-105626819D02*
X158986000Y-105626819D01*
X158986000Y-105626819D02*
X159128857Y-105674438D01*
X159128857Y-105674438D02*
X159224095Y-105769676D01*
X159224095Y-105769676D02*
X159271714Y-105864914D01*
X159271714Y-105864914D02*
X159319333Y-106055390D01*
X159319333Y-106055390D02*
X159319333Y-106198247D01*
X159319333Y-106198247D02*
X159271714Y-106388723D01*
X159271714Y-106388723D02*
X159224095Y-106483961D01*
X159224095Y-106483961D02*
X159128857Y-106579200D01*
X159128857Y-106579200D02*
X158986000Y-106626819D01*
X158986000Y-106626819D02*
X158747905Y-106626819D01*
X160224095Y-105626819D02*
X159747905Y-105626819D01*
X159747905Y-105626819D02*
X159700286Y-106103009D01*
X159700286Y-106103009D02*
X159747905Y-106055390D01*
X159747905Y-106055390D02*
X159843143Y-106007771D01*
X159843143Y-106007771D02*
X160081238Y-106007771D01*
X160081238Y-106007771D02*
X160176476Y-106055390D01*
X160176476Y-106055390D02*
X160224095Y-106103009D01*
X160224095Y-106103009D02*
X160271714Y-106198247D01*
X160271714Y-106198247D02*
X160271714Y-106436342D01*
X160271714Y-106436342D02*
X160224095Y-106531580D01*
X160224095Y-106531580D02*
X160176476Y-106579200D01*
X160176476Y-106579200D02*
X160081238Y-106626819D01*
X160081238Y-106626819D02*
X159843143Y-106626819D01*
X159843143Y-106626819D02*
X159747905Y-106579200D01*
X159747905Y-106579200D02*
X159700286Y-106531580D01*
X145153142Y-116532819D02*
X144819809Y-116056628D01*
X144581714Y-116532819D02*
X144581714Y-115532819D01*
X144581714Y-115532819D02*
X144962666Y-115532819D01*
X144962666Y-115532819D02*
X145057904Y-115580438D01*
X145057904Y-115580438D02*
X145105523Y-115628057D01*
X145105523Y-115628057D02*
X145153142Y-115723295D01*
X145153142Y-115723295D02*
X145153142Y-115866152D01*
X145153142Y-115866152D02*
X145105523Y-115961390D01*
X145105523Y-115961390D02*
X145057904Y-116009009D01*
X145057904Y-116009009D02*
X144962666Y-116056628D01*
X144962666Y-116056628D02*
X144581714Y-116056628D01*
X146105523Y-116532819D02*
X145534095Y-116532819D01*
X145819809Y-116532819D02*
X145819809Y-115532819D01*
X145819809Y-115532819D02*
X145724571Y-115675676D01*
X145724571Y-115675676D02*
X145629333Y-115770914D01*
X145629333Y-115770914D02*
X145534095Y-115818533D01*
X146486476Y-115628057D02*
X146534095Y-115580438D01*
X146534095Y-115580438D02*
X146629333Y-115532819D01*
X146629333Y-115532819D02*
X146867428Y-115532819D01*
X146867428Y-115532819D02*
X146962666Y-115580438D01*
X146962666Y-115580438D02*
X147010285Y-115628057D01*
X147010285Y-115628057D02*
X147057904Y-115723295D01*
X147057904Y-115723295D02*
X147057904Y-115818533D01*
X147057904Y-115818533D02*
X147010285Y-115961390D01*
X147010285Y-115961390D02*
X146438857Y-116532819D01*
X146438857Y-116532819D02*
X147057904Y-116532819D01*
X163441142Y-114500819D02*
X163107809Y-114024628D01*
X162869714Y-114500819D02*
X162869714Y-113500819D01*
X162869714Y-113500819D02*
X163250666Y-113500819D01*
X163250666Y-113500819D02*
X163345904Y-113548438D01*
X163345904Y-113548438D02*
X163393523Y-113596057D01*
X163393523Y-113596057D02*
X163441142Y-113691295D01*
X163441142Y-113691295D02*
X163441142Y-113834152D01*
X163441142Y-113834152D02*
X163393523Y-113929390D01*
X163393523Y-113929390D02*
X163345904Y-113977009D01*
X163345904Y-113977009D02*
X163250666Y-114024628D01*
X163250666Y-114024628D02*
X162869714Y-114024628D01*
X164393523Y-114500819D02*
X163822095Y-114500819D01*
X164107809Y-114500819D02*
X164107809Y-113500819D01*
X164107809Y-113500819D02*
X164012571Y-113643676D01*
X164012571Y-113643676D02*
X163917333Y-113738914D01*
X163917333Y-113738914D02*
X163822095Y-113786533D01*
X165250666Y-113834152D02*
X165250666Y-114500819D01*
X165012571Y-113453200D02*
X164774476Y-114167485D01*
X164774476Y-114167485D02*
X165393523Y-114167485D01*
X130643333Y-119739580D02*
X130595714Y-119787200D01*
X130595714Y-119787200D02*
X130452857Y-119834819D01*
X130452857Y-119834819D02*
X130357619Y-119834819D01*
X130357619Y-119834819D02*
X130214762Y-119787200D01*
X130214762Y-119787200D02*
X130119524Y-119691961D01*
X130119524Y-119691961D02*
X130071905Y-119596723D01*
X130071905Y-119596723D02*
X130024286Y-119406247D01*
X130024286Y-119406247D02*
X130024286Y-119263390D01*
X130024286Y-119263390D02*
X130071905Y-119072914D01*
X130071905Y-119072914D02*
X130119524Y-118977676D01*
X130119524Y-118977676D02*
X130214762Y-118882438D01*
X130214762Y-118882438D02*
X130357619Y-118834819D01*
X130357619Y-118834819D02*
X130452857Y-118834819D01*
X130452857Y-118834819D02*
X130595714Y-118882438D01*
X130595714Y-118882438D02*
X130643333Y-118930057D01*
X131214762Y-119263390D02*
X131119524Y-119215771D01*
X131119524Y-119215771D02*
X131071905Y-119168152D01*
X131071905Y-119168152D02*
X131024286Y-119072914D01*
X131024286Y-119072914D02*
X131024286Y-119025295D01*
X131024286Y-119025295D02*
X131071905Y-118930057D01*
X131071905Y-118930057D02*
X131119524Y-118882438D01*
X131119524Y-118882438D02*
X131214762Y-118834819D01*
X131214762Y-118834819D02*
X131405238Y-118834819D01*
X131405238Y-118834819D02*
X131500476Y-118882438D01*
X131500476Y-118882438D02*
X131548095Y-118930057D01*
X131548095Y-118930057D02*
X131595714Y-119025295D01*
X131595714Y-119025295D02*
X131595714Y-119072914D01*
X131595714Y-119072914D02*
X131548095Y-119168152D01*
X131548095Y-119168152D02*
X131500476Y-119215771D01*
X131500476Y-119215771D02*
X131405238Y-119263390D01*
X131405238Y-119263390D02*
X131214762Y-119263390D01*
X131214762Y-119263390D02*
X131119524Y-119311009D01*
X131119524Y-119311009D02*
X131071905Y-119358628D01*
X131071905Y-119358628D02*
X131024286Y-119453866D01*
X131024286Y-119453866D02*
X131024286Y-119644342D01*
X131024286Y-119644342D02*
X131071905Y-119739580D01*
X131071905Y-119739580D02*
X131119524Y-119787200D01*
X131119524Y-119787200D02*
X131214762Y-119834819D01*
X131214762Y-119834819D02*
X131405238Y-119834819D01*
X131405238Y-119834819D02*
X131500476Y-119787200D01*
X131500476Y-119787200D02*
X131548095Y-119739580D01*
X131548095Y-119739580D02*
X131595714Y-119644342D01*
X131595714Y-119644342D02*
X131595714Y-119453866D01*
X131595714Y-119453866D02*
X131548095Y-119358628D01*
X131548095Y-119358628D02*
X131500476Y-119311009D01*
X131500476Y-119311009D02*
X131405238Y-119263390D01*
X130643333Y-122628819D02*
X130310000Y-122152628D01*
X130071905Y-122628819D02*
X130071905Y-121628819D01*
X130071905Y-121628819D02*
X130452857Y-121628819D01*
X130452857Y-121628819D02*
X130548095Y-121676438D01*
X130548095Y-121676438D02*
X130595714Y-121724057D01*
X130595714Y-121724057D02*
X130643333Y-121819295D01*
X130643333Y-121819295D02*
X130643333Y-121962152D01*
X130643333Y-121962152D02*
X130595714Y-122057390D01*
X130595714Y-122057390D02*
X130548095Y-122105009D01*
X130548095Y-122105009D02*
X130452857Y-122152628D01*
X130452857Y-122152628D02*
X130071905Y-122152628D01*
X131119524Y-122628819D02*
X131310000Y-122628819D01*
X131310000Y-122628819D02*
X131405238Y-122581200D01*
X131405238Y-122581200D02*
X131452857Y-122533580D01*
X131452857Y-122533580D02*
X131548095Y-122390723D01*
X131548095Y-122390723D02*
X131595714Y-122200247D01*
X131595714Y-122200247D02*
X131595714Y-121819295D01*
X131595714Y-121819295D02*
X131548095Y-121724057D01*
X131548095Y-121724057D02*
X131500476Y-121676438D01*
X131500476Y-121676438D02*
X131405238Y-121628819D01*
X131405238Y-121628819D02*
X131214762Y-121628819D01*
X131214762Y-121628819D02*
X131119524Y-121676438D01*
X131119524Y-121676438D02*
X131071905Y-121724057D01*
X131071905Y-121724057D02*
X131024286Y-121819295D01*
X131024286Y-121819295D02*
X131024286Y-122057390D01*
X131024286Y-122057390D02*
X131071905Y-122152628D01*
X131071905Y-122152628D02*
X131119524Y-122200247D01*
X131119524Y-122200247D02*
X131214762Y-122247866D01*
X131214762Y-122247866D02*
X131405238Y-122247866D01*
X131405238Y-122247866D02*
X131500476Y-122200247D01*
X131500476Y-122200247D02*
X131548095Y-122152628D01*
X131548095Y-122152628D02*
X131595714Y-122057390D01*
X155313142Y-122533580D02*
X155265523Y-122581200D01*
X155265523Y-122581200D02*
X155122666Y-122628819D01*
X155122666Y-122628819D02*
X155027428Y-122628819D01*
X155027428Y-122628819D02*
X154884571Y-122581200D01*
X154884571Y-122581200D02*
X154789333Y-122485961D01*
X154789333Y-122485961D02*
X154741714Y-122390723D01*
X154741714Y-122390723D02*
X154694095Y-122200247D01*
X154694095Y-122200247D02*
X154694095Y-122057390D01*
X154694095Y-122057390D02*
X154741714Y-121866914D01*
X154741714Y-121866914D02*
X154789333Y-121771676D01*
X154789333Y-121771676D02*
X154884571Y-121676438D01*
X154884571Y-121676438D02*
X155027428Y-121628819D01*
X155027428Y-121628819D02*
X155122666Y-121628819D01*
X155122666Y-121628819D02*
X155265523Y-121676438D01*
X155265523Y-121676438D02*
X155313142Y-121724057D01*
X156265523Y-122628819D02*
X155694095Y-122628819D01*
X155979809Y-122628819D02*
X155979809Y-121628819D01*
X155979809Y-121628819D02*
X155884571Y-121771676D01*
X155884571Y-121771676D02*
X155789333Y-121866914D01*
X155789333Y-121866914D02*
X155694095Y-121914533D01*
X156884571Y-121628819D02*
X156979809Y-121628819D01*
X156979809Y-121628819D02*
X157075047Y-121676438D01*
X157075047Y-121676438D02*
X157122666Y-121724057D01*
X157122666Y-121724057D02*
X157170285Y-121819295D01*
X157170285Y-121819295D02*
X157217904Y-122009771D01*
X157217904Y-122009771D02*
X157217904Y-122247866D01*
X157217904Y-122247866D02*
X157170285Y-122438342D01*
X157170285Y-122438342D02*
X157122666Y-122533580D01*
X157122666Y-122533580D02*
X157075047Y-122581200D01*
X157075047Y-122581200D02*
X156979809Y-122628819D01*
X156979809Y-122628819D02*
X156884571Y-122628819D01*
X156884571Y-122628819D02*
X156789333Y-122581200D01*
X156789333Y-122581200D02*
X156741714Y-122533580D01*
X156741714Y-122533580D02*
X156694095Y-122438342D01*
X156694095Y-122438342D02*
X156646476Y-122247866D01*
X156646476Y-122247866D02*
X156646476Y-122009771D01*
X156646476Y-122009771D02*
X156694095Y-121819295D01*
X156694095Y-121819295D02*
X156741714Y-121724057D01*
X156741714Y-121724057D02*
X156789333Y-121676438D01*
X156789333Y-121676438D02*
X156884571Y-121628819D01*
X142073333Y-103483580D02*
X142025714Y-103531200D01*
X142025714Y-103531200D02*
X141882857Y-103578819D01*
X141882857Y-103578819D02*
X141787619Y-103578819D01*
X141787619Y-103578819D02*
X141644762Y-103531200D01*
X141644762Y-103531200D02*
X141549524Y-103435961D01*
X141549524Y-103435961D02*
X141501905Y-103340723D01*
X141501905Y-103340723D02*
X141454286Y-103150247D01*
X141454286Y-103150247D02*
X141454286Y-103007390D01*
X141454286Y-103007390D02*
X141501905Y-102816914D01*
X141501905Y-102816914D02*
X141549524Y-102721676D01*
X141549524Y-102721676D02*
X141644762Y-102626438D01*
X141644762Y-102626438D02*
X141787619Y-102578819D01*
X141787619Y-102578819D02*
X141882857Y-102578819D01*
X141882857Y-102578819D02*
X142025714Y-102626438D01*
X142025714Y-102626438D02*
X142073333Y-102674057D01*
X142549524Y-103578819D02*
X142740000Y-103578819D01*
X142740000Y-103578819D02*
X142835238Y-103531200D01*
X142835238Y-103531200D02*
X142882857Y-103483580D01*
X142882857Y-103483580D02*
X142978095Y-103340723D01*
X142978095Y-103340723D02*
X143025714Y-103150247D01*
X143025714Y-103150247D02*
X143025714Y-102769295D01*
X143025714Y-102769295D02*
X142978095Y-102674057D01*
X142978095Y-102674057D02*
X142930476Y-102626438D01*
X142930476Y-102626438D02*
X142835238Y-102578819D01*
X142835238Y-102578819D02*
X142644762Y-102578819D01*
X142644762Y-102578819D02*
X142549524Y-102626438D01*
X142549524Y-102626438D02*
X142501905Y-102674057D01*
X142501905Y-102674057D02*
X142454286Y-102769295D01*
X142454286Y-102769295D02*
X142454286Y-103007390D01*
X142454286Y-103007390D02*
X142501905Y-103102628D01*
X142501905Y-103102628D02*
X142549524Y-103150247D01*
X142549524Y-103150247D02*
X142644762Y-103197866D01*
X142644762Y-103197866D02*
X142835238Y-103197866D01*
X142835238Y-103197866D02*
X142930476Y-103150247D01*
X142930476Y-103150247D02*
X142978095Y-103102628D01*
X142978095Y-103102628D02*
X143025714Y-103007390D01*
X126325333Y-101546819D02*
X125992000Y-101070628D01*
X125753905Y-101546819D02*
X125753905Y-100546819D01*
X125753905Y-100546819D02*
X126134857Y-100546819D01*
X126134857Y-100546819D02*
X126230095Y-100594438D01*
X126230095Y-100594438D02*
X126277714Y-100642057D01*
X126277714Y-100642057D02*
X126325333Y-100737295D01*
X126325333Y-100737295D02*
X126325333Y-100880152D01*
X126325333Y-100880152D02*
X126277714Y-100975390D01*
X126277714Y-100975390D02*
X126230095Y-101023009D01*
X126230095Y-101023009D02*
X126134857Y-101070628D01*
X126134857Y-101070628D02*
X125753905Y-101070628D01*
X127182476Y-100546819D02*
X126992000Y-100546819D01*
X126992000Y-100546819D02*
X126896762Y-100594438D01*
X126896762Y-100594438D02*
X126849143Y-100642057D01*
X126849143Y-100642057D02*
X126753905Y-100784914D01*
X126753905Y-100784914D02*
X126706286Y-100975390D01*
X126706286Y-100975390D02*
X126706286Y-101356342D01*
X126706286Y-101356342D02*
X126753905Y-101451580D01*
X126753905Y-101451580D02*
X126801524Y-101499200D01*
X126801524Y-101499200D02*
X126896762Y-101546819D01*
X126896762Y-101546819D02*
X127087238Y-101546819D01*
X127087238Y-101546819D02*
X127182476Y-101499200D01*
X127182476Y-101499200D02*
X127230095Y-101451580D01*
X127230095Y-101451580D02*
X127277714Y-101356342D01*
X127277714Y-101356342D02*
X127277714Y-101118247D01*
X127277714Y-101118247D02*
X127230095Y-101023009D01*
X127230095Y-101023009D02*
X127182476Y-100975390D01*
X127182476Y-100975390D02*
X127087238Y-100927771D01*
X127087238Y-100927771D02*
X126896762Y-100927771D01*
X126896762Y-100927771D02*
X126801524Y-100975390D01*
X126801524Y-100975390D02*
X126753905Y-101023009D01*
X126753905Y-101023009D02*
X126706286Y-101118247D01*
X115911333Y-109071580D02*
X115863714Y-109119200D01*
X115863714Y-109119200D02*
X115720857Y-109166819D01*
X115720857Y-109166819D02*
X115625619Y-109166819D01*
X115625619Y-109166819D02*
X115482762Y-109119200D01*
X115482762Y-109119200D02*
X115387524Y-109023961D01*
X115387524Y-109023961D02*
X115339905Y-108928723D01*
X115339905Y-108928723D02*
X115292286Y-108738247D01*
X115292286Y-108738247D02*
X115292286Y-108595390D01*
X115292286Y-108595390D02*
X115339905Y-108404914D01*
X115339905Y-108404914D02*
X115387524Y-108309676D01*
X115387524Y-108309676D02*
X115482762Y-108214438D01*
X115482762Y-108214438D02*
X115625619Y-108166819D01*
X115625619Y-108166819D02*
X115720857Y-108166819D01*
X115720857Y-108166819D02*
X115863714Y-108214438D01*
X115863714Y-108214438D02*
X115911333Y-108262057D01*
X116816095Y-108166819D02*
X116339905Y-108166819D01*
X116339905Y-108166819D02*
X116292286Y-108643009D01*
X116292286Y-108643009D02*
X116339905Y-108595390D01*
X116339905Y-108595390D02*
X116435143Y-108547771D01*
X116435143Y-108547771D02*
X116673238Y-108547771D01*
X116673238Y-108547771D02*
X116768476Y-108595390D01*
X116768476Y-108595390D02*
X116816095Y-108643009D01*
X116816095Y-108643009D02*
X116863714Y-108738247D01*
X116863714Y-108738247D02*
X116863714Y-108976342D01*
X116863714Y-108976342D02*
X116816095Y-109071580D01*
X116816095Y-109071580D02*
X116768476Y-109119200D01*
X116768476Y-109119200D02*
X116673238Y-109166819D01*
X116673238Y-109166819D02*
X116435143Y-109166819D01*
X116435143Y-109166819D02*
X116339905Y-109119200D01*
X116339905Y-109119200D02*
X116292286Y-109071580D01*
X126579333Y-111611580D02*
X126531714Y-111659200D01*
X126531714Y-111659200D02*
X126388857Y-111706819D01*
X126388857Y-111706819D02*
X126293619Y-111706819D01*
X126293619Y-111706819D02*
X126150762Y-111659200D01*
X126150762Y-111659200D02*
X126055524Y-111563961D01*
X126055524Y-111563961D02*
X126007905Y-111468723D01*
X126007905Y-111468723D02*
X125960286Y-111278247D01*
X125960286Y-111278247D02*
X125960286Y-111135390D01*
X125960286Y-111135390D02*
X126007905Y-110944914D01*
X126007905Y-110944914D02*
X126055524Y-110849676D01*
X126055524Y-110849676D02*
X126150762Y-110754438D01*
X126150762Y-110754438D02*
X126293619Y-110706819D01*
X126293619Y-110706819D02*
X126388857Y-110706819D01*
X126388857Y-110706819D02*
X126531714Y-110754438D01*
X126531714Y-110754438D02*
X126579333Y-110802057D01*
X127436476Y-110706819D02*
X127246000Y-110706819D01*
X127246000Y-110706819D02*
X127150762Y-110754438D01*
X127150762Y-110754438D02*
X127103143Y-110802057D01*
X127103143Y-110802057D02*
X127007905Y-110944914D01*
X127007905Y-110944914D02*
X126960286Y-111135390D01*
X126960286Y-111135390D02*
X126960286Y-111516342D01*
X126960286Y-111516342D02*
X127007905Y-111611580D01*
X127007905Y-111611580D02*
X127055524Y-111659200D01*
X127055524Y-111659200D02*
X127150762Y-111706819D01*
X127150762Y-111706819D02*
X127341238Y-111706819D01*
X127341238Y-111706819D02*
X127436476Y-111659200D01*
X127436476Y-111659200D02*
X127484095Y-111611580D01*
X127484095Y-111611580D02*
X127531714Y-111516342D01*
X127531714Y-111516342D02*
X127531714Y-111278247D01*
X127531714Y-111278247D02*
X127484095Y-111183009D01*
X127484095Y-111183009D02*
X127436476Y-111135390D01*
X127436476Y-111135390D02*
X127341238Y-111087771D01*
X127341238Y-111087771D02*
X127150762Y-111087771D01*
X127150762Y-111087771D02*
X127055524Y-111135390D01*
X127055524Y-111135390D02*
X127007905Y-111183009D01*
X127007905Y-111183009D02*
X126960286Y-111278247D01*
X164338095Y-104102819D02*
X164338095Y-104912342D01*
X164338095Y-104912342D02*
X164385714Y-105007580D01*
X164385714Y-105007580D02*
X164433333Y-105055200D01*
X164433333Y-105055200D02*
X164528571Y-105102819D01*
X164528571Y-105102819D02*
X164719047Y-105102819D01*
X164719047Y-105102819D02*
X164814285Y-105055200D01*
X164814285Y-105055200D02*
X164861904Y-105007580D01*
X164861904Y-105007580D02*
X164909523Y-104912342D01*
X164909523Y-104912342D02*
X164909523Y-104102819D01*
X165338095Y-104198057D02*
X165385714Y-104150438D01*
X165385714Y-104150438D02*
X165480952Y-104102819D01*
X165480952Y-104102819D02*
X165719047Y-104102819D01*
X165719047Y-104102819D02*
X165814285Y-104150438D01*
X165814285Y-104150438D02*
X165861904Y-104198057D01*
X165861904Y-104198057D02*
X165909523Y-104293295D01*
X165909523Y-104293295D02*
X165909523Y-104388533D01*
X165909523Y-104388533D02*
X165861904Y-104531390D01*
X165861904Y-104531390D02*
X165290476Y-105102819D01*
X165290476Y-105102819D02*
X165909523Y-105102819D01*
X148963142Y-116532819D02*
X148629809Y-116056628D01*
X148391714Y-116532819D02*
X148391714Y-115532819D01*
X148391714Y-115532819D02*
X148772666Y-115532819D01*
X148772666Y-115532819D02*
X148867904Y-115580438D01*
X148867904Y-115580438D02*
X148915523Y-115628057D01*
X148915523Y-115628057D02*
X148963142Y-115723295D01*
X148963142Y-115723295D02*
X148963142Y-115866152D01*
X148963142Y-115866152D02*
X148915523Y-115961390D01*
X148915523Y-115961390D02*
X148867904Y-116009009D01*
X148867904Y-116009009D02*
X148772666Y-116056628D01*
X148772666Y-116056628D02*
X148391714Y-116056628D01*
X149915523Y-116532819D02*
X149344095Y-116532819D01*
X149629809Y-116532819D02*
X149629809Y-115532819D01*
X149629809Y-115532819D02*
X149534571Y-115675676D01*
X149534571Y-115675676D02*
X149439333Y-115770914D01*
X149439333Y-115770914D02*
X149344095Y-115818533D01*
X150248857Y-115532819D02*
X150867904Y-115532819D01*
X150867904Y-115532819D02*
X150534571Y-115913771D01*
X150534571Y-115913771D02*
X150677428Y-115913771D01*
X150677428Y-115913771D02*
X150772666Y-115961390D01*
X150772666Y-115961390D02*
X150820285Y-116009009D01*
X150820285Y-116009009D02*
X150867904Y-116104247D01*
X150867904Y-116104247D02*
X150867904Y-116342342D01*
X150867904Y-116342342D02*
X150820285Y-116437580D01*
X150820285Y-116437580D02*
X150772666Y-116485200D01*
X150772666Y-116485200D02*
X150677428Y-116532819D01*
X150677428Y-116532819D02*
X150391714Y-116532819D01*
X150391714Y-116532819D02*
X150296476Y-116485200D01*
X150296476Y-116485200D02*
X150248857Y-116437580D01*
X194748666Y-92672819D02*
X194748666Y-93387104D01*
X194748666Y-93387104D02*
X194701047Y-93529961D01*
X194701047Y-93529961D02*
X194605809Y-93625200D01*
X194605809Y-93625200D02*
X194462952Y-93672819D01*
X194462952Y-93672819D02*
X194367714Y-93672819D01*
X195177238Y-92768057D02*
X195224857Y-92720438D01*
X195224857Y-92720438D02*
X195320095Y-92672819D01*
X195320095Y-92672819D02*
X195558190Y-92672819D01*
X195558190Y-92672819D02*
X195653428Y-92720438D01*
X195653428Y-92720438D02*
X195701047Y-92768057D01*
X195701047Y-92768057D02*
X195748666Y-92863295D01*
X195748666Y-92863295D02*
X195748666Y-92958533D01*
X195748666Y-92958533D02*
X195701047Y-93101390D01*
X195701047Y-93101390D02*
X195129619Y-93672819D01*
X195129619Y-93672819D02*
X195748666Y-93672819D01*
X170267333Y-99673580D02*
X170219714Y-99721200D01*
X170219714Y-99721200D02*
X170076857Y-99768819D01*
X170076857Y-99768819D02*
X169981619Y-99768819D01*
X169981619Y-99768819D02*
X169838762Y-99721200D01*
X169838762Y-99721200D02*
X169743524Y-99625961D01*
X169743524Y-99625961D02*
X169695905Y-99530723D01*
X169695905Y-99530723D02*
X169648286Y-99340247D01*
X169648286Y-99340247D02*
X169648286Y-99197390D01*
X169648286Y-99197390D02*
X169695905Y-99006914D01*
X169695905Y-99006914D02*
X169743524Y-98911676D01*
X169743524Y-98911676D02*
X169838762Y-98816438D01*
X169838762Y-98816438D02*
X169981619Y-98768819D01*
X169981619Y-98768819D02*
X170076857Y-98768819D01*
X170076857Y-98768819D02*
X170219714Y-98816438D01*
X170219714Y-98816438D02*
X170267333Y-98864057D01*
X171124476Y-99102152D02*
X171124476Y-99768819D01*
X170886381Y-98721200D02*
X170648286Y-99435485D01*
X170648286Y-99435485D02*
X171267333Y-99435485D01*
X175607142Y-106118819D02*
X175273809Y-105642628D01*
X175035714Y-106118819D02*
X175035714Y-105118819D01*
X175035714Y-105118819D02*
X175416666Y-105118819D01*
X175416666Y-105118819D02*
X175511904Y-105166438D01*
X175511904Y-105166438D02*
X175559523Y-105214057D01*
X175559523Y-105214057D02*
X175607142Y-105309295D01*
X175607142Y-105309295D02*
X175607142Y-105452152D01*
X175607142Y-105452152D02*
X175559523Y-105547390D01*
X175559523Y-105547390D02*
X175511904Y-105595009D01*
X175511904Y-105595009D02*
X175416666Y-105642628D01*
X175416666Y-105642628D02*
X175035714Y-105642628D01*
X176559523Y-106118819D02*
X175988095Y-106118819D01*
X176273809Y-106118819D02*
X176273809Y-105118819D01*
X176273809Y-105118819D02*
X176178571Y-105261676D01*
X176178571Y-105261676D02*
X176083333Y-105356914D01*
X176083333Y-105356914D02*
X175988095Y-105404533D01*
X177464285Y-105118819D02*
X176988095Y-105118819D01*
X176988095Y-105118819D02*
X176940476Y-105595009D01*
X176940476Y-105595009D02*
X176988095Y-105547390D01*
X176988095Y-105547390D02*
X177083333Y-105499771D01*
X177083333Y-105499771D02*
X177321428Y-105499771D01*
X177321428Y-105499771D02*
X177416666Y-105547390D01*
X177416666Y-105547390D02*
X177464285Y-105595009D01*
X177464285Y-105595009D02*
X177511904Y-105690247D01*
X177511904Y-105690247D02*
X177511904Y-105928342D01*
X177511904Y-105928342D02*
X177464285Y-106023580D01*
X177464285Y-106023580D02*
X177416666Y-106071200D01*
X177416666Y-106071200D02*
X177321428Y-106118819D01*
X177321428Y-106118819D02*
X177083333Y-106118819D01*
X177083333Y-106118819D02*
X176988095Y-106071200D01*
X176988095Y-106071200D02*
X176940476Y-106023580D01*
X126007905Y-105610819D02*
X126007905Y-104610819D01*
X126007905Y-104610819D02*
X126246000Y-104610819D01*
X126246000Y-104610819D02*
X126388857Y-104658438D01*
X126388857Y-104658438D02*
X126484095Y-104753676D01*
X126484095Y-104753676D02*
X126531714Y-104848914D01*
X126531714Y-104848914D02*
X126579333Y-105039390D01*
X126579333Y-105039390D02*
X126579333Y-105182247D01*
X126579333Y-105182247D02*
X126531714Y-105372723D01*
X126531714Y-105372723D02*
X126484095Y-105467961D01*
X126484095Y-105467961D02*
X126388857Y-105563200D01*
X126388857Y-105563200D02*
X126246000Y-105610819D01*
X126246000Y-105610819D02*
X126007905Y-105610819D01*
X127531714Y-105610819D02*
X126960286Y-105610819D01*
X127246000Y-105610819D02*
X127246000Y-104610819D01*
X127246000Y-104610819D02*
X127150762Y-104753676D01*
X127150762Y-104753676D02*
X127055524Y-104848914D01*
X127055524Y-104848914D02*
X126960286Y-104896533D01*
X127170819Y-92289238D02*
X126694628Y-92622571D01*
X127170819Y-92860666D02*
X126170819Y-92860666D01*
X126170819Y-92860666D02*
X126170819Y-92479714D01*
X126170819Y-92479714D02*
X126218438Y-92384476D01*
X126218438Y-92384476D02*
X126266057Y-92336857D01*
X126266057Y-92336857D02*
X126361295Y-92289238D01*
X126361295Y-92289238D02*
X126504152Y-92289238D01*
X126504152Y-92289238D02*
X126599390Y-92336857D01*
X126599390Y-92336857D02*
X126647009Y-92384476D01*
X126647009Y-92384476D02*
X126694628Y-92479714D01*
X126694628Y-92479714D02*
X126694628Y-92860666D01*
X126170819Y-92003523D02*
X127170819Y-91670190D01*
X127170819Y-91670190D02*
X126170819Y-91336857D01*
X127170819Y-90479714D02*
X127170819Y-91051142D01*
X127170819Y-90765428D02*
X126170819Y-90765428D01*
X126170819Y-90765428D02*
X126313676Y-90860666D01*
X126313676Y-90860666D02*
X126408914Y-90955904D01*
X126408914Y-90955904D02*
X126456533Y-91051142D01*
X130643333Y-117040819D02*
X130310000Y-116564628D01*
X130071905Y-117040819D02*
X130071905Y-116040819D01*
X130071905Y-116040819D02*
X130452857Y-116040819D01*
X130452857Y-116040819D02*
X130548095Y-116088438D01*
X130548095Y-116088438D02*
X130595714Y-116136057D01*
X130595714Y-116136057D02*
X130643333Y-116231295D01*
X130643333Y-116231295D02*
X130643333Y-116374152D01*
X130643333Y-116374152D02*
X130595714Y-116469390D01*
X130595714Y-116469390D02*
X130548095Y-116517009D01*
X130548095Y-116517009D02*
X130452857Y-116564628D01*
X130452857Y-116564628D02*
X130071905Y-116564628D01*
X131214762Y-116469390D02*
X131119524Y-116421771D01*
X131119524Y-116421771D02*
X131071905Y-116374152D01*
X131071905Y-116374152D02*
X131024286Y-116278914D01*
X131024286Y-116278914D02*
X131024286Y-116231295D01*
X131024286Y-116231295D02*
X131071905Y-116136057D01*
X131071905Y-116136057D02*
X131119524Y-116088438D01*
X131119524Y-116088438D02*
X131214762Y-116040819D01*
X131214762Y-116040819D02*
X131405238Y-116040819D01*
X131405238Y-116040819D02*
X131500476Y-116088438D01*
X131500476Y-116088438D02*
X131548095Y-116136057D01*
X131548095Y-116136057D02*
X131595714Y-116231295D01*
X131595714Y-116231295D02*
X131595714Y-116278914D01*
X131595714Y-116278914D02*
X131548095Y-116374152D01*
X131548095Y-116374152D02*
X131500476Y-116421771D01*
X131500476Y-116421771D02*
X131405238Y-116469390D01*
X131405238Y-116469390D02*
X131214762Y-116469390D01*
X131214762Y-116469390D02*
X131119524Y-116517009D01*
X131119524Y-116517009D02*
X131071905Y-116564628D01*
X131071905Y-116564628D02*
X131024286Y-116659866D01*
X131024286Y-116659866D02*
X131024286Y-116850342D01*
X131024286Y-116850342D02*
X131071905Y-116945580D01*
X131071905Y-116945580D02*
X131119524Y-116993200D01*
X131119524Y-116993200D02*
X131214762Y-117040819D01*
X131214762Y-117040819D02*
X131405238Y-117040819D01*
X131405238Y-117040819D02*
X131500476Y-116993200D01*
X131500476Y-116993200D02*
X131548095Y-116945580D01*
X131548095Y-116945580D02*
X131595714Y-116850342D01*
X131595714Y-116850342D02*
X131595714Y-116659866D01*
X131595714Y-116659866D02*
X131548095Y-116564628D01*
X131548095Y-116564628D02*
X131500476Y-116517009D01*
X131500476Y-116517009D02*
X131405238Y-116469390D01*
X126579333Y-108658819D02*
X126246000Y-108182628D01*
X126007905Y-108658819D02*
X126007905Y-107658819D01*
X126007905Y-107658819D02*
X126388857Y-107658819D01*
X126388857Y-107658819D02*
X126484095Y-107706438D01*
X126484095Y-107706438D02*
X126531714Y-107754057D01*
X126531714Y-107754057D02*
X126579333Y-107849295D01*
X126579333Y-107849295D02*
X126579333Y-107992152D01*
X126579333Y-107992152D02*
X126531714Y-108087390D01*
X126531714Y-108087390D02*
X126484095Y-108135009D01*
X126484095Y-108135009D02*
X126388857Y-108182628D01*
X126388857Y-108182628D02*
X126007905Y-108182628D01*
X127484095Y-107658819D02*
X127007905Y-107658819D01*
X127007905Y-107658819D02*
X126960286Y-108135009D01*
X126960286Y-108135009D02*
X127007905Y-108087390D01*
X127007905Y-108087390D02*
X127103143Y-108039771D01*
X127103143Y-108039771D02*
X127341238Y-108039771D01*
X127341238Y-108039771D02*
X127436476Y-108087390D01*
X127436476Y-108087390D02*
X127484095Y-108135009D01*
X127484095Y-108135009D02*
X127531714Y-108230247D01*
X127531714Y-108230247D02*
X127531714Y-108468342D01*
X127531714Y-108468342D02*
X127484095Y-108563580D01*
X127484095Y-108563580D02*
X127436476Y-108611200D01*
X127436476Y-108611200D02*
X127341238Y-108658819D01*
X127341238Y-108658819D02*
X127103143Y-108658819D01*
X127103143Y-108658819D02*
X127007905Y-108611200D01*
X127007905Y-108611200D02*
X126960286Y-108563580D01*
X155725905Y-119834819D02*
X155725905Y-118834819D01*
X155725905Y-118834819D02*
X155964000Y-118834819D01*
X155964000Y-118834819D02*
X156106857Y-118882438D01*
X156106857Y-118882438D02*
X156202095Y-118977676D01*
X156202095Y-118977676D02*
X156249714Y-119072914D01*
X156249714Y-119072914D02*
X156297333Y-119263390D01*
X156297333Y-119263390D02*
X156297333Y-119406247D01*
X156297333Y-119406247D02*
X156249714Y-119596723D01*
X156249714Y-119596723D02*
X156202095Y-119691961D01*
X156202095Y-119691961D02*
X156106857Y-119787200D01*
X156106857Y-119787200D02*
X155964000Y-119834819D01*
X155964000Y-119834819D02*
X155725905Y-119834819D01*
X156630667Y-118834819D02*
X157297333Y-118834819D01*
X157297333Y-118834819D02*
X156868762Y-119834819D01*
X155725905Y-117294819D02*
X155725905Y-116294819D01*
X155725905Y-116294819D02*
X155964000Y-116294819D01*
X155964000Y-116294819D02*
X156106857Y-116342438D01*
X156106857Y-116342438D02*
X156202095Y-116437676D01*
X156202095Y-116437676D02*
X156249714Y-116532914D01*
X156249714Y-116532914D02*
X156297333Y-116723390D01*
X156297333Y-116723390D02*
X156297333Y-116866247D01*
X156297333Y-116866247D02*
X156249714Y-117056723D01*
X156249714Y-117056723D02*
X156202095Y-117151961D01*
X156202095Y-117151961D02*
X156106857Y-117247200D01*
X156106857Y-117247200D02*
X155964000Y-117294819D01*
X155964000Y-117294819D02*
X155725905Y-117294819D01*
X156868762Y-116723390D02*
X156773524Y-116675771D01*
X156773524Y-116675771D02*
X156725905Y-116628152D01*
X156725905Y-116628152D02*
X156678286Y-116532914D01*
X156678286Y-116532914D02*
X156678286Y-116485295D01*
X156678286Y-116485295D02*
X156725905Y-116390057D01*
X156725905Y-116390057D02*
X156773524Y-116342438D01*
X156773524Y-116342438D02*
X156868762Y-116294819D01*
X156868762Y-116294819D02*
X157059238Y-116294819D01*
X157059238Y-116294819D02*
X157154476Y-116342438D01*
X157154476Y-116342438D02*
X157202095Y-116390057D01*
X157202095Y-116390057D02*
X157249714Y-116485295D01*
X157249714Y-116485295D02*
X157249714Y-116532914D01*
X157249714Y-116532914D02*
X157202095Y-116628152D01*
X157202095Y-116628152D02*
X157154476Y-116675771D01*
X157154476Y-116675771D02*
X157059238Y-116723390D01*
X157059238Y-116723390D02*
X156868762Y-116723390D01*
X156868762Y-116723390D02*
X156773524Y-116771009D01*
X156773524Y-116771009D02*
X156725905Y-116818628D01*
X156725905Y-116818628D02*
X156678286Y-116913866D01*
X156678286Y-116913866D02*
X156678286Y-117104342D01*
X156678286Y-117104342D02*
X156725905Y-117199580D01*
X156725905Y-117199580D02*
X156773524Y-117247200D01*
X156773524Y-117247200D02*
X156868762Y-117294819D01*
X156868762Y-117294819D02*
X157059238Y-117294819D01*
X157059238Y-117294819D02*
X157154476Y-117247200D01*
X157154476Y-117247200D02*
X157202095Y-117199580D01*
X157202095Y-117199580D02*
X157249714Y-117104342D01*
X157249714Y-117104342D02*
X157249714Y-116913866D01*
X157249714Y-116913866D02*
X157202095Y-116818628D01*
X157202095Y-116818628D02*
X157154476Y-116771009D01*
X157154476Y-116771009D02*
X157059238Y-116723390D01*
X167473333Y-99673580D02*
X167425714Y-99721200D01*
X167425714Y-99721200D02*
X167282857Y-99768819D01*
X167282857Y-99768819D02*
X167187619Y-99768819D01*
X167187619Y-99768819D02*
X167044762Y-99721200D01*
X167044762Y-99721200D02*
X166949524Y-99625961D01*
X166949524Y-99625961D02*
X166901905Y-99530723D01*
X166901905Y-99530723D02*
X166854286Y-99340247D01*
X166854286Y-99340247D02*
X166854286Y-99197390D01*
X166854286Y-99197390D02*
X166901905Y-99006914D01*
X166901905Y-99006914D02*
X166949524Y-98911676D01*
X166949524Y-98911676D02*
X167044762Y-98816438D01*
X167044762Y-98816438D02*
X167187619Y-98768819D01*
X167187619Y-98768819D02*
X167282857Y-98768819D01*
X167282857Y-98768819D02*
X167425714Y-98816438D01*
X167425714Y-98816438D02*
X167473333Y-98864057D01*
X167806667Y-98768819D02*
X168425714Y-98768819D01*
X168425714Y-98768819D02*
X168092381Y-99149771D01*
X168092381Y-99149771D02*
X168235238Y-99149771D01*
X168235238Y-99149771D02*
X168330476Y-99197390D01*
X168330476Y-99197390D02*
X168378095Y-99245009D01*
X168378095Y-99245009D02*
X168425714Y-99340247D01*
X168425714Y-99340247D02*
X168425714Y-99578342D01*
X168425714Y-99578342D02*
X168378095Y-99673580D01*
X168378095Y-99673580D02*
X168330476Y-99721200D01*
X168330476Y-99721200D02*
X168235238Y-99768819D01*
X168235238Y-99768819D02*
X167949524Y-99768819D01*
X167949524Y-99768819D02*
X167854286Y-99721200D01*
X167854286Y-99721200D02*
X167806667Y-99673580D01*
X139025333Y-99514819D02*
X138692000Y-99038628D01*
X138453905Y-99514819D02*
X138453905Y-98514819D01*
X138453905Y-98514819D02*
X138834857Y-98514819D01*
X138834857Y-98514819D02*
X138930095Y-98562438D01*
X138930095Y-98562438D02*
X138977714Y-98610057D01*
X138977714Y-98610057D02*
X139025333Y-98705295D01*
X139025333Y-98705295D02*
X139025333Y-98848152D01*
X139025333Y-98848152D02*
X138977714Y-98943390D01*
X138977714Y-98943390D02*
X138930095Y-98991009D01*
X138930095Y-98991009D02*
X138834857Y-99038628D01*
X138834857Y-99038628D02*
X138453905Y-99038628D01*
X139358667Y-98514819D02*
X140025333Y-98514819D01*
X140025333Y-98514819D02*
X139596762Y-99514819D01*
X118705333Y-102308819D02*
X118372000Y-101832628D01*
X118133905Y-102308819D02*
X118133905Y-101308819D01*
X118133905Y-101308819D02*
X118514857Y-101308819D01*
X118514857Y-101308819D02*
X118610095Y-101356438D01*
X118610095Y-101356438D02*
X118657714Y-101404057D01*
X118657714Y-101404057D02*
X118705333Y-101499295D01*
X118705333Y-101499295D02*
X118705333Y-101642152D01*
X118705333Y-101642152D02*
X118657714Y-101737390D01*
X118657714Y-101737390D02*
X118610095Y-101785009D01*
X118610095Y-101785009D02*
X118514857Y-101832628D01*
X118514857Y-101832628D02*
X118133905Y-101832628D01*
X119038667Y-101308819D02*
X119657714Y-101308819D01*
X119657714Y-101308819D02*
X119324381Y-101689771D01*
X119324381Y-101689771D02*
X119467238Y-101689771D01*
X119467238Y-101689771D02*
X119562476Y-101737390D01*
X119562476Y-101737390D02*
X119610095Y-101785009D01*
X119610095Y-101785009D02*
X119657714Y-101880247D01*
X119657714Y-101880247D02*
X119657714Y-102118342D01*
X119657714Y-102118342D02*
X119610095Y-102213580D01*
X119610095Y-102213580D02*
X119562476Y-102261200D01*
X119562476Y-102261200D02*
X119467238Y-102308819D01*
X119467238Y-102308819D02*
X119181524Y-102308819D01*
X119181524Y-102308819D02*
X119086286Y-102261200D01*
X119086286Y-102261200D02*
X119038667Y-102213580D01*
X111847333Y-106118819D02*
X111514000Y-105642628D01*
X111275905Y-106118819D02*
X111275905Y-105118819D01*
X111275905Y-105118819D02*
X111656857Y-105118819D01*
X111656857Y-105118819D02*
X111752095Y-105166438D01*
X111752095Y-105166438D02*
X111799714Y-105214057D01*
X111799714Y-105214057D02*
X111847333Y-105309295D01*
X111847333Y-105309295D02*
X111847333Y-105452152D01*
X111847333Y-105452152D02*
X111799714Y-105547390D01*
X111799714Y-105547390D02*
X111752095Y-105595009D01*
X111752095Y-105595009D02*
X111656857Y-105642628D01*
X111656857Y-105642628D02*
X111275905Y-105642628D01*
X112799714Y-106118819D02*
X112228286Y-106118819D01*
X112514000Y-106118819D02*
X112514000Y-105118819D01*
X112514000Y-105118819D02*
X112418762Y-105261676D01*
X112418762Y-105261676D02*
X112323524Y-105356914D01*
X112323524Y-105356914D02*
X112228286Y-105404533D01*
X126007905Y-114500819D02*
X126007905Y-113500819D01*
X126007905Y-113500819D02*
X126246000Y-113500819D01*
X126246000Y-113500819D02*
X126388857Y-113548438D01*
X126388857Y-113548438D02*
X126484095Y-113643676D01*
X126484095Y-113643676D02*
X126531714Y-113738914D01*
X126531714Y-113738914D02*
X126579333Y-113929390D01*
X126579333Y-113929390D02*
X126579333Y-114072247D01*
X126579333Y-114072247D02*
X126531714Y-114262723D01*
X126531714Y-114262723D02*
X126484095Y-114357961D01*
X126484095Y-114357961D02*
X126388857Y-114453200D01*
X126388857Y-114453200D02*
X126246000Y-114500819D01*
X126246000Y-114500819D02*
X126007905Y-114500819D01*
X126960286Y-113596057D02*
X127007905Y-113548438D01*
X127007905Y-113548438D02*
X127103143Y-113500819D01*
X127103143Y-113500819D02*
X127341238Y-113500819D01*
X127341238Y-113500819D02*
X127436476Y-113548438D01*
X127436476Y-113548438D02*
X127484095Y-113596057D01*
X127484095Y-113596057D02*
X127531714Y-113691295D01*
X127531714Y-113691295D02*
X127531714Y-113786533D01*
X127531714Y-113786533D02*
X127484095Y-113929390D01*
X127484095Y-113929390D02*
X126912667Y-114500819D01*
X126912667Y-114500819D02*
X127531714Y-114500819D01*
X198805580Y-117013357D02*
X198853200Y-117060976D01*
X198853200Y-117060976D02*
X198900819Y-117203833D01*
X198900819Y-117203833D02*
X198900819Y-117299071D01*
X198900819Y-117299071D02*
X198853200Y-117441928D01*
X198853200Y-117441928D02*
X198757961Y-117537166D01*
X198757961Y-117537166D02*
X198662723Y-117584785D01*
X198662723Y-117584785D02*
X198472247Y-117632404D01*
X198472247Y-117632404D02*
X198329390Y-117632404D01*
X198329390Y-117632404D02*
X198138914Y-117584785D01*
X198138914Y-117584785D02*
X198043676Y-117537166D01*
X198043676Y-117537166D02*
X197948438Y-117441928D01*
X197948438Y-117441928D02*
X197900819Y-117299071D01*
X197900819Y-117299071D02*
X197900819Y-117203833D01*
X197900819Y-117203833D02*
X197948438Y-117060976D01*
X197948438Y-117060976D02*
X197996057Y-117013357D01*
X198900819Y-116060976D02*
X198900819Y-116632404D01*
X198900819Y-116346690D02*
X197900819Y-116346690D01*
X197900819Y-116346690D02*
X198043676Y-116441928D01*
X198043676Y-116441928D02*
X198138914Y-116537166D01*
X198138914Y-116537166D02*
X198186533Y-116632404D01*
X198900819Y-115108595D02*
X198900819Y-115680023D01*
X198900819Y-115394309D02*
X197900819Y-115394309D01*
X197900819Y-115394309D02*
X198043676Y-115489547D01*
X198043676Y-115489547D02*
X198138914Y-115584785D01*
X198138914Y-115584785D02*
X198186533Y-115680023D01*
X163695142Y-118056819D02*
X163361809Y-117580628D01*
X163123714Y-118056819D02*
X163123714Y-117056819D01*
X163123714Y-117056819D02*
X163504666Y-117056819D01*
X163504666Y-117056819D02*
X163599904Y-117104438D01*
X163599904Y-117104438D02*
X163647523Y-117152057D01*
X163647523Y-117152057D02*
X163695142Y-117247295D01*
X163695142Y-117247295D02*
X163695142Y-117390152D01*
X163695142Y-117390152D02*
X163647523Y-117485390D01*
X163647523Y-117485390D02*
X163599904Y-117533009D01*
X163599904Y-117533009D02*
X163504666Y-117580628D01*
X163504666Y-117580628D02*
X163123714Y-117580628D01*
X164647523Y-118056819D02*
X164076095Y-118056819D01*
X164361809Y-118056819D02*
X164361809Y-117056819D01*
X164361809Y-117056819D02*
X164266571Y-117199676D01*
X164266571Y-117199676D02*
X164171333Y-117294914D01*
X164171333Y-117294914D02*
X164076095Y-117342533D01*
X165504666Y-117056819D02*
X165314190Y-117056819D01*
X165314190Y-117056819D02*
X165218952Y-117104438D01*
X165218952Y-117104438D02*
X165171333Y-117152057D01*
X165171333Y-117152057D02*
X165076095Y-117294914D01*
X165076095Y-117294914D02*
X165028476Y-117485390D01*
X165028476Y-117485390D02*
X165028476Y-117866342D01*
X165028476Y-117866342D02*
X165076095Y-117961580D01*
X165076095Y-117961580D02*
X165123714Y-118009200D01*
X165123714Y-118009200D02*
X165218952Y-118056819D01*
X165218952Y-118056819D02*
X165409428Y-118056819D01*
X165409428Y-118056819D02*
X165504666Y-118009200D01*
X165504666Y-118009200D02*
X165552285Y-117961580D01*
X165552285Y-117961580D02*
X165599904Y-117866342D01*
X165599904Y-117866342D02*
X165599904Y-117628247D01*
X165599904Y-117628247D02*
X165552285Y-117533009D01*
X165552285Y-117533009D02*
X165504666Y-117485390D01*
X165504666Y-117485390D02*
X165409428Y-117437771D01*
X165409428Y-117437771D02*
X165218952Y-117437771D01*
X165218952Y-117437771D02*
X165123714Y-117485390D01*
X165123714Y-117485390D02*
X165076095Y-117533009D01*
X165076095Y-117533009D02*
X165028476Y-117628247D01*
X183507142Y-112976819D02*
X183173809Y-112500628D01*
X182935714Y-112976819D02*
X182935714Y-111976819D01*
X182935714Y-111976819D02*
X183316666Y-111976819D01*
X183316666Y-111976819D02*
X183411904Y-112024438D01*
X183411904Y-112024438D02*
X183459523Y-112072057D01*
X183459523Y-112072057D02*
X183507142Y-112167295D01*
X183507142Y-112167295D02*
X183507142Y-112310152D01*
X183507142Y-112310152D02*
X183459523Y-112405390D01*
X183459523Y-112405390D02*
X183411904Y-112453009D01*
X183411904Y-112453009D02*
X183316666Y-112500628D01*
X183316666Y-112500628D02*
X182935714Y-112500628D01*
X184459523Y-112976819D02*
X183888095Y-112976819D01*
X184173809Y-112976819D02*
X184173809Y-111976819D01*
X184173809Y-111976819D02*
X184078571Y-112119676D01*
X184078571Y-112119676D02*
X183983333Y-112214914D01*
X183983333Y-112214914D02*
X183888095Y-112262533D01*
X184792857Y-111976819D02*
X185459523Y-111976819D01*
X185459523Y-111976819D02*
X185030952Y-112976819D01*
X156207905Y-106626819D02*
X156207905Y-105626819D01*
X156207905Y-105626819D02*
X156446000Y-105626819D01*
X156446000Y-105626819D02*
X156588857Y-105674438D01*
X156588857Y-105674438D02*
X156684095Y-105769676D01*
X156684095Y-105769676D02*
X156731714Y-105864914D01*
X156731714Y-105864914D02*
X156779333Y-106055390D01*
X156779333Y-106055390D02*
X156779333Y-106198247D01*
X156779333Y-106198247D02*
X156731714Y-106388723D01*
X156731714Y-106388723D02*
X156684095Y-106483961D01*
X156684095Y-106483961D02*
X156588857Y-106579200D01*
X156588857Y-106579200D02*
X156446000Y-106626819D01*
X156446000Y-106626819D02*
X156207905Y-106626819D01*
X157636476Y-105626819D02*
X157446000Y-105626819D01*
X157446000Y-105626819D02*
X157350762Y-105674438D01*
X157350762Y-105674438D02*
X157303143Y-105722057D01*
X157303143Y-105722057D02*
X157207905Y-105864914D01*
X157207905Y-105864914D02*
X157160286Y-106055390D01*
X157160286Y-106055390D02*
X157160286Y-106436342D01*
X157160286Y-106436342D02*
X157207905Y-106531580D01*
X157207905Y-106531580D02*
X157255524Y-106579200D01*
X157255524Y-106579200D02*
X157350762Y-106626819D01*
X157350762Y-106626819D02*
X157541238Y-106626819D01*
X157541238Y-106626819D02*
X157636476Y-106579200D01*
X157636476Y-106579200D02*
X157684095Y-106531580D01*
X157684095Y-106531580D02*
X157731714Y-106436342D01*
X157731714Y-106436342D02*
X157731714Y-106198247D01*
X157731714Y-106198247D02*
X157684095Y-106103009D01*
X157684095Y-106103009D02*
X157636476Y-106055390D01*
X157636476Y-106055390D02*
X157541238Y-106007771D01*
X157541238Y-106007771D02*
X157350762Y-106007771D01*
X157350762Y-106007771D02*
X157255524Y-106055390D01*
X157255524Y-106055390D02*
X157207905Y-106103009D01*
X157207905Y-106103009D02*
X157160286Y-106198247D01*
X111847333Y-99472819D02*
X111514000Y-98996628D01*
X111275905Y-99472819D02*
X111275905Y-98472819D01*
X111275905Y-98472819D02*
X111656857Y-98472819D01*
X111656857Y-98472819D02*
X111752095Y-98520438D01*
X111752095Y-98520438D02*
X111799714Y-98568057D01*
X111799714Y-98568057D02*
X111847333Y-98663295D01*
X111847333Y-98663295D02*
X111847333Y-98806152D01*
X111847333Y-98806152D02*
X111799714Y-98901390D01*
X111799714Y-98901390D02*
X111752095Y-98949009D01*
X111752095Y-98949009D02*
X111656857Y-98996628D01*
X111656857Y-98996628D02*
X111275905Y-98996628D01*
X112228286Y-98568057D02*
X112275905Y-98520438D01*
X112275905Y-98520438D02*
X112371143Y-98472819D01*
X112371143Y-98472819D02*
X112609238Y-98472819D01*
X112609238Y-98472819D02*
X112704476Y-98520438D01*
X112704476Y-98520438D02*
X112752095Y-98568057D01*
X112752095Y-98568057D02*
X112799714Y-98663295D01*
X112799714Y-98663295D02*
X112799714Y-98758533D01*
X112799714Y-98758533D02*
X112752095Y-98901390D01*
X112752095Y-98901390D02*
X112180667Y-99472819D01*
X112180667Y-99472819D02*
X112799714Y-99472819D01*
X145153142Y-103578819D02*
X144819809Y-103102628D01*
X144581714Y-103578819D02*
X144581714Y-102578819D01*
X144581714Y-102578819D02*
X144962666Y-102578819D01*
X144962666Y-102578819D02*
X145057904Y-102626438D01*
X145057904Y-102626438D02*
X145105523Y-102674057D01*
X145105523Y-102674057D02*
X145153142Y-102769295D01*
X145153142Y-102769295D02*
X145153142Y-102912152D01*
X145153142Y-102912152D02*
X145105523Y-103007390D01*
X145105523Y-103007390D02*
X145057904Y-103055009D01*
X145057904Y-103055009D02*
X144962666Y-103102628D01*
X144962666Y-103102628D02*
X144581714Y-103102628D01*
X146105523Y-103578819D02*
X145534095Y-103578819D01*
X145819809Y-103578819D02*
X145819809Y-102578819D01*
X145819809Y-102578819D02*
X145724571Y-102721676D01*
X145724571Y-102721676D02*
X145629333Y-102816914D01*
X145629333Y-102816914D02*
X145534095Y-102864533D01*
X147057904Y-103578819D02*
X146486476Y-103578819D01*
X146772190Y-103578819D02*
X146772190Y-102578819D01*
X146772190Y-102578819D02*
X146676952Y-102721676D01*
X146676952Y-102721676D02*
X146581714Y-102816914D01*
X146581714Y-102816914D02*
X146486476Y-102864533D01*
X130643333Y-111103580D02*
X130595714Y-111151200D01*
X130595714Y-111151200D02*
X130452857Y-111198819D01*
X130452857Y-111198819D02*
X130357619Y-111198819D01*
X130357619Y-111198819D02*
X130214762Y-111151200D01*
X130214762Y-111151200D02*
X130119524Y-111055961D01*
X130119524Y-111055961D02*
X130071905Y-110960723D01*
X130071905Y-110960723D02*
X130024286Y-110770247D01*
X130024286Y-110770247D02*
X130024286Y-110627390D01*
X130024286Y-110627390D02*
X130071905Y-110436914D01*
X130071905Y-110436914D02*
X130119524Y-110341676D01*
X130119524Y-110341676D02*
X130214762Y-110246438D01*
X130214762Y-110246438D02*
X130357619Y-110198819D01*
X130357619Y-110198819D02*
X130452857Y-110198819D01*
X130452857Y-110198819D02*
X130595714Y-110246438D01*
X130595714Y-110246438D02*
X130643333Y-110294057D01*
X131595714Y-111198819D02*
X131024286Y-111198819D01*
X131310000Y-111198819D02*
X131310000Y-110198819D01*
X131310000Y-110198819D02*
X131214762Y-110341676D01*
X131214762Y-110341676D02*
X131119524Y-110436914D01*
X131119524Y-110436914D02*
X131024286Y-110484533D01*
X172717905Y-106118819D02*
X172717905Y-105118819D01*
X172717905Y-105118819D02*
X172956000Y-105118819D01*
X172956000Y-105118819D02*
X173098857Y-105166438D01*
X173098857Y-105166438D02*
X173194095Y-105261676D01*
X173194095Y-105261676D02*
X173241714Y-105356914D01*
X173241714Y-105356914D02*
X173289333Y-105547390D01*
X173289333Y-105547390D02*
X173289333Y-105690247D01*
X173289333Y-105690247D02*
X173241714Y-105880723D01*
X173241714Y-105880723D02*
X173194095Y-105975961D01*
X173194095Y-105975961D02*
X173098857Y-106071200D01*
X173098857Y-106071200D02*
X172956000Y-106118819D01*
X172956000Y-106118819D02*
X172717905Y-106118819D01*
X174146476Y-105452152D02*
X174146476Y-106118819D01*
X173908381Y-105071200D02*
X173670286Y-105785485D01*
X173670286Y-105785485D02*
X174289333Y-105785485D01*
X130643333Y-114151580D02*
X130595714Y-114199200D01*
X130595714Y-114199200D02*
X130452857Y-114246819D01*
X130452857Y-114246819D02*
X130357619Y-114246819D01*
X130357619Y-114246819D02*
X130214762Y-114199200D01*
X130214762Y-114199200D02*
X130119524Y-114103961D01*
X130119524Y-114103961D02*
X130071905Y-114008723D01*
X130071905Y-114008723D02*
X130024286Y-113818247D01*
X130024286Y-113818247D02*
X130024286Y-113675390D01*
X130024286Y-113675390D02*
X130071905Y-113484914D01*
X130071905Y-113484914D02*
X130119524Y-113389676D01*
X130119524Y-113389676D02*
X130214762Y-113294438D01*
X130214762Y-113294438D02*
X130357619Y-113246819D01*
X130357619Y-113246819D02*
X130452857Y-113246819D01*
X130452857Y-113246819D02*
X130595714Y-113294438D01*
X130595714Y-113294438D02*
X130643333Y-113342057D01*
X131024286Y-113342057D02*
X131071905Y-113294438D01*
X131071905Y-113294438D02*
X131167143Y-113246819D01*
X131167143Y-113246819D02*
X131405238Y-113246819D01*
X131405238Y-113246819D02*
X131500476Y-113294438D01*
X131500476Y-113294438D02*
X131548095Y-113342057D01*
X131548095Y-113342057D02*
X131595714Y-113437295D01*
X131595714Y-113437295D02*
X131595714Y-113532533D01*
X131595714Y-113532533D02*
X131548095Y-113675390D01*
X131548095Y-113675390D02*
X130976667Y-114246819D01*
X130976667Y-114246819D02*
X131595714Y-114246819D01*
D12*
X141330000Y-111794936D02*
X141330000Y-113249064D01*
X143150000Y-111794936D02*
X143150000Y-113249064D01*
X202950000Y-107090000D02*
X201250000Y-107090000D01*
X202950000Y-116430000D02*
X201250000Y-116430000D01*
X117962000Y-111953064D02*
X117962000Y-110498936D01*
X119782000Y-111953064D02*
X119782000Y-110498936D01*
X161306000Y-107114000D02*
X161306000Y-111124000D01*
X163306000Y-107114000D02*
X161306000Y-107114000D01*
X163306000Y-107114000D02*
X163306000Y-111124000D01*
X148696000Y-107391252D02*
X148696000Y-105968748D01*
X150516000Y-107391252D02*
X150516000Y-105968748D01*
X136144000Y-103612000D02*
X134194000Y-103612000D01*
X136144000Y-103612000D02*
X138094000Y-103612000D01*
X136144000Y-108732000D02*
X134194000Y-108732000D01*
X136144000Y-108732000D02*
X138094000Y-108732000D01*
X133444000Y-103707000D02*
X133204000Y-103377000D01*
X133684000Y-103377000D01*
X133444000Y-103707000D01*
G36*
X133444000Y-103707000D02*
G01*
X133204000Y-103377000D01*
X133684000Y-103377000D01*
X133444000Y-103707000D01*
G37*
X73954000Y-93928000D02*
X73954000Y-105168000D01*
X73954000Y-93928000D02*
X82854000Y-93928000D01*
X73954000Y-105168000D02*
X82854000Y-105168000D01*
X82854000Y-108988000D02*
X82854000Y-92998000D01*
X107394000Y-92998000D02*
X82854000Y-92998000D01*
X107394000Y-92998000D02*
X107394000Y-108988000D01*
X107394000Y-108988000D02*
X82854000Y-108988000D01*
X184877064Y-116946000D02*
X183422936Y-116946000D01*
X184877064Y-118766000D02*
X183422936Y-118766000D01*
X158512000Y-107114000D02*
X158512000Y-111124000D01*
X160512000Y-107114000D02*
X158512000Y-107114000D01*
X160512000Y-107114000D02*
X160512000Y-111124000D01*
X144886000Y-113249064D02*
X144886000Y-111794936D01*
X146706000Y-113249064D02*
X146706000Y-111794936D01*
X160747064Y-113136000D02*
X159292936Y-113136000D01*
X160747064Y-114956000D02*
X159292936Y-114956000D01*
X135331252Y-118470000D02*
X133908748Y-118470000D01*
X135331252Y-120290000D02*
X133908748Y-120290000D01*
X135347064Y-121264000D02*
X133892936Y-121264000D01*
X135347064Y-123084000D02*
X133892936Y-123084000D01*
X160731252Y-121264000D02*
X159308748Y-121264000D01*
X160731252Y-123084000D02*
X159308748Y-123084000D01*
X141330000Y-105968748D02*
X141330000Y-107391252D01*
X143150000Y-105968748D02*
X143150000Y-107391252D01*
X129066936Y-100182000D02*
X130521064Y-100182000D01*
X129066936Y-102002000D02*
X130521064Y-102002000D01*
X115168000Y-104444748D02*
X115168000Y-105867252D01*
X116988000Y-104444748D02*
X116988000Y-105867252D01*
X122186248Y-110342000D02*
X123608752Y-110342000D01*
X122186248Y-112162000D02*
X123608752Y-112162000D01*
X167777000Y-106479000D02*
X165827000Y-106479000D01*
X167777000Y-106479000D02*
X169727000Y-106479000D01*
X167777000Y-111599000D02*
X165827000Y-111599000D01*
X167777000Y-111599000D02*
X169727000Y-111599000D01*
X165077000Y-106574000D02*
X164837000Y-106244000D01*
X165317000Y-106244000D01*
X165077000Y-106574000D01*
G36*
X165077000Y-106574000D02*
G01*
X164837000Y-106244000D01*
X165317000Y-106244000D01*
X165077000Y-106574000D01*
G37*
X148696000Y-111794936D02*
X148696000Y-113249064D01*
X150516000Y-111794936D02*
X150516000Y-113249064D01*
X186978000Y-94840000D02*
X201218000Y-94840000D01*
X186978000Y-97710000D02*
X186978000Y-94840000D01*
X186978000Y-103280000D02*
X186978000Y-99960000D01*
X201218000Y-94840000D02*
X201218000Y-96740000D01*
X201218000Y-96740000D02*
X205218000Y-96740000D01*
X201218000Y-102980000D02*
X201218000Y-103280000D01*
X201218000Y-103280000D02*
X186978000Y-103280000D01*
X205218000Y-96740000D02*
X205218000Y-102980000D01*
X205218000Y-102980000D02*
X201218000Y-102980000D01*
X169524000Y-102158748D02*
X169524000Y-103581252D01*
X171344000Y-102158748D02*
X171344000Y-103581252D01*
X175340000Y-109947064D02*
X175340000Y-108492936D01*
X177160000Y-109947064D02*
X177160000Y-108492936D01*
X120576000Y-104156000D02*
X120576000Y-106156000D01*
X120576000Y-104156000D02*
X124586000Y-104156000D01*
X120576000Y-106156000D02*
X124586000Y-106156000D01*
X129396000Y-84624000D02*
X139336000Y-84624000D01*
X129396000Y-88489000D02*
X129396000Y-84624000D01*
X129396000Y-96864000D02*
X129396000Y-92999000D01*
X129396000Y-96864000D02*
X130995000Y-96864000D01*
X132737000Y-96864000D02*
X133496000Y-96864000D01*
X135237000Y-96864000D02*
X135996000Y-96864000D01*
X137736000Y-96864000D02*
X139336000Y-96864000D01*
X139336000Y-88489000D02*
X139336000Y-84624000D01*
X139336000Y-96864000D02*
X139336000Y-92999000D01*
X133892936Y-115676000D02*
X135347064Y-115676000D01*
X133892936Y-117496000D02*
X135347064Y-117496000D01*
X122208936Y-107294000D02*
X123663064Y-107294000D01*
X122208936Y-109114000D02*
X123663064Y-109114000D01*
X162380000Y-115840000D02*
X158370000Y-115840000D01*
X162380000Y-117840000D02*
X158370000Y-117840000D01*
X162380000Y-117840000D02*
X162380000Y-115840000D01*
X157660000Y-118380000D02*
X157660000Y-120380000D01*
X157660000Y-118380000D02*
X161670000Y-118380000D01*
X157660000Y-120380000D02*
X161670000Y-120380000D01*
X166730000Y-103581252D02*
X166730000Y-102158748D01*
X168550000Y-103581252D02*
X168550000Y-102158748D01*
X137448936Y-100436000D02*
X138903064Y-100436000D01*
X137448936Y-102256000D02*
X138903064Y-102256000D01*
X117962000Y-105883064D02*
X117962000Y-104428936D01*
X119782000Y-105883064D02*
X119782000Y-104428936D01*
X111286936Y-102722000D02*
X112741064Y-102722000D01*
X111286936Y-104542000D02*
X112741064Y-104542000D01*
X125296000Y-113046000D02*
X121286000Y-113046000D01*
X125296000Y-115046000D02*
X121286000Y-115046000D01*
X125296000Y-115046000D02*
X125296000Y-113046000D01*
X195686000Y-115659248D02*
X195686000Y-117081752D01*
X197506000Y-115659248D02*
X197506000Y-117081752D01*
X163428000Y-121631064D02*
X163428000Y-120176936D01*
X165248000Y-121631064D02*
X165248000Y-120176936D01*
X184877064Y-113644000D02*
X183422936Y-113644000D01*
X184877064Y-115464000D02*
X183422936Y-115464000D01*
X155972000Y-111834000D02*
X155972000Y-107824000D01*
X155972000Y-111834000D02*
X157972000Y-111834000D01*
X157972000Y-111834000D02*
X157972000Y-107824000D01*
X111286936Y-99928000D02*
X112741064Y-99928000D01*
X111286936Y-101748000D02*
X112741064Y-101748000D01*
X144886000Y-107407064D02*
X144886000Y-105952936D01*
X146706000Y-107407064D02*
X146706000Y-105952936D01*
X135331252Y-109834000D02*
X133908748Y-109834000D01*
X135331252Y-111654000D02*
X133908748Y-111654000D01*
X172482000Y-111326000D02*
X172482000Y-107316000D01*
X172482000Y-111326000D02*
X174482000Y-111326000D01*
X174482000Y-111326000D02*
X174482000Y-107316000D01*
X133908748Y-112882000D02*
X135331252Y-112882000D01*
X133908748Y-114702000D02*
X135331252Y-114702000D01*
%LPC*%
D13*
X142240000Y-110972000D03*
X142240000Y-114072000D03*
D14*
X200120000Y-112260000D03*
D15*
X200120000Y-110240000D03*
D16*
X200120000Y-109010000D03*
D17*
X200120000Y-111260000D03*
D18*
X200120000Y-113280000D03*
D19*
X200120000Y-114510000D03*
D20*
X200200000Y-116080000D03*
X204000000Y-116080000D03*
X200200000Y-107440000D03*
X204000000Y-107440000D03*
D21*
X118872000Y-112776000D03*
X118872000Y-109676000D03*
D22*
X162306000Y-107824000D03*
X162306000Y-111124000D03*
D23*
X149606000Y-108242500D03*
X149606000Y-105117500D03*
D24*
X133669000Y-104267000D03*
X133669000Y-105537000D03*
X133669000Y-106807000D03*
X133669000Y-108077000D03*
X138619000Y-108077000D03*
X138619000Y-106807000D03*
X138619000Y-105537000D03*
X138619000Y-104267000D03*
D25*
X96774000Y-104648000D03*
D26*
X90424000Y-106778000D03*
X90424000Y-95348000D03*
D25*
X87224000Y-106778000D03*
X87224000Y-95348000D03*
X99924000Y-106778000D03*
X99924000Y-95348000D03*
D27*
X185700000Y-117856000D03*
X182600000Y-117856000D03*
D22*
X159512000Y-107824000D03*
X159512000Y-111124000D03*
D21*
X145796000Y-114072000D03*
X145796000Y-110972000D03*
D27*
X161570000Y-114046000D03*
X158470000Y-114046000D03*
D28*
X136182500Y-119380000D03*
X133057500Y-119380000D03*
D27*
X136170000Y-122174000D03*
X133070000Y-122174000D03*
D28*
X161582500Y-122174000D03*
X158457500Y-122174000D03*
D29*
X142240000Y-105117500D03*
X142240000Y-108242500D03*
D30*
X128244000Y-101092000D03*
X131344000Y-101092000D03*
D29*
X116078000Y-103593500D03*
X116078000Y-106718500D03*
D31*
X121335000Y-111252000D03*
X124460000Y-111252000D03*
D24*
X165302000Y-107134000D03*
X165302000Y-108404000D03*
X165302000Y-109674000D03*
X165302000Y-110944000D03*
X170252000Y-110944000D03*
X170252000Y-109674000D03*
X170252000Y-108404000D03*
X170252000Y-107134000D03*
D13*
X149606000Y-110972000D03*
X149606000Y-114072000D03*
D32*
X191998000Y-100960000D03*
X193798000Y-98960000D03*
X199898000Y-98960000D03*
X197498000Y-100960000D03*
X188298000Y-98960000D03*
D29*
X170434000Y-101307500D03*
X170434000Y-104432500D03*
D21*
X176250000Y-110770000D03*
X176250000Y-107670000D03*
D33*
X121286000Y-105156000D03*
X124586000Y-105156000D03*
D34*
X129966000Y-90744000D03*
X138766000Y-90744000D03*
D35*
X136866000Y-97744000D03*
X134366000Y-97744000D03*
X131866000Y-97744000D03*
D30*
X133070000Y-116586000D03*
X136170000Y-116586000D03*
X121386000Y-108204000D03*
X124486000Y-108204000D03*
D36*
X161670000Y-116840000D03*
X158370000Y-116840000D03*
D33*
X158370000Y-119380000D03*
X161670000Y-119380000D03*
D23*
X167640000Y-104432500D03*
X167640000Y-101307500D03*
D30*
X136626000Y-101346000D03*
X139726000Y-101346000D03*
D21*
X118872000Y-106706000D03*
X118872000Y-103606000D03*
D30*
X110464000Y-103632000D03*
X113564000Y-103632000D03*
D36*
X124586000Y-114046000D03*
X121286000Y-114046000D03*
D29*
X196596000Y-114808000D03*
X196596000Y-117933000D03*
D21*
X164338000Y-122454000D03*
X164338000Y-119354000D03*
D27*
X185700000Y-114554000D03*
X182600000Y-114554000D03*
D37*
X156972000Y-111124000D03*
X156972000Y-107824000D03*
D30*
X110464000Y-100838000D03*
X113564000Y-100838000D03*
D21*
X145796000Y-108230000D03*
X145796000Y-105130000D03*
D28*
X136182500Y-110744000D03*
X133057500Y-110744000D03*
D37*
X173482000Y-110616000D03*
X173482000Y-107316000D03*
D31*
X133057500Y-113792000D03*
X136182500Y-113792000D03*
D38*
X134620000Y-113792000D03*
X129794000Y-101092000D03*
X167626153Y-102820847D03*
X122936000Y-111252000D03*
X184150000Y-114554000D03*
X134620000Y-110744000D03*
X147828000Y-109474000D03*
X196596000Y-116332000D03*
X112014000Y-100838000D03*
X142240000Y-112522000D03*
X118872000Y-111252000D03*
X131572000Y-107950000D03*
X134620000Y-122174000D03*
X160020000Y-119380000D03*
X134620000Y-119380000D03*
X184150000Y-117856000D03*
X164084000Y-112014000D03*
X170434000Y-102844000D03*
X164338000Y-120904000D03*
X122936000Y-114046000D03*
X131572000Y-106680000D03*
X122936000Y-105156000D03*
X138684000Y-109728000D03*
X134620000Y-116586000D03*
X153416000Y-108712000D03*
X149606000Y-106680000D03*
X162280000Y-109474000D03*
X161036000Y-111252000D03*
X159512000Y-109474000D03*
X144018000Y-109728000D03*
X147828000Y-112522000D03*
X167894000Y-109474000D03*
%LPD*%
M02*
