%TF.GenerationSoftware,KiCad,Pcbnew,8.0.2*%
%TF.CreationDate,2024-08-20T22:37:47-04:00*%
%TF.ProjectId,plugnslay,706c7567-6e73-46c6-9179-2e6b69636164,rev?*%
%TF.SameCoordinates,Original*%
%TF.FileFunction,Drillmap*%
%TF.FilePolarity,Positive*%
%FSLAX45Y45*%
G04 Gerber Fmt 4.5, Leading zero omitted, Abs format (unit mm)*
G04 Created by KiCad (PCBNEW 8.0.2) date 2024-08-20 22:37:47*
%MOMM*%
%LPD*%
G01*
G04 APERTURE LIST*
%ADD10C,0.100000*%
%ADD11C,0.200000*%
%ADD12C,0.150000*%
G04 APERTURE END LIST*
D10*
X20066000Y-8382000D02*
X20574000Y-8890000D01*
X20574000Y-8890000D02*
X20574000Y-11938000D01*
X20574000Y-11938000D02*
X20066000Y-12446000D01*
X20066000Y-12446000D02*
X7874000Y-12446000D01*
X7874000Y-8382000D02*
X20066000Y-8382000D01*
X7874000Y-12446000D02*
X7366000Y-11938000D01*
X7366000Y-11938000D02*
X7366000Y-8890000D01*
X7366000Y-8890000D02*
X7874000Y-8382000D01*
D11*
D10*
X11181400Y-10063800D02*
X11221400Y-10103800D01*
X11221400Y-10063800D02*
X11181400Y-10103800D01*
X11867200Y-11105200D02*
X11907200Y-11145200D01*
X11907200Y-11105200D02*
X11867200Y-11145200D01*
X12273600Y-10495600D02*
X12313600Y-10535600D01*
X12313600Y-10495600D02*
X12273600Y-10535600D01*
X12273600Y-11105200D02*
X12313600Y-11145200D01*
X12313600Y-11105200D02*
X12273600Y-11145200D01*
X12273600Y-11384600D02*
X12313600Y-11424600D01*
X12313600Y-11384600D02*
X12273600Y-11424600D01*
X12959400Y-10089200D02*
X12999400Y-10129200D01*
X12999400Y-10089200D02*
X12959400Y-10129200D01*
X13137200Y-10648000D02*
X13177200Y-10688000D01*
X13177200Y-10648000D02*
X13137200Y-10688000D01*
X13137200Y-10775000D02*
X13177200Y-10815000D01*
X13177200Y-10775000D02*
X13137200Y-10815000D01*
X13442000Y-11054400D02*
X13482000Y-11094400D01*
X13482000Y-11054400D02*
X13442000Y-11094400D01*
X13442000Y-11359200D02*
X13482000Y-11399200D01*
X13482000Y-11359200D02*
X13442000Y-11399200D01*
X13442000Y-11638600D02*
X13482000Y-11678600D01*
X13482000Y-11638600D02*
X13442000Y-11678600D01*
X13442000Y-11918000D02*
X13482000Y-11958000D01*
X13482000Y-11918000D02*
X13442000Y-11958000D01*
X13442000Y-12197400D02*
X13482000Y-12237400D01*
X13482000Y-12197400D02*
X13442000Y-12237400D01*
X13848400Y-10952800D02*
X13888400Y-10992800D01*
X13888400Y-10952800D02*
X13848400Y-10992800D01*
X14204000Y-11232200D02*
X14244000Y-11272200D01*
X14244000Y-11232200D02*
X14204000Y-11272200D01*
X14381800Y-10952800D02*
X14421800Y-10992800D01*
X14421800Y-10952800D02*
X14381800Y-10992800D01*
X14762800Y-10927400D02*
X14802800Y-10967400D01*
X14802800Y-10927400D02*
X14762800Y-10967400D01*
X14762800Y-11232200D02*
X14802800Y-11272200D01*
X14802800Y-11232200D02*
X14762800Y-11272200D01*
X14940600Y-10648000D02*
X14980600Y-10688000D01*
X14980600Y-10648000D02*
X14940600Y-10688000D01*
X15321600Y-10851200D02*
X15361600Y-10891200D01*
X15361600Y-10851200D02*
X15321600Y-10891200D01*
X15931200Y-10927400D02*
X15971200Y-10967400D01*
X15971200Y-10927400D02*
X15931200Y-10967400D01*
X15982000Y-11918000D02*
X16022000Y-11958000D01*
X16022000Y-11918000D02*
X15982000Y-11958000D01*
X16083600Y-11105200D02*
X16123600Y-11145200D01*
X16123600Y-11105200D02*
X16083600Y-11145200D01*
X16208000Y-10927400D02*
X16248000Y-10967400D01*
X16248000Y-10927400D02*
X16208000Y-10967400D01*
X16388400Y-11181400D02*
X16428400Y-11221400D01*
X16428400Y-11181400D02*
X16388400Y-11221400D01*
X16413800Y-12070400D02*
X16453800Y-12110400D01*
X16453800Y-12070400D02*
X16413800Y-12110400D01*
X16742615Y-10262085D02*
X16782615Y-10302085D01*
X16782615Y-10262085D02*
X16742615Y-10302085D01*
X16769400Y-10927400D02*
X16809400Y-10967400D01*
X16809400Y-10927400D02*
X16769400Y-10967400D01*
X17023400Y-10264400D02*
X17063400Y-10304400D01*
X17063400Y-10264400D02*
X17023400Y-10304400D01*
X18395000Y-11435400D02*
X18435000Y-11475400D01*
X18435000Y-11435400D02*
X18395000Y-11475400D01*
X18395000Y-11765600D02*
X18435000Y-11805600D01*
X18435000Y-11765600D02*
X18395000Y-11805600D01*
X19639600Y-11613200D02*
X19679600Y-11653200D01*
X19679600Y-11613200D02*
X19639600Y-11653200D01*
X20050000Y-10744000D02*
G75*
G02*
X19990000Y-10744000I-30000J0D01*
G01*
X19990000Y-10744000D02*
G75*
G02*
X20050000Y-10744000I30000J0D01*
G01*
X19990000Y-10774000D02*
X20050000Y-10774000D01*
X20050000Y-10714000D02*
G75*
G02*
X20050000Y-10774000I0J-30000D01*
G01*
X20050000Y-10714000D02*
X19990000Y-10714000D01*
X19990000Y-10714000D02*
G75*
G03*
X19990000Y-10774000I0J-30000D01*
G01*
X20050000Y-11608000D02*
G75*
G02*
X19990000Y-11608000I-30000J0D01*
G01*
X19990000Y-11608000D02*
G75*
G02*
X20050000Y-11608000I30000J0D01*
G01*
X19990000Y-11638000D02*
X20050000Y-11638000D01*
X20050000Y-11578000D02*
G75*
G02*
X20050000Y-11638000I0J-30000D01*
G01*
X20050000Y-11578000D02*
X19990000Y-11578000D01*
X19990000Y-11578000D02*
G75*
G03*
X19990000Y-11638000I0J-30000D01*
G01*
X20430000Y-10744000D02*
G75*
G02*
X20370000Y-10744000I-30000J0D01*
G01*
X20370000Y-10744000D02*
G75*
G02*
X20430000Y-10744000I30000J0D01*
G01*
X20370000Y-10774000D02*
X20430000Y-10774000D01*
X20430000Y-10714000D02*
G75*
G02*
X20430000Y-10774000I0J-30000D01*
G01*
X20430000Y-10714000D02*
X20370000Y-10714000D01*
X20370000Y-10714000D02*
G75*
G03*
X20370000Y-10774000I0J-30000D01*
G01*
X20430000Y-11608000D02*
G75*
G02*
X20370000Y-11608000I-30000J0D01*
G01*
X20370000Y-11608000D02*
G75*
G02*
X20430000Y-11608000I30000J0D01*
G01*
X20370000Y-11638000D02*
X20430000Y-11638000D01*
X20430000Y-11578000D02*
G75*
G02*
X20430000Y-11638000I0J-30000D01*
G01*
X20430000Y-11578000D02*
X20370000Y-11578000D01*
X20370000Y-11578000D02*
G75*
G03*
X20370000Y-11638000I0J-30000D01*
G01*
X13186600Y-9724400D02*
X13186600Y-9824400D01*
X13136600Y-9774400D02*
X13236600Y-9774400D01*
X13436600Y-9724400D02*
X13436600Y-9824400D01*
X13386600Y-9774400D02*
X13486600Y-9774400D01*
X13686600Y-9724400D02*
X13686600Y-9824400D01*
X13636600Y-9774400D02*
X13736600Y-9774400D01*
D12*
X8775434Y-9587834D02*
X8775434Y-9481767D01*
X8669367Y-9481767D01*
X8669367Y-9587834D01*
X8775434Y-9587834D01*
X8775434Y-10730834D02*
X8775434Y-10624767D01*
X8669367Y-10624767D01*
X8669367Y-10730834D01*
X8775434Y-10730834D01*
X10045434Y-9587834D02*
X10045434Y-9481767D01*
X9939367Y-9481767D01*
X9939367Y-9587834D01*
X10045434Y-9587834D01*
X10045434Y-10730834D02*
X10045434Y-10624767D01*
X9939367Y-10624767D01*
X9939367Y-10730834D01*
X10045434Y-10730834D01*
D11*
X18829800Y-9996000D02*
X18929800Y-9896000D01*
X18829800Y-9796000D01*
X18729800Y-9896000D01*
X18829800Y-9996000D01*
X19199800Y-10196000D02*
X19299800Y-10096000D01*
X19199800Y-9996000D01*
X19099800Y-10096000D01*
X19199800Y-10196000D01*
X19379800Y-9996000D02*
X19479800Y-9896000D01*
X19379800Y-9796000D01*
X19279800Y-9896000D01*
X19379800Y-9996000D01*
X19749800Y-10196000D02*
X19849800Y-10096000D01*
X19749800Y-9996000D01*
X19649800Y-10096000D01*
X19749800Y-10196000D01*
X19989800Y-9996000D02*
X20089800Y-9896000D01*
X19989800Y-9796000D01*
X19889800Y-9896000D01*
X19989800Y-9996000D01*
X7621777Y-12762484D02*
X7621777Y-12562484D01*
X7621777Y-12562484D02*
X7669396Y-12562484D01*
X7669396Y-12562484D02*
X7697967Y-12572008D01*
X7697967Y-12572008D02*
X7717015Y-12591055D01*
X7717015Y-12591055D02*
X7726539Y-12610103D01*
X7726539Y-12610103D02*
X7736062Y-12648198D01*
X7736062Y-12648198D02*
X7736062Y-12676769D01*
X7736062Y-12676769D02*
X7726539Y-12714865D01*
X7726539Y-12714865D02*
X7717015Y-12733912D01*
X7717015Y-12733912D02*
X7697967Y-12752960D01*
X7697967Y-12752960D02*
X7669396Y-12762484D01*
X7669396Y-12762484D02*
X7621777Y-12762484D01*
X7821777Y-12762484D02*
X7821777Y-12629150D01*
X7821777Y-12667246D02*
X7831301Y-12648198D01*
X7831301Y-12648198D02*
X7840824Y-12638674D01*
X7840824Y-12638674D02*
X7859872Y-12629150D01*
X7859872Y-12629150D02*
X7878920Y-12629150D01*
X7945586Y-12762484D02*
X7945586Y-12629150D01*
X7945586Y-12562484D02*
X7936062Y-12572008D01*
X7936062Y-12572008D02*
X7945586Y-12581531D01*
X7945586Y-12581531D02*
X7955110Y-12572008D01*
X7955110Y-12572008D02*
X7945586Y-12562484D01*
X7945586Y-12562484D02*
X7945586Y-12581531D01*
X8069396Y-12762484D02*
X8050348Y-12752960D01*
X8050348Y-12752960D02*
X8040824Y-12733912D01*
X8040824Y-12733912D02*
X8040824Y-12562484D01*
X8174158Y-12762484D02*
X8155110Y-12752960D01*
X8155110Y-12752960D02*
X8145586Y-12733912D01*
X8145586Y-12733912D02*
X8145586Y-12562484D01*
X8402729Y-12762484D02*
X8402729Y-12562484D01*
X8402729Y-12562484D02*
X8469396Y-12705341D01*
X8469396Y-12705341D02*
X8536063Y-12562484D01*
X8536063Y-12562484D02*
X8536063Y-12762484D01*
X8717015Y-12762484D02*
X8717015Y-12657722D01*
X8717015Y-12657722D02*
X8707491Y-12638674D01*
X8707491Y-12638674D02*
X8688444Y-12629150D01*
X8688444Y-12629150D02*
X8650348Y-12629150D01*
X8650348Y-12629150D02*
X8631301Y-12638674D01*
X8717015Y-12752960D02*
X8697967Y-12762484D01*
X8697967Y-12762484D02*
X8650348Y-12762484D01*
X8650348Y-12762484D02*
X8631301Y-12752960D01*
X8631301Y-12752960D02*
X8621777Y-12733912D01*
X8621777Y-12733912D02*
X8621777Y-12714865D01*
X8621777Y-12714865D02*
X8631301Y-12695817D01*
X8631301Y-12695817D02*
X8650348Y-12686293D01*
X8650348Y-12686293D02*
X8697967Y-12686293D01*
X8697967Y-12686293D02*
X8717015Y-12676769D01*
X8812253Y-12629150D02*
X8812253Y-12829150D01*
X8812253Y-12638674D02*
X8831301Y-12629150D01*
X8831301Y-12629150D02*
X8869396Y-12629150D01*
X8869396Y-12629150D02*
X8888444Y-12638674D01*
X8888444Y-12638674D02*
X8897967Y-12648198D01*
X8897967Y-12648198D02*
X8907491Y-12667246D01*
X8907491Y-12667246D02*
X8907491Y-12724388D01*
X8907491Y-12724388D02*
X8897967Y-12743436D01*
X8897967Y-12743436D02*
X8888444Y-12752960D01*
X8888444Y-12752960D02*
X8869396Y-12762484D01*
X8869396Y-12762484D02*
X8831301Y-12762484D01*
X8831301Y-12762484D02*
X8812253Y-12752960D01*
X8993205Y-12743436D02*
X9002729Y-12752960D01*
X9002729Y-12752960D02*
X8993205Y-12762484D01*
X8993205Y-12762484D02*
X8983682Y-12752960D01*
X8983682Y-12752960D02*
X8993205Y-12743436D01*
X8993205Y-12743436D02*
X8993205Y-12762484D01*
X8993205Y-12638674D02*
X9002729Y-12648198D01*
X9002729Y-12648198D02*
X8993205Y-12657722D01*
X8993205Y-12657722D02*
X8983682Y-12648198D01*
X8983682Y-12648198D02*
X8993205Y-12638674D01*
X8993205Y-12638674D02*
X8993205Y-12657722D01*
D10*
X7321000Y-13071000D02*
X7361000Y-13111000D01*
X7361000Y-13071000D02*
X7321000Y-13111000D01*
D11*
X7659872Y-12982484D02*
X7678920Y-12982484D01*
X7678920Y-12982484D02*
X7697967Y-12992008D01*
X7697967Y-12992008D02*
X7707491Y-13001531D01*
X7707491Y-13001531D02*
X7717015Y-13020579D01*
X7717015Y-13020579D02*
X7726539Y-13058674D01*
X7726539Y-13058674D02*
X7726539Y-13106293D01*
X7726539Y-13106293D02*
X7717015Y-13144388D01*
X7717015Y-13144388D02*
X7707491Y-13163436D01*
X7707491Y-13163436D02*
X7697967Y-13172960D01*
X7697967Y-13172960D02*
X7678920Y-13182484D01*
X7678920Y-13182484D02*
X7659872Y-13182484D01*
X7659872Y-13182484D02*
X7640824Y-13172960D01*
X7640824Y-13172960D02*
X7631301Y-13163436D01*
X7631301Y-13163436D02*
X7621777Y-13144388D01*
X7621777Y-13144388D02*
X7612253Y-13106293D01*
X7612253Y-13106293D02*
X7612253Y-13058674D01*
X7612253Y-13058674D02*
X7621777Y-13020579D01*
X7621777Y-13020579D02*
X7631301Y-13001531D01*
X7631301Y-13001531D02*
X7640824Y-12992008D01*
X7640824Y-12992008D02*
X7659872Y-12982484D01*
X7812253Y-13163436D02*
X7821777Y-13172960D01*
X7821777Y-13172960D02*
X7812253Y-13182484D01*
X7812253Y-13182484D02*
X7802729Y-13172960D01*
X7802729Y-13172960D02*
X7812253Y-13163436D01*
X7812253Y-13163436D02*
X7812253Y-13182484D01*
X7993205Y-13049150D02*
X7993205Y-13182484D01*
X7945586Y-12972960D02*
X7897967Y-13115817D01*
X7897967Y-13115817D02*
X8021777Y-13115817D01*
X8136062Y-12982484D02*
X8155110Y-12982484D01*
X8155110Y-12982484D02*
X8174158Y-12992008D01*
X8174158Y-12992008D02*
X8183682Y-13001531D01*
X8183682Y-13001531D02*
X8193205Y-13020579D01*
X8193205Y-13020579D02*
X8202729Y-13058674D01*
X8202729Y-13058674D02*
X8202729Y-13106293D01*
X8202729Y-13106293D02*
X8193205Y-13144388D01*
X8193205Y-13144388D02*
X8183682Y-13163436D01*
X8183682Y-13163436D02*
X8174158Y-13172960D01*
X8174158Y-13172960D02*
X8155110Y-13182484D01*
X8155110Y-13182484D02*
X8136062Y-13182484D01*
X8136062Y-13182484D02*
X8117015Y-13172960D01*
X8117015Y-13172960D02*
X8107491Y-13163436D01*
X8107491Y-13163436D02*
X8097967Y-13144388D01*
X8097967Y-13144388D02*
X8088443Y-13106293D01*
X8088443Y-13106293D02*
X8088443Y-13058674D01*
X8088443Y-13058674D02*
X8097967Y-13020579D01*
X8097967Y-13020579D02*
X8107491Y-13001531D01*
X8107491Y-13001531D02*
X8117015Y-12992008D01*
X8117015Y-12992008D02*
X8136062Y-12982484D01*
X8326539Y-12982484D02*
X8345586Y-12982484D01*
X8345586Y-12982484D02*
X8364634Y-12992008D01*
X8364634Y-12992008D02*
X8374158Y-13001531D01*
X8374158Y-13001531D02*
X8383682Y-13020579D01*
X8383682Y-13020579D02*
X8393205Y-13058674D01*
X8393205Y-13058674D02*
X8393205Y-13106293D01*
X8393205Y-13106293D02*
X8383682Y-13144388D01*
X8383682Y-13144388D02*
X8374158Y-13163436D01*
X8374158Y-13163436D02*
X8364634Y-13172960D01*
X8364634Y-13172960D02*
X8345586Y-13182484D01*
X8345586Y-13182484D02*
X8326539Y-13182484D01*
X8326539Y-13182484D02*
X8307491Y-13172960D01*
X8307491Y-13172960D02*
X8297967Y-13163436D01*
X8297967Y-13163436D02*
X8288443Y-13144388D01*
X8288443Y-13144388D02*
X8278920Y-13106293D01*
X8278920Y-13106293D02*
X8278920Y-13058674D01*
X8278920Y-13058674D02*
X8288443Y-13020579D01*
X8288443Y-13020579D02*
X8297967Y-13001531D01*
X8297967Y-13001531D02*
X8307491Y-12992008D01*
X8307491Y-12992008D02*
X8326539Y-12982484D01*
X8478920Y-13182484D02*
X8478920Y-13049150D01*
X8478920Y-13068198D02*
X8488444Y-13058674D01*
X8488444Y-13058674D02*
X8507491Y-13049150D01*
X8507491Y-13049150D02*
X8536063Y-13049150D01*
X8536063Y-13049150D02*
X8555110Y-13058674D01*
X8555110Y-13058674D02*
X8564634Y-13077722D01*
X8564634Y-13077722D02*
X8564634Y-13182484D01*
X8564634Y-13077722D02*
X8574158Y-13058674D01*
X8574158Y-13058674D02*
X8593205Y-13049150D01*
X8593205Y-13049150D02*
X8621777Y-13049150D01*
X8621777Y-13049150D02*
X8640825Y-13058674D01*
X8640825Y-13058674D02*
X8650348Y-13077722D01*
X8650348Y-13077722D02*
X8650348Y-13182484D01*
X8745586Y-13182484D02*
X8745586Y-13049150D01*
X8745586Y-13068198D02*
X8755110Y-13058674D01*
X8755110Y-13058674D02*
X8774158Y-13049150D01*
X8774158Y-13049150D02*
X8802729Y-13049150D01*
X8802729Y-13049150D02*
X8821777Y-13058674D01*
X8821777Y-13058674D02*
X8831301Y-13077722D01*
X8831301Y-13077722D02*
X8831301Y-13182484D01*
X8831301Y-13077722D02*
X8840825Y-13058674D01*
X8840825Y-13058674D02*
X8859872Y-13049150D01*
X8859872Y-13049150D02*
X8888444Y-13049150D01*
X8888444Y-13049150D02*
X8907491Y-13058674D01*
X8907491Y-13058674D02*
X8917015Y-13077722D01*
X8917015Y-13077722D02*
X8917015Y-13182484D01*
X9307491Y-12972960D02*
X9136063Y-13230103D01*
X9564634Y-12982484D02*
X9583682Y-12982484D01*
X9583682Y-12982484D02*
X9602729Y-12992008D01*
X9602729Y-12992008D02*
X9612253Y-13001531D01*
X9612253Y-13001531D02*
X9621777Y-13020579D01*
X9621777Y-13020579D02*
X9631301Y-13058674D01*
X9631301Y-13058674D02*
X9631301Y-13106293D01*
X9631301Y-13106293D02*
X9621777Y-13144388D01*
X9621777Y-13144388D02*
X9612253Y-13163436D01*
X9612253Y-13163436D02*
X9602729Y-13172960D01*
X9602729Y-13172960D02*
X9583682Y-13182484D01*
X9583682Y-13182484D02*
X9564634Y-13182484D01*
X9564634Y-13182484D02*
X9545587Y-13172960D01*
X9545587Y-13172960D02*
X9536063Y-13163436D01*
X9536063Y-13163436D02*
X9526539Y-13144388D01*
X9526539Y-13144388D02*
X9517015Y-13106293D01*
X9517015Y-13106293D02*
X9517015Y-13058674D01*
X9517015Y-13058674D02*
X9526539Y-13020579D01*
X9526539Y-13020579D02*
X9536063Y-13001531D01*
X9536063Y-13001531D02*
X9545587Y-12992008D01*
X9545587Y-12992008D02*
X9564634Y-12982484D01*
X9717015Y-13163436D02*
X9726539Y-13172960D01*
X9726539Y-13172960D02*
X9717015Y-13182484D01*
X9717015Y-13182484D02*
X9707491Y-13172960D01*
X9707491Y-13172960D02*
X9717015Y-13163436D01*
X9717015Y-13163436D02*
X9717015Y-13182484D01*
X9850348Y-12982484D02*
X9869396Y-12982484D01*
X9869396Y-12982484D02*
X9888444Y-12992008D01*
X9888444Y-12992008D02*
X9897968Y-13001531D01*
X9897968Y-13001531D02*
X9907491Y-13020579D01*
X9907491Y-13020579D02*
X9917015Y-13058674D01*
X9917015Y-13058674D02*
X9917015Y-13106293D01*
X9917015Y-13106293D02*
X9907491Y-13144388D01*
X9907491Y-13144388D02*
X9897968Y-13163436D01*
X9897968Y-13163436D02*
X9888444Y-13172960D01*
X9888444Y-13172960D02*
X9869396Y-13182484D01*
X9869396Y-13182484D02*
X9850348Y-13182484D01*
X9850348Y-13182484D02*
X9831301Y-13172960D01*
X9831301Y-13172960D02*
X9821777Y-13163436D01*
X9821777Y-13163436D02*
X9812253Y-13144388D01*
X9812253Y-13144388D02*
X9802729Y-13106293D01*
X9802729Y-13106293D02*
X9802729Y-13058674D01*
X9802729Y-13058674D02*
X9812253Y-13020579D01*
X9812253Y-13020579D02*
X9821777Y-13001531D01*
X9821777Y-13001531D02*
X9831301Y-12992008D01*
X9831301Y-12992008D02*
X9850348Y-12982484D01*
X10107491Y-13182484D02*
X9993206Y-13182484D01*
X10050348Y-13182484D02*
X10050348Y-12982484D01*
X10050348Y-12982484D02*
X10031301Y-13011055D01*
X10031301Y-13011055D02*
X10012253Y-13030103D01*
X10012253Y-13030103D02*
X9993206Y-13039627D01*
X10288444Y-12982484D02*
X10193206Y-12982484D01*
X10193206Y-12982484D02*
X10183682Y-13077722D01*
X10183682Y-13077722D02*
X10193206Y-13068198D01*
X10193206Y-13068198D02*
X10212253Y-13058674D01*
X10212253Y-13058674D02*
X10259872Y-13058674D01*
X10259872Y-13058674D02*
X10278920Y-13068198D01*
X10278920Y-13068198D02*
X10288444Y-13077722D01*
X10288444Y-13077722D02*
X10297968Y-13096769D01*
X10297968Y-13096769D02*
X10297968Y-13144388D01*
X10297968Y-13144388D02*
X10288444Y-13163436D01*
X10288444Y-13163436D02*
X10278920Y-13172960D01*
X10278920Y-13172960D02*
X10259872Y-13182484D01*
X10259872Y-13182484D02*
X10212253Y-13182484D01*
X10212253Y-13182484D02*
X10193206Y-13172960D01*
X10193206Y-13172960D02*
X10183682Y-13163436D01*
X10364634Y-12982484D02*
X10497968Y-12982484D01*
X10497968Y-12982484D02*
X10412253Y-13182484D01*
X10564634Y-12982484D02*
X10564634Y-13020579D01*
X10640825Y-12982484D02*
X10640825Y-13020579D01*
X10936063Y-13258674D02*
X10926539Y-13249150D01*
X10926539Y-13249150D02*
X10907491Y-13220579D01*
X10907491Y-13220579D02*
X10897968Y-13201531D01*
X10897968Y-13201531D02*
X10888444Y-13172960D01*
X10888444Y-13172960D02*
X10878920Y-13125341D01*
X10878920Y-13125341D02*
X10878920Y-13087246D01*
X10878920Y-13087246D02*
X10888444Y-13039627D01*
X10888444Y-13039627D02*
X10897968Y-13011055D01*
X10897968Y-13011055D02*
X10907491Y-12992008D01*
X10907491Y-12992008D02*
X10926539Y-12963436D01*
X10926539Y-12963436D02*
X10936063Y-12953912D01*
X10993206Y-12982484D02*
X11117015Y-12982484D01*
X11117015Y-12982484D02*
X11050349Y-13058674D01*
X11050349Y-13058674D02*
X11078920Y-13058674D01*
X11078920Y-13058674D02*
X11097968Y-13068198D01*
X11097968Y-13068198D02*
X11107491Y-13077722D01*
X11107491Y-13077722D02*
X11117015Y-13096769D01*
X11117015Y-13096769D02*
X11117015Y-13144388D01*
X11117015Y-13144388D02*
X11107491Y-13163436D01*
X11107491Y-13163436D02*
X11097968Y-13172960D01*
X11097968Y-13172960D02*
X11078920Y-13182484D01*
X11078920Y-13182484D02*
X11021777Y-13182484D01*
X11021777Y-13182484D02*
X11002730Y-13172960D01*
X11002730Y-13172960D02*
X10993206Y-13163436D01*
X11193206Y-13001531D02*
X11202729Y-12992008D01*
X11202729Y-12992008D02*
X11221777Y-12982484D01*
X11221777Y-12982484D02*
X11269396Y-12982484D01*
X11269396Y-12982484D02*
X11288444Y-12992008D01*
X11288444Y-12992008D02*
X11297968Y-13001531D01*
X11297968Y-13001531D02*
X11307491Y-13020579D01*
X11307491Y-13020579D02*
X11307491Y-13039627D01*
X11307491Y-13039627D02*
X11297968Y-13068198D01*
X11297968Y-13068198D02*
X11183682Y-13182484D01*
X11183682Y-13182484D02*
X11307491Y-13182484D01*
X11545587Y-13182484D02*
X11545587Y-12982484D01*
X11631301Y-13182484D02*
X11631301Y-13077722D01*
X11631301Y-13077722D02*
X11621777Y-13058674D01*
X11621777Y-13058674D02*
X11602730Y-13049150D01*
X11602730Y-13049150D02*
X11574158Y-13049150D01*
X11574158Y-13049150D02*
X11555110Y-13058674D01*
X11555110Y-13058674D02*
X11545587Y-13068198D01*
X11755110Y-13182484D02*
X11736063Y-13172960D01*
X11736063Y-13172960D02*
X11726539Y-13163436D01*
X11726539Y-13163436D02*
X11717015Y-13144388D01*
X11717015Y-13144388D02*
X11717015Y-13087246D01*
X11717015Y-13087246D02*
X11726539Y-13068198D01*
X11726539Y-13068198D02*
X11736063Y-13058674D01*
X11736063Y-13058674D02*
X11755110Y-13049150D01*
X11755110Y-13049150D02*
X11783682Y-13049150D01*
X11783682Y-13049150D02*
X11802730Y-13058674D01*
X11802730Y-13058674D02*
X11812253Y-13068198D01*
X11812253Y-13068198D02*
X11821777Y-13087246D01*
X11821777Y-13087246D02*
X11821777Y-13144388D01*
X11821777Y-13144388D02*
X11812253Y-13163436D01*
X11812253Y-13163436D02*
X11802730Y-13172960D01*
X11802730Y-13172960D02*
X11783682Y-13182484D01*
X11783682Y-13182484D02*
X11755110Y-13182484D01*
X11936063Y-13182484D02*
X11917015Y-13172960D01*
X11917015Y-13172960D02*
X11907491Y-13153912D01*
X11907491Y-13153912D02*
X11907491Y-12982484D01*
X12088444Y-13172960D02*
X12069396Y-13182484D01*
X12069396Y-13182484D02*
X12031301Y-13182484D01*
X12031301Y-13182484D02*
X12012253Y-13172960D01*
X12012253Y-13172960D02*
X12002730Y-13153912D01*
X12002730Y-13153912D02*
X12002730Y-13077722D01*
X12002730Y-13077722D02*
X12012253Y-13058674D01*
X12012253Y-13058674D02*
X12031301Y-13049150D01*
X12031301Y-13049150D02*
X12069396Y-13049150D01*
X12069396Y-13049150D02*
X12088444Y-13058674D01*
X12088444Y-13058674D02*
X12097968Y-13077722D01*
X12097968Y-13077722D02*
X12097968Y-13096769D01*
X12097968Y-13096769D02*
X12002730Y-13115817D01*
X12174158Y-13172960D02*
X12193206Y-13182484D01*
X12193206Y-13182484D02*
X12231301Y-13182484D01*
X12231301Y-13182484D02*
X12250349Y-13172960D01*
X12250349Y-13172960D02*
X12259872Y-13153912D01*
X12259872Y-13153912D02*
X12259872Y-13144388D01*
X12259872Y-13144388D02*
X12250349Y-13125341D01*
X12250349Y-13125341D02*
X12231301Y-13115817D01*
X12231301Y-13115817D02*
X12202730Y-13115817D01*
X12202730Y-13115817D02*
X12183682Y-13106293D01*
X12183682Y-13106293D02*
X12174158Y-13087246D01*
X12174158Y-13087246D02*
X12174158Y-13077722D01*
X12174158Y-13077722D02*
X12183682Y-13058674D01*
X12183682Y-13058674D02*
X12202730Y-13049150D01*
X12202730Y-13049150D02*
X12231301Y-13049150D01*
X12231301Y-13049150D02*
X12250349Y-13058674D01*
X12326539Y-13258674D02*
X12336063Y-13249150D01*
X12336063Y-13249150D02*
X12355111Y-13220579D01*
X12355111Y-13220579D02*
X12364634Y-13201531D01*
X12364634Y-13201531D02*
X12374158Y-13172960D01*
X12374158Y-13172960D02*
X12383682Y-13125341D01*
X12383682Y-13125341D02*
X12383682Y-13087246D01*
X12383682Y-13087246D02*
X12374158Y-13039627D01*
X12374158Y-13039627D02*
X12364634Y-13011055D01*
X12364634Y-13011055D02*
X12355111Y-12992008D01*
X12355111Y-12992008D02*
X12336063Y-12963436D01*
X12336063Y-12963436D02*
X12326539Y-12953912D01*
D10*
X7361000Y-13355000D02*
G75*
G02*
X7301000Y-13355000I-30000J0D01*
G01*
X7301000Y-13355000D02*
G75*
G02*
X7361000Y-13355000I30000J0D01*
G01*
D11*
X7659872Y-13246484D02*
X7678920Y-13246484D01*
X7678920Y-13246484D02*
X7697967Y-13256008D01*
X7697967Y-13256008D02*
X7707491Y-13265531D01*
X7707491Y-13265531D02*
X7717015Y-13284579D01*
X7717015Y-13284579D02*
X7726539Y-13322674D01*
X7726539Y-13322674D02*
X7726539Y-13370293D01*
X7726539Y-13370293D02*
X7717015Y-13408388D01*
X7717015Y-13408388D02*
X7707491Y-13427436D01*
X7707491Y-13427436D02*
X7697967Y-13436960D01*
X7697967Y-13436960D02*
X7678920Y-13446484D01*
X7678920Y-13446484D02*
X7659872Y-13446484D01*
X7659872Y-13446484D02*
X7640824Y-13436960D01*
X7640824Y-13436960D02*
X7631301Y-13427436D01*
X7631301Y-13427436D02*
X7621777Y-13408388D01*
X7621777Y-13408388D02*
X7612253Y-13370293D01*
X7612253Y-13370293D02*
X7612253Y-13322674D01*
X7612253Y-13322674D02*
X7621777Y-13284579D01*
X7621777Y-13284579D02*
X7631301Y-13265531D01*
X7631301Y-13265531D02*
X7640824Y-13256008D01*
X7640824Y-13256008D02*
X7659872Y-13246484D01*
X7812253Y-13427436D02*
X7821777Y-13436960D01*
X7821777Y-13436960D02*
X7812253Y-13446484D01*
X7812253Y-13446484D02*
X7802729Y-13436960D01*
X7802729Y-13436960D02*
X7812253Y-13427436D01*
X7812253Y-13427436D02*
X7812253Y-13446484D01*
X7993205Y-13246484D02*
X7955110Y-13246484D01*
X7955110Y-13246484D02*
X7936062Y-13256008D01*
X7936062Y-13256008D02*
X7926539Y-13265531D01*
X7926539Y-13265531D02*
X7907491Y-13294103D01*
X7907491Y-13294103D02*
X7897967Y-13332198D01*
X7897967Y-13332198D02*
X7897967Y-13408388D01*
X7897967Y-13408388D02*
X7907491Y-13427436D01*
X7907491Y-13427436D02*
X7917015Y-13436960D01*
X7917015Y-13436960D02*
X7936062Y-13446484D01*
X7936062Y-13446484D02*
X7974158Y-13446484D01*
X7974158Y-13446484D02*
X7993205Y-13436960D01*
X7993205Y-13436960D02*
X8002729Y-13427436D01*
X8002729Y-13427436D02*
X8012253Y-13408388D01*
X8012253Y-13408388D02*
X8012253Y-13360769D01*
X8012253Y-13360769D02*
X8002729Y-13341722D01*
X8002729Y-13341722D02*
X7993205Y-13332198D01*
X7993205Y-13332198D02*
X7974158Y-13322674D01*
X7974158Y-13322674D02*
X7936062Y-13322674D01*
X7936062Y-13322674D02*
X7917015Y-13332198D01*
X7917015Y-13332198D02*
X7907491Y-13341722D01*
X7907491Y-13341722D02*
X7897967Y-13360769D01*
X8136062Y-13246484D02*
X8155110Y-13246484D01*
X8155110Y-13246484D02*
X8174158Y-13256008D01*
X8174158Y-13256008D02*
X8183682Y-13265531D01*
X8183682Y-13265531D02*
X8193205Y-13284579D01*
X8193205Y-13284579D02*
X8202729Y-13322674D01*
X8202729Y-13322674D02*
X8202729Y-13370293D01*
X8202729Y-13370293D02*
X8193205Y-13408388D01*
X8193205Y-13408388D02*
X8183682Y-13427436D01*
X8183682Y-13427436D02*
X8174158Y-13436960D01*
X8174158Y-13436960D02*
X8155110Y-13446484D01*
X8155110Y-13446484D02*
X8136062Y-13446484D01*
X8136062Y-13446484D02*
X8117015Y-13436960D01*
X8117015Y-13436960D02*
X8107491Y-13427436D01*
X8107491Y-13427436D02*
X8097967Y-13408388D01*
X8097967Y-13408388D02*
X8088443Y-13370293D01*
X8088443Y-13370293D02*
X8088443Y-13322674D01*
X8088443Y-13322674D02*
X8097967Y-13284579D01*
X8097967Y-13284579D02*
X8107491Y-13265531D01*
X8107491Y-13265531D02*
X8117015Y-13256008D01*
X8117015Y-13256008D02*
X8136062Y-13246484D01*
X8326539Y-13246484D02*
X8345586Y-13246484D01*
X8345586Y-13246484D02*
X8364634Y-13256008D01*
X8364634Y-13256008D02*
X8374158Y-13265531D01*
X8374158Y-13265531D02*
X8383682Y-13284579D01*
X8383682Y-13284579D02*
X8393205Y-13322674D01*
X8393205Y-13322674D02*
X8393205Y-13370293D01*
X8393205Y-13370293D02*
X8383682Y-13408388D01*
X8383682Y-13408388D02*
X8374158Y-13427436D01*
X8374158Y-13427436D02*
X8364634Y-13436960D01*
X8364634Y-13436960D02*
X8345586Y-13446484D01*
X8345586Y-13446484D02*
X8326539Y-13446484D01*
X8326539Y-13446484D02*
X8307491Y-13436960D01*
X8307491Y-13436960D02*
X8297967Y-13427436D01*
X8297967Y-13427436D02*
X8288443Y-13408388D01*
X8288443Y-13408388D02*
X8278920Y-13370293D01*
X8278920Y-13370293D02*
X8278920Y-13322674D01*
X8278920Y-13322674D02*
X8288443Y-13284579D01*
X8288443Y-13284579D02*
X8297967Y-13265531D01*
X8297967Y-13265531D02*
X8307491Y-13256008D01*
X8307491Y-13256008D02*
X8326539Y-13246484D01*
X8478920Y-13446484D02*
X8478920Y-13313150D01*
X8478920Y-13332198D02*
X8488444Y-13322674D01*
X8488444Y-13322674D02*
X8507491Y-13313150D01*
X8507491Y-13313150D02*
X8536063Y-13313150D01*
X8536063Y-13313150D02*
X8555110Y-13322674D01*
X8555110Y-13322674D02*
X8564634Y-13341722D01*
X8564634Y-13341722D02*
X8564634Y-13446484D01*
X8564634Y-13341722D02*
X8574158Y-13322674D01*
X8574158Y-13322674D02*
X8593205Y-13313150D01*
X8593205Y-13313150D02*
X8621777Y-13313150D01*
X8621777Y-13313150D02*
X8640825Y-13322674D01*
X8640825Y-13322674D02*
X8650348Y-13341722D01*
X8650348Y-13341722D02*
X8650348Y-13446484D01*
X8745586Y-13446484D02*
X8745586Y-13313150D01*
X8745586Y-13332198D02*
X8755110Y-13322674D01*
X8755110Y-13322674D02*
X8774158Y-13313150D01*
X8774158Y-13313150D02*
X8802729Y-13313150D01*
X8802729Y-13313150D02*
X8821777Y-13322674D01*
X8821777Y-13322674D02*
X8831301Y-13341722D01*
X8831301Y-13341722D02*
X8831301Y-13446484D01*
X8831301Y-13341722D02*
X8840825Y-13322674D01*
X8840825Y-13322674D02*
X8859872Y-13313150D01*
X8859872Y-13313150D02*
X8888444Y-13313150D01*
X8888444Y-13313150D02*
X8907491Y-13322674D01*
X8907491Y-13322674D02*
X8917015Y-13341722D01*
X8917015Y-13341722D02*
X8917015Y-13446484D01*
X9307491Y-13236960D02*
X9136063Y-13494103D01*
X9564634Y-13246484D02*
X9583682Y-13246484D01*
X9583682Y-13246484D02*
X9602729Y-13256008D01*
X9602729Y-13256008D02*
X9612253Y-13265531D01*
X9612253Y-13265531D02*
X9621777Y-13284579D01*
X9621777Y-13284579D02*
X9631301Y-13322674D01*
X9631301Y-13322674D02*
X9631301Y-13370293D01*
X9631301Y-13370293D02*
X9621777Y-13408388D01*
X9621777Y-13408388D02*
X9612253Y-13427436D01*
X9612253Y-13427436D02*
X9602729Y-13436960D01*
X9602729Y-13436960D02*
X9583682Y-13446484D01*
X9583682Y-13446484D02*
X9564634Y-13446484D01*
X9564634Y-13446484D02*
X9545587Y-13436960D01*
X9545587Y-13436960D02*
X9536063Y-13427436D01*
X9536063Y-13427436D02*
X9526539Y-13408388D01*
X9526539Y-13408388D02*
X9517015Y-13370293D01*
X9517015Y-13370293D02*
X9517015Y-13322674D01*
X9517015Y-13322674D02*
X9526539Y-13284579D01*
X9526539Y-13284579D02*
X9536063Y-13265531D01*
X9536063Y-13265531D02*
X9545587Y-13256008D01*
X9545587Y-13256008D02*
X9564634Y-13246484D01*
X9717015Y-13427436D02*
X9726539Y-13436960D01*
X9726539Y-13436960D02*
X9717015Y-13446484D01*
X9717015Y-13446484D02*
X9707491Y-13436960D01*
X9707491Y-13436960D02*
X9717015Y-13427436D01*
X9717015Y-13427436D02*
X9717015Y-13446484D01*
X9850348Y-13246484D02*
X9869396Y-13246484D01*
X9869396Y-13246484D02*
X9888444Y-13256008D01*
X9888444Y-13256008D02*
X9897968Y-13265531D01*
X9897968Y-13265531D02*
X9907491Y-13284579D01*
X9907491Y-13284579D02*
X9917015Y-13322674D01*
X9917015Y-13322674D02*
X9917015Y-13370293D01*
X9917015Y-13370293D02*
X9907491Y-13408388D01*
X9907491Y-13408388D02*
X9897968Y-13427436D01*
X9897968Y-13427436D02*
X9888444Y-13436960D01*
X9888444Y-13436960D02*
X9869396Y-13446484D01*
X9869396Y-13446484D02*
X9850348Y-13446484D01*
X9850348Y-13446484D02*
X9831301Y-13436960D01*
X9831301Y-13436960D02*
X9821777Y-13427436D01*
X9821777Y-13427436D02*
X9812253Y-13408388D01*
X9812253Y-13408388D02*
X9802729Y-13370293D01*
X9802729Y-13370293D02*
X9802729Y-13322674D01*
X9802729Y-13322674D02*
X9812253Y-13284579D01*
X9812253Y-13284579D02*
X9821777Y-13265531D01*
X9821777Y-13265531D02*
X9831301Y-13256008D01*
X9831301Y-13256008D02*
X9850348Y-13246484D01*
X9993206Y-13265531D02*
X10002729Y-13256008D01*
X10002729Y-13256008D02*
X10021777Y-13246484D01*
X10021777Y-13246484D02*
X10069396Y-13246484D01*
X10069396Y-13246484D02*
X10088444Y-13256008D01*
X10088444Y-13256008D02*
X10097968Y-13265531D01*
X10097968Y-13265531D02*
X10107491Y-13284579D01*
X10107491Y-13284579D02*
X10107491Y-13303627D01*
X10107491Y-13303627D02*
X10097968Y-13332198D01*
X10097968Y-13332198D02*
X9983682Y-13446484D01*
X9983682Y-13446484D02*
X10107491Y-13446484D01*
X10174158Y-13246484D02*
X10297968Y-13246484D01*
X10297968Y-13246484D02*
X10231301Y-13322674D01*
X10231301Y-13322674D02*
X10259872Y-13322674D01*
X10259872Y-13322674D02*
X10278920Y-13332198D01*
X10278920Y-13332198D02*
X10288444Y-13341722D01*
X10288444Y-13341722D02*
X10297968Y-13360769D01*
X10297968Y-13360769D02*
X10297968Y-13408388D01*
X10297968Y-13408388D02*
X10288444Y-13427436D01*
X10288444Y-13427436D02*
X10278920Y-13436960D01*
X10278920Y-13436960D02*
X10259872Y-13446484D01*
X10259872Y-13446484D02*
X10202729Y-13446484D01*
X10202729Y-13446484D02*
X10183682Y-13436960D01*
X10183682Y-13436960D02*
X10174158Y-13427436D01*
X10469396Y-13246484D02*
X10431301Y-13246484D01*
X10431301Y-13246484D02*
X10412253Y-13256008D01*
X10412253Y-13256008D02*
X10402729Y-13265531D01*
X10402729Y-13265531D02*
X10383682Y-13294103D01*
X10383682Y-13294103D02*
X10374158Y-13332198D01*
X10374158Y-13332198D02*
X10374158Y-13408388D01*
X10374158Y-13408388D02*
X10383682Y-13427436D01*
X10383682Y-13427436D02*
X10393206Y-13436960D01*
X10393206Y-13436960D02*
X10412253Y-13446484D01*
X10412253Y-13446484D02*
X10450349Y-13446484D01*
X10450349Y-13446484D02*
X10469396Y-13436960D01*
X10469396Y-13436960D02*
X10478920Y-13427436D01*
X10478920Y-13427436D02*
X10488444Y-13408388D01*
X10488444Y-13408388D02*
X10488444Y-13360769D01*
X10488444Y-13360769D02*
X10478920Y-13341722D01*
X10478920Y-13341722D02*
X10469396Y-13332198D01*
X10469396Y-13332198D02*
X10450349Y-13322674D01*
X10450349Y-13322674D02*
X10412253Y-13322674D01*
X10412253Y-13322674D02*
X10393206Y-13332198D01*
X10393206Y-13332198D02*
X10383682Y-13341722D01*
X10383682Y-13341722D02*
X10374158Y-13360769D01*
X10564634Y-13246484D02*
X10564634Y-13284579D01*
X10640825Y-13246484D02*
X10640825Y-13284579D01*
X10936063Y-13522674D02*
X10926539Y-13513150D01*
X10926539Y-13513150D02*
X10907491Y-13484579D01*
X10907491Y-13484579D02*
X10897968Y-13465531D01*
X10897968Y-13465531D02*
X10888444Y-13436960D01*
X10888444Y-13436960D02*
X10878920Y-13389341D01*
X10878920Y-13389341D02*
X10878920Y-13351246D01*
X10878920Y-13351246D02*
X10888444Y-13303627D01*
X10888444Y-13303627D02*
X10897968Y-13275055D01*
X10897968Y-13275055D02*
X10907491Y-13256008D01*
X10907491Y-13256008D02*
X10926539Y-13227436D01*
X10926539Y-13227436D02*
X10936063Y-13217912D01*
X11050349Y-13246484D02*
X11069396Y-13246484D01*
X11069396Y-13246484D02*
X11088444Y-13256008D01*
X11088444Y-13256008D02*
X11097968Y-13265531D01*
X11097968Y-13265531D02*
X11107491Y-13284579D01*
X11107491Y-13284579D02*
X11117015Y-13322674D01*
X11117015Y-13322674D02*
X11117015Y-13370293D01*
X11117015Y-13370293D02*
X11107491Y-13408388D01*
X11107491Y-13408388D02*
X11097968Y-13427436D01*
X11097968Y-13427436D02*
X11088444Y-13436960D01*
X11088444Y-13436960D02*
X11069396Y-13446484D01*
X11069396Y-13446484D02*
X11050349Y-13446484D01*
X11050349Y-13446484D02*
X11031301Y-13436960D01*
X11031301Y-13436960D02*
X11021777Y-13427436D01*
X11021777Y-13427436D02*
X11012253Y-13408388D01*
X11012253Y-13408388D02*
X11002730Y-13370293D01*
X11002730Y-13370293D02*
X11002730Y-13322674D01*
X11002730Y-13322674D02*
X11012253Y-13284579D01*
X11012253Y-13284579D02*
X11021777Y-13265531D01*
X11021777Y-13265531D02*
X11031301Y-13256008D01*
X11031301Y-13256008D02*
X11050349Y-13246484D01*
X11355110Y-13446484D02*
X11355110Y-13246484D01*
X11440825Y-13446484D02*
X11440825Y-13341722D01*
X11440825Y-13341722D02*
X11431301Y-13322674D01*
X11431301Y-13322674D02*
X11412253Y-13313150D01*
X11412253Y-13313150D02*
X11383682Y-13313150D01*
X11383682Y-13313150D02*
X11364634Y-13322674D01*
X11364634Y-13322674D02*
X11355110Y-13332198D01*
X11564634Y-13446484D02*
X11545587Y-13436960D01*
X11545587Y-13436960D02*
X11536063Y-13427436D01*
X11536063Y-13427436D02*
X11526539Y-13408388D01*
X11526539Y-13408388D02*
X11526539Y-13351246D01*
X11526539Y-13351246D02*
X11536063Y-13332198D01*
X11536063Y-13332198D02*
X11545587Y-13322674D01*
X11545587Y-13322674D02*
X11564634Y-13313150D01*
X11564634Y-13313150D02*
X11593206Y-13313150D01*
X11593206Y-13313150D02*
X11612253Y-13322674D01*
X11612253Y-13322674D02*
X11621777Y-13332198D01*
X11621777Y-13332198D02*
X11631301Y-13351246D01*
X11631301Y-13351246D02*
X11631301Y-13408388D01*
X11631301Y-13408388D02*
X11621777Y-13427436D01*
X11621777Y-13427436D02*
X11612253Y-13436960D01*
X11612253Y-13436960D02*
X11593206Y-13446484D01*
X11593206Y-13446484D02*
X11564634Y-13446484D01*
X11745587Y-13446484D02*
X11726539Y-13436960D01*
X11726539Y-13436960D02*
X11717015Y-13417912D01*
X11717015Y-13417912D02*
X11717015Y-13246484D01*
X11897968Y-13436960D02*
X11878920Y-13446484D01*
X11878920Y-13446484D02*
X11840825Y-13446484D01*
X11840825Y-13446484D02*
X11821777Y-13436960D01*
X11821777Y-13436960D02*
X11812253Y-13417912D01*
X11812253Y-13417912D02*
X11812253Y-13341722D01*
X11812253Y-13341722D02*
X11821777Y-13322674D01*
X11821777Y-13322674D02*
X11840825Y-13313150D01*
X11840825Y-13313150D02*
X11878920Y-13313150D01*
X11878920Y-13313150D02*
X11897968Y-13322674D01*
X11897968Y-13322674D02*
X11907491Y-13341722D01*
X11907491Y-13341722D02*
X11907491Y-13360769D01*
X11907491Y-13360769D02*
X11812253Y-13379817D01*
X11983682Y-13436960D02*
X12002730Y-13446484D01*
X12002730Y-13446484D02*
X12040825Y-13446484D01*
X12040825Y-13446484D02*
X12059872Y-13436960D01*
X12059872Y-13436960D02*
X12069396Y-13417912D01*
X12069396Y-13417912D02*
X12069396Y-13408388D01*
X12069396Y-13408388D02*
X12059872Y-13389341D01*
X12059872Y-13389341D02*
X12040825Y-13379817D01*
X12040825Y-13379817D02*
X12012253Y-13379817D01*
X12012253Y-13379817D02*
X11993206Y-13370293D01*
X11993206Y-13370293D02*
X11983682Y-13351246D01*
X11983682Y-13351246D02*
X11983682Y-13341722D01*
X11983682Y-13341722D02*
X11993206Y-13322674D01*
X11993206Y-13322674D02*
X12012253Y-13313150D01*
X12012253Y-13313150D02*
X12040825Y-13313150D01*
X12040825Y-13313150D02*
X12059872Y-13322674D01*
X12307492Y-13370293D02*
X12459873Y-13370293D01*
X12383682Y-13446484D02*
X12383682Y-13294103D01*
X12793206Y-13313150D02*
X12793206Y-13446484D01*
X12745587Y-13236960D02*
X12697968Y-13379817D01*
X12697968Y-13379817D02*
X12821777Y-13379817D01*
X13040825Y-13436960D02*
X13059873Y-13446484D01*
X13059873Y-13446484D02*
X13097968Y-13446484D01*
X13097968Y-13446484D02*
X13117015Y-13436960D01*
X13117015Y-13436960D02*
X13126539Y-13417912D01*
X13126539Y-13417912D02*
X13126539Y-13408388D01*
X13126539Y-13408388D02*
X13117015Y-13389341D01*
X13117015Y-13389341D02*
X13097968Y-13379817D01*
X13097968Y-13379817D02*
X13069396Y-13379817D01*
X13069396Y-13379817D02*
X13050349Y-13370293D01*
X13050349Y-13370293D02*
X13040825Y-13351246D01*
X13040825Y-13351246D02*
X13040825Y-13341722D01*
X13040825Y-13341722D02*
X13050349Y-13322674D01*
X13050349Y-13322674D02*
X13069396Y-13313150D01*
X13069396Y-13313150D02*
X13097968Y-13313150D01*
X13097968Y-13313150D02*
X13117015Y-13322674D01*
X13240825Y-13446484D02*
X13221777Y-13436960D01*
X13221777Y-13436960D02*
X13212254Y-13417912D01*
X13212254Y-13417912D02*
X13212254Y-13246484D01*
X13345587Y-13446484D02*
X13326539Y-13436960D01*
X13326539Y-13436960D02*
X13317015Y-13427436D01*
X13317015Y-13427436D02*
X13307492Y-13408388D01*
X13307492Y-13408388D02*
X13307492Y-13351246D01*
X13307492Y-13351246D02*
X13317015Y-13332198D01*
X13317015Y-13332198D02*
X13326539Y-13322674D01*
X13326539Y-13322674D02*
X13345587Y-13313150D01*
X13345587Y-13313150D02*
X13374158Y-13313150D01*
X13374158Y-13313150D02*
X13393206Y-13322674D01*
X13393206Y-13322674D02*
X13402730Y-13332198D01*
X13402730Y-13332198D02*
X13412254Y-13351246D01*
X13412254Y-13351246D02*
X13412254Y-13408388D01*
X13412254Y-13408388D02*
X13402730Y-13427436D01*
X13402730Y-13427436D02*
X13393206Y-13436960D01*
X13393206Y-13436960D02*
X13374158Y-13446484D01*
X13374158Y-13446484D02*
X13345587Y-13446484D01*
X13469396Y-13313150D02*
X13545587Y-13313150D01*
X13497968Y-13246484D02*
X13497968Y-13417912D01*
X13497968Y-13417912D02*
X13507492Y-13436960D01*
X13507492Y-13436960D02*
X13526539Y-13446484D01*
X13526539Y-13446484D02*
X13545587Y-13446484D01*
X13602730Y-13436960D02*
X13621777Y-13446484D01*
X13621777Y-13446484D02*
X13659873Y-13446484D01*
X13659873Y-13446484D02*
X13678920Y-13436960D01*
X13678920Y-13436960D02*
X13688444Y-13417912D01*
X13688444Y-13417912D02*
X13688444Y-13408388D01*
X13688444Y-13408388D02*
X13678920Y-13389341D01*
X13678920Y-13389341D02*
X13659873Y-13379817D01*
X13659873Y-13379817D02*
X13631301Y-13379817D01*
X13631301Y-13379817D02*
X13612254Y-13370293D01*
X13612254Y-13370293D02*
X13602730Y-13351246D01*
X13602730Y-13351246D02*
X13602730Y-13341722D01*
X13602730Y-13341722D02*
X13612254Y-13322674D01*
X13612254Y-13322674D02*
X13631301Y-13313150D01*
X13631301Y-13313150D02*
X13659873Y-13313150D01*
X13659873Y-13313150D02*
X13678920Y-13322674D01*
X13755111Y-13522674D02*
X13764635Y-13513150D01*
X13764635Y-13513150D02*
X13783682Y-13484579D01*
X13783682Y-13484579D02*
X13793206Y-13465531D01*
X13793206Y-13465531D02*
X13802730Y-13436960D01*
X13802730Y-13436960D02*
X13812254Y-13389341D01*
X13812254Y-13389341D02*
X13812254Y-13351246D01*
X13812254Y-13351246D02*
X13802730Y-13303627D01*
X13802730Y-13303627D02*
X13793206Y-13275055D01*
X13793206Y-13275055D02*
X13783682Y-13256008D01*
X13783682Y-13256008D02*
X13764635Y-13227436D01*
X13764635Y-13227436D02*
X13755111Y-13217912D01*
D10*
X7311000Y-13569000D02*
X7311000Y-13669000D01*
X7261000Y-13619000D02*
X7361000Y-13619000D01*
D11*
X7726539Y-13710484D02*
X7612253Y-13710484D01*
X7669396Y-13710484D02*
X7669396Y-13510484D01*
X7669396Y-13510484D02*
X7650348Y-13539055D01*
X7650348Y-13539055D02*
X7631301Y-13558103D01*
X7631301Y-13558103D02*
X7612253Y-13567627D01*
X7812253Y-13691436D02*
X7821777Y-13700960D01*
X7821777Y-13700960D02*
X7812253Y-13710484D01*
X7812253Y-13710484D02*
X7802729Y-13700960D01*
X7802729Y-13700960D02*
X7812253Y-13691436D01*
X7812253Y-13691436D02*
X7812253Y-13710484D01*
X7945586Y-13510484D02*
X7964634Y-13510484D01*
X7964634Y-13510484D02*
X7983682Y-13520008D01*
X7983682Y-13520008D02*
X7993205Y-13529531D01*
X7993205Y-13529531D02*
X8002729Y-13548579D01*
X8002729Y-13548579D02*
X8012253Y-13586674D01*
X8012253Y-13586674D02*
X8012253Y-13634293D01*
X8012253Y-13634293D02*
X8002729Y-13672388D01*
X8002729Y-13672388D02*
X7993205Y-13691436D01*
X7993205Y-13691436D02*
X7983682Y-13700960D01*
X7983682Y-13700960D02*
X7964634Y-13710484D01*
X7964634Y-13710484D02*
X7945586Y-13710484D01*
X7945586Y-13710484D02*
X7926539Y-13700960D01*
X7926539Y-13700960D02*
X7917015Y-13691436D01*
X7917015Y-13691436D02*
X7907491Y-13672388D01*
X7907491Y-13672388D02*
X7897967Y-13634293D01*
X7897967Y-13634293D02*
X7897967Y-13586674D01*
X7897967Y-13586674D02*
X7907491Y-13548579D01*
X7907491Y-13548579D02*
X7917015Y-13529531D01*
X7917015Y-13529531D02*
X7926539Y-13520008D01*
X7926539Y-13520008D02*
X7945586Y-13510484D01*
X8136062Y-13510484D02*
X8155110Y-13510484D01*
X8155110Y-13510484D02*
X8174158Y-13520008D01*
X8174158Y-13520008D02*
X8183682Y-13529531D01*
X8183682Y-13529531D02*
X8193205Y-13548579D01*
X8193205Y-13548579D02*
X8202729Y-13586674D01*
X8202729Y-13586674D02*
X8202729Y-13634293D01*
X8202729Y-13634293D02*
X8193205Y-13672388D01*
X8193205Y-13672388D02*
X8183682Y-13691436D01*
X8183682Y-13691436D02*
X8174158Y-13700960D01*
X8174158Y-13700960D02*
X8155110Y-13710484D01*
X8155110Y-13710484D02*
X8136062Y-13710484D01*
X8136062Y-13710484D02*
X8117015Y-13700960D01*
X8117015Y-13700960D02*
X8107491Y-13691436D01*
X8107491Y-13691436D02*
X8097967Y-13672388D01*
X8097967Y-13672388D02*
X8088443Y-13634293D01*
X8088443Y-13634293D02*
X8088443Y-13586674D01*
X8088443Y-13586674D02*
X8097967Y-13548579D01*
X8097967Y-13548579D02*
X8107491Y-13529531D01*
X8107491Y-13529531D02*
X8117015Y-13520008D01*
X8117015Y-13520008D02*
X8136062Y-13510484D01*
X8326539Y-13510484D02*
X8345586Y-13510484D01*
X8345586Y-13510484D02*
X8364634Y-13520008D01*
X8364634Y-13520008D02*
X8374158Y-13529531D01*
X8374158Y-13529531D02*
X8383682Y-13548579D01*
X8383682Y-13548579D02*
X8393205Y-13586674D01*
X8393205Y-13586674D02*
X8393205Y-13634293D01*
X8393205Y-13634293D02*
X8383682Y-13672388D01*
X8383682Y-13672388D02*
X8374158Y-13691436D01*
X8374158Y-13691436D02*
X8364634Y-13700960D01*
X8364634Y-13700960D02*
X8345586Y-13710484D01*
X8345586Y-13710484D02*
X8326539Y-13710484D01*
X8326539Y-13710484D02*
X8307491Y-13700960D01*
X8307491Y-13700960D02*
X8297967Y-13691436D01*
X8297967Y-13691436D02*
X8288443Y-13672388D01*
X8288443Y-13672388D02*
X8278920Y-13634293D01*
X8278920Y-13634293D02*
X8278920Y-13586674D01*
X8278920Y-13586674D02*
X8288443Y-13548579D01*
X8288443Y-13548579D02*
X8297967Y-13529531D01*
X8297967Y-13529531D02*
X8307491Y-13520008D01*
X8307491Y-13520008D02*
X8326539Y-13510484D01*
X8478920Y-13710484D02*
X8478920Y-13577150D01*
X8478920Y-13596198D02*
X8488444Y-13586674D01*
X8488444Y-13586674D02*
X8507491Y-13577150D01*
X8507491Y-13577150D02*
X8536063Y-13577150D01*
X8536063Y-13577150D02*
X8555110Y-13586674D01*
X8555110Y-13586674D02*
X8564634Y-13605722D01*
X8564634Y-13605722D02*
X8564634Y-13710484D01*
X8564634Y-13605722D02*
X8574158Y-13586674D01*
X8574158Y-13586674D02*
X8593205Y-13577150D01*
X8593205Y-13577150D02*
X8621777Y-13577150D01*
X8621777Y-13577150D02*
X8640825Y-13586674D01*
X8640825Y-13586674D02*
X8650348Y-13605722D01*
X8650348Y-13605722D02*
X8650348Y-13710484D01*
X8745586Y-13710484D02*
X8745586Y-13577150D01*
X8745586Y-13596198D02*
X8755110Y-13586674D01*
X8755110Y-13586674D02*
X8774158Y-13577150D01*
X8774158Y-13577150D02*
X8802729Y-13577150D01*
X8802729Y-13577150D02*
X8821777Y-13586674D01*
X8821777Y-13586674D02*
X8831301Y-13605722D01*
X8831301Y-13605722D02*
X8831301Y-13710484D01*
X8831301Y-13605722D02*
X8840825Y-13586674D01*
X8840825Y-13586674D02*
X8859872Y-13577150D01*
X8859872Y-13577150D02*
X8888444Y-13577150D01*
X8888444Y-13577150D02*
X8907491Y-13586674D01*
X8907491Y-13586674D02*
X8917015Y-13605722D01*
X8917015Y-13605722D02*
X8917015Y-13710484D01*
X9307491Y-13500960D02*
X9136063Y-13758103D01*
X9564634Y-13510484D02*
X9583682Y-13510484D01*
X9583682Y-13510484D02*
X9602729Y-13520008D01*
X9602729Y-13520008D02*
X9612253Y-13529531D01*
X9612253Y-13529531D02*
X9621777Y-13548579D01*
X9621777Y-13548579D02*
X9631301Y-13586674D01*
X9631301Y-13586674D02*
X9631301Y-13634293D01*
X9631301Y-13634293D02*
X9621777Y-13672388D01*
X9621777Y-13672388D02*
X9612253Y-13691436D01*
X9612253Y-13691436D02*
X9602729Y-13700960D01*
X9602729Y-13700960D02*
X9583682Y-13710484D01*
X9583682Y-13710484D02*
X9564634Y-13710484D01*
X9564634Y-13710484D02*
X9545587Y-13700960D01*
X9545587Y-13700960D02*
X9536063Y-13691436D01*
X9536063Y-13691436D02*
X9526539Y-13672388D01*
X9526539Y-13672388D02*
X9517015Y-13634293D01*
X9517015Y-13634293D02*
X9517015Y-13586674D01*
X9517015Y-13586674D02*
X9526539Y-13548579D01*
X9526539Y-13548579D02*
X9536063Y-13529531D01*
X9536063Y-13529531D02*
X9545587Y-13520008D01*
X9545587Y-13520008D02*
X9564634Y-13510484D01*
X9717015Y-13691436D02*
X9726539Y-13700960D01*
X9726539Y-13700960D02*
X9717015Y-13710484D01*
X9717015Y-13710484D02*
X9707491Y-13700960D01*
X9707491Y-13700960D02*
X9717015Y-13691436D01*
X9717015Y-13691436D02*
X9717015Y-13710484D01*
X9850348Y-13510484D02*
X9869396Y-13510484D01*
X9869396Y-13510484D02*
X9888444Y-13520008D01*
X9888444Y-13520008D02*
X9897968Y-13529531D01*
X9897968Y-13529531D02*
X9907491Y-13548579D01*
X9907491Y-13548579D02*
X9917015Y-13586674D01*
X9917015Y-13586674D02*
X9917015Y-13634293D01*
X9917015Y-13634293D02*
X9907491Y-13672388D01*
X9907491Y-13672388D02*
X9897968Y-13691436D01*
X9897968Y-13691436D02*
X9888444Y-13700960D01*
X9888444Y-13700960D02*
X9869396Y-13710484D01*
X9869396Y-13710484D02*
X9850348Y-13710484D01*
X9850348Y-13710484D02*
X9831301Y-13700960D01*
X9831301Y-13700960D02*
X9821777Y-13691436D01*
X9821777Y-13691436D02*
X9812253Y-13672388D01*
X9812253Y-13672388D02*
X9802729Y-13634293D01*
X9802729Y-13634293D02*
X9802729Y-13586674D01*
X9802729Y-13586674D02*
X9812253Y-13548579D01*
X9812253Y-13548579D02*
X9821777Y-13529531D01*
X9821777Y-13529531D02*
X9831301Y-13520008D01*
X9831301Y-13520008D02*
X9850348Y-13510484D01*
X9983682Y-13510484D02*
X10107491Y-13510484D01*
X10107491Y-13510484D02*
X10040825Y-13586674D01*
X10040825Y-13586674D02*
X10069396Y-13586674D01*
X10069396Y-13586674D02*
X10088444Y-13596198D01*
X10088444Y-13596198D02*
X10097968Y-13605722D01*
X10097968Y-13605722D02*
X10107491Y-13624769D01*
X10107491Y-13624769D02*
X10107491Y-13672388D01*
X10107491Y-13672388D02*
X10097968Y-13691436D01*
X10097968Y-13691436D02*
X10088444Y-13700960D01*
X10088444Y-13700960D02*
X10069396Y-13710484D01*
X10069396Y-13710484D02*
X10012253Y-13710484D01*
X10012253Y-13710484D02*
X9993206Y-13700960D01*
X9993206Y-13700960D02*
X9983682Y-13691436D01*
X10202729Y-13710484D02*
X10240825Y-13710484D01*
X10240825Y-13710484D02*
X10259872Y-13700960D01*
X10259872Y-13700960D02*
X10269396Y-13691436D01*
X10269396Y-13691436D02*
X10288444Y-13662865D01*
X10288444Y-13662865D02*
X10297968Y-13624769D01*
X10297968Y-13624769D02*
X10297968Y-13548579D01*
X10297968Y-13548579D02*
X10288444Y-13529531D01*
X10288444Y-13529531D02*
X10278920Y-13520008D01*
X10278920Y-13520008D02*
X10259872Y-13510484D01*
X10259872Y-13510484D02*
X10221777Y-13510484D01*
X10221777Y-13510484D02*
X10202729Y-13520008D01*
X10202729Y-13520008D02*
X10193206Y-13529531D01*
X10193206Y-13529531D02*
X10183682Y-13548579D01*
X10183682Y-13548579D02*
X10183682Y-13596198D01*
X10183682Y-13596198D02*
X10193206Y-13615246D01*
X10193206Y-13615246D02*
X10202729Y-13624769D01*
X10202729Y-13624769D02*
X10221777Y-13634293D01*
X10221777Y-13634293D02*
X10259872Y-13634293D01*
X10259872Y-13634293D02*
X10278920Y-13624769D01*
X10278920Y-13624769D02*
X10288444Y-13615246D01*
X10288444Y-13615246D02*
X10297968Y-13596198D01*
X10469396Y-13577150D02*
X10469396Y-13710484D01*
X10421777Y-13500960D02*
X10374158Y-13643817D01*
X10374158Y-13643817D02*
X10497968Y-13643817D01*
X10564634Y-13510484D02*
X10564634Y-13548579D01*
X10640825Y-13510484D02*
X10640825Y-13548579D01*
X10936063Y-13786674D02*
X10926539Y-13777150D01*
X10926539Y-13777150D02*
X10907491Y-13748579D01*
X10907491Y-13748579D02*
X10897968Y-13729531D01*
X10897968Y-13729531D02*
X10888444Y-13700960D01*
X10888444Y-13700960D02*
X10878920Y-13653341D01*
X10878920Y-13653341D02*
X10878920Y-13615246D01*
X10878920Y-13615246D02*
X10888444Y-13567627D01*
X10888444Y-13567627D02*
X10897968Y-13539055D01*
X10897968Y-13539055D02*
X10907491Y-13520008D01*
X10907491Y-13520008D02*
X10926539Y-13491436D01*
X10926539Y-13491436D02*
X10936063Y-13481912D01*
X10993206Y-13510484D02*
X11117015Y-13510484D01*
X11117015Y-13510484D02*
X11050349Y-13586674D01*
X11050349Y-13586674D02*
X11078920Y-13586674D01*
X11078920Y-13586674D02*
X11097968Y-13596198D01*
X11097968Y-13596198D02*
X11107491Y-13605722D01*
X11107491Y-13605722D02*
X11117015Y-13624769D01*
X11117015Y-13624769D02*
X11117015Y-13672388D01*
X11117015Y-13672388D02*
X11107491Y-13691436D01*
X11107491Y-13691436D02*
X11097968Y-13700960D01*
X11097968Y-13700960D02*
X11078920Y-13710484D01*
X11078920Y-13710484D02*
X11021777Y-13710484D01*
X11021777Y-13710484D02*
X11002730Y-13700960D01*
X11002730Y-13700960D02*
X10993206Y-13691436D01*
X11355110Y-13710484D02*
X11355110Y-13510484D01*
X11440825Y-13710484D02*
X11440825Y-13605722D01*
X11440825Y-13605722D02*
X11431301Y-13586674D01*
X11431301Y-13586674D02*
X11412253Y-13577150D01*
X11412253Y-13577150D02*
X11383682Y-13577150D01*
X11383682Y-13577150D02*
X11364634Y-13586674D01*
X11364634Y-13586674D02*
X11355110Y-13596198D01*
X11564634Y-13710484D02*
X11545587Y-13700960D01*
X11545587Y-13700960D02*
X11536063Y-13691436D01*
X11536063Y-13691436D02*
X11526539Y-13672388D01*
X11526539Y-13672388D02*
X11526539Y-13615246D01*
X11526539Y-13615246D02*
X11536063Y-13596198D01*
X11536063Y-13596198D02*
X11545587Y-13586674D01*
X11545587Y-13586674D02*
X11564634Y-13577150D01*
X11564634Y-13577150D02*
X11593206Y-13577150D01*
X11593206Y-13577150D02*
X11612253Y-13586674D01*
X11612253Y-13586674D02*
X11621777Y-13596198D01*
X11621777Y-13596198D02*
X11631301Y-13615246D01*
X11631301Y-13615246D02*
X11631301Y-13672388D01*
X11631301Y-13672388D02*
X11621777Y-13691436D01*
X11621777Y-13691436D02*
X11612253Y-13700960D01*
X11612253Y-13700960D02*
X11593206Y-13710484D01*
X11593206Y-13710484D02*
X11564634Y-13710484D01*
X11745587Y-13710484D02*
X11726539Y-13700960D01*
X11726539Y-13700960D02*
X11717015Y-13681912D01*
X11717015Y-13681912D02*
X11717015Y-13510484D01*
X11897968Y-13700960D02*
X11878920Y-13710484D01*
X11878920Y-13710484D02*
X11840825Y-13710484D01*
X11840825Y-13710484D02*
X11821777Y-13700960D01*
X11821777Y-13700960D02*
X11812253Y-13681912D01*
X11812253Y-13681912D02*
X11812253Y-13605722D01*
X11812253Y-13605722D02*
X11821777Y-13586674D01*
X11821777Y-13586674D02*
X11840825Y-13577150D01*
X11840825Y-13577150D02*
X11878920Y-13577150D01*
X11878920Y-13577150D02*
X11897968Y-13586674D01*
X11897968Y-13586674D02*
X11907491Y-13605722D01*
X11907491Y-13605722D02*
X11907491Y-13624769D01*
X11907491Y-13624769D02*
X11812253Y-13643817D01*
X11983682Y-13700960D02*
X12002730Y-13710484D01*
X12002730Y-13710484D02*
X12040825Y-13710484D01*
X12040825Y-13710484D02*
X12059872Y-13700960D01*
X12059872Y-13700960D02*
X12069396Y-13681912D01*
X12069396Y-13681912D02*
X12069396Y-13672388D01*
X12069396Y-13672388D02*
X12059872Y-13653341D01*
X12059872Y-13653341D02*
X12040825Y-13643817D01*
X12040825Y-13643817D02*
X12012253Y-13643817D01*
X12012253Y-13643817D02*
X11993206Y-13634293D01*
X11993206Y-13634293D02*
X11983682Y-13615246D01*
X11983682Y-13615246D02*
X11983682Y-13605722D01*
X11983682Y-13605722D02*
X11993206Y-13586674D01*
X11993206Y-13586674D02*
X12012253Y-13577150D01*
X12012253Y-13577150D02*
X12040825Y-13577150D01*
X12040825Y-13577150D02*
X12059872Y-13586674D01*
X12136063Y-13786674D02*
X12145587Y-13777150D01*
X12145587Y-13777150D02*
X12164634Y-13748579D01*
X12164634Y-13748579D02*
X12174158Y-13729531D01*
X12174158Y-13729531D02*
X12183682Y-13700960D01*
X12183682Y-13700960D02*
X12193206Y-13653341D01*
X12193206Y-13653341D02*
X12193206Y-13615246D01*
X12193206Y-13615246D02*
X12183682Y-13567627D01*
X12183682Y-13567627D02*
X12174158Y-13539055D01*
X12174158Y-13539055D02*
X12164634Y-13520008D01*
X12164634Y-13520008D02*
X12145587Y-13491436D01*
X12145587Y-13491436D02*
X12136063Y-13481912D01*
D12*
X7339033Y-13936033D02*
X7339033Y-13829966D01*
X7232966Y-13829966D01*
X7232966Y-13936033D01*
X7339033Y-13936033D01*
D11*
X7726539Y-13974484D02*
X7612253Y-13974484D01*
X7669396Y-13974484D02*
X7669396Y-13774484D01*
X7669396Y-13774484D02*
X7650348Y-13803055D01*
X7650348Y-13803055D02*
X7631301Y-13822103D01*
X7631301Y-13822103D02*
X7612253Y-13831627D01*
X7812253Y-13955436D02*
X7821777Y-13964960D01*
X7821777Y-13964960D02*
X7812253Y-13974484D01*
X7812253Y-13974484D02*
X7802729Y-13964960D01*
X7802729Y-13964960D02*
X7812253Y-13955436D01*
X7812253Y-13955436D02*
X7812253Y-13974484D01*
X8002729Y-13774484D02*
X7907491Y-13774484D01*
X7907491Y-13774484D02*
X7897967Y-13869722D01*
X7897967Y-13869722D02*
X7907491Y-13860198D01*
X7907491Y-13860198D02*
X7926539Y-13850674D01*
X7926539Y-13850674D02*
X7974158Y-13850674D01*
X7974158Y-13850674D02*
X7993205Y-13860198D01*
X7993205Y-13860198D02*
X8002729Y-13869722D01*
X8002729Y-13869722D02*
X8012253Y-13888769D01*
X8012253Y-13888769D02*
X8012253Y-13936388D01*
X8012253Y-13936388D02*
X8002729Y-13955436D01*
X8002729Y-13955436D02*
X7993205Y-13964960D01*
X7993205Y-13964960D02*
X7974158Y-13974484D01*
X7974158Y-13974484D02*
X7926539Y-13974484D01*
X7926539Y-13974484D02*
X7907491Y-13964960D01*
X7907491Y-13964960D02*
X7897967Y-13955436D01*
X8136062Y-13774484D02*
X8155110Y-13774484D01*
X8155110Y-13774484D02*
X8174158Y-13784008D01*
X8174158Y-13784008D02*
X8183682Y-13793531D01*
X8183682Y-13793531D02*
X8193205Y-13812579D01*
X8193205Y-13812579D02*
X8202729Y-13850674D01*
X8202729Y-13850674D02*
X8202729Y-13898293D01*
X8202729Y-13898293D02*
X8193205Y-13936388D01*
X8193205Y-13936388D02*
X8183682Y-13955436D01*
X8183682Y-13955436D02*
X8174158Y-13964960D01*
X8174158Y-13964960D02*
X8155110Y-13974484D01*
X8155110Y-13974484D02*
X8136062Y-13974484D01*
X8136062Y-13974484D02*
X8117015Y-13964960D01*
X8117015Y-13964960D02*
X8107491Y-13955436D01*
X8107491Y-13955436D02*
X8097967Y-13936388D01*
X8097967Y-13936388D02*
X8088443Y-13898293D01*
X8088443Y-13898293D02*
X8088443Y-13850674D01*
X8088443Y-13850674D02*
X8097967Y-13812579D01*
X8097967Y-13812579D02*
X8107491Y-13793531D01*
X8107491Y-13793531D02*
X8117015Y-13784008D01*
X8117015Y-13784008D02*
X8136062Y-13774484D01*
X8326539Y-13774484D02*
X8345586Y-13774484D01*
X8345586Y-13774484D02*
X8364634Y-13784008D01*
X8364634Y-13784008D02*
X8374158Y-13793531D01*
X8374158Y-13793531D02*
X8383682Y-13812579D01*
X8383682Y-13812579D02*
X8393205Y-13850674D01*
X8393205Y-13850674D02*
X8393205Y-13898293D01*
X8393205Y-13898293D02*
X8383682Y-13936388D01*
X8383682Y-13936388D02*
X8374158Y-13955436D01*
X8374158Y-13955436D02*
X8364634Y-13964960D01*
X8364634Y-13964960D02*
X8345586Y-13974484D01*
X8345586Y-13974484D02*
X8326539Y-13974484D01*
X8326539Y-13974484D02*
X8307491Y-13964960D01*
X8307491Y-13964960D02*
X8297967Y-13955436D01*
X8297967Y-13955436D02*
X8288443Y-13936388D01*
X8288443Y-13936388D02*
X8278920Y-13898293D01*
X8278920Y-13898293D02*
X8278920Y-13850674D01*
X8278920Y-13850674D02*
X8288443Y-13812579D01*
X8288443Y-13812579D02*
X8297967Y-13793531D01*
X8297967Y-13793531D02*
X8307491Y-13784008D01*
X8307491Y-13784008D02*
X8326539Y-13774484D01*
X8478920Y-13974484D02*
X8478920Y-13841150D01*
X8478920Y-13860198D02*
X8488444Y-13850674D01*
X8488444Y-13850674D02*
X8507491Y-13841150D01*
X8507491Y-13841150D02*
X8536063Y-13841150D01*
X8536063Y-13841150D02*
X8555110Y-13850674D01*
X8555110Y-13850674D02*
X8564634Y-13869722D01*
X8564634Y-13869722D02*
X8564634Y-13974484D01*
X8564634Y-13869722D02*
X8574158Y-13850674D01*
X8574158Y-13850674D02*
X8593205Y-13841150D01*
X8593205Y-13841150D02*
X8621777Y-13841150D01*
X8621777Y-13841150D02*
X8640825Y-13850674D01*
X8640825Y-13850674D02*
X8650348Y-13869722D01*
X8650348Y-13869722D02*
X8650348Y-13974484D01*
X8745586Y-13974484D02*
X8745586Y-13841150D01*
X8745586Y-13860198D02*
X8755110Y-13850674D01*
X8755110Y-13850674D02*
X8774158Y-13841150D01*
X8774158Y-13841150D02*
X8802729Y-13841150D01*
X8802729Y-13841150D02*
X8821777Y-13850674D01*
X8821777Y-13850674D02*
X8831301Y-13869722D01*
X8831301Y-13869722D02*
X8831301Y-13974484D01*
X8831301Y-13869722D02*
X8840825Y-13850674D01*
X8840825Y-13850674D02*
X8859872Y-13841150D01*
X8859872Y-13841150D02*
X8888444Y-13841150D01*
X8888444Y-13841150D02*
X8907491Y-13850674D01*
X8907491Y-13850674D02*
X8917015Y-13869722D01*
X8917015Y-13869722D02*
X8917015Y-13974484D01*
X9307491Y-13764960D02*
X9136063Y-14022103D01*
X9564634Y-13774484D02*
X9583682Y-13774484D01*
X9583682Y-13774484D02*
X9602729Y-13784008D01*
X9602729Y-13784008D02*
X9612253Y-13793531D01*
X9612253Y-13793531D02*
X9621777Y-13812579D01*
X9621777Y-13812579D02*
X9631301Y-13850674D01*
X9631301Y-13850674D02*
X9631301Y-13898293D01*
X9631301Y-13898293D02*
X9621777Y-13936388D01*
X9621777Y-13936388D02*
X9612253Y-13955436D01*
X9612253Y-13955436D02*
X9602729Y-13964960D01*
X9602729Y-13964960D02*
X9583682Y-13974484D01*
X9583682Y-13974484D02*
X9564634Y-13974484D01*
X9564634Y-13974484D02*
X9545587Y-13964960D01*
X9545587Y-13964960D02*
X9536063Y-13955436D01*
X9536063Y-13955436D02*
X9526539Y-13936388D01*
X9526539Y-13936388D02*
X9517015Y-13898293D01*
X9517015Y-13898293D02*
X9517015Y-13850674D01*
X9517015Y-13850674D02*
X9526539Y-13812579D01*
X9526539Y-13812579D02*
X9536063Y-13793531D01*
X9536063Y-13793531D02*
X9545587Y-13784008D01*
X9545587Y-13784008D02*
X9564634Y-13774484D01*
X9717015Y-13955436D02*
X9726539Y-13964960D01*
X9726539Y-13964960D02*
X9717015Y-13974484D01*
X9717015Y-13974484D02*
X9707491Y-13964960D01*
X9707491Y-13964960D02*
X9717015Y-13955436D01*
X9717015Y-13955436D02*
X9717015Y-13974484D01*
X9850348Y-13774484D02*
X9869396Y-13774484D01*
X9869396Y-13774484D02*
X9888444Y-13784008D01*
X9888444Y-13784008D02*
X9897968Y-13793531D01*
X9897968Y-13793531D02*
X9907491Y-13812579D01*
X9907491Y-13812579D02*
X9917015Y-13850674D01*
X9917015Y-13850674D02*
X9917015Y-13898293D01*
X9917015Y-13898293D02*
X9907491Y-13936388D01*
X9907491Y-13936388D02*
X9897968Y-13955436D01*
X9897968Y-13955436D02*
X9888444Y-13964960D01*
X9888444Y-13964960D02*
X9869396Y-13974484D01*
X9869396Y-13974484D02*
X9850348Y-13974484D01*
X9850348Y-13974484D02*
X9831301Y-13964960D01*
X9831301Y-13964960D02*
X9821777Y-13955436D01*
X9821777Y-13955436D02*
X9812253Y-13936388D01*
X9812253Y-13936388D02*
X9802729Y-13898293D01*
X9802729Y-13898293D02*
X9802729Y-13850674D01*
X9802729Y-13850674D02*
X9812253Y-13812579D01*
X9812253Y-13812579D02*
X9821777Y-13793531D01*
X9821777Y-13793531D02*
X9831301Y-13784008D01*
X9831301Y-13784008D02*
X9850348Y-13774484D01*
X10097968Y-13774484D02*
X10002729Y-13774484D01*
X10002729Y-13774484D02*
X9993206Y-13869722D01*
X9993206Y-13869722D02*
X10002729Y-13860198D01*
X10002729Y-13860198D02*
X10021777Y-13850674D01*
X10021777Y-13850674D02*
X10069396Y-13850674D01*
X10069396Y-13850674D02*
X10088444Y-13860198D01*
X10088444Y-13860198D02*
X10097968Y-13869722D01*
X10097968Y-13869722D02*
X10107491Y-13888769D01*
X10107491Y-13888769D02*
X10107491Y-13936388D01*
X10107491Y-13936388D02*
X10097968Y-13955436D01*
X10097968Y-13955436D02*
X10088444Y-13964960D01*
X10088444Y-13964960D02*
X10069396Y-13974484D01*
X10069396Y-13974484D02*
X10021777Y-13974484D01*
X10021777Y-13974484D02*
X10002729Y-13964960D01*
X10002729Y-13964960D02*
X9993206Y-13955436D01*
X10202729Y-13974484D02*
X10240825Y-13974484D01*
X10240825Y-13974484D02*
X10259872Y-13964960D01*
X10259872Y-13964960D02*
X10269396Y-13955436D01*
X10269396Y-13955436D02*
X10288444Y-13926865D01*
X10288444Y-13926865D02*
X10297968Y-13888769D01*
X10297968Y-13888769D02*
X10297968Y-13812579D01*
X10297968Y-13812579D02*
X10288444Y-13793531D01*
X10288444Y-13793531D02*
X10278920Y-13784008D01*
X10278920Y-13784008D02*
X10259872Y-13774484D01*
X10259872Y-13774484D02*
X10221777Y-13774484D01*
X10221777Y-13774484D02*
X10202729Y-13784008D01*
X10202729Y-13784008D02*
X10193206Y-13793531D01*
X10193206Y-13793531D02*
X10183682Y-13812579D01*
X10183682Y-13812579D02*
X10183682Y-13860198D01*
X10183682Y-13860198D02*
X10193206Y-13879246D01*
X10193206Y-13879246D02*
X10202729Y-13888769D01*
X10202729Y-13888769D02*
X10221777Y-13898293D01*
X10221777Y-13898293D02*
X10259872Y-13898293D01*
X10259872Y-13898293D02*
X10278920Y-13888769D01*
X10278920Y-13888769D02*
X10288444Y-13879246D01*
X10288444Y-13879246D02*
X10297968Y-13860198D01*
X10488444Y-13974484D02*
X10374158Y-13974484D01*
X10431301Y-13974484D02*
X10431301Y-13774484D01*
X10431301Y-13774484D02*
X10412253Y-13803055D01*
X10412253Y-13803055D02*
X10393206Y-13822103D01*
X10393206Y-13822103D02*
X10374158Y-13831627D01*
X10564634Y-13774484D02*
X10564634Y-13812579D01*
X10640825Y-13774484D02*
X10640825Y-13812579D01*
X10936063Y-14050674D02*
X10926539Y-14041150D01*
X10926539Y-14041150D02*
X10907491Y-14012579D01*
X10907491Y-14012579D02*
X10897968Y-13993531D01*
X10897968Y-13993531D02*
X10888444Y-13964960D01*
X10888444Y-13964960D02*
X10878920Y-13917341D01*
X10878920Y-13917341D02*
X10878920Y-13879246D01*
X10878920Y-13879246D02*
X10888444Y-13831627D01*
X10888444Y-13831627D02*
X10897968Y-13803055D01*
X10897968Y-13803055D02*
X10907491Y-13784008D01*
X10907491Y-13784008D02*
X10926539Y-13755436D01*
X10926539Y-13755436D02*
X10936063Y-13745912D01*
X11097968Y-13841150D02*
X11097968Y-13974484D01*
X11050349Y-13764960D02*
X11002730Y-13907817D01*
X11002730Y-13907817D02*
X11126539Y-13907817D01*
X11355110Y-13974484D02*
X11355110Y-13774484D01*
X11440825Y-13974484D02*
X11440825Y-13869722D01*
X11440825Y-13869722D02*
X11431301Y-13850674D01*
X11431301Y-13850674D02*
X11412253Y-13841150D01*
X11412253Y-13841150D02*
X11383682Y-13841150D01*
X11383682Y-13841150D02*
X11364634Y-13850674D01*
X11364634Y-13850674D02*
X11355110Y-13860198D01*
X11564634Y-13974484D02*
X11545587Y-13964960D01*
X11545587Y-13964960D02*
X11536063Y-13955436D01*
X11536063Y-13955436D02*
X11526539Y-13936388D01*
X11526539Y-13936388D02*
X11526539Y-13879246D01*
X11526539Y-13879246D02*
X11536063Y-13860198D01*
X11536063Y-13860198D02*
X11545587Y-13850674D01*
X11545587Y-13850674D02*
X11564634Y-13841150D01*
X11564634Y-13841150D02*
X11593206Y-13841150D01*
X11593206Y-13841150D02*
X11612253Y-13850674D01*
X11612253Y-13850674D02*
X11621777Y-13860198D01*
X11621777Y-13860198D02*
X11631301Y-13879246D01*
X11631301Y-13879246D02*
X11631301Y-13936388D01*
X11631301Y-13936388D02*
X11621777Y-13955436D01*
X11621777Y-13955436D02*
X11612253Y-13964960D01*
X11612253Y-13964960D02*
X11593206Y-13974484D01*
X11593206Y-13974484D02*
X11564634Y-13974484D01*
X11745587Y-13974484D02*
X11726539Y-13964960D01*
X11726539Y-13964960D02*
X11717015Y-13945912D01*
X11717015Y-13945912D02*
X11717015Y-13774484D01*
X11897968Y-13964960D02*
X11878920Y-13974484D01*
X11878920Y-13974484D02*
X11840825Y-13974484D01*
X11840825Y-13974484D02*
X11821777Y-13964960D01*
X11821777Y-13964960D02*
X11812253Y-13945912D01*
X11812253Y-13945912D02*
X11812253Y-13869722D01*
X11812253Y-13869722D02*
X11821777Y-13850674D01*
X11821777Y-13850674D02*
X11840825Y-13841150D01*
X11840825Y-13841150D02*
X11878920Y-13841150D01*
X11878920Y-13841150D02*
X11897968Y-13850674D01*
X11897968Y-13850674D02*
X11907491Y-13869722D01*
X11907491Y-13869722D02*
X11907491Y-13888769D01*
X11907491Y-13888769D02*
X11812253Y-13907817D01*
X11983682Y-13964960D02*
X12002730Y-13974484D01*
X12002730Y-13974484D02*
X12040825Y-13974484D01*
X12040825Y-13974484D02*
X12059872Y-13964960D01*
X12059872Y-13964960D02*
X12069396Y-13945912D01*
X12069396Y-13945912D02*
X12069396Y-13936388D01*
X12069396Y-13936388D02*
X12059872Y-13917341D01*
X12059872Y-13917341D02*
X12040825Y-13907817D01*
X12040825Y-13907817D02*
X12012253Y-13907817D01*
X12012253Y-13907817D02*
X11993206Y-13898293D01*
X11993206Y-13898293D02*
X11983682Y-13879246D01*
X11983682Y-13879246D02*
X11983682Y-13869722D01*
X11983682Y-13869722D02*
X11993206Y-13850674D01*
X11993206Y-13850674D02*
X12012253Y-13841150D01*
X12012253Y-13841150D02*
X12040825Y-13841150D01*
X12040825Y-13841150D02*
X12059872Y-13850674D01*
X12136063Y-14050674D02*
X12145587Y-14041150D01*
X12145587Y-14041150D02*
X12164634Y-14012579D01*
X12164634Y-14012579D02*
X12174158Y-13993531D01*
X12174158Y-13993531D02*
X12183682Y-13964960D01*
X12183682Y-13964960D02*
X12193206Y-13917341D01*
X12193206Y-13917341D02*
X12193206Y-13879246D01*
X12193206Y-13879246D02*
X12183682Y-13831627D01*
X12183682Y-13831627D02*
X12174158Y-13803055D01*
X12174158Y-13803055D02*
X12164634Y-13784008D01*
X12164634Y-13784008D02*
X12145587Y-13755436D01*
X12145587Y-13755436D02*
X12136063Y-13745912D01*
X7261000Y-14253000D02*
X7361000Y-14153000D01*
X7261000Y-14053000D01*
X7161000Y-14153000D01*
X7261000Y-14253000D01*
X7612253Y-14063531D02*
X7621777Y-14054008D01*
X7621777Y-14054008D02*
X7640824Y-14044484D01*
X7640824Y-14044484D02*
X7688443Y-14044484D01*
X7688443Y-14044484D02*
X7707491Y-14054008D01*
X7707491Y-14054008D02*
X7717015Y-14063531D01*
X7717015Y-14063531D02*
X7726539Y-14082579D01*
X7726539Y-14082579D02*
X7726539Y-14101627D01*
X7726539Y-14101627D02*
X7717015Y-14130198D01*
X7717015Y-14130198D02*
X7602729Y-14244484D01*
X7602729Y-14244484D02*
X7726539Y-14244484D01*
X7812253Y-14225436D02*
X7821777Y-14234960D01*
X7821777Y-14234960D02*
X7812253Y-14244484D01*
X7812253Y-14244484D02*
X7802729Y-14234960D01*
X7802729Y-14234960D02*
X7812253Y-14225436D01*
X7812253Y-14225436D02*
X7812253Y-14244484D01*
X7945586Y-14044484D02*
X7964634Y-14044484D01*
X7964634Y-14044484D02*
X7983682Y-14054008D01*
X7983682Y-14054008D02*
X7993205Y-14063531D01*
X7993205Y-14063531D02*
X8002729Y-14082579D01*
X8002729Y-14082579D02*
X8012253Y-14120674D01*
X8012253Y-14120674D02*
X8012253Y-14168293D01*
X8012253Y-14168293D02*
X8002729Y-14206388D01*
X8002729Y-14206388D02*
X7993205Y-14225436D01*
X7993205Y-14225436D02*
X7983682Y-14234960D01*
X7983682Y-14234960D02*
X7964634Y-14244484D01*
X7964634Y-14244484D02*
X7945586Y-14244484D01*
X7945586Y-14244484D02*
X7926539Y-14234960D01*
X7926539Y-14234960D02*
X7917015Y-14225436D01*
X7917015Y-14225436D02*
X7907491Y-14206388D01*
X7907491Y-14206388D02*
X7897967Y-14168293D01*
X7897967Y-14168293D02*
X7897967Y-14120674D01*
X7897967Y-14120674D02*
X7907491Y-14082579D01*
X7907491Y-14082579D02*
X7917015Y-14063531D01*
X7917015Y-14063531D02*
X7926539Y-14054008D01*
X7926539Y-14054008D02*
X7945586Y-14044484D01*
X8136062Y-14044484D02*
X8155110Y-14044484D01*
X8155110Y-14044484D02*
X8174158Y-14054008D01*
X8174158Y-14054008D02*
X8183682Y-14063531D01*
X8183682Y-14063531D02*
X8193205Y-14082579D01*
X8193205Y-14082579D02*
X8202729Y-14120674D01*
X8202729Y-14120674D02*
X8202729Y-14168293D01*
X8202729Y-14168293D02*
X8193205Y-14206388D01*
X8193205Y-14206388D02*
X8183682Y-14225436D01*
X8183682Y-14225436D02*
X8174158Y-14234960D01*
X8174158Y-14234960D02*
X8155110Y-14244484D01*
X8155110Y-14244484D02*
X8136062Y-14244484D01*
X8136062Y-14244484D02*
X8117015Y-14234960D01*
X8117015Y-14234960D02*
X8107491Y-14225436D01*
X8107491Y-14225436D02*
X8097967Y-14206388D01*
X8097967Y-14206388D02*
X8088443Y-14168293D01*
X8088443Y-14168293D02*
X8088443Y-14120674D01*
X8088443Y-14120674D02*
X8097967Y-14082579D01*
X8097967Y-14082579D02*
X8107491Y-14063531D01*
X8107491Y-14063531D02*
X8117015Y-14054008D01*
X8117015Y-14054008D02*
X8136062Y-14044484D01*
X8326539Y-14044484D02*
X8345586Y-14044484D01*
X8345586Y-14044484D02*
X8364634Y-14054008D01*
X8364634Y-14054008D02*
X8374158Y-14063531D01*
X8374158Y-14063531D02*
X8383682Y-14082579D01*
X8383682Y-14082579D02*
X8393205Y-14120674D01*
X8393205Y-14120674D02*
X8393205Y-14168293D01*
X8393205Y-14168293D02*
X8383682Y-14206388D01*
X8383682Y-14206388D02*
X8374158Y-14225436D01*
X8374158Y-14225436D02*
X8364634Y-14234960D01*
X8364634Y-14234960D02*
X8345586Y-14244484D01*
X8345586Y-14244484D02*
X8326539Y-14244484D01*
X8326539Y-14244484D02*
X8307491Y-14234960D01*
X8307491Y-14234960D02*
X8297967Y-14225436D01*
X8297967Y-14225436D02*
X8288443Y-14206388D01*
X8288443Y-14206388D02*
X8278920Y-14168293D01*
X8278920Y-14168293D02*
X8278920Y-14120674D01*
X8278920Y-14120674D02*
X8288443Y-14082579D01*
X8288443Y-14082579D02*
X8297967Y-14063531D01*
X8297967Y-14063531D02*
X8307491Y-14054008D01*
X8307491Y-14054008D02*
X8326539Y-14044484D01*
X8478920Y-14244484D02*
X8478920Y-14111150D01*
X8478920Y-14130198D02*
X8488444Y-14120674D01*
X8488444Y-14120674D02*
X8507491Y-14111150D01*
X8507491Y-14111150D02*
X8536063Y-14111150D01*
X8536063Y-14111150D02*
X8555110Y-14120674D01*
X8555110Y-14120674D02*
X8564634Y-14139722D01*
X8564634Y-14139722D02*
X8564634Y-14244484D01*
X8564634Y-14139722D02*
X8574158Y-14120674D01*
X8574158Y-14120674D02*
X8593205Y-14111150D01*
X8593205Y-14111150D02*
X8621777Y-14111150D01*
X8621777Y-14111150D02*
X8640825Y-14120674D01*
X8640825Y-14120674D02*
X8650348Y-14139722D01*
X8650348Y-14139722D02*
X8650348Y-14244484D01*
X8745586Y-14244484D02*
X8745586Y-14111150D01*
X8745586Y-14130198D02*
X8755110Y-14120674D01*
X8755110Y-14120674D02*
X8774158Y-14111150D01*
X8774158Y-14111150D02*
X8802729Y-14111150D01*
X8802729Y-14111150D02*
X8821777Y-14120674D01*
X8821777Y-14120674D02*
X8831301Y-14139722D01*
X8831301Y-14139722D02*
X8831301Y-14244484D01*
X8831301Y-14139722D02*
X8840825Y-14120674D01*
X8840825Y-14120674D02*
X8859872Y-14111150D01*
X8859872Y-14111150D02*
X8888444Y-14111150D01*
X8888444Y-14111150D02*
X8907491Y-14120674D01*
X8907491Y-14120674D02*
X8917015Y-14139722D01*
X8917015Y-14139722D02*
X8917015Y-14244484D01*
X9307491Y-14034960D02*
X9136063Y-14292103D01*
X9564634Y-14044484D02*
X9583682Y-14044484D01*
X9583682Y-14044484D02*
X9602729Y-14054008D01*
X9602729Y-14054008D02*
X9612253Y-14063531D01*
X9612253Y-14063531D02*
X9621777Y-14082579D01*
X9621777Y-14082579D02*
X9631301Y-14120674D01*
X9631301Y-14120674D02*
X9631301Y-14168293D01*
X9631301Y-14168293D02*
X9621777Y-14206388D01*
X9621777Y-14206388D02*
X9612253Y-14225436D01*
X9612253Y-14225436D02*
X9602729Y-14234960D01*
X9602729Y-14234960D02*
X9583682Y-14244484D01*
X9583682Y-14244484D02*
X9564634Y-14244484D01*
X9564634Y-14244484D02*
X9545587Y-14234960D01*
X9545587Y-14234960D02*
X9536063Y-14225436D01*
X9536063Y-14225436D02*
X9526539Y-14206388D01*
X9526539Y-14206388D02*
X9517015Y-14168293D01*
X9517015Y-14168293D02*
X9517015Y-14120674D01*
X9517015Y-14120674D02*
X9526539Y-14082579D01*
X9526539Y-14082579D02*
X9536063Y-14063531D01*
X9536063Y-14063531D02*
X9545587Y-14054008D01*
X9545587Y-14054008D02*
X9564634Y-14044484D01*
X9717015Y-14225436D02*
X9726539Y-14234960D01*
X9726539Y-14234960D02*
X9717015Y-14244484D01*
X9717015Y-14244484D02*
X9707491Y-14234960D01*
X9707491Y-14234960D02*
X9717015Y-14225436D01*
X9717015Y-14225436D02*
X9717015Y-14244484D01*
X9850348Y-14044484D02*
X9869396Y-14044484D01*
X9869396Y-14044484D02*
X9888444Y-14054008D01*
X9888444Y-14054008D02*
X9897968Y-14063531D01*
X9897968Y-14063531D02*
X9907491Y-14082579D01*
X9907491Y-14082579D02*
X9917015Y-14120674D01*
X9917015Y-14120674D02*
X9917015Y-14168293D01*
X9917015Y-14168293D02*
X9907491Y-14206388D01*
X9907491Y-14206388D02*
X9897968Y-14225436D01*
X9897968Y-14225436D02*
X9888444Y-14234960D01*
X9888444Y-14234960D02*
X9869396Y-14244484D01*
X9869396Y-14244484D02*
X9850348Y-14244484D01*
X9850348Y-14244484D02*
X9831301Y-14234960D01*
X9831301Y-14234960D02*
X9821777Y-14225436D01*
X9821777Y-14225436D02*
X9812253Y-14206388D01*
X9812253Y-14206388D02*
X9802729Y-14168293D01*
X9802729Y-14168293D02*
X9802729Y-14120674D01*
X9802729Y-14120674D02*
X9812253Y-14082579D01*
X9812253Y-14082579D02*
X9821777Y-14063531D01*
X9821777Y-14063531D02*
X9831301Y-14054008D01*
X9831301Y-14054008D02*
X9850348Y-14044484D01*
X9983682Y-14044484D02*
X10117015Y-14044484D01*
X10117015Y-14044484D02*
X10031301Y-14244484D01*
X10221777Y-14130198D02*
X10202729Y-14120674D01*
X10202729Y-14120674D02*
X10193206Y-14111150D01*
X10193206Y-14111150D02*
X10183682Y-14092103D01*
X10183682Y-14092103D02*
X10183682Y-14082579D01*
X10183682Y-14082579D02*
X10193206Y-14063531D01*
X10193206Y-14063531D02*
X10202729Y-14054008D01*
X10202729Y-14054008D02*
X10221777Y-14044484D01*
X10221777Y-14044484D02*
X10259872Y-14044484D01*
X10259872Y-14044484D02*
X10278920Y-14054008D01*
X10278920Y-14054008D02*
X10288444Y-14063531D01*
X10288444Y-14063531D02*
X10297968Y-14082579D01*
X10297968Y-14082579D02*
X10297968Y-14092103D01*
X10297968Y-14092103D02*
X10288444Y-14111150D01*
X10288444Y-14111150D02*
X10278920Y-14120674D01*
X10278920Y-14120674D02*
X10259872Y-14130198D01*
X10259872Y-14130198D02*
X10221777Y-14130198D01*
X10221777Y-14130198D02*
X10202729Y-14139722D01*
X10202729Y-14139722D02*
X10193206Y-14149246D01*
X10193206Y-14149246D02*
X10183682Y-14168293D01*
X10183682Y-14168293D02*
X10183682Y-14206388D01*
X10183682Y-14206388D02*
X10193206Y-14225436D01*
X10193206Y-14225436D02*
X10202729Y-14234960D01*
X10202729Y-14234960D02*
X10221777Y-14244484D01*
X10221777Y-14244484D02*
X10259872Y-14244484D01*
X10259872Y-14244484D02*
X10278920Y-14234960D01*
X10278920Y-14234960D02*
X10288444Y-14225436D01*
X10288444Y-14225436D02*
X10297968Y-14206388D01*
X10297968Y-14206388D02*
X10297968Y-14168293D01*
X10297968Y-14168293D02*
X10288444Y-14149246D01*
X10288444Y-14149246D02*
X10278920Y-14139722D01*
X10278920Y-14139722D02*
X10259872Y-14130198D01*
X10364634Y-14044484D02*
X10497968Y-14044484D01*
X10497968Y-14044484D02*
X10412253Y-14244484D01*
X10564634Y-14044484D02*
X10564634Y-14082579D01*
X10640825Y-14044484D02*
X10640825Y-14082579D01*
X10936063Y-14320674D02*
X10926539Y-14311150D01*
X10926539Y-14311150D02*
X10907491Y-14282579D01*
X10907491Y-14282579D02*
X10897968Y-14263531D01*
X10897968Y-14263531D02*
X10888444Y-14234960D01*
X10888444Y-14234960D02*
X10878920Y-14187341D01*
X10878920Y-14187341D02*
X10878920Y-14149246D01*
X10878920Y-14149246D02*
X10888444Y-14101627D01*
X10888444Y-14101627D02*
X10897968Y-14073055D01*
X10897968Y-14073055D02*
X10907491Y-14054008D01*
X10907491Y-14054008D02*
X10926539Y-14025436D01*
X10926539Y-14025436D02*
X10936063Y-14015912D01*
X11107491Y-14044484D02*
X11012253Y-14044484D01*
X11012253Y-14044484D02*
X11002730Y-14139722D01*
X11002730Y-14139722D02*
X11012253Y-14130198D01*
X11012253Y-14130198D02*
X11031301Y-14120674D01*
X11031301Y-14120674D02*
X11078920Y-14120674D01*
X11078920Y-14120674D02*
X11097968Y-14130198D01*
X11097968Y-14130198D02*
X11107491Y-14139722D01*
X11107491Y-14139722D02*
X11117015Y-14158769D01*
X11117015Y-14158769D02*
X11117015Y-14206388D01*
X11117015Y-14206388D02*
X11107491Y-14225436D01*
X11107491Y-14225436D02*
X11097968Y-14234960D01*
X11097968Y-14234960D02*
X11078920Y-14244484D01*
X11078920Y-14244484D02*
X11031301Y-14244484D01*
X11031301Y-14244484D02*
X11012253Y-14234960D01*
X11012253Y-14234960D02*
X11002730Y-14225436D01*
X11355110Y-14244484D02*
X11355110Y-14044484D01*
X11440825Y-14244484D02*
X11440825Y-14139722D01*
X11440825Y-14139722D02*
X11431301Y-14120674D01*
X11431301Y-14120674D02*
X11412253Y-14111150D01*
X11412253Y-14111150D02*
X11383682Y-14111150D01*
X11383682Y-14111150D02*
X11364634Y-14120674D01*
X11364634Y-14120674D02*
X11355110Y-14130198D01*
X11564634Y-14244484D02*
X11545587Y-14234960D01*
X11545587Y-14234960D02*
X11536063Y-14225436D01*
X11536063Y-14225436D02*
X11526539Y-14206388D01*
X11526539Y-14206388D02*
X11526539Y-14149246D01*
X11526539Y-14149246D02*
X11536063Y-14130198D01*
X11536063Y-14130198D02*
X11545587Y-14120674D01*
X11545587Y-14120674D02*
X11564634Y-14111150D01*
X11564634Y-14111150D02*
X11593206Y-14111150D01*
X11593206Y-14111150D02*
X11612253Y-14120674D01*
X11612253Y-14120674D02*
X11621777Y-14130198D01*
X11621777Y-14130198D02*
X11631301Y-14149246D01*
X11631301Y-14149246D02*
X11631301Y-14206388D01*
X11631301Y-14206388D02*
X11621777Y-14225436D01*
X11621777Y-14225436D02*
X11612253Y-14234960D01*
X11612253Y-14234960D02*
X11593206Y-14244484D01*
X11593206Y-14244484D02*
X11564634Y-14244484D01*
X11745587Y-14244484D02*
X11726539Y-14234960D01*
X11726539Y-14234960D02*
X11717015Y-14215912D01*
X11717015Y-14215912D02*
X11717015Y-14044484D01*
X11897968Y-14234960D02*
X11878920Y-14244484D01*
X11878920Y-14244484D02*
X11840825Y-14244484D01*
X11840825Y-14244484D02*
X11821777Y-14234960D01*
X11821777Y-14234960D02*
X11812253Y-14215912D01*
X11812253Y-14215912D02*
X11812253Y-14139722D01*
X11812253Y-14139722D02*
X11821777Y-14120674D01*
X11821777Y-14120674D02*
X11840825Y-14111150D01*
X11840825Y-14111150D02*
X11878920Y-14111150D01*
X11878920Y-14111150D02*
X11897968Y-14120674D01*
X11897968Y-14120674D02*
X11907491Y-14139722D01*
X11907491Y-14139722D02*
X11907491Y-14158769D01*
X11907491Y-14158769D02*
X11812253Y-14177817D01*
X11983682Y-14234960D02*
X12002730Y-14244484D01*
X12002730Y-14244484D02*
X12040825Y-14244484D01*
X12040825Y-14244484D02*
X12059872Y-14234960D01*
X12059872Y-14234960D02*
X12069396Y-14215912D01*
X12069396Y-14215912D02*
X12069396Y-14206388D01*
X12069396Y-14206388D02*
X12059872Y-14187341D01*
X12059872Y-14187341D02*
X12040825Y-14177817D01*
X12040825Y-14177817D02*
X12012253Y-14177817D01*
X12012253Y-14177817D02*
X11993206Y-14168293D01*
X11993206Y-14168293D02*
X11983682Y-14149246D01*
X11983682Y-14149246D02*
X11983682Y-14139722D01*
X11983682Y-14139722D02*
X11993206Y-14120674D01*
X11993206Y-14120674D02*
X12012253Y-14111150D01*
X12012253Y-14111150D02*
X12040825Y-14111150D01*
X12040825Y-14111150D02*
X12059872Y-14120674D01*
X12136063Y-14320674D02*
X12145587Y-14311150D01*
X12145587Y-14311150D02*
X12164634Y-14282579D01*
X12164634Y-14282579D02*
X12174158Y-14263531D01*
X12174158Y-14263531D02*
X12183682Y-14234960D01*
X12183682Y-14234960D02*
X12193206Y-14187341D01*
X12193206Y-14187341D02*
X12193206Y-14149246D01*
X12193206Y-14149246D02*
X12183682Y-14101627D01*
X12183682Y-14101627D02*
X12174158Y-14073055D01*
X12174158Y-14073055D02*
X12164634Y-14054008D01*
X12164634Y-14054008D02*
X12145587Y-14025436D01*
X12145587Y-14025436D02*
X12136063Y-14015912D01*
M02*
